<svg id="Layer_1" data-name="Layer 1" xmlns="http://www.w3.org/2000/svg" viewBox="0 0 180 180"><defs><style>.cls-1{isolation:isolate;}.cls-2{fill:#b35938;}.cls-3{fill:#89442b;}.cls-4{fill:#b45a39;}.cls-5{fill:#804028;}.cls-6{fill:#814029;}.cls-7{fill:#b25838;}.cls-8{fill:#834129;}.cls-9{fill:#824129;}.cls-10{fill:#85422a;}.cls-11{fill:#df6f46;}</style></defs><title>ICONS invente18 no bg</title><g class="cls-1"><polygon class="cls-2" points="153.805 90.71 149.226 88.219 159.606 87.486 164.185 89.977 153.805 90.71"/><polygon class="cls-3" points="120.561 104.51 115.982 102.019 117.872 93.36 122.451 95.851 120.561 104.51"/><polygon class="cls-4" points="122.451 95.851 117.872 93.36 142.257 89.19 146.836 91.681 122.451 95.851"/><polygon class="cls-5" points="120.642 108.224 116.063 105.733 112.634 93.5 117.213 95.991 120.642 108.224"/><polygon class="cls-6" points="152.954 91.737 148.375 89.246 145.861 24.219 150.44 26.71 152.954 91.737"/><polygon class="cls-7" points="111.906 95.008 107.327 92.517 113.333 92.529 117.912 95.019 111.906 95.008"/><polygon class="cls-8" points="108.768 162.956 104.189 160.465 107.327 92.517 111.906 95.008 108.768 162.956"/><polygon class="cls-4" points="150.02 15.67 145.442 13.18 146.331 13.055 150.91 15.545 150.02 15.67"/><polygon class="cls-8" points="146.836 91.681 142.257 89.19 145.442 13.18 150.02 15.67 146.836 91.681"/><polygon class="cls-9" points="108.234 174.527 103.655 172.036 101.198 93.646 105.777 96.137 108.234 174.527"/><polygon class="cls-4" points="69.556 100.268 64.977 97.777 102.057 92.566 106.636 95.057 69.556 100.268"/><polygon class="cls-10" points="67.698 117.54 63.119 115.049 64.977 97.777 69.556 100.268 67.698 117.54"/><polygon class="cls-5" points="67.764 125.103 63.185 122.612 59.75 96.204 64.329 98.695 67.764 125.103"/><polygon class="cls-4" points="60.342 98.296 55.763 95.805 60.529 95.135 65.108 97.626 60.342 98.296"/><polygon class="cls-9" points="20.4 104.869 15.821 102.378 15.823 101.418 20.402 103.909 20.4 104.869"/><polygon class="cls-4" points="20.402 103.909 15.823 101.418 47.921 96.907 52.5 99.398 20.402 103.909"/><polygon class="cls-6" points="59.483 99.376 54.904 96.885 52.365 19.51 56.944 22.001 59.483 99.376"/><polygon class="cls-11" points="57.469 10.621 60.342 98.296 65.108 97.626 67.698 117.54 69.556 100.268 106.636 95.057 108.768 162.956 111.906 95.008 117.912 95.019 120.561 104.51 122.451 95.851 146.836 91.681 150.02 15.67 150.91 15.545 153.805 90.71 164.185 89.977 164.127 90.945 152.954 91.737 150.44 26.71 147.691 92.494 123.154 96.694 120.642 108.224 117.213 95.991 112.745 95.979 109.123 174.402 108.234 174.527 105.777 96.137 70.347 101.117 67.764 125.103 64.329 98.695 59.483 99.376 56.944 22.001 53.347 100.238 20.4 104.869 20.402 103.909 52.5 99.398 56.58 10.746 57.469 10.621"/><polygon class="cls-8" points="52.5 99.398 47.921 96.907 52.001 8.255 56.58 10.746 52.5 99.398"/><polygon class="cls-4" points="56.58 10.746 52.001 8.255 52.891 8.13 57.469 10.621 56.58 10.746"/></g></svg>