<svg id="Layer_1" data-name="Layer 1" xmlns="http://www.w3.org/2000/svg" xmlns:xlink="http://www.w3.org/1999/xlink" viewBox="0 0 432 432"><defs><style>.cls-1{fill:none;}.cls-2{fill:#fff;}.cls-3{isolation:isolate;}.cls-4{fill:#939393;}.cls-5{clip-path:url(#clip-path);}.cls-6{fill:#a3a3a3;}.cls-7{clip-path:url(#clip-path-2);}.cls-8{fill:#858585;}.cls-9{fill:#b4b4b4;}.cls-10{fill:#828282;}.cls-11{clip-path:url(#clip-path-3);}.cls-12{fill:#974808;}.cls-13{fill:#783906;}.cls-14{fill:#793a06;}.cls-15{fill:#7a3a06;}.cls-16{clip-path:url(#clip-path-4);}.cls-17{fill:#9e9e9e;}.cls-18{fill:#818181;}.cls-19{fill:gray;}.cls-20{fill:#b5b5b5;}.cls-21{fill:#984808;}.cls-22{fill:#d1640a;}.cls-23{fill:#a95108;}.cls-24{clip-path:url(#clip-path-5);}.cls-25{fill:#a8a8a8;}.cls-26{fill:#dfdfdf;}.cls-27{clip-path:url(#clip-path-6);}.cls-28{clip-path:url(#clip-path-7);}.cls-29{clip-path:url(#clip-path-8);}.cls-30{clip-path:url(#clip-path-9);}.cls-31{fill:#8a8a8a;}.cls-32{fill:#8f8f8f;}.cls-33{fill:#949494;}.cls-34{fill:#999;}.cls-35{clip-path:url(#clip-path-10);}.cls-36{fill:#864007;}.cls-37{fill:#8b4207;}.cls-38{fill:#8f4407;}.cls-39{clip-path:url(#clip-path-11);}.cls-40{fill:#7c3b06;}.cls-41{fill:#813e06;}.cls-42{clip-path:url(#clip-path-12);}.cls-43{clip-path:url(#clip-path-13);}.cls-44{clip-path:url(#clip-path-14);}.cls-45{fill:#8c4307;}.cls-46{fill:#8d4307;}</style><clipPath id="clip-path"><path class="cls-1" d="M236.845,213.18411l-4.55866-2.47985c.096.03836.17608.06168.23211.07974l4.55865,2.47987C237.02106,213.2458,236.941,213.22248,236.845,213.18411Z"/></clipPath><clipPath id="clip-path-2"><path class="cls-1" d="M237.07709,213.26387l-4.55866-2.47986c-.18347-1.07215-2.42914-4.48926-5.40149-8.187l4.55864,2.47987C234.64794,208.77461,236.89361,212.19172,237.07709,213.26387Z"/></clipPath><clipPath id="clip-path-3"><path class="cls-1" d="M230.97438,204.21594l-4.55866-2.47986c-1.06977-1.29654-2.21488-2.60791-3.37923-3.84689a22.04279,22.04279,0,0,0-4.09232-3.70265l4.55864,2.47988a22.04143,22.04143,0,0,1,4.09233,3.70264C228.7595,201.608,229.9046,202.91939,230.97438,204.21594Z"/></clipPath><clipPath id="clip-path-4"><path class="cls-1" d="M219.15321,193.171q.06279.03146.12778.06682l4.55864,2.47987q-.065-.03536-.12777-.06683C222.34426,194.9069,220.52079,193.915,219.15321,193.171Z"/></clipPath><clipPath id="clip-path-5"><path class="cls-1" d="M199.88353,219.11342l-4.55866-2.47985c1.38033.60553,9.8466-.18456,18.31261-1.37438s16.93176-2.77937,18.311-3.77275l4.55864,2.47987c-1.37927.99338-9.845,2.58293-18.311,3.77275S201.26385,219.719,199.88353,219.11342Z"/></clipPath><clipPath id="clip-path-6"><path class="cls-1" d="M199.26015,219.82881l-4.55866-2.47985a.70735.70735,0,0,1-.26645-.22731l4.55864,2.47987A.70745.70745,0,0,0,199.26015,219.82881Z"/></clipPath><clipPath id="clip-path-7"><path class="cls-1" d="M199.21978,218.61029l-4.55867-2.47985a1.786,1.786,0,0,0,.32869-.1845l4.55864,2.47987A1.78507,1.78507,0,0,1,199.21978,218.61029Z"/></clipPath><clipPath id="clip-path-8"><path class="cls-1" d="M211.02306,197.58972l-4.55866-2.47986a1.9063,1.9063,0,0,1-.022-1.07736l4.55865,2.47986A1.90623,1.90623,0,0,0,211.02306,197.58972Z"/></clipPath><clipPath id="clip-path-9"><path class="cls-1" d="M211.001,196.51236l-4.55865-2.47986a.79079.79079,0,0,1,.321-.38836l4.55865,2.47987A.79077.79077,0,0,0,211.001,196.51236Z"/></clipPath><clipPath id="clip-path-10"><path class="cls-1" d="M204.53641,207.93154l-4.55865-2.47986c1.16528-1.90721,2.42921-3.84685,3.691-5.6185a28.32,28.32,0,0,1,3.09028-3.81136l4.55865,2.47986a28.31981,28.31981,0,0,0-3.09028,3.81136C206.96562,204.08469,205.70169,206.02433,204.53641,207.93154Z"/></clipPath><clipPath id="clip-path-11"><path class="cls-1" d="M194.66112,216.13041c-.05192-.94839,1.977-5.08862,4.684-9.63037l4.55865,2.47987c-2.707,4.54173-4.73588,8.682-4.684,9.63036C197.85216,217.86633,196.02871,216.87437,194.66112,216.13041Z"/></clipPath><clipPath id="clip-path-12"><path class="cls-1" d="M198.82266,205.65962c2.72673-4.50369,5.88977-8.98492,7.64175-10.54976l4.55865,2.47988c-1.752,1.56482-4.915,6.04606-7.64175,10.54975Q201.102,206.89957,198.82266,205.65962Z"/></clipPath><clipPath id="clip-path-13"><path class="cls-1" d="M198.00646,207.03092q.39939-.683.8162-1.37131,2.27933,1.23994,4.55864,2.47987-.4162.68743-.81691,1.37253Q200.28507,208.27212,198.00646,207.03092Z"/></clipPath><clipPath id="clip-path-14"><path class="cls-1" d="M193.88311,216.78432c-.52649-.99212,1.48067-5.2344,4.12335-9.7534q2.27826,1.24184,4.55793,2.48111c-2.64233,4.51852-4.64908,8.76012-4.12263,9.75215a.63159.63159,0,0,0,.254.2651l-4.55866-2.47985A.63171.63171,0,0,1,193.88311,216.78432Z"/></clipPath></defs><title>ICONS invente18 colour</title><rect class="cls-2" width="432" height="432"/><g class="cls-3"><polygon class="cls-4" points="236.507 213.966 231.949 211.486 232.087 211.165 236.646 213.645 236.507 213.966"/><g class="cls-3"><g class="cls-5"><g class="cls-3"><path class="cls-6" d="M236.845,213.18411l-4.55865-2.47986c.096.03837.17607.06169.23209.07975l4.55865,2.47986c-.056-.01806-.13606-.04139-.23209-.07975"/></g></g></g><polygon class="cls-4" points="236.646 213.645 232.087 211.165 232.286 210.704 236.845 213.184 236.646 213.645"/><g class="cls-3"><g class="cls-7"><g class="cls-3"><path class="cls-8" d="M237.07709,213.26387l-4.55865-2.47986c-.18348-1.07215-2.42915-4.48926-5.40149-8.187l4.55865,2.47986c2.97235,3.69777,5.218,7.11488,5.40149,8.187"/></g></g></g><polygon class="cls-9" points="231.676 205.077 227.117 202.597 227.392 202.558 231.951 205.038 231.676 205.077"/><polygon class="cls-10" points="231.951 205.038 227.392 202.558 227.394 201.599 231.953 204.078 231.951 205.038"/><polygon class="cls-9" points="230.974 204.216 226.416 201.736 227.394 201.599 231.953 204.078 230.974 204.216"/><g class="cls-3"><g class="cls-11"><g class="cls-3"><path class="cls-8" d="M230.97438,204.21594l-4.55865-2.47986c-1.06978-1.29654-2.21489-2.60791-3.37923-3.84689a22.04279,22.04279,0,0,0-4.09232-3.70265l4.55865,2.47986a22.04279,22.04279,0,0,1,4.09232,3.70265c1.16434,1.239,2.30945,2.55035,3.37923,3.84689"/></g></g></g><polygon class="cls-12" points="222.984 199.297 218.426 196.817 219.806 195.136 224.365 197.616 222.984 199.297"/><polygon class="cls-13" points="224.365 197.616 219.806 195.136 218.952 194.329 223.511 196.809 224.365 197.616"/><polygon class="cls-14" points="223.511 196.809 218.952 194.329 218.944 194.187 223.503 196.666 223.511 196.809"/><polygon class="cls-13" points="222.984 199.297 218.426 196.817 217.698 196.133 222.257 198.613 222.984 199.297"/><polygon class="cls-13" points="222.257 198.613 217.698 196.133 216.507 195.012 221.066 197.492 222.257 198.613"/><polygon class="cls-15" points="222.253 200.618 217.694 198.139 217.698 196.133 222.257 198.613 222.253 200.618"/><g class="cls-3"><g class="cls-16"><g class="cls-3"><path class="cls-17" d="M223.71186,195.65085l-4.55865-2.47986q.0629.03152.128.067l4.55865,2.47986q-.06511-.03542-.128-.067"/></g></g></g><polygon class="cls-18" points="223.503 196.666 218.944 194.187 218.775 191.064 223.333 193.544 223.503 196.666"/><polygon class="cls-19" points="223.511 196.809 218.952 194.329 218.004 193.433 222.563 195.913 223.511 196.809"/><polygon class="cls-20" points="223.333 193.544 218.775 191.064 218.957 191.02 223.516 193.5 223.333 193.544"/><polygon class="cls-18" points="222.563 195.913 218.004 193.433 217.589 185.845 222.148 188.325 222.563 195.913"/><polygon class="cls-13" points="222.563 195.913 218.004 193.433 217.896 193.33 222.454 195.81 222.563 195.913"/><polygon class="cls-21" points="222.262 196.044 217.703 193.564 217.896 193.33 222.454 195.81 222.262 196.044"/><polygon class="cls-15" points="222.262 196.044 217.703 193.564 217.704 192.917 222.263 195.396 222.262 196.044"/><polygon class="cls-21" points="221.066 197.492 216.507 195.012 217.703 193.564 222.262 196.044 221.066 197.492"/><polygon class="cls-22" points="222.454 195.81 222.563 195.913 223.511 196.809 224.365 197.616 222.984 199.297 222.257 198.613 221.066 197.492 222.262 196.044 222.454 195.81"/><polygon class="cls-17" points="222.148 188.325 217.589 185.845 220.512 181.691 225.071 184.171 222.148 188.325"/><polygon class="cls-23" points="212.392 202.004 207.834 199.524 217.694 198.139 222.253 200.618 212.392 202.004"/><polygon class="cls-15" points="212.392 202.004 207.834 199.524 207.837 197.743 212.396 200.223 212.392 202.004"/><polygon class="cls-12" points="212.396 200.223 207.837 197.743 209.474 195.75 214.033 198.23 212.396 200.223"/><polygon class="cls-12" points="211.914 200.81 207.355 198.33 207.837 197.743 212.396 200.223 211.914 200.81"/><polygon class="cls-23" points="212.402 196.782 207.843 194.302 217.704 192.917 222.263 195.396 212.402 196.782"/><polygon class="cls-15" points="214.014 195.268 209.456 192.788 209.457 192.304 214.015 194.784 214.014 195.268"/><polygon class="cls-13" points="214.033 198.23 209.474 195.75 208.123 194.488 212.682 196.968 214.033 198.23"/><polygon class="cls-15" points="214.738 193.532 210.18 191.052 210.181 190.577 214.739 193.057 214.738 193.532"/><polygon class="cls-12" points="212.401 197.311 207.842 194.831 208.123 194.488 212.682 196.968 212.401 197.311"/><polygon class="cls-12" points="212.208 197.546 207.65 195.066 207.842 194.831 212.401 197.311 212.208 197.546"/><polygon class="cls-15" points="214.016 194.455 209.457 191.975 209.458 191.491 214.017 193.971 214.016 194.455"/><polygon class="cls-22" points="222.263 195.396 222.262 196.044 221.066 197.492 222.257 198.613 222.253 200.618 212.392 202.004 212.396 200.223 214.033 198.23 212.682 196.968 212.401 197.311 212.402 196.782 222.263 195.396"/><polygon class="cls-15" points="212.401 197.311 207.842 194.831 207.843 194.302 212.402 196.782 212.401 197.311"/><polygon class="cls-12" points="211.317 198.634 206.759 196.155 207.65 195.066 212.208 197.546 211.317 198.634"/><polygon class="cls-12" points="210.571 199.546 206.012 197.066 206.759 196.155 211.317 198.634 210.571 199.546"/><polygon class="cls-13" points="211.914 200.81 207.355 198.33 206.012 197.066 210.571 199.546 211.914 200.81"/><polygon class="cls-22" points="212.682 196.968 214.033 198.23 212.396 200.223 211.914 200.81 210.571 199.546 211.317 198.634 212.208 197.546 212.401 197.311 212.682 196.968"/><g class="cls-3"><g class="cls-24"><g class="cls-3"><path class="cls-6" d="M199.88353,219.11342l-4.55865-2.47986a1.35119,1.35119,0,0,0,.21623.07031l4.55865,2.47986a1.35119,1.35119,0,0,1-.21623-.07031"/><path class="cls-25" d="M200.09976,219.18373l-4.55865-2.47986c1.89054.46671,9.99358-.3059,18.09638-1.44468,7.88646-1.10837,15.7727-2.56361,17.93043-3.56068l4.55865,2.47986c-2.15773.99707-10.044,2.45231-17.93043,3.56068-8.1028,1.13877-16.20583,1.91139-18.09638,1.44468"/><path class="cls-6" d="M236.12657,214.17837l-4.55865-2.47986a2.51947,2.51947,0,0,0,.35094-.19134l4.55865,2.47986a2.51947,2.51947,0,0,1-.35094.19134"/><path class="cls-17" d="M236.47751,213.987l-4.55865-2.47986.02968-.02073,4.55865,2.47986-.02968.02073"/></g></g></g><polygon class="cls-13" points="199.884 219.113 195.325 216.634 195.187 216.351 199.746 218.831 199.884 219.113"/><polygon class="cls-23" points="212.212 195.521 207.653 193.041 209.456 192.788 214.014 195.268 212.212 195.521"/><polygon class="cls-9" points="212.213 195.037 207.654 192.557 209.457 192.304 214.015 194.784 212.213 195.037"/><polygon class="cls-23" points="212.214 194.708 207.655 192.228 209.457 191.975 214.016 194.455 212.214 194.708"/><polygon class="cls-9" points="212.215 194.224 207.656 191.744 209.458 191.491 214.017 193.971 212.215 194.224"/><polygon class="cls-23" points="212.215 193.887 207.657 191.407 210.18 191.052 214.738 193.532 212.215 193.887"/><polygon class="cls-9" points="212.216 193.411 207.657 190.932 210.181 190.577 214.739 193.057 212.216 193.411"/><polygon class="cls-15" points="214.019 192.726 209.461 190.246 209.461 189.77 214.02 192.25 214.019 192.726"/><polygon class="cls-15" points="212.208 197.546 207.65 195.066 207.653 193.041 212.212 195.521 212.208 197.546"/><polygon class="cls-26" points="214.015 194.784 214.014 195.268 212.212 195.521 212.092 195.538 212.093 195.054 212.213 195.037 214.015 194.784"/><polygon class="cls-9" points="212.092 195.538 207.533 193.058 207.653 193.041 212.212 195.521 212.092 195.538"/><g class="cls-3"><g class="cls-27"><g class="cls-3"><path class="cls-8" d="M199.26015,219.82881,194.7015,217.349a.70721.70721,0,0,1-.26646-.2273l4.55865,2.47986a.70721.70721,0,0,0,.26646.2273"/></g></g></g><polygon class="cls-13" points="199.746 218.831 195.187 216.351 194.99 215.946 199.548 218.426 199.746 218.831"/><polygon class="cls-10" points="212.092 195.538 207.533 193.058 207.534 192.574 212.093 195.054 212.092 195.538"/><polygon class="cls-9" points="212.093 195.054 207.534 192.574 207.654 192.557 212.213 195.037 212.093 195.054"/><polygon class="cls-15" points="214.021 191.913 209.462 189.433 209.463 188.949 214.022 191.429 214.021 191.913"/><g class="cls-3"><g class="cls-28"><g class="cls-3"><path class="cls-25" d="M199.21978,218.61029l-4.55865-2.47986c.01632-.00669.03523-.01487.057-.02514l4.55865,2.47986c-.02178.01027-.04069.01845-.057.02514"/><path class="cls-6" d="M199.27679,218.58514l-4.55865-2.47986a2.01689,2.01689,0,0,0,.27167-.15934l4.55865,2.47986a2.01688,2.01688,0,0,1-.27167.15934"/></g></g></g><polygon class="cls-15" points="212.213 195.037 207.654 192.557 207.655 192.228 212.214 194.708 212.213 195.037"/><polygon class="cls-9" points="212.093 194.725 207.535 192.245 207.655 192.228 212.214 194.708 212.093 194.725"/><polygon class="cls-10" points="211.318 198.502 206.759 196.022 206.763 193.644 211.322 196.124 211.318 198.502"/><g class="cls-3"><g class="cls-29"><g class="cls-3"><path class="cls-8" d="M211.02306,197.58972l-4.55865-2.47986a1.90623,1.90623,0,0,1-.022-1.07736l4.55865,2.47986a1.90623,1.90623,0,0,0,.022,1.07736"/></g></g></g><g class="cls-3"><g class="cls-30"><g class="cls-3"><path class="cls-31" d="M211.001,196.51236l-4.55865-2.47986a.90766.90766,0,0,1,.04184-.08918l4.55865,2.47986a.90768.90768,0,0,0-.04184.08918"/><path class="cls-32" d="M211.04289,196.42318l-4.55865-2.47986a.858.858,0,0,1,.05313-.08628l4.55865,2.47986a.858.858,0,0,0-.05313.08628"/><path class="cls-33" d="M211.096,196.3369l-4.55865-2.47986a.80522.80522,0,0,1,.05562-.07065l4.55865,2.47986a.80526.80526,0,0,0-.05562.07065"/><path class="cls-34" d="M211.15164,196.26625l-4.55865-2.47986a.75328.75328,0,0,1,.06061-.06127l4.55865,2.47986a.7533.7533,0,0,0-.06061.06127"/><path class="cls-17" d="M211.21225,196.205l-4.55865-2.47986a.70082.70082,0,0,1,.07006-.05549l4.55865,2.47986a.70082.70082,0,0,0-.07006.05549"/><path class="cls-6" d="M211.28231,196.14948l-4.55865-2.47986q.01952-.01351.03977-.02548l4.55865,2.47986q-.02024.012-.03977.02548"/></g></g></g><polygon class="cls-15" points="214.022 191.187 209.463 188.707 209.464 188.223 214.023 190.703 214.022 191.187"/><polygon class="cls-10" points="212.093 194.725 207.535 192.245 207.536 191.761 212.094 194.241 212.093 194.725"/><polygon class="cls-26" points="214.017 193.971 214.016 194.455 212.214 194.708 212.093 194.725 212.094 194.241 212.215 194.224 214.017 193.971"/><polygon class="cls-9" points="212.094 194.241 207.536 191.761 207.656 191.744 212.215 194.224 212.094 194.241"/><polygon class="cls-15" points="212.215 194.224 207.656 191.744 207.657 191.407 212.215 193.887 212.215 194.224"/><polygon class="cls-23" points="203.904 208.98 199.345 206.5 227.117 202.597 231.676 205.077 203.904 208.98"/><polygon class="cls-9" points="204.536 207.932 199.978 205.452 226.416 201.736 230.974 204.216 204.536 207.932"/><path class="cls-22" d="M227.59512,200.369c1.16434,1.239,2.30946,2.55034,3.37924,3.84689l-26.438,3.71561c1.16528-1.90721,2.42921-3.84685,3.691-5.6185a28.32,28.32,0,0,1,3.09028-3.81136l-.00025.13268-.74647.91185,1.343,1.26337.48159-.5863-.00331,1.781,9.86084-1.38585.00373-2.00584.7275.68434,1.38055-1.68072-.85434-.80755-.00774-.14232A22.04237,22.04237,0,0,1,227.59512,200.369Z"/><g class="cls-3"><g class="cls-35"><g class="cls-3"><path class="cls-36" d="M204.53641,207.93154l-4.55865-2.47986c1.06842-1.74868,2.21977-3.52463,3.37635-5.17335l4.55865,2.47986c-1.15658,1.64872-2.30793,3.42467-3.37635,5.17335"/><path class="cls-37" d="M207.91276,202.75819l-4.55865-2.47986q.15727-.2242.31462-.44515a37.93881,37.93881,0,0,1,2.37-3.05033l4.55865,2.47986a37.9388,37.9388,0,0,0-2.37,3.05033q-.15732.22089-.31462.44515"/><path class="cls-38" d="M210.59734,199.26271l-4.55865-2.47986c.284-.32163.52209-.56942.72032-.761l4.55865,2.47986c-.19823.19161-.43632.4394-.72032.761"/></g></g></g><polygon class="cls-26" points="214.739 193.057 214.738 193.532 212.215 193.887 212.095 193.904 212.096 193.428 212.216 193.411 214.739 193.057"/><polygon class="cls-9" points="212.095 193.904 207.536 191.424 207.657 191.407 212.215 193.887 212.095 193.904"/><g class="cls-3"><g class="cls-39"><g class="cls-3"><path class="cls-40" d="M199.21977,218.61027l-4.55865-2.47986a3.51332,3.51332,0,0,1,.28524-1.14849l4.55865,2.47986a3.51333,3.51333,0,0,0-.28524,1.14849"/><path class="cls-41" d="M199.505,217.46178l-4.55865-2.47986a41.07168,41.07168,0,0,1,2.22274-4.65125l4.55865,2.47986a41.0717,41.0717,0,0,0-2.22274,4.65125"/><path class="cls-36" d="M201.72775,212.81053l-4.55865-2.47986c.643-1.19491,1.38018-2.49542,2.176-3.83063l4.55865,2.47986c-.79582,1.33521-1.533,2.63572-2.176,3.83063"/></g></g></g><polygon class="cls-10" points="203.826 208.991 199.268 206.511 199.269 206.035 203.827 208.515 203.826 208.991"/><polygon class="cls-10" points="203.827 208.515 199.269 206.035 199.27 205.551 203.828 208.031 203.827 208.515"/><g class="cls-3"><g class="cls-42"><g class="cls-3"><path class="cls-32" d="M201.05392,212.19679l-4.55865-2.47986a103.61417,103.61417,0,0,1,6.00448-9.71662l4.55865,2.47986a103.61415,103.61415,0,0,0-6.00448,9.71662"/><path class="cls-33" d="M207.0584,202.48017l-4.55865-2.47986a46.53173,46.53173,0,0,1,2.94214-3.83585l4.55865,2.47986a46.53174,46.53174,0,0,0-2.94214,3.83585"/><path class="cls-34" d="M210.00053,198.64432l-4.55865-2.47986a12.76156,12.76156,0,0,1,.99748-1.03212l4.55865,2.47986a12.76159,12.76159,0,0,0-.99748,1.03212"/><path class="cls-17" d="M210.998,197.6122l-4.55865-2.47986.02505-.02249,4.55865,2.47986-.02505.02249"/></g></g></g><g class="cls-3"><g class="cls-43"><g class="cls-3"><path class="cls-32" d="M201.05392,212.19679l-4.55865-2.47986a103.61417,103.61417,0,0,1,6.00448-9.71662l4.55865,2.47986a103.61415,103.61415,0,0,0-6.00448,9.71662"/></g></g></g><g class="cls-3"><g class="cls-44"><g class="cls-3"><path class="cls-8" d="M198.6957,219.52927l-4.55865-2.47986a.63159.63159,0,0,1-.25394-.26509,3.72136,3.72136,0,0,1,.38819-2.36224l4.55865,2.47986a3.72136,3.72136,0,0,0-.38819,2.36224.63159.63159,0,0,0,.25394.26509"/><path class="cls-31" d="M198.82995,216.90194l-4.55865-2.47986a39.8253,39.8253,0,0,1,2.224-4.70514l4.55865,2.47986a39.82532,39.82532,0,0,0-2.224,4.70514"/><path class="cls-32" d="M201.05392,212.19679l-4.55865-2.47986a103.61417,103.61417,0,0,1,6.00448-9.71662l4.55865,2.47986a103.61415,103.61415,0,0,0-6.00448,9.71662"/></g></g></g><path class="cls-26" d="M223.51565,193.50022l.15176.212c.10383.14964.15177.212-.08972.877a1.58668,1.58668,0,0,1,.13417,1.0616c3.66441,1.83606,13.02811,13.71025,14.1193,16.91927a1.44131,1.44131,0,0,1-.09873,1.41414.81718.81718,0,0,1-.32875.21908c-.87589,1.60979-10.84946,3.33131-19.20434,4.50551-8.36288,1.17533-18.33526,2.257-19.20564.89266a.60241.60241,0,0,1-.55194-.33733c-1.1013-2.07528,8.88332-18.37149,12.5813-21.67447a1.90623,1.90623,0,0,1-.022-1.07736.79079.79079,0,0,1,.321-.38836l-.00442,2.37773a28.32062,28.32062,0,0,0-3.09028,3.81136c-1.26176,1.77165-2.52568,3.71127-3.69094,5.61847l-.70824.09954-.0009.48417-.00088.47553c-2.62965,4.53089-4.65855,8.6711-4.60664,9.6195a1.78523,1.78523,0,0,0,.32867-.18449l.19755.40538.13753.28223c1.38032.60555,9.84659-.18455,18.31261-1.37437s16.93176-2.77937,18.311-3.77275l.13862-.321.19918-.4612c.096.03837.17607.06169.23209.07975-.18348-1.07215-2.42915-4.48926-5.40149-8.187l.27542-.03871.00178-.9597-.97842.13751c-1.06978-1.29654-2.21489-2.60791-3.37923-3.84689a22.04279,22.04279,0,0,0-4.09232-3.70265l-.16947-3.12211Z"/><path class="cls-22" d="M231.67557,205.07683c2.97233,3.69777,5.218,7.11485,5.40152,8.187-.056-.01807-.13608-.0414-.23212-.07975l-.19916.46114-.13864.321c-1.37927.9934-9.845,2.58293-18.311,3.77274s-16.9323,1.97994-18.31259,1.37437l-.13752-.28217-.19758-.40542a1.78652,1.78652,0,0,1-.32865.18447c-.05192-.94839,1.977-5.08862,4.684-9.63037Z"/><polygon class="cls-10" points="212.095 193.904 207.536 191.424 207.537 190.948 212.096 193.428 212.095 193.904"/><polygon class="cls-9" points="212.096 193.428 207.537 190.948 207.657 190.932 212.216 193.411 212.096 193.428"/><polygon class="cls-15" points="214.024 190.322 209.465 187.842 209.466 187.358 214.025 189.838 214.024 190.322"/><polygon class="cls-15" points="212.216 193.411 207.657 190.932 207.658 190.499 212.217 192.979 212.216 193.411"/><polygon class="cls-23" points="212.217 192.979 207.658 190.499 209.461 190.246 214.019 192.726 212.217 192.979"/><polygon class="cls-26" points="214.02 192.25 214.019 192.726 212.217 192.979 212.097 192.996 212.098 192.52 212.218 192.504 214.02 192.25"/><polygon class="cls-9" points="212.097 192.996 207.538 190.516 207.658 190.499 212.217 192.979 212.097 192.996"/><polygon class="cls-26" points="231.953 204.078 231.951 205.038 231.676 205.077 203.904 208.98 203.826 208.991 203.827 208.515 203.828 208.031 204.536 207.932 230.974 204.216 231.953 204.078"/><polygon class="cls-9" points="212.218 192.504 207.659 190.024 209.461 189.77 214.02 192.25 212.218 192.504"/><polygon class="cls-9" points="212.098 192.52 207.539 190.041 207.659 190.024 212.218 192.504 212.098 192.52"/><polygon class="cls-10" points="212.097 192.996 207.538 190.516 207.539 190.041 212.098 192.52 212.097 192.996"/><polygon class="cls-15" points="212.218 192.504 207.659 190.024 207.66 189.687 212.218 192.166 212.218 192.504"/><polygon class="cls-23" points="212.218 192.166 207.66 189.687 209.462 189.433 214.021 191.913 212.218 192.166"/><polygon class="cls-26" points="214.022 191.429 214.021 191.913 212.218 192.166 212.098 192.183 212.099 191.699 212.219 191.682 214.022 191.429"/><polygon class="cls-9" points="212.098 192.183 207.54 189.703 207.66 189.687 212.218 192.166 212.098 192.183"/><polygon class="cls-9" points="212.219 191.682 207.661 189.202 209.463 188.949 214.022 191.429 212.219 191.682"/><polygon class="cls-10" points="212.098 192.183 207.54 189.703 207.54 189.219 212.099 191.699 212.098 192.183"/><polygon class="cls-9" points="212.099 191.699 207.54 189.219 207.661 189.202 212.219 191.682 212.099 191.699"/><polygon class="cls-23" points="212.22 191.44 207.661 188.96 209.463 188.707 214.022 191.187 212.22 191.44"/><polygon class="cls-15" points="212.219 191.682 207.661 189.202 207.661 188.96 212.22 191.44 212.219 191.682"/><polygon class="cls-26" points="214.023 190.703 214.022 191.187 212.22 191.44 212.1 191.457 212.1 190.973 212.221 190.956 214.023 190.703"/><polygon class="cls-9" points="212.1 191.457 207.541 188.977 207.661 188.96 212.22 191.44 212.1 191.457"/><polygon class="cls-9" points="212.221 190.956 207.662 188.476 209.464 188.223 214.023 190.703 212.221 190.956"/><polygon class="cls-10" points="212.1 191.457 207.541 188.977 207.542 188.493 212.1 190.973 212.1 191.457"/><polygon class="cls-9" points="212.1 190.973 207.542 188.493 207.662 188.476 212.221 190.956 212.1 190.973"/><polygon class="cls-23" points="212.221 190.576 207.663 188.096 209.465 187.842 214.024 190.322 212.221 190.576"/><polygon class="cls-15" points="212.221 190.956 207.662 188.476 207.663 188.096 212.221 190.576 212.221 190.956"/><polygon class="cls-26" points="214.025 189.838 214.024 190.322 212.221 190.576 212.101 190.592 212.102 190.108 212.222 190.091 214.025 189.838"/><polygon class="cls-9" points="212.101 190.592 207.543 188.113 207.663 188.096 212.221 190.576 212.101 190.592"/><polygon class="cls-9" points="212.222 190.091 207.664 187.612 209.466 187.358 214.025 189.838 212.222 190.091"/><polygon class="cls-10" points="212.101 190.592 207.543 188.113 207.543 187.628 212.102 190.108 212.101 190.592"/><polygon class="cls-9" points="212.102 190.108 207.543 187.628 207.664 187.612 212.222 190.091 212.102 190.108"/><polygon class="cls-15" points="212.222 190.091 207.664 187.612 207.664 187.188 212.223 189.668 212.222 190.091"/><polygon class="cls-10" points="211.322 196.124 206.763 193.644 206.774 187.737 211.333 190.216 211.322 196.124"/><polygon class="cls-22" points="225.071 184.171 222.148 188.325 222.563 195.913 222.454 195.81 222.262 196.044 222.263 195.396 212.402 196.782 212.401 197.311 212.208 197.546 212.212 195.521 214.014 195.268 214.015 194.784 212.213 195.037 212.214 194.708 214.016 194.455 214.017 193.971 212.215 194.224 212.215 193.887 214.738 193.532 214.739 193.057 212.216 193.411 212.217 192.979 214.019 192.726 214.02 192.25 212.218 192.504 212.218 192.166 214.021 191.913 214.022 191.429 212.219 191.682 212.22 191.44 214.022 191.187 214.023 190.703 212.221 190.956 212.221 190.576 214.024 190.322 214.025 189.838 212.222 190.091 212.223 189.668 208.417 186.512 225.071 184.171"/><polygon class="cls-23" points="208.417 186.512 203.858 184.032 220.512 181.691 225.071 184.171 208.417 186.512"/><polygon class="cls-13" points="212.223 189.668 207.664 187.188 203.858 184.032 208.417 186.512 212.223 189.668"/><polygon class="cls-26" points="226.979 182.944 223.06 188.516 223.333 193.544 223.503 196.666 223.511 196.809 222.563 195.913 222.148 188.325 225.071 184.171 208.417 186.512 212.223 189.668 212.222 190.091 212.102 190.108 212.101 190.592 212.221 190.576 212.221 190.956 212.1 190.973 212.1 191.457 212.22 191.44 212.219 191.682 212.099 191.699 212.098 192.183 212.218 192.166 212.218 192.504 212.098 192.52 212.097 192.996 212.217 192.979 212.216 193.411 212.096 193.428 212.095 193.904 212.215 193.887 212.215 194.224 212.094 194.241 212.093 194.725 212.214 194.708 212.213 195.037 212.093 195.054 212.092 195.538 212.212 195.521 212.208 197.546 211.317 198.634 211.318 198.502 211.322 196.124 211.333 190.216 206.096 185.879 226.979 182.944"/><polygon class="cls-9" points="206.096 185.879 201.537 183.399 222.42 180.464 226.979 182.944 206.096 185.879"/><polygon class="cls-19" points="211.333 190.216 206.774 187.737 201.537 183.399 206.096 185.879 211.333 190.216"/></g><g class="cls-3"><polygon class="cls-45" points="258.105 270.25 253.546 267.77 293.649 187.444 298.207 189.924 258.105 270.25"/><polygon class="cls-23" points="178.176 281.483 173.618 279.003 253.546 267.77 258.105 270.25 178.176 281.483"/><polygon class="cls-13" points="298.207 189.924 293.649 187.444 253.823 118.352 258.382 120.831 298.207 189.924"/><polygon class="cls-13" points="177.662 282.523 173.103 280.043 132.767 210.054 137.326 212.534 177.662 282.523"/><polygon class="cls-23" points="177.943 131.177 173.384 128.697 254.338 117.32 258.896 119.8 177.943 131.177"/><polygon class="cls-45" points="137.326 212.534 132.767 210.054 173.384 128.697 177.943 131.177 137.326 212.534"/><path class="cls-22" d="M258.89644,119.79957l40.33618,69.98015-40.61729,81.366L177.662,282.523l-40.33617-69.98876,40.61728-81.35742Zm-.79194,150.45,40.10271-80.32573L258.382,120.83141l-79.928,11.23315-40.10271,80.32556,39.82518,69.0926,79.928-11.23315"/></g><g class="cls-3"><polygon class="cls-13" points="181.458 273.002 176.899 270.522 175.654 268.346 180.212 270.826 181.458 273.002"/><polygon class="cls-13" points="180.212 270.826 175.654 268.346 143.364 212.344 147.923 214.824 180.212 270.826"/><polygon class="cls-13" points="147.923 214.824 143.364 212.344 142.462 210.768 147.021 213.248 147.923 214.824"/><polygon class="cls-45" points="147.021 213.248 142.462 210.768 143.555 208.583 148.114 211.063 147.021 213.248"/><polygon class="cls-22" points="148.114 211.063 182.002 272.926 181.458 273.002 180.212 270.826 147.923 214.824 147.021 213.248 148.114 211.063"/></g><g class="cls-3"><polygon class="cls-45" points="182.455 141.352 177.896 138.872 179.166 136.325 183.725 138.805 182.455 141.352"/><polygon class="cls-23" points="183.725 138.805 179.166 136.325 248.28 126.612 252.838 129.092 183.725 138.805"/><polygon class="cls-22" points="252.838 129.092 254.1 131.283 182.455 141.352 183.725 138.805 252.838 129.092"/></g><g class="cls-3"><polygon class="cls-46" points="251.851 260.447 247.292 257.967 283.379 188.302 287.938 190.782 251.851 260.447"/><polygon class="cls-22" points="251.851 260.447 287.938 190.782 253.253 260.25 251.851 260.447"/></g></svg>