<svg id="Layer_1" data-name="Layer 1" xmlns="http://www.w3.org/2000/svg" xmlns:xlink="http://www.w3.org/1999/xlink" viewBox="0 0 180 180"><defs><style>.cls-1{fill:none;}.cls-2{isolation:isolate;}.cls-3{clip-path:url(#clip-path);}.cls-4{fill:#a35133;}.cls-5{fill:#9e4f32;}.cls-6{fill:#824129;}.cls-7{fill:#b4b4b4;}.cls-8{clip-path:url(#clip-path-2);}.cls-9{fill:#85422a;}.cls-10{fill:#8a452b;}.cls-11{fill:#8f472d;}.cls-12{fill:#944a2e;}.cls-13{fill:#994c30;}.cls-14{fill:#b45a39;}.cls-15{fill:#828282;}.cls-16{fill:#dfdfdf;}.cls-17{clip-path:url(#clip-path-3);}.cls-18{fill:#df6f46;}.cls-19{fill:#a25133;}.cls-20{fill:#804028;}.cls-21{clip-path:url(#clip-path-4);}.cls-22{clip-path:url(#clip-path-5);}.cls-23{clip-path:url(#clip-path-6);}.cls-24{fill:#a85435;}.cls-25{clip-path:url(#clip-path-7);}.cls-26{fill:#814028;}.cls-27{fill:#a25033;}.cls-28{clip-path:url(#clip-path-8);}.cls-29{clip-path:url(#clip-path-9);}.cls-30{clip-path:url(#clip-path-10);}.cls-31{clip-path:url(#clip-path-11);}.cls-32{fill:#964a2f;}.cls-33{fill:#9f4f32;}.cls-34{fill:#964b2f;}</style><clipPath id="clip-path"><path class="cls-1" d="M103.76021,99.60764l3.8476,2.09306a1.16,1.16,0,0,0-.135-.0614l-3.84761-2.09306A1.16119,1.16119,0,0,1,103.76021,99.60764Z"/></clipPath><clipPath id="clip-path-2"><path class="cls-1" d="M76.15565,106.57265,72.308,104.47959c-.23446-.12754-.196-.31028.17258-.55626l3.8476,2.09307C75.95963,106.26237,75.9212,106.44511,76.15565,106.57265Z"/></clipPath><clipPath id="clip-path-3"><path class="cls-1" d="M75.64547,106.23529l-3.84762-2.09305c-.68121-.37059,1.40979-4.60568,3.99032-8.90385q.068-.11323.13656-.22679l3.84759,2.09307q-.06831.11326-.13654.22677C77.05525,101.62961,74.96425,105.86471,75.64547,106.23529Z"/></clipPath><clipPath id="clip-path-4"><path class="cls-1" d="M96.05461,87.11926,92.207,85.02621c.03683-.14023.067-.27389.09033-.39836l3.8476,2.09306C96.12166,86.84538,96.09143,86.979,96.05461,87.11926Z"/></clipPath><clipPath id="clip-path-5"><path class="cls-1" d="M92.60266,84.76847l3.84759,2.09306a2.23153,2.23153,0,0,0-.30532-.14063l-3.84762-2.093A2.23006,2.23006,0,0,1,92.60266,84.76847Z"/></clipPath><clipPath id="clip-path-6"><path class="cls-1" d="M92.27035,83.73028l3.8476,2.09307a.07207.07207,0,0,0-.04559-.0078l-3.84761-2.09306A.07215.07215,0,0,1,92.27035,83.73028Z"/></clipPath><clipPath id="clip-path-7"><path class="cls-1" d="M95.92035,85.9303l-3.84761-2.09306a.28453.28453,0,0,1,.152-.11475l3.84761,2.09306A.28453.28453,0,0,0,95.92035,85.9303Z"/></clipPath><clipPath id="clip-path-8"><path class="cls-1" d="M95.90835,85.72623l-3.84762-2.09306a4.36777,4.36777,0,0,1,.29845-.638l3.84761,2.09306A4.3671,4.3671,0,0,0,95.90835,85.72623Z"/></clipPath><clipPath id="clip-path-9"><polygon class="cls-1" points="92.36 82.995 96.208 85.088 96.207 85.088 92.359 82.995 92.36 82.995"/></clipPath><clipPath id="clip-path-10"><path class="cls-1" d="M82.57873,85.13237l3.8476,2.09307a.22983.22983,0,0,0-.13812-.03481c-.189.02656-.18818.44948.00221,1.01034l-3.84762-2.093c-.19037-.56087-.19118-.98379-.0022-1.01035A.2299.2299,0,0,1,82.57873,85.13237Z"/></clipPath><clipPath id="clip-path-11"><path class="cls-1" d="M79.9098,96.878l-3.84761-2.093c2.33619-3.841,5.003-7.63135,6.38061-8.677l3.8476,2.09308C84.91282,89.24665,82.246,93.037,79.9098,96.878Z"/></clipPath></defs><title>ICONS invente18 no bg</title><g class="cls-2"><g class="cls-2"><g class="cls-3"><g class="cls-2"><path class="cls-4" d="M107.47284,101.6393l-3.84761-2.09306q.03575.01385.06736.02806l3.84761,2.09306q-.03162-.01421-.06736-.02806"/><path class="cls-5" d="M107.5402,101.66736l-3.84761-2.09306q.03654.01643.06761.03334l3.84761,2.09306q-.03109-.01691-.06761-.03334"/></g></g></g><polygon class="cls-6" points="103.506 94.374 99.659 92.281 99.659 91.95 103.507 94.043 103.506 94.374"/><polygon class="cls-7" points="103.156 93.611 99.308 91.518 99.66 91.469 103.508 93.562 103.156 93.611"/><g class="cls-2"><g class="cls-8"><g class="cls-2"><path class="cls-9" d="M76.15565,106.57265,72.308,104.47959c-.11645-.06335-.16558-.14031-.14037-.23188l3.84761,2.09306c-.02521.09157.02392.16853.14037.23188"/><path class="cls-10" d="M76.01528,106.34078l-3.84761-2.09306a.235.235,0,0,1,.016-.04145l3.84761,2.09306a.235.235,0,0,0-.016.04145"/><path class="cls-11" d="M76.0313,106.29932l-3.84761-2.09306a.33948.33948,0,0,1,.02585-.04337l3.84761,2.09306a.33948.33948,0,0,0-.02585.04337"/><path class="cls-12" d="M76.05714,106.25595l-3.84761-2.09306a.50563.50563,0,0,1,.03787-.04764l3.84761,2.09306a.50562.50562,0,0,0-.03787.04764"/><path class="cls-13" d="M76.095,106.20831l-3.84761-2.09306a.86509.86509,0,0,1,.09119-.08693l3.84761,2.09306a.86509.86509,0,0,0-.09119.08693"/><path class="cls-5" d="M76.18621,106.12137l-3.84761-2.09306q.054-.04508.12489-.09343l3.84761,2.09306q-.071.04836-.12489.09343"/><path class="cls-4" d="M76.3111,106.02794l-3.84761-2.09306.01713-.01155,3.84761,2.09306-.01713.01155"/></g></g></g><polygon class="cls-14" points="79.771 97.71 75.924 95.617 99.659 92.281 103.506 94.374 79.771 97.71"/><polygon class="cls-15" points="79.771 97.71 75.924 95.617 75.924 95.211 79.772 97.304 79.771 97.71"/><polygon class="cls-7" points="79.91 96.878 76.062 94.785 99.308 91.518 103.156 93.611 79.91 96.878"/><polygon class="cls-15" points="79.772 97.304 75.924 95.211 75.925 95.012 79.772 97.105 79.772 97.304"/><polygon class="cls-16" points="103.508 93.562 103.507 94.043 103.506 94.374 79.771 97.71 79.772 97.304 79.772 97.105 79.773 96.897 79.91 96.878 103.156 93.611 103.508 93.562"/><polygon class="cls-15" points="79.772 97.105 75.925 95.012 75.925 94.804 79.773 96.897 79.772 97.105"/><polygon class="cls-7" points="79.773 96.897 75.925 94.804 76.062 94.785 79.91 96.878 79.773 96.897"/><g class="cls-2"><g class="cls-17"><g class="cls-2"><path class="cls-9" d="M75.64547,106.23529l-3.84761-2.09306c-.23276-.12662-.14188-.7044.18159-1.5817l3.84761,2.09306c-.32347.8773-.41435,1.45508-.18159,1.5817"/><path class="cls-10" d="M75.82706,104.65359l-3.84761-2.09306a33.40467,33.40467,0,0,1,1.84429-3.88063l3.84761,2.09306a33.40467,33.40467,0,0,0-1.84429,3.88063"/><path class="cls-11" d="M77.67135,100.773,73.82374,98.6799c.58671-1.09026,1.25719-2.26352,1.96443-3.44152q.068-.11323.13656-.22679l3.84761,2.09306q-.06833.11328-.13656.22679c-.70725,1.178-1.37772,2.35126-1.96443,3.44152"/></g></g></g><path class="cls-18" d="M103.5068,94.04276c3.02,3.74425,5.50687,7.54886,4.46578,7.69517a1.06,1.06,0,0,1-.49973-.09864c2.12065.82131-6.72793,2.62457-15.57537,3.868s-17.69405,1.92706-15.56924.50909a1.365,1.365,0,0,1-.51422.24114c-1.11946.15733,1.07354-4.34861,3.82177-8.92609q.068-.11323.13656-.22679l-.00037.19895-.00075.40635,23.735-3.33573Z"/></g><g class="cls-2"><polygon class="cls-19" points="95.939 89.526 92.092 87.432 93.263 86.014 97.111 88.107 95.939 89.526"/><polygon class="cls-20" points="95.939 89.526 92.092 87.432 91.484 86.861 95.332 88.954 95.939 89.526"/><polygon class="cls-20" points="95.332 88.954 91.484 86.861 90.477 85.913 94.324 88.006 95.332 88.954"/><polygon class="cls-6" points="95.329 90.649 91.481 88.556 91.484 86.861 95.332 88.954 95.329 90.649"/><polygon class="cls-20" points="97.111 88.107 93.263 86.014 92.207 85.026 96.055 87.119 97.111 88.107"/><g class="cls-2"><g class="cls-21"><g class="cls-2"><path class="cls-9" d="M96.05461,87.11926,92.207,85.0262c.03682-.14022.067-.27388.09032-.39835l3.84761,2.09306c-.02328.12447-.0535.25813-.09032.39835"/></g></g></g><g class="cls-2"><g class="cls-22"><g class="cls-2"><path class="cls-4" d="M96.14494,86.72091l-3.84761-2.09306a1.97792,1.97792,0,0,1,.20217.08708L96.34711,86.808a1.97792,1.97792,0,0,0-.20217-.08708"/><path class="cls-5" d="M96.34711,86.808,92.4995,84.71493q.05034.0248.10316.05354l3.84761,2.09306q-.05281-.02873-.10316-.05354"/></g></g></g><g class="cls-2"><g class="cls-23"><g class="cls-2"><path class="cls-24" d="M96.07236,85.81556l-3.84761-2.09306a.0758.0758,0,0,1,.02822.00111l3.84761,2.09306a.0758.0758,0,0,0-.02822-.00111"/><path class="cls-4" d="M96.10058,85.81666,92.253,83.7236l.01463.00527,3.84761,2.09306-.01463-.00527"/><polyline class="cls-5" points="96.115 85.822 92.268 83.729 92.27 83.73 96.118 85.823 96.115 85.822"/></g></g></g><g class="cls-2"><g class="cls-25"><g class="cls-2"><path class="cls-12" d="M95.92035,85.9303l-3.84761-2.09306.01546-.01808,3.84761,2.09306-.01546.01808"/><path class="cls-13" d="M95.93581,85.91223,92.0882,83.81916a.54457.54457,0,0,1,.04337-.04426L95.97918,85.868a.54458.54458,0,0,0-.04337.04426"/><path class="cls-5" d="M95.97918,85.868l-3.84761-2.09306a.32261.32261,0,0,1,.032-.0256l3.84761,2.09306a.32261.32261,0,0,0-.032.0256"/><path class="cls-4" d="M96.01121,85.84236,92.1636,83.7493a.19806.19806,0,0,1,.028-.01641L96.03924,85.826a.19806.19806,0,0,0-.028.01641"/><path class="cls-24" d="M96.03924,85.826,92.19163,83.7329a.1159.1159,0,0,1,.03313-.0104l3.84761,2.09306a.1159.1159,0,0,0-.03313.0104"/></g></g></g><path class="cls-18" d="M96.07236,85.81556c.14809-.02069.17613.35318.07257.90535a1.11877,1.11877,0,0,0-.18112-.04967l-.04347-.74094A.28453.28453,0,0,1,96.07236,85.81556Z"/><polygon class="cls-26" points="95.964 86.671 92.116 84.578 92.073 83.837 95.92 85.93 95.964 86.671"/><polygon class="cls-20" points="95.986 87.055 92.139 84.962 91.641 84.496 95.488 86.59 95.986 87.055"/><polygon class="cls-26" points="95.919 85.9 92.071 83.807 92.061 83.633 95.908 85.726 95.919 85.9"/><polygon class="cls-27" points="95.336 86.775 91.488 84.682 91.641 84.497 95.488 86.59 95.336 86.775"/><g class="cls-2"><g class="cls-28"><g class="cls-2"><path class="cls-10" d="M95.90835,85.72623l-3.84761-2.09306c.13317-.3118.22349-.50955.26819-.59274l3.84761,2.09306c-.0447.08319-.135.28094-.26819.59274"/><path class="cls-11" d="M96.17654,85.13349l-3.84761-2.09306a.398.398,0,0,1,.02073-.03532l3.84761,2.09306a.398.398,0,0,0-.02073.03532"/><polyline class="cls-12" points="96.197 85.098 92.35 83.005 92.354 82.999 96.202 85.092 96.197 85.098"/><polyline class="cls-13" points="96.202 85.092 92.354 82.999 92.356 82.997 96.204 85.09 96.202 85.092"/><polyline class="cls-5" points="96.204 85.09 92.356 82.997 92.358 82.996 96.205 85.089 96.204 85.09"/><polyline class="cls-4" points="96.205 85.089 92.358 82.996 92.358 82.995 96.206 85.088 96.205 85.089"/><polyline class="cls-24" points="96.206 85.088 92.358 82.995 92.359 82.995 96.207 85.088 96.206 85.088"/></g></g></g><g class="cls-2"><g class="cls-29"><g class="cls-2"><polyline class="cls-24" points="96.207 85.088 92.359 82.995 92.359 82.995 96.207 85.088 96.207 85.088"/><polyline class="cls-4" points="96.207 85.088 92.359 82.995 92.36 82.995 96.207 85.088 96.207 85.088"/><polyline class="cls-5" points="96.207 85.088 92.36 82.995 92.36 82.995 96.208 85.088 96.207 85.088"/></g></g></g><path class="cls-18" d="M96.20678,85.08822a5.091,5.091,0,0,1-.2882.81206l-.01024-.174A4.3671,4.3671,0,0,1,96.20678,85.08822Z"/><polygon class="cls-6" points="95.336 86.775 91.488 84.682 91.489 84.146 95.337 86.239 95.336 86.775"/><polygon class="cls-18" points="95.488 86.59 95.986 87.055 96.055 87.119 97.111 88.108 95.939 89.526 95.332 88.954 94.324 88.006 95.336 86.775 95.488 86.59"/><polygon class="cls-27" points="94.324 88.006 90.477 85.913 91.488 84.682 95.336 86.775 94.324 88.006"/><polygon class="cls-14" points="87.006 91.818 83.158 89.725 91.481 88.556 95.329 90.649 87.006 91.818"/><polygon class="cls-27" points="87.009 90.305 83.161 88.212 84.534 86.541 88.381 88.634 87.009 90.305"/><polygon class="cls-6" points="87.006 91.818 83.158 89.725 83.161 88.212 87.009 90.305 87.006 91.818"/><polygon class="cls-27" points="86.599 90.804 82.752 88.711 83.161 88.212 87.009 90.305 86.599 90.804"/><polygon class="cls-14" points="87.014 87.409 83.166 85.316 91.489 84.146 95.337 86.239 87.014 87.409"/><polygon class="cls-6" points="88.37 86.129 84.522 84.036 84.523 83.63 88.37 85.723 88.37 86.129"/><polygon class="cls-20" points="88.381 88.634 84.534 86.541 83.398 85.473 87.246 87.566 88.381 88.634"/><polygon class="cls-6" points="88.981 84.66 85.133 82.567 85.134 82.161 88.982 84.254 88.981 84.66"/><polygon class="cls-27" points="87.013 87.85 83.166 85.757 83.398 85.473 87.246 87.566 87.013 87.85"/><polygon class="cls-6" points="88.371 85.438 84.523 83.344 84.524 82.938 88.372 85.031 88.371 85.438"/><polygon class="cls-27" points="86.467 88.514 82.62 86.421 83.166 85.757 87.013 87.85 86.467 88.514"/><polygon class="cls-18" points="95.337 86.239 95.336 86.775 94.324 88.006 95.332 88.954 95.329 90.649 87.006 91.818 87.009 90.305 88.381 88.634 87.246 87.566 87.013 87.85 87.014 87.409 95.337 86.239"/><polygon class="cls-6" points="87.013 87.85 83.166 85.757 83.166 85.316 87.014 87.409 87.013 87.85"/><polygon class="cls-6" points="86.467 88.514 82.62 86.421 82.621 85.984 86.468 88.077 86.467 88.514"/><polygon class="cls-27" points="85.464 89.736 81.616 87.643 82.583 86.466 86.431 88.559 85.464 89.736"/><polygon class="cls-20" points="86.599 90.804 82.752 88.711 81.616 87.643 85.464 89.736 86.599 90.804"/><polygon class="cls-18" points="87.246 87.566 88.381 88.634 87.009 90.305 86.599 90.804 85.464 89.736 86.431 88.559 86.467 88.514 87.013 87.85 87.246 87.566"/><polygon class="cls-6" points="86.468 88.077 82.621 85.984 82.622 85.159 86.47 87.252 86.468 88.077"/><polygon class="cls-14" points="86.744 86.358 82.896 84.265 84.522 84.036 88.37 86.129 86.744 86.358"/><polygon class="cls-7" points="86.744 85.951 82.897 83.858 84.523 83.63 88.371 85.723 86.744 85.951"/><polygon class="cls-14" points="86.745 85.666 82.897 83.573 84.523 83.344 88.371 85.438 86.745 85.666"/><polygon class="cls-7" points="86.746 85.26 82.898 83.167 84.524 82.938 88.372 85.031 86.746 85.26"/><polygon class="cls-14" points="86.746 84.974 82.899 82.881 85.133 82.567 88.981 84.66 86.746 84.974"/><polygon class="cls-7" points="86.747 84.568 82.899 82.475 85.134 82.161 88.982 84.254 86.747 84.568"/><polygon class="cls-6" points="88.374 83.985 84.526 81.892 84.527 81.486 88.374 83.579 88.374 83.985"/><g class="cls-2"><g class="cls-30"><g class="cls-2"><path class="cls-9" d="M86.29042,88.201l-3.84761-2.09306a1.63109,1.63109,0,0,1-.11662-.89964l3.84761,2.09306a1.63109,1.63109,0,0,0,.11662.89964"/><path class="cls-10" d="M86.17379,87.30132l-3.84761-2.09306a.26128.26128,0,0,1,.01475-.03378l3.84761,2.09306a.26128.26128,0,0,0-.01475.03378"/><path class="cls-11" d="M86.18854,87.26754l-3.84761-2.09306.01252-.02064,3.84761,2.09306-.01252.02064"/><path class="cls-12" d="M86.20106,87.2469l-3.84761-2.09306.01128-.01445,3.84761,2.09306-.01128.01445"/><path class="cls-13" d="M86.21234,87.23245l-3.84761-2.09306.01181-.012,3.84761,2.09306-.01181.012"/><path class="cls-5" d="M86.22415,87.22049l-3.84761-2.09306.01253-.0099,3.84761,2.09306-.01253.0099"/><path class="cls-4" d="M86.23668,87.21059l-3.84761-2.09306.01835-.01042L86.255,87.20017l-.01835.01042"/><path class="cls-24" d="M86.255,87.20017l-3.84761-2.09306a.12033.12033,0,0,1,.03317-.00955.16922.16922,0,0,1,.06571.00507l3.84761,2.09306a.16922.16922,0,0,0-.06571-.00507.12033.12033,0,0,0-.03317.00955"/><path class="cls-4" d="M86.35392,87.1957l-3.84761-2.09306a.30216.30216,0,0,1,.05717.02183l3.84761,2.09306a.30216.30216,0,0,0-.05717-.02183"/><path class="cls-5" d="M86.41109,87.21753l-3.84761-2.09306.01524.0079,3.84761,2.09306-.01524-.0079"/></g></g></g><path class="cls-18" d="M86.46964,87.25189l-.00153.82484q-.08491.05366-.17769.12424c-.19039-.56086-.19119-.98378-.00221-1.01034A.274.274,0,0,1,86.46964,87.25189Z"/><polygon class="cls-15" points="86.744 86.358 82.896 84.265 82.897 83.858 86.744 85.951 86.744 86.358"/><polygon class="cls-6" points="88.375 83.293 84.527 81.2 84.528 80.794 88.376 82.887 88.375 83.293"/><polygon class="cls-6" points="88.376 82.679 84.528 80.586 84.529 80.18 88.377 82.273 88.376 82.679"/><polygon class="cls-15" points="86.745 85.666 82.897 83.573 82.898 83.167 86.746 85.26 86.745 85.666"/><polygon class="cls-15" points="86.746 84.974 82.899 82.881 82.899 82.475 86.747 84.568 86.746 84.974"/><polygon class="cls-6" points="88.377 81.953 84.53 79.86 84.531 79.454 88.378 81.547 88.377 81.953"/><polygon class="cls-14" points="86.748 84.214 82.9 82.121 84.526 81.892 88.374 83.985 86.748 84.214"/><polygon class="cls-7" points="86.748 83.807 82.901 81.714 84.527 81.486 88.374 83.579 86.748 83.807"/><polygon class="cls-15" points="86.748 84.214 82.9 82.121 82.901 81.714 86.748 83.807 86.748 84.214"/><polygon class="cls-14" points="86.749 83.522 82.901 81.429 84.527 81.2 88.375 83.293 86.749 83.522"/><polygon class="cls-7" points="86.75 83.116 82.902 81.023 84.528 80.794 88.376 82.887 86.75 83.116"/><polygon class="cls-16" points="88.376 82.887 88.375 83.293 86.749 83.522 86.75 83.116 88.376 82.887"/><polygon class="cls-15" points="86.749 83.522 82.901 81.429 82.902 81.023 86.75 83.116 86.749 83.522"/><polygon class="cls-14" points="86.75 82.908 82.902 80.815 84.528 80.586 88.376 82.679 86.75 82.908"/><polygon class="cls-15" points="86.75 82.908 82.902 80.815 82.903 80.409 86.751 82.502 86.75 82.908"/><polygon class="cls-7" points="86.751 82.502 82.903 80.409 84.529 80.18 88.377 82.273 86.751 82.502"/><polygon class="cls-14" points="86.751 82.182 82.904 80.089 84.53 79.86 88.377 81.953 86.751 82.182"/><polygon class="cls-7" points="86.752 81.775 82.905 79.682 84.531 79.454 88.378 81.547 86.752 81.775"/><polygon class="cls-15" points="86.751 82.182 82.904 80.089 82.905 79.682 86.752 81.775 86.751 82.182"/><path class="cls-18" d="M95.91859,85.90028l.04523.771.02256.3842-.49814-.46589-.15249.18564.001-.536-8.32285,1.1697-.00082.44092-.54577.66444.00081-.43749.00153-.82484.01044-5.61977L82.666,78.4687,98.5106,76.24189,95.62,80.3476l.28641,5.34472Zm-6.9375-1.24.00075-.40635-2.23494.3141-.00075.40635,2.23494-.3141m-2.23277-.8531-.00075.40647,1.62609-.22853.00075-.40647-1.62609.22853m.00128-.69159-.00075.40635,1.62609-.22853.00075-.40635-1.62609.22853m1.62007,3.01369.00075-.40635-1.62609.22853-.00075.40635,1.62609-.22853m.00128-.69171.00075-.40635-1.62609.22853-.00075.40635,1.62609-.22853m-1.62022-2.93585L86.75,82.908l1.62609-.22853.00075-.40635-1.62609.22853m.00135-.72628-.00075.40635,1.62609-.22853.00075-.40635-1.62609.22853"/><polygon class="cls-16" points="88.371 85.723 88.37 86.129 86.744 86.358 86.744 85.951 88.371 85.723"/><polygon class="cls-16" points="88.372 85.031 88.371 85.438 86.745 85.666 86.746 85.26 88.372 85.031"/><polygon class="cls-16" points="88.982 84.254 88.981 84.66 86.746 84.974 86.747 84.568 88.982 84.254"/><g class="cls-2"><g class="cls-31"><g class="cls-2"><path class="cls-11" d="M79.9098,96.878,76.0622,94.78492c.98747-1.62354,2.034-3.238,3.0173-4.64L82.9271,92.238c-.98329,1.402-2.02983,3.01646-3.0173,4.64"/><path class="cls-12" d="M82.9271,92.238,79.0795,90.14492a35.801,35.801,0,0,1,2.30229-2.99763l3.84761,2.09306A35.801,35.801,0,0,0,82.9271,92.238"/><path class="cls-13" d="M85.2294,89.24035l-3.84761-2.09306a10.1164,10.1164,0,0,1,.78043-.805l3.84761,2.09306a10.1164,10.1164,0,0,0-.78043.805"/><path class="cls-5" d="M86.00983,88.43536,82.16222,86.3423q.14782-.13343.28059-.2344L86.29042,88.201q-.13255.10061-.28059.2344"/></g></g></g><path class="cls-18" d="M96.14494,86.72091c1.3087.47146,4.321,3.60541,7.01091,6.89006l-23.246,3.267c2.33618-3.841,5.003-7.63134,6.38061-8.677.03873.11441.08551.23442.14012.35812l-.9666,1.17664,1.13524,1.06789.40933-.49845-.00281,1.51312,8.32285-1.1697.00315-1.69466.60751.5716,1.17187-1.41811-1.05647-.98815C96.09143,86.979,96.12166,86.84538,96.14494,86.72091Z"/><polygon class="cls-16" points="88.374 83.579 88.374 83.985 86.748 84.214 86.748 83.807 88.374 83.579"/><polygon class="cls-16" points="88.377 82.273 88.376 82.68 86.75 82.908 86.751 82.502 88.377 82.273"/><polygon class="cls-16" points="88.378 81.547 88.378 81.953 86.751 82.182 86.752 81.775 88.378 81.547"/><polygon class="cls-6" points="86.47 87.252 82.622 85.159 82.632 79.539 86.48 81.632 86.47 87.252"/><polygon class="cls-20" points="86.48 81.632 82.632 79.539 78.818 76.376 82.666 78.469 86.48 81.632"/><polygon class="cls-14" points="82.666 78.469 78.818 76.376 94.663 74.149 98.511 76.242 82.666 78.469"/></g><g class="cls-2"><polygon class="cls-32" points="125.539 149.36 121.691 147.267 155.54 79.472 159.387 81.565 125.539 149.36"/><polygon class="cls-14" points="58.075 158.842 54.227 156.749 121.691 147.267 125.539 149.36 58.075 158.842"/><polygon class="cls-20" points="159.387 81.565 155.54 79.472 121.925 21.158 125.773 23.251 159.387 81.565"/><polygon class="cls-20" points="57.641 159.715 53.793 157.622 19.747 98.556 23.595 100.65 57.641 159.715"/><polygon class="cls-14" points="57.878 31.981 54.03 29.888 122.359 20.285 126.207 22.378 57.878 31.981"/><polygon class="cls-32" points="23.595 100.65 19.747 98.556 54.03 29.888 57.878 31.981 23.595 100.65"/><path class="cls-18" d="M126.20685,22.37778l34.0458,59.06574L125.9696,150.11214l-68.329,9.603-34.0458-59.06562L57.87788,31.98079Zm-.66833,126.98245,33.849-67.79512L125.77275,23.25128,58.309,32.7327,24.46,100.52794l33.61472,58.31372,67.46379-9.48142"/></g><g class="cls-2"><polygon class="cls-14" points="61.038 151.223 57.191 149.13 57.431 149.097 61.279 151.19 61.038 151.223"/><polygon class="cls-20" points="60.604 152.088 56.757 149.995 55.591 147.981 59.439 150.074 60.604 152.088"/><polygon class="cls-20" points="59.439 150.074 55.591 147.981 27.468 99.19 31.316 101.283 59.439 150.074"/><polygon class="cls-33" points="32.353 99.218 28.505 97.125 29.153 97.44 33.001 99.533 32.353 99.218"/><polygon class="cls-34" points="31.316 101.283 27.468 99.19 28.505 97.125 32.353 99.218 31.316 101.283"/><polygon class="cls-18" points="32.353 99.218 33.001 99.533 32.189 101.16 32.844 102.304 61.038 151.223 61.279 151.19 61.277 151.994 60.604 152.088 59.439 150.074 31.316 101.283 32.353 99.218"/></g><g class="cls-2"><polygon class="cls-20" points="121.832 32.313 117.985 30.219 117.027 28.565 120.874 30.658 121.832 32.313"/><polygon class="cls-32" points="61.362 40.405 57.515 38.312 58.696 35.95 62.544 38.043 61.362 40.405"/><polygon class="cls-14" points="62.544 38.043 58.696 35.95 117.469 27.69 121.316 29.783 62.544 38.043"/><polygon class="cls-18" points="121.316 29.783 122.482 31.815 121.832 32.313 120.874 30.658 62.975 38.795 62.01 40.72 61.362 40.405 62.544 38.043 121.316 29.783"/></g><g class="cls-2"><polygon class="cls-6" points="120.282 141.519 116.434 139.426 116.436 138.613 120.283 140.706 120.282 141.519"/><polygon class="cls-14" points="120.283 140.706 116.436 138.613 117.405 138.477 121.252 140.57 120.283 140.706"/><polygon class="cls-33" points="150.415 82.155 146.568 80.062 147.216 80.377 151.063 82.47 150.415 82.155"/><polygon class="cls-32" points="121.252 140.57 117.405 138.477 146.568 80.062 150.415 82.155 121.252 140.57"/><polygon class="cls-18" points="150.415 82.155 151.063 82.47 121.683 141.322 120.282 141.519 120.283 140.706 121.252 140.57 150.415 82.155"/></g></svg>