<svg id="Layer_1" data-name="Layer 1" xmlns="http://www.w3.org/2000/svg" xmlns:xlink="http://www.w3.org/1999/xlink" viewBox="0 0 180 180"><defs><style>.cls-1{fill:none;}.cls-2{isolation:isolate;}.cls-3{fill:#9f4f32;}.cls-4{fill:#804028;}.cls-5{fill:#b45a39;}.cls-6{fill:gray;}.cls-7{fill:#b3b3b3;}.cls-8{fill:#dfdfdf;}.cls-9{fill:#824129;}.cls-10{fill:#ac5636;}.cls-11{fill:#a0a0a0;}.cls-12{fill:#b5b5b5;}.cls-13{clip-path:url(#clip-path);}.cls-14{fill:#9e4f32;}.cls-15{fill:#a35133;}.cls-16{fill:#a85435;}.cls-17{clip-path:url(#clip-path-2);}.cls-18{fill:#994c30;}.cls-19{fill:#944a2e;}.cls-20{fill:#8f472d;}.cls-21{fill:#8a452b;}.cls-22{fill:#85422a;}.cls-23{fill:#964a2f;}.cls-24{clip-path:url(#clip-path-3);}.cls-25{clip-path:url(#clip-path-4);}.cls-26{clip-path:url(#clip-path-5);}.cls-27{clip-path:url(#clip-path-6);}.cls-28{fill:#858585;}.cls-29{fill:#8b8b8b;}.cls-30{fill:#acacac;}.cls-31{clip-path:url(#clip-path-7);}.cls-32{fill:#a8a8a8;}.cls-33{clip-path:url(#clip-path-8);}.cls-34{fill:#8a8a8a;}.cls-35{fill:#8f8f8f;}.cls-36{fill:#949494;}.cls-37{fill:#999;}.cls-38{fill:#9e9e9e;}.cls-39{fill:#a3a3a3;}.cls-40{fill:#9a9a9a;}.cls-41{fill:#828282;}.cls-42{fill:#b4b4b4;}.cls-43{clip-path:url(#clip-path-9);}.cls-44{clip-path:url(#clip-path-10);}.cls-45{fill:#b2b2b2;}.cls-46{fill:#929292;}.cls-47{clip-path:url(#clip-path-11);}.cls-48{fill:#8b452c;}.cls-49{clip-path:url(#clip-path-12);}.cls-50{clip-path:url(#clip-path-13);}.cls-51{fill:#ad5636;}.cls-52{fill:#adadad;}.cls-53{fill:#df6f46;}</style><clipPath id="clip-path"><path class="cls-1" d="M84.8637,124.90041l-4.11146-2.23658a12.72128,12.72128,0,0,0,7.92743,1.3666l4.11145,2.23659A12.72117,12.72117,0,0,1,84.8637,124.90041Z"/></clipPath><clipPath id="clip-path-2"><path class="cls-1" d="M96.67359,93.30283l4.11144,2.2366c4.15664,2.26116,6.91383,6.88736,6.90323,12.59144-.01643,8.84471-6.69447,16.98334-14.89715,18.13616l-4.11145-2.23659c8.20267-1.15281,14.88072-9.29144,14.89715-18.13616C103.58741,100.1902,100.83023,95.564,96.67359,93.30283Z"/></clipPath><clipPath id="clip-path-3"><path class="cls-1" d="M105.7006,65.06168l-4.11145-2.23659q1.50231.30539,2.95524.735l4.11144,2.23659Q107.20389,65.36736,105.7006,65.06168Z"/></clipPath><clipPath id="clip-path-4"><path class="cls-1" d="M66.77657,149.69115l-4.11145-2.23658a35.70164,35.70164,0,0,1-7.66633-7.35008l4.11144,2.2366A35.70175,35.70175,0,0,0,66.77657,149.69115Z"/></clipPath><clipPath id="clip-path-5"><path class="cls-1" d="M98.2317,64.34018l-4.11145-2.23657a36.91312,36.91312,0,0,1,5.097.32248l4.11145,2.23659A36.91523,36.91523,0,0,0,98.2317,64.34018Z"/></clipPath><clipPath id="clip-path-6"><path class="cls-1" d="M102.1865,64.43754,98.075,62.201a.72121.72121,0,0,1-.30966-.82577l4.11145,2.23659A.7212.7212,0,0,0,102.1865,64.43754Z"/></clipPath><clipPath id="clip-path-7"><path class="cls-1" d="M110.38754,38.31086l-4.11145-2.23659a2.53419,2.53419,0,0,1,.77792.00943l4.11145,2.23659A2.53419,2.53419,0,0,0,110.38754,38.31086Z"/></clipPath><clipPath id="clip-path-8"><path class="cls-1" d="M107.65295,40.93165l-4.11145-2.23659a3.73516,3.73516,0,0,1,.67006-1.36384,3.2494,3.2494,0,0,1,2.06454-1.25694l4.11145,2.23659a3.2494,3.2494,0,0,0-2.06454,1.25694A3.73516,3.73516,0,0,0,107.65295,40.93165Z"/></clipPath><clipPath id="clip-path-9"><path class="cls-1" d="M53.66653,132.68193l-4.11145-2.23658a43.85456,43.85456,0,0,1-2.68646-10.9543l4.11144,2.2366A43.85477,43.85477,0,0,0,53.66653,132.68193Z"/></clipPath><clipPath id="clip-path-10"><path class="cls-1" d="M76.78206,70.43182l-4.11145-2.23659a44.68039,44.68039,0,0,1,10.35506-4.472l4.11144,2.23659A44.68008,44.68008,0,0,0,76.78206,70.43182Z"/></clipPath><clipPath id="clip-path-11"><path class="cls-1" d="M51.0904,109.74068l-4.11145-2.23657q.2584-2.01287.67028-3.99177l4.11145,2.23659Q51.35,107.726,51.0904,109.74068Z"/></clipPath><clipPath id="clip-path-12"><path class="cls-1" d="M53.04578,100.786l-4.11145-2.23659q.41625-1.33766.9011-2.64883l4.11144,2.23659Q53.46216,99.44733,53.04578,100.786Z"/></clipPath><clipPath id="clip-path-13"><path class="cls-1" d="M59.57337,87.00861,55.46191,84.772a54.541,54.541,0,0,1,7.601-9.22782l4.11143,2.23659A54.54111,54.54111,0,0,0,59.57337,87.00861Z"/></clipPath></defs><title>ICONS invente18 no bg</title><g class="cls-2"><polygon class="cls-3" points="131.832 121.921 127.72 119.685 134.369 122.899 138.481 125.136 131.832 121.921"/><polygon class="cls-4" points="112.611 156.621 108.5 154.385 104.708 147.795 108.82 150.032 112.611 156.621"/><polygon class="cls-5" points="134.583 98.007 130.472 95.77 138.322 94.667 142.433 96.903 134.583 98.007"/><polygon class="cls-6" points="134.206 94.222 130.094 91.985 129.099 88.737 133.211 90.973 134.206 94.222"/><polygon class="cls-7" points="133.211 90.973 129.099 88.737 148.184 79.684 152.295 81.921 133.211 90.973"/><polygon class="cls-8" points="152.295 81.921 153.29 85.161 134.206 94.222 133.211 90.973 152.295 81.921"/><polygon class="cls-9" points="86.954 164.437 82.843 162.2 82.858 153.865 86.97 156.102 86.954 164.437"/><polygon class="cls-10" points="126.044 77.477 121.933 75.24 128.918 69.911 133.029 72.147 126.044 77.477"/><polygon class="cls-6" points="129.033 72.112 124.922 69.876 124.272 69.313 128.384 71.549 129.033 72.112"/><polygon class="cls-6" points="129.014 69.358 124.903 67.121 124.849 67.074 128.96 69.311 129.014 69.358"/><polygon class="cls-11" points="128.938 68.468 124.827 66.231 125.411 65.468 129.522 67.705 128.938 68.468"/><polygon class="cls-11" points="128.559 68.964 124.447 66.727 124.827 66.231 128.938 68.468 128.559 68.964"/><polygon class="cls-6" points="128.96 69.311 124.849 67.074 124.447 66.727 128.559 68.964 128.96 69.311"/><polygon class="cls-8" points="129.522 67.705 129.978 68.09 129.014 69.358 128.96 69.311 128.559 68.964 128.938 68.468 129.522 67.705"/><polygon class="cls-6" points="128.384 71.549 124.272 69.313 121.928 67.28 126.039 69.517 128.384 71.549"/><polygon class="cls-6" points="125.11 75.836 120.999 73.599 116.306 69.531 120.417 71.767 125.11 75.836"/><polygon class="cls-6" points="126.039 69.517 121.928 67.28 118.933 64.684 123.045 66.921 126.039 69.517"/><polygon class="cls-11" points="120.417 71.767 116.306 69.531 119.581 65.25 123.692 67.487 120.417 71.767"/><polygon class="cls-8" points="123.692 67.487 126.039 69.517 128.384 71.549 125.11 75.836 120.417 71.767 123.692 67.487"/><polygon class="cls-8" points="128.869 65.817 128.938 68.468 128.559 68.964 128.96 69.311 129.033 72.112 128.384 71.549 126.039 69.517 123.045 66.921 128.869 65.817"/><polygon class="cls-12" points="123.045 66.921 118.933 64.684 124.757 63.58 128.869 65.817 123.045 66.921"/><g class="cls-2"><g class="cls-13"><g class="cls-2"><path class="cls-14" d="M84.8637,124.90041l-4.11145-2.23659q.22442.12208.4542.23492l4.11145,2.23659q-.22975-.1128-.4542-.23492"/><path class="cls-15" d="M85.3179,125.13533l-4.11145-2.23659a12.27142,12.27142,0,0,0,2.35169.8689l4.11145,2.23659a12.27142,12.27142,0,0,1-2.35169-.8689"/><path class="cls-16" d="M87.66959,126.00423l-4.11145-2.23659a13.13672,13.13672,0,0,0,5.12153.26279l4.11145,2.23659a13.13672,13.13672,0,0,1-5.12153-.26279"/></g></g></g><g class="cls-2"><g class="cls-17"><g class="cls-2"><path class="cls-16" d="M92.79112,126.267l-4.11145-2.23659a15.15776,15.15776,0,0,0,4.334-1.30348l4.11145,2.23659a15.15776,15.15776,0,0,1-4.334,1.30348"/><path class="cls-15" d="M97.12515,124.96354,93.0137,122.727a16.812,16.812,0,0,0,2.4148-1.39275l4.11145,2.23659a16.81194,16.81194,0,0,1-2.4148,1.39275"/><path class="cls-14" d="M99.53995,123.57079,95.4285,121.3342a18.00775,18.00775,0,0,0,1.80048-1.42487l4.11145,2.23659a18.00776,18.00776,0,0,1-1.80048,1.42487"/><path class="cls-18" d="M101.34043,122.14592,97.229,119.90933a18.86176,18.86176,0,0,0,1.52059-1.53585l4.11145,2.23659a18.86174,18.86174,0,0,1-1.52059,1.53585"/><path class="cls-19" d="M102.861,120.61007l-4.11145-2.23659a19.40307,19.40307,0,0,0,1.34172-1.70292l4.11145,2.23659a19.40309,19.40309,0,0,1-1.34172,1.70292"/><path class="cls-20" d="M104.20274,118.90715l-4.11145-2.23659a19.61182,19.61182,0,0,0,1.21391-1.96869l4.11145,2.23659a19.61182,19.61182,0,0,1-1.21391,1.96869"/><path class="cls-21" d="M105.41665,116.93845l-4.11145-2.23659a19.43484,19.43484,0,0,0,1.12788-2.50546l4.11145,2.23659a19.43487,19.43487,0,0,1-1.12788,2.50546"/><path class="cls-22" d="M106.54453,114.433l-4.11145-2.23659a18.39385,18.39385,0,0,0,1.14373-6.30213c.01059-5.70408-2.74659-10.33028-6.90323-12.59145l4.11145,2.23659c4.15663,2.26117,6.91382,6.88737,6.90323,12.59145a18.39385,18.39385,0,0,1-1.14373,6.30213"/></g></g></g><polygon class="cls-23" points="62.806 157.639 58.694 155.403 62.665 147.455 66.777 149.691 62.806 157.639"/><polygon class="cls-3" points="112.796 57.505 108.684 55.268 118.285 59.9 122.397 62.137 112.796 57.505"/><polygon class="cls-23" points="108.656 65.797 104.544 63.56 108.684 55.268 112.796 57.505 108.656 65.797"/><g class="cls-2"><g class="cls-24"><g class="cls-2"><path class="cls-16" d="M105.7006,65.06168l-4.11145-2.23659q.92777.18859,1.837.42466l4.11145,2.23659q-.909-.236-1.837-.42466"/><path class="cls-15" d="M107.53758,65.48634l-4.11145-2.23659q.56292.14615,1.11826.31036l4.11145,2.23659q-.55529-.1642-1.11826-.31036"/></g></g></g><polygon class="cls-10" points="103.329 64.663 99.217 62.426 101.589 62.825 105.701 65.062 103.329 64.663"/><g class="cls-2"><g class="cls-25"><g class="cls-2"><path class="cls-22" d="M66.77657,149.69115l-4.11145-2.23659a35.70133,35.70133,0,0,1-7.66633-7.35007l4.11145,2.23659a35.70133,35.70133,0,0,0,7.66633,7.35007"/></g></g></g><g class="cls-2"><g class="cls-26"><g class="cls-2"><path class="cls-16" d="M98.2317,64.34018l-4.11145-2.23659a36.91523,36.91523,0,0,1,5.097.32249l4.11145,2.23659a36.91523,36.91523,0,0,0-5.097-.32249"/></g></g></g><g class="cls-2"><g class="cls-27"><g class="cls-2"><path class="cls-28" d="M102.1865,64.43754,98.07505,62.201a.7212.7212,0,0,1-.30967-.82577l4.11145,2.23659a.7212.7212,0,0,0,.30967.82577"/></g></g></g><polygon class="cls-29" points="113.413 39.612 109.302 37.376 109.499 36.602 113.61 38.838 113.413 39.612"/><polygon class="cls-30" points="112.653 39.486 108.541 37.249 109.302 37.376 113.413 39.612 112.653 39.486"/><polygon class="cls-29" points="112.653 39.486 108.541 37.249 108.764 36.376 112.875 38.612 112.653 39.486"/><polygon class="cls-30" points="112.456 38.541 108.345 36.304 108.764 36.376 112.875 38.612 112.456 38.541"/><polygon class="cls-30" points="111.165 38.32 107.054 36.084 108.345 36.304 112.456 38.541 111.165 38.32"/><g class="cls-2"><g class="cls-31"><g class="cls-2"><path class="cls-32" d="M110.38754,38.31086l-4.11145-2.23659a2.53419,2.53419,0,0,1,.77792.00943l4.11145,2.23659a2.53419,2.53419,0,0,0-.77792-.00943"/></g></g></g><polygon class="cls-29" points="101.877 63.612 97.765 61.375 103.541 38.695 107.653 40.932 101.877 63.612"/><g class="cls-2"><g class="cls-33"><g class="cls-2"><path class="cls-28" d="M107.65295,40.93165l-4.11145-2.23659a3.72379,3.72379,0,0,1,.11155-.35811l4.11145,2.23659a3.72379,3.72379,0,0,0-.11155.35811"/><path class="cls-34" d="M107.7645,40.57354,103.653,38.337a3.73629,3.73629,0,0,1,.21643-.48079l4.11145,2.23659a3.73629,3.73629,0,0,0-.21643.48079"/><path class="cls-35" d="M107.98093,40.09275l-4.11145-2.23659a3.73717,3.73717,0,0,1,.23159-.37553l4.11145,2.23659a3.73717,3.73717,0,0,0-.23159.37553"/><path class="cls-36" d="M108.21252,39.71723l-4.11145-2.23659q.05355-.07634.11048-.14942.07-.08991.14487-.17464l4.11145,2.23659q-.07479.08469-.14487.17464-.0569.07306-.11048.14942"/><path class="cls-37" d="M108.46788,39.39317l-4.11145-2.23659a3.605,3.605,0,0,1,.28994-.2929l4.11145,2.23659a3.60493,3.60493,0,0,0-.28994.2929"/><path class="cls-38" d="M108.75782,39.10027l-4.11145-2.23659a3.46007,3.46007,0,0,1,.34655-.27431l4.11145,2.23659a3.46006,3.46006,0,0,0-.34655.27431"/><path class="cls-39" d="M109.10437,38.826l-4.11145-2.23659a3.23671,3.23671,0,0,1,.46071-.26617l4.11145,2.23659a3.23671,3.23671,0,0,0-.46071.26617"/><path class="cls-32" d="M109.56508,38.55978l-4.11145-2.23659a2.86783,2.86783,0,0,1,.82246-.24892l4.11145,2.23659a2.86783,2.86783,0,0,0-.82246.24892"/></g></g></g><polygon class="cls-29" points="112.875 38.612 108.764 36.376 112.389 22.126 116.501 24.363 112.875 38.612"/><polygon class="cls-40" points="108.264 39.558 104.153 37.321 110.989 25.928 115.1 28.164 108.264 39.558"/><path class="cls-8" d="M115.1004,28.16418l-2.64408,10.37664-1.29086-.22053a2.53419,2.53419,0,0,0-.77792-.00943,3.2494,3.2494,0,0,0-2.06454,1.25694l-.05885-.01Z"/><path class="cls-8" d="M110.38754,38.31086a2.53419,2.53419,0,0,1,.77792.00943l1.29086.22053.41871.07152-.22223.87323.76059.12652.19679-.77375a.75372.75372,0,0,1,.17966.72946l-6.365,24.97572a.86851.86851,0,0,1-.69048.66107.64919.64919,0,0,1-.19166-.0012l-.84208-.14168-2.3719-.399-.957-.161a.68782.68782,0,0,1-.4949-.88991l5.77612-22.68012a3.73516,3.73516,0,0,1,.67006-1.36384A3.2494,3.2494,0,0,1,110.38754,38.31086Z"/><polygon class="cls-8" points="116.501 24.363 116.471 27.591 113.61 38.838 113.413 39.612 112.653 39.486 112.875 38.612 116.501 24.363"/><polygon class="cls-5" points="87.139 65.19 83.027 62.954 94.122 61.395 98.233 63.631 87.139 65.19"/><polygon class="cls-9" points="87.137 65.96 83.026 63.723 83.027 62.954 87.139 65.19 87.137 65.96"/><polygon class="cls-10" points="46.641 138.043 42.53 135.806 49.555 130.445 53.667 132.682 46.641 138.043"/><polygon class="cls-4" points="52.173 147.638 48.062 145.401 42.53 135.806 46.641 138.043 52.173 147.638"/><polygon class="cls-41" points="96.443 39.767 92.332 37.53 92.332 37.444 96.444 39.681 96.443 39.767"/><polygon class="cls-42" points="96.444 39.681 92.332 37.444 94.199 37.182 98.31 39.418 96.444 39.681"/><g class="cls-2"><g class="cls-43"><g class="cls-2"><path class="cls-22" d="M53.66653,132.68193l-4.11145-2.23659a43.85427,43.85427,0,0,1-2.68647-10.95429l4.11145,2.23659a43.85427,43.85427,0,0,0,2.68647,10.95429"/></g></g></g><g class="cls-2"><g class="cls-44"><g class="cls-2"><path class="cls-15" d="M76.78206,70.43182l-4.11145-2.23659q1.825-1.07356,3.73371-1.975l4.11145,2.23659q-1.90721.89944-3.73371,1.975"/><path class="cls-16" d="M80.51577,68.45683l-4.11145-2.23659a43.72366,43.72366,0,0,1,6.62135-2.497l4.11145,2.23659a43.72366,43.72366,0,0,0-6.62135,2.497"/></g></g></g><polygon class="cls-41" points="87.139 65.19 83.027 62.954 83.04 38.75 87.152 40.986 87.139 65.19"/><polygon class="cls-39" points="81.324 60.318 77.213 58.082 79.551 59.008 83.662 61.245 81.324 60.318"/><polygon class="cls-45" points="80.805 60.583 76.693 58.347 77.213 58.082 81.324 60.318 80.805 60.583"/><polygon class="cls-6" points="80.805 60.583 76.693 58.347 76.511 57.804 80.623 60.04 80.805 60.583"/><polygon class="cls-45" points="80.343 59.205 76.231 56.968 76.816 56.67 80.928 58.906 80.343 59.205"/><polygon class="cls-8" points="80.928 58.906 81.39 60.285 81.324 60.318 80.805 60.583 80.623 60.04 80.343 59.205 80.928 58.906"/><polygon class="cls-6" points="80.623 60.04 76.511 57.804 76.231 56.968 80.343 59.205 80.623 60.04"/><polygon class="cls-45" points="76.729 64.77 72.617 62.534 78.702 59.44 82.813 61.677 76.729 64.77"/><polygon class="cls-8" points="82.813 61.677 84.39 66.363 78.297 69.458 76.729 64.77 82.813 61.677"/><polygon class="cls-6" points="78.297 69.458 74.186 67.222 72.617 62.534 76.729 64.77 78.297 69.458"/><polygon class="cls-42" points="89.474 40.746 85.363 38.51 92.332 37.53 96.443 39.767 89.474 40.746"/><polygon class="cls-41" points="89.474 40.746 85.363 38.51 85.363 38.423 89.475 40.66 89.474 40.746"/><polygon class="cls-8" points="78.413 59.165 80.623 60.04 80.805 60.583 81.324 60.318 83.662 61.245 82.813 61.677 76.729 64.77 75.887 65.199 78.413 59.165"/><polygon class="cls-39" points="78.413 59.165 74.301 56.928 76.511 57.804 80.623 60.04 78.413 59.165"/><polygon class="cls-46" points="75.887 65.199 71.775 62.962 74.301 56.928 78.413 59.165 75.887 65.199"/><polygon class="cls-42" points="87.152 40.986 83.04 38.75 85.363 38.423 89.475 40.66 87.152 40.986"/><polygon class="cls-8" points="98.31 39.418 98.265 63.627 87.139 65.19 87.152 40.986 89.475 40.66 89.474 40.746 96.443 39.767 96.444 39.681 98.31 39.418"/><g class="cls-2"><g class="cls-47"><g class="cls-2"><path class="cls-22" d="M51.0904,109.74068l-4.11145-2.23659q.25839-2.01285.67027-3.99176l4.11145,2.23659q-.41071,1.97712-.67027,3.99176"/></g></g></g><polygon class="cls-41" points="94.764 25.542 90.653 23.306 90.654 22.657 94.765 24.894 94.764 25.542"/><polygon class="cls-42" points="94.765 24.894 90.654 22.657 92.36 22.417 96.472 24.654 94.765 24.894"/><polygon class="cls-48" points="51.761 105.749 47.649 103.512 48.934 98.549 53.046 100.786 51.761 105.749"/><g class="cls-2"><g class="cls-49"><g class="cls-2"><path class="cls-22" d="M53.04578,100.786l-4.11145-2.23659q.40125-1.28947.86626-2.55437L53.912,98.23158q-.46488,1.264-.86626,2.55437"/><path class="cls-21" d="M53.912,98.23158,49.80058,95.995l.03484-.09446,4.11145,2.23659-.03484.09446"/></g></g></g><g class="cls-2"><g class="cls-50"><g class="cls-2"><path class="cls-20" d="M59.57337,87.00861,55.46192,84.772q.48412-.73931.99078-1.46152l4.11145,2.23659q-.50656.7221-.99078,1.46152"/><path class="cls-19" d="M60.56415,85.54709,56.4527,83.3105a54.745,54.745,0,0,1,3.78092-4.79768l4.11145,2.23659a54.745,54.745,0,0,0-3.78092,4.79768"/><path class="cls-18" d="M64.34506,80.74941l-4.11145-2.23659q1.36-1.54,2.82933-2.96861l4.11145,2.23659q-1.46819,1.4272-2.82933,2.96861"/></g></g></g><polygon class="cls-42" points="91.207 26.042 87.096 23.805 90.653 23.306 94.764 25.542 91.207 26.042"/><polygon class="cls-51" points="65.002 74.015 60.89 71.778 70.543 64.501 74.654 66.738 65.002 74.015"/><polygon class="cls-4" points="67.174 77.781 63.063 75.544 60.89 71.778 65.002 74.015 67.174 77.781"/><polygon class="cls-41" points="91.207 26.042 87.096 23.805 87.097 23.157 91.209 25.394 91.207 26.042"/><polygon class="cls-29" points="46.74 106.48 42.628 104.243 43.52 100.786 47.631 103.022 46.74 106.48"/><polygon class="cls-42" points="89.502 25.633 85.391 23.397 87.097 23.157 91.209 25.394 89.502 25.633"/><polygon class="cls-41" points="89.475 40.66 85.363 38.423 85.391 23.397 89.502 25.633 89.475 40.66"/><polygon class="cls-8" points="96.472 24.654 96.444 39.681 96.443 39.767 89.474 40.746 89.475 40.66 89.502 25.633 91.209 25.394 91.207 26.042 94.764 25.542 94.765 24.894 96.472 24.654"/><polygon class="cls-5" points="42.792 110.907 38.68 108.67 46.979 107.504 51.09 109.741 42.792 110.907"/><polygon class="cls-9" points="42.769 122.882 38.658 120.645 38.68 108.67 42.792 110.907 42.769 122.882"/><polygon class="cls-52" points="48.525 99.565 44.413 97.329 49.055 98.085 53.166 100.321 48.525 99.565"/><polygon class="cls-29" points="47.631 103.022 43.52 100.786 44.413 97.329 48.525 99.565 47.631 103.022"/><polygon class="cls-8" points="48.525 99.565 53.166 100.321 53.046 100.786 51.761 105.749 51.375 107.237 46.74 106.48 47.631 103.022 48.525 99.565"/><polygon class="cls-41" points="91.209 25.394 87.097 23.157 87.11 16.076 91.222 18.313 91.209 25.394"/><polygon class="cls-42" points="91.222 18.313 87.11 16.076 90.667 15.576 94.778 17.813 91.222 18.313"/><polygon class="cls-8" points="94.778 17.813 94.765 24.894 94.764 25.542 91.207 26.042 91.209 25.394 91.222 18.313 94.778 17.813"/><polygon class="cls-29" points="46.326 100.876 42.214 98.64 42.372 98.043 46.483 100.28 46.326 100.876"/><polygon class="cls-52" points="46.483 100.28 42.372 98.043 44.661 96.368 48.773 98.605 46.483 100.28"/><polygon class="cls-52" points="45.788 100.788 41.677 98.552 42.214 98.64 46.326 100.876 45.788 100.788"/><polygon class="cls-52" points="43.624 102.371 39.513 100.135 41.677 98.552 45.788 100.788 43.624 102.371"/><polygon class="cls-29" points="44.965 100.653 40.853 98.416 41.023 97.744 45.134 99.981 44.965 100.653"/><polygon class="cls-8" points="45.134 99.981 46.503 100.203 46.483 100.28 46.326 100.876 45.788 100.788 44.965 100.653 45.134 99.981"/><polygon class="cls-52" points="45.134 99.981 41.023 97.744 42.392 97.967 46.503 100.203 45.134 99.981"/><polygon class="cls-8" points="48.773 98.605 48.525 99.565 47.631 103.022 46.49 107.44 43.624 102.371 45.788 100.788 46.326 100.876 46.483 100.28 48.773 98.605"/><polygon class="cls-6" points="46.49 107.44 42.378 105.203 39.513 100.135 43.624 102.371 46.49 107.44"/><polygon class="cls-23" points="46.722 94.641 42.61 92.404 48.181 81.257 52.292 83.494 46.722 94.641"/><path class="cls-53" d="M142.411,108.87786l-7.77014,1.092a53.06866,53.06866,0,0,1-2.80911,11.95136l6.649,3.21443-5.57049,11.15526-6.6089-3.20279a54.4063,54.4063,0,0,1-7.866,9.60218l3.79975,6.5969-9.62365,7.33395-3.79172-6.58943A44.88226,44.88226,0,0,1,98.064,154.60318l-.01537,8.27412-11.09447,1.55923.01548-8.33463a35.94782,35.94782,0,0,1-10.656-1.65733l-3.90656,7.827-9.60142-4.632,3.97088-7.94834a35.70133,35.70133,0,0,1-7.66633-7.35007l-6.937,5.29671-5.532-9.59492,7.02528-5.36094a43.85427,43.85427,0,0,1-2.68647-10.95429l-8.21071,1.15394L42.7916,110.907l8.2988-1.16632q.25839-2.01285.67027-3.99176l1.28511-4.963q.41625-1.33766.9011-2.64883l-7.225-3.49654L52.29235,83.494l7.281,3.51462a54.54085,54.54085,0,0,1,7.601-9.22781l-2.17264-3.766,9.65267-7.27724,2.12764,3.69424a44.68022,44.68022,0,0,1,10.35506-4.472l.00143-.76949L98.233,63.63113l-.00132.709a36.91523,36.91523,0,0,1,5.097.32249l2.3719.399q1.50231.30539,2.95524.735l4.13968-8.292,9.60142,4.632-4.09149,8.19869a35.89478,35.89478,0,0,1,7.73878,7.14112l6.98517-5.32943,5.532,9.58624-6.88089,5.25427a43.62942,43.62942,0,0,1,2.90252,11.0189l7.85026-1.10328ZM92.79112,126.267c8.20267-1.15281,14.88072-9.29144,14.89715-18.13616.01644-8.85339-6.63486-15.1101-14.83754-13.95729C84.656,95.32527,77.97,103.45642,77.95358,112.3098c-.01643,8.84471,6.64283,15.10891,14.83754,13.95722"/><polygon class="cls-3" points="52.292 83.494 48.181 81.257 55.462 84.772 59.573 87.009 52.292 83.494"/><polygon class="cls-6" points="60.867 84.994 56.755 82.758 39.485 67.587 43.597 69.823 60.867 84.994"/><polygon class="cls-11" points="43.597 69.823 39.485 67.587 42.295 63.959 46.406 66.196 43.597 69.823"/><polygon class="cls-8" points="46.406 66.196 63.676 81.367 60.867 84.994 43.597 69.823 46.406 66.196"/><polygon class="cls-6" points="65.002 74.015 60.89 71.778 47.25 47.756 51.362 49.992 65.002 74.015"/><polygon class="cls-52" points="51.362 49.992 47.25 47.756 57.002 40.395 61.113 42.632 51.362 49.992"/><polygon class="cls-8" points="61.113 42.632 74.683 66.716 65.002 74.015 51.362 49.992 61.113 42.632"/></g></svg>