<svg id="Layer_1" data-name="Layer 1" xmlns="http://www.w3.org/2000/svg" xmlns:xlink="http://www.w3.org/1999/xlink" viewBox="0 0 432 432"><defs><style>.cls-1{fill:none;}.cls-2{fill:#fff;}.cls-3{isolation:isolate;}.cls-4{clip-path:url(#clip-path);}.cls-5{fill:#864007;}.cls-6{fill:#813e06;}.cls-7{fill:#783906;}.cls-8{fill:#d1640a;}.cls-9{clip-path:url(#clip-path-2);}.cls-10{fill:#944707;}.cls-11{fill:#9e4c08;}.cls-12{clip-path:url(#clip-path-3);}.cls-13{fill:#994908;}.cls-14{clip-path:url(#clip-path-4);}.cls-15{fill:#9e4b08;}.cls-16{fill:#7a3a06;}.cls-17{fill:#a95108;}.cls-18{clip-path:url(#clip-path-5);}.cls-19{fill:#8f4407;}.cls-20{clip-path:url(#clip-path-6);}.cls-21{clip-path:url(#clip-path-7);}.cls-22{fill:#7c3b06;}.cls-23{fill:#984808;}.cls-24{fill:#8a4207;}.cls-25{clip-path:url(#clip-path-8);}.cls-26{clip-path:url(#clip-path-9);}.cls-27{clip-path:url(#clip-path-10);}.cls-28{fill:#a04c08;}.cls-29{clip-path:url(#clip-path-11);}.cls-30{clip-path:url(#clip-path-12);}.cls-31{clip-path:url(#clip-path-13);}.cls-32{fill:#964708;}.cls-33{clip-path:url(#clip-path-14);}.cls-34{clip-path:url(#clip-path-15);}.cls-35{clip-path:url(#clip-path-16);}.cls-36{clip-path:url(#clip-path-17);}.cls-37{fill:#8b4207;}.cls-38{clip-path:url(#clip-path-18);}.cls-39{fill:#823e07;}.cls-40{fill:#a24d08;}.cls-41{clip-path:url(#clip-path-19);}.cls-42{clip-path:url(#clip-path-20);}.cls-43{clip-path:url(#clip-path-21);}.cls-44{clip-path:url(#clip-path-22);}.cls-45{clip-path:url(#clip-path-23);}.cls-46{fill:#904507;}.cls-47{fill:#a85008;}.cls-48{clip-path:url(#clip-path-24);}.cls-49{clip-path:url(#clip-path-25);}.cls-50{fill:#8c4307;}.cls-51{clip-path:url(#clip-path-26);}.cls-52{clip-path:url(#clip-path-27);}.cls-53{clip-path:url(#clip-path-28);}.cls-54{fill:#954707;}.cls-55{clip-path:url(#clip-path-29);}.cls-56{clip-path:url(#clip-path-30);}</style><clipPath id="clip-path"><path class="cls-1" d="M277.79619,267.04356l-4.55866-2.47985a94.90357,94.90357,0,0,0,9.594-17.29576l4.55865,2.47987A94.90321,94.90321,0,0,1,277.79619,267.04356Z"/></clipPath><clipPath id="clip-path-2"><path class="cls-1" d="M257.87808,281.61556l.09609-.0829,4.55865,2.47987-.09609.08289Q260.15737,282.85551,257.87808,281.61556Z"/></clipPath><clipPath id="clip-path-3"><path class="cls-1" d="M257.87808,281.61556q2.27934,1.23994,4.55864,2.47987a85.04416,85.04416,0,0,1-14.79458,10.26451l-4.55866-2.47986A85.04459,85.04459,0,0,0,257.87808,281.61556Z"/></clipPath><clipPath id="clip-path-4"><path class="cls-1" d="M213.67791,303.481l-4.55866-2.47985a67.823,67.823,0,0,0,8.72228-.6554,68.86423,68.86423,0,0,0,7.61865-1.51152l4.55864,2.47987a68.86443,68.86443,0,0,1-7.61864,1.51152A67.82087,67.82087,0,0,1,213.67791,303.481Z"/></clipPath><clipPath id="clip-path-5"><path class="cls-1" d="M211.43743,249.83292l-4.55867-2.47986a17.3467,17.3467,0,0,0,10.83345,1.91855,23.17228,23.17228,0,0,0,13.80484-7.80919l4.55865,2.47987a23.1723,23.1723,0,0,1-13.80484,7.80918A17.34664,17.34664,0,0,1,211.43743,249.83292Z"/></clipPath><clipPath id="clip-path-6"><path class="cls-1" d="M191.6973,298.72164a5.984,5.984,0,0,1,.53181.28955l.27866.15169.871.474.29753.16188q1.28973.70159,2.57968,1.40279a58.85478,58.85478,0,0,1-12.27806-4.97873l-4.55865-2.47986A58.85433,58.85433,0,0,0,191.6973,298.72164Z"/></clipPath><clipPath id="clip-path-7"><path class="cls-1" d="M183.97853,296.22313l-4.55866-2.47986q-1.25651-.68354-2.47795-1.42726l4.55865,2.47986Q182.72179,295.53941,183.97853,296.22313Z"/></clipPath><clipPath id="clip-path-8"><path class="cls-1" d="M181.50058,294.79587l-4.55865-2.47986q-2.422-1.47373-4.699-3.17395l4.55864,2.47987Q179.0772,293.32,181.50058,294.79587Z"/></clipPath><clipPath id="clip-path-9"><path class="cls-1" d="M169.72515,285.43624l-4.55866-2.47985q-1.54936-1.57951-2.99247-3.27633l4.55865,2.47986Q168.17463,283.8565,169.72515,285.43624Z"/></clipPath><clipPath id="clip-path-10"><path class="cls-1" d="M166.73268,282.15992l-4.55865-2.47986a65.38394,65.38394,0,0,1-9.42251-14.70969l4.55865,2.47986A65.38394,65.38394,0,0,0,166.73268,282.15992Z"/></clipPath><clipPath id="clip-path-11"><path class="cls-1" d="M157.31017,267.45023l-4.55865-2.47986a72.23791,72.23791,0,0,1-4.31853-11.83124l4.55864,2.47987A72.23952,72.23952,0,0,0,157.31017,267.45023Z"/></clipPath><clipPath id="clip-path-12"><path class="cls-1" d="M287.87716,181.61075l-4.55867-2.47986a65.48612,65.48612,0,0,0-9.37439-14.75107l4.55864,2.47987A65.48619,65.48619,0,0,1,287.87716,181.61075Z"/></clipPath><clipPath id="clip-path-13"><path class="cls-1" d="M273.0859,163.59016l4.55865,2.47988a1.5781,1.5781,0,0,0-.1971-.09052l-4.55867-2.47986A1.57875,1.57875,0,0,1,273.0859,163.59016Z"/></clipPath><clipPath id="clip-path-14"><path class="cls-1" d="M258.59249,151.30739q-.98753-.5875-1.99863-1.13762l4.55864,2.47987q1.011.54995,1.99864,1.13761C261.78354,153.0433,259.94552,152.07752,258.59249,151.30739Z"/></clipPath><clipPath id="clip-path-15"><path class="cls-1" d="M228.62874,198.80805l4.55864,2.47987a18.49433,18.49433,0,0,1,4.195,3.14221l-4.55866-2.47986A18.49432,18.49432,0,0,0,228.62874,198.80805Z"/></clipPath><clipPath id="clip-path-16"><path class="cls-1" d="M256.59419,150.17l4.55864,2.47986a59.05967,59.05967,0,0,0-12.81344-5.13933l-4.55865-2.47986A59.06009,59.06009,0,0,1,256.59419,150.17Z"/></clipPath><clipPath id="clip-path-17"><path class="cls-1" d="M237.56994,150.87378l-4.55865-2.47986a1.34667,1.34667,0,0,0,1.33124-.99093l4.55865,2.47986A1.34667,1.34667,0,0,1,237.56994,150.87378Z"/></clipPath><clipPath id="clip-path-18"><path class="cls-1" d="M239.92932,145.849l-4.55866-2.47986a61.05232,61.05232,0,0,1,8.41008,1.66156l4.55865,2.47986A61.05249,61.05249,0,0,0,239.92932,145.849Z"/></clipPath><clipPath id="clip-path-19"><path class="cls-1" d="M230.98041,149.72135l-4.55865-2.47985a.9017.9017,0,0,0,.273.09537l4.55865,2.47986A.90139.90139,0,0,1,230.98041,149.72135Z"/></clipPath><clipPath id="clip-path-20"><path class="cls-1" d="M230.98041,149.72135l-4.55865-2.47985a1.092,1.092,0,0,1-.46933-1.25246l4.55865,2.47986A1.092,1.092,0,0,0,230.98041,149.72135Z"/></clipPath><clipPath id="clip-path-21"><path class="cls-1" d="M230.22048,145.38832l-4.55866-2.47986c.42006-.01191.7506-.018,1.08114-.02205l4.55865,2.47987C230.97107,145.37035,230.64053,145.37641,230.22048,145.38832Z"/></clipPath><clipPath id="clip-path-22"><path class="cls-1" d="M243.37922,110.22236l-4.55865-2.47986a3.87546,3.87546,0,0,1,1.17742.01255l4.55865,2.47986A3.87546,3.87546,0,0,0,243.37922,110.22236Z"/></clipPath><clipPath id="clip-path-23"><path class="cls-1" d="M239.24779,114.17918l-4.55865-2.47986a5.61144,5.61144,0,0,1,1.01341-2.06593,4.90629,4.90629,0,0,1,3.118-1.89089l4.55865,2.47986a4.90629,4.90629,0,0,0-3.118,1.89089A5.61144,5.61144,0,0,0,239.24779,114.17918Z"/></clipPath><clipPath id="clip-path-24"><path class="cls-1" d="M196.11073,155.23111l-4.55865-2.47986q1.71-.97469,3.463-1.86234l4.55864,2.47987Q197.82128,154.25639,196.11073,155.23111Z"/></clipPath><clipPath id="clip-path-25"><path class="cls-1" d="M181.37164,165.88563l-4.55865-2.47986a85.658,85.658,0,0,1,14.7391-10.65452l4.55865,2.47986A85.658,85.658,0,0,0,181.37164,165.88563Z"/></clipPath><clipPath id="clip-path-26"><path class="cls-1" d="M171.30373,176.48672l-4.55866-2.47985a92.30484,92.30484,0,0,1,10.06791-10.6011l4.55865,2.47986A92.30481,92.30481,0,0,0,171.30373,176.48672Z"/></clipPath><clipPath id="clip-path-27"><path class="cls-1" d="M152.2236,216.39841l-4.55866-2.47985a93.14724,93.14724,0,0,1,4.85037-15.81665l4.55865,2.47986A93.147,93.147,0,0,0,152.2236,216.39841Z"/></clipPath><clipPath id="clip-path-28"><path class="cls-1" d="M166.39608,183.11665l-4.55865-2.47986q.35543-.5267.71813-1.0482l4.55864,2.47987Q166.75211,182.58993,166.39608,183.11665Z"/></clipPath><clipPath id="clip-path-29"><path class="cls-1" d="M157.074,200.58177l-4.55865-2.47986q.35436-.87254.72571-1.73674l4.55864,2.47988Q157.42831,199.70941,157.074,200.58177Z"/></clipPath><clipPath id="clip-path-30"><path class="cls-1" d="M165.43922,184.56143l-4.55865-2.47985q.47238-.72727.95686-1.44478l4.55865,2.47986Q165.91117,183.83441,165.43922,184.56143Z"/></clipPath></defs><title>ICONS invente18 colour</title><rect class="cls-2" width="432" height="432"/><g class="cls-3"><g class="cls-3"><g class="cls-4"><g class="cls-3"><path class="cls-5" d="M277.79619,267.04356l-4.55865-2.47986a94.95481,94.95481,0,0,0,5.835-9.4701l4.55865,2.47986a94.95483,94.95483,0,0,1-5.835,9.4701"/><path class="cls-6" d="M283.63119,257.57345l-4.55865-2.47986q2.05246-3.81466,3.759-7.82564l4.55865,2.47986q-1.70258,4.00609-3.759,7.82564"/></g></g></g><polygon class="cls-7" points="281.348 269.008 276.79 266.528 273.238 264.564 277.796 267.044 281.348 269.008"/><path class="cls-8" d="M277.79619,267.04356a94.90327,94.90327,0,0,0,9.594-17.29575l2.16,1.19178-8.202,18.06818Z"/><polygon class="cls-7" points="275.216 270.558 270.658 268.078 268.823 265.495 273.382 267.975 275.216 270.558"/><polygon class="cls-7" points="274.562 296.791 270.003 294.312 259.776 279.921 264.335 282.401 274.562 296.791"/><g class="cls-3"><g class="cls-9"><g class="cls-3"><path class="cls-10" d="M255.16745,289.72047l-4.55865-2.47986a86.96176,86.96176,0,0,0,7.36538-5.70795l4.55865,2.47986a86.96176,86.96176,0,0,1-7.36538,5.70795"/></g></g></g><polygon class="cls-11" points="261.622 278.583 257.063 276.103 268.823 265.495 273.382 267.975 261.622 278.583"/><polygon class="cls-8" points="273.382 267.975 275.216 270.558 286.322 286.193 274.562 296.791 264.335 282.401 261.622 278.583 273.382 267.975"/><polygon class="cls-7" points="264.335 282.401 259.776 279.921 257.063 276.103 261.622 278.583 264.335 282.401"/><path class="cls-8" d="M247.64214,294.35994a85.07036,85.07036,0,0,0,14.89069-10.34742l3.08805,5.97086-14.17241,11.75915Z"/><g class="cls-3"><g class="cls-12"><g class="cls-3"><path class="cls-13" d="M247.64214,294.35994l-4.55865-2.47986a83.02263,83.02263,0,0,0,7.52531-4.63947l4.55865,2.47986a83.02262,83.02262,0,0,1-7.52531,4.63947"/><path class="cls-10" d="M255.16745,289.72047l-4.55865-2.47986a86.96176,86.96176,0,0,0,7.36538-5.70795l4.55865,2.47986a86.96176,86.96176,0,0,1-7.36538,5.70795"/></g></g></g><polygon class="cls-7" points="251.448 301.743 246.89 299.263 243.083 291.88 247.642 294.36 251.448 301.743"/><path class="cls-8" d="M213.67791,303.481a67.82087,67.82087,0,0,0,8.72227-.65539,68.86424,68.86424,0,0,0,7.61865-1.51152l-.01916,10.31449-16.34116,2.2966Z"/><g class="cls-3"><g class="cls-14"><g class="cls-3"><path class="cls-15" d="M213.67791,303.481l-4.55865-2.47986a67.82089,67.82089,0,0,0,8.72227-.65539,68.86423,68.86423,0,0,0,7.61865-1.51152l4.55865,2.47986a68.86424,68.86424,0,0,1-7.61865,1.51152,67.82087,67.82087,0,0,1-8.72227.65539"/></g></g></g><polygon class="cls-16" points="213.659 313.925 209.1 311.445 209.119 301.001 213.678 303.481 213.659 313.925"/><polygon class="cls-17" points="236.076 243.942 231.517 241.462 287.462 233.6 292.021 236.08 236.076 243.942"/><g class="cls-3"><g class="cls-18"><g class="cls-3"><path class="cls-10" d="M211.43743,249.83292l-4.55865-2.47986q.31593.17186.63833.33055l4.55865,2.47986q-.32237-.15864-.63833-.33055"/><path class="cls-13" d="M212.07577,250.16347l-4.55865-2.47986a17.19085,17.19085,0,0,0,3.279,1.219l4.55865,2.47986a17.19084,17.19084,0,0,1-3.279-1.219"/><path class="cls-15" d="M215.35478,251.38245l-4.55865-2.47986a17.64108,17.64108,0,0,0,6.9161.369,20.30939,20.30939,0,0,0,5.83355-1.76357l4.55865,2.47986a20.30939,20.30939,0,0,1-5.83355,1.76357,17.64108,17.64108,0,0,1-6.9161-.369"/><path class="cls-13" d="M228.10443,249.98791l-4.55865-2.47986a23.25156,23.25156,0,0,0,3.31232-1.91549l4.55865,2.47986a23.25156,23.25156,0,0,1-3.31232,1.91549"/><path class="cls-10" d="M231.41674,248.07242l-4.55865-2.47986a25.71334,25.71334,0,0,0,2.57231-2.03784l4.55865,2.47986a25.71336,25.71336,0,0,1-2.57231,2.03784"/><path class="cls-19" d="M233.98906,246.03458l-4.55865-2.47986a27.77517,27.77517,0,0,0,2.08666-2.09229l4.55865,2.47986a27.77517,27.77517,0,0,1-2.08666,2.09229"/></g></g></g><g class="cls-3"><g class="cls-20"><g class="cls-3"><path class="cls-10" d="M183.97884,296.22331l-4.55865-2.47986q1.05171.57212,2.12742,1.10159l4.55865,2.47986q-1.07557-.52936-2.12742-1.10159"/><path class="cls-13" d="M186.10626,297.32489l-4.55865-2.47986a58.93791,58.93791,0,0,0,10.14969,3.87661l4.55865,2.47986a58.93792,58.93792,0,0,1-10.14969-3.87661"/></g></g></g><polygon class="cls-7" points="192.235 310.064 187.677 307.585 173.54 299.804 178.099 302.284 192.235 310.064"/><g class="cls-3"><g class="cls-21"><g class="cls-3"><path class="cls-22" d="M183.97853,296.22313l-4.55865-2.47986q-1.25652-.68353-2.47795-1.42725l4.55865,2.47986q1.22121.74353,2.47795,1.42725"/></g></g></g><polygon class="cls-7" points="177.375 290.933 172.817 288.453 166.054 281.892 170.613 284.372 177.375 290.933"/><polygon class="cls-23" points="169.725 285.436 165.167 282.956 166.054 281.892 170.613 284.372 169.725 285.436"/><path class="cls-8" d="M292.02053,236.07975a93.38412,93.38412,0,0,1-4.63017,13.668,94.9095,94.9095,0,0,1-9.5941,17.29584q-1.25112,1.79-2.5799,3.5142l-1.83441-2.58266L261.622,278.58276l2.71308,3.81783q-.89127.814-1.80216,1.60337A84.66351,84.66351,0,0,1,247.6422,294.36,75.68415,75.68415,0,0,1,230.019,301.3142a68.854,68.854,0,0,1-7.6187,1.51155,67.82038,67.82038,0,0,1-8.72231.65537,61.57785,61.57785,0,0,1-17.42188-2.27961,58.79493,58.79493,0,0,1-14.75547-6.40563q-2.422-1.47373-4.699-3.17395l.57387-.68911-6.76288-6.5609-.88745,1.06432q-1.54938-1.57949-2.99248-3.27632a65.38394,65.38394,0,0,1-9.42251-14.70969,72.23791,72.23791,0,0,1-4.31853-11.83124l55.48816-7.79835a17.40306,17.40306,0,0,0,13.79107,3.93084,23.17228,23.17228,0,0,0,13.80484-7.80919Z"/><path class="cls-8" d="M178.09912,302.28376l3.40132-7.488a58.79257,58.79257,0,0,0,14.75551,6.40573l-4.02055,8.86288Z"/><polygon class="cls-24" points="178.099 302.284 173.54 299.804 176.942 292.316 181.5 294.796 178.099 302.284"/><g class="cls-3"><g class="cls-25"><g class="cls-3"><path class="cls-22" d="M181.50058,294.79587l-4.55865-2.47986q-2.422-1.47373-4.699-3.17395l4.55865,2.47986q2.27558,1.698,4.699,3.17395"/></g></g></g><polygon class="cls-23" points="176.802 291.622 172.243 289.142 172.817 288.453 177.375 290.933 176.802 291.622"/><polygon class="cls-16" points="164.298 299.297 159.74 296.817 159.811 292.786 164.37 295.266 164.298 299.297"/><polygon class="cls-23" points="164.37 295.266 159.811 292.786 160.413 292.063 164.972 294.543 164.37 295.266"/><polygon class="cls-7" points="164.972 294.543 160.413 292.063 159.834 291.503 164.393 293.983 164.972 294.543"/><polygon class="cls-23" points="165.404 290.619 160.845 288.139 165.167 282.956 169.725 285.436 165.404 290.619"/><polygon class="cls-7" points="172.174 297.178 167.616 294.699 160.845 288.139 165.404 290.619 172.174 297.178"/><polygon class="cls-16" points="164.393 293.983 159.834 291.503 159.91 287.233 164.468 289.713 164.393 293.983"/><polygon class="cls-23" points="162.791 295.748 158.233 293.269 159.758 291.429 164.316 293.909 162.791 295.748"/><polygon class="cls-7" points="163.439 296.383 158.88 293.904 158.233 293.269 162.791 295.748 163.439 296.383"/><polygon class="cls-8" points="164.316 293.909 164.393 293.983 164.972 294.543 164.37 295.266 163.439 296.383 162.791 295.748 164.316 293.909"/><polygon class="cls-8" points="170.613 284.372 177.375 290.933 176.802 291.622 172.174 297.178 165.404 290.619 169.725 285.436 170.613 284.372"/><polygon class="cls-8" points="164.468 289.713 173.11 298.093 164.298 299.297 164.37 295.266 164.972 294.543 164.393 293.983 164.468 289.713"/><g class="cls-3"><g class="cls-26"><g class="cls-3"><path class="cls-22" d="M169.72515,285.43624l-4.55865-2.47986q-1.54938-1.57949-2.99248-3.27632l4.55865,2.47986q1.442,1.69658,2.99248,3.27632"/></g></g></g><g class="cls-3"><g class="cls-27"><g class="cls-3"><path class="cls-22" d="M166.73268,282.15992l-4.55865-2.47986a65.38394,65.38394,0,0,1-9.42251-14.70969l4.55865,2.47986a65.38394,65.38394,0,0,0,9.42251,14.70969"/></g></g></g><polygon class="cls-28" points="154.302 269.947 149.744 267.468 152.751 264.97 157.31 267.45 154.302 269.947"/><path class="cls-8" d="M154.30233,269.94745l3.00774-2.49733a65.38466,65.38466,0,0,0,9.4225,14.7098l-4.29109,3.55911Z"/><polygon class="cls-7" points="162.441 285.719 157.883 283.239 149.744 267.468 154.302 269.947 162.441 285.719"/><polygon class="cls-17" points="152.992 255.619 148.433 253.139 203.921 245.341 208.48 247.821 152.992 255.619"/><g class="cls-3"><g class="cls-29"><g class="cls-3"><path class="cls-22" d="M157.31017,267.45023l-4.55865-2.47986a72.23791,72.23791,0,0,1-4.31853-11.83124l4.55865,2.47986a72.23791,72.23791,0,0,0,4.31853,11.83124"/></g></g></g></g><g class="cls-3"><path class="cls-8" d="M289.68183,180.10374l-1.80466,1.507a65.48677,65.48677,0,0,0-9.37441-14.75106l3.03992-2.52769Z"/><g class="cls-3"><g class="cls-30"><g class="cls-3"><path class="cls-22" d="M287.87716,181.61075l-4.55865-2.47986a65.48678,65.48678,0,0,0-9.37441-14.75106l4.55865,2.47986a65.48677,65.48677,0,0,1,9.37441,14.75106"/></g></g></g><polygon class="cls-28" points="278.503 166.86 273.944 164.38 276.984 161.852 281.543 164.332 278.503 166.86"/><polygon class="cls-7" points="283.384 160.357 278.825 157.877 277.841 157.022 282.4 159.502 283.384 160.357"/><polygon class="cls-7" points="283.344 156.179 278.785 153.699 278.712 153.635 283.271 156.115 283.344 156.179"/><g class="cls-3"><g class="cls-31"><g class="cls-3"><path class="cls-13" d="M277.44745,165.97952l-4.55865-2.47986q.07141.027.13817.06l4.55865,2.47986q-.06684-.0329-.13817-.06"/><path class="cls-10" d="M277.58562,166.0395l-4.55865-2.47986q.02989.01471.05894.03053l4.55865,2.47986q-.02905-.0158-.05894-.03053"/></g></g></g><polygon class="cls-32" points="283.236 154.832 278.678 152.352 279.559 151.196 284.117 153.676 283.236 154.832"/><polygon class="cls-32" points="282.664 155.583 278.106 153.103 278.678 152.352 283.236 154.832 282.664 155.583"/><polygon class="cls-8" points="284.117 153.676 284.805 154.271 283.344 156.179 283.271 156.115 282.664 155.583 283.236 154.832 284.117 153.676"/><polygon class="cls-7" points="283.271 156.115 278.712 153.635 278.106 153.103 282.664 155.583 283.271 156.115"/><polygon class="cls-7" points="282.4 159.502 277.841 157.022 274.296 153.945 278.855 156.425 282.4 159.502"/><polygon class="cls-7" points="278.855 156.425 274.296 153.945 269.767 150.014 274.325 152.493 278.855 156.425"/><polygon class="cls-32" points="270.821 159.219 266.262 156.739 270.75 150.869 275.309 153.349 270.821 159.219"/><polygon class="cls-32" points="270.355 159.828 265.797 157.348 266.262 156.739 270.821 159.219 270.355 159.828"/><polygon class="cls-7" points="277.447 165.98 272.889 163.5 265.797 157.348 270.355 159.828 277.447 165.98"/><polygon class="cls-8" points="275.309 153.349 278.855 156.425 282.4 159.502 277.586 165.798 277.447 165.98 270.355 159.828 270.821 159.219 275.309 153.349"/><polygon class="cls-17" points="274.325 152.493 269.767 150.014 278.571 148.344 283.129 150.824 274.325 152.493"/><polygon class="cls-8" points="283.129 150.824 283.236 154.832 282.664 155.583 283.271 156.115 283.384 160.357 282.4 159.502 278.855 156.425 274.325 152.493 283.129 150.824"/><g class="cls-3"><g class="cls-33"><g class="cls-3"><path class="cls-22" d="M263.15114,153.78725l-4.55865-2.47986q-.98766-.58758-1.99889-1.13776l4.55865,2.47986q1.01109.55,1.99889,1.13776"/></g></g></g><g class="cls-3"><g class="cls-34"><g class="cls-3"><path class="cls-22" d="M237.38238,204.43013l-4.55865-2.47986a18.4947,18.4947,0,0,0-4.195-3.14221l4.55865,2.47986a18.4947,18.4947,0,0,1,4.195,3.14221"/></g></g></g><g class="cls-3"><g class="cls-35"><g class="cls-3"><path class="cls-13" d="M248.33939,147.51053l-4.55865-2.47986a58.972,58.972,0,0,1,10.65381,4.021l4.55865,2.47986a58.972,58.972,0,0,0-10.65381-4.021"/><path class="cls-10" d="M258.99321,151.53153l-4.55865-2.47986q1.0923.53761,2.15964,1.11833l4.55865,2.47986q-1.06717-.58053-2.15964-1.11833"/></g></g></g><polygon class="cls-24" points="248.339 147.51 243.781 145.031 247.19 137.507 251.749 139.987 248.339 147.51"/><path class="cls-8" d="M248.33935,147.51043l3.40957-7.52381,14.13612,7.78065-2.73389,6.02A59.152,59.152,0,0,0,248.33935,147.51043Z"/><g class="cls-3"><g class="cls-36"><g class="cls-3"><path class="cls-15" d="M237.56994,150.87378l-4.55865-2.47986a1.85236,1.85236,0,0,0,.64387-.16l4.55865,2.47986a1.85237,1.85237,0,0,1-.64387.16"/><path class="cls-13" d="M238.21381,150.71374l-4.55865-2.47986a1.36065,1.36065,0,0,0,.196-.11226l4.55865,2.47986a1.36065,1.36065,0,0,1-.196.11226"/><path class="cls-10" d="M238.40978,150.60149l-4.55865-2.47986a1.2413,1.2413,0,0,0,.12459-.09837l4.55865,2.47986a1.24129,1.24129,0,0,1-.12459.09837"/><path class="cls-19" d="M238.53437,150.50312l-4.55865-2.47986a1.19233,1.19233,0,0,0,.096-.09687l4.55865,2.47986a1.19235,1.19235,0,0,1-.096.09687"/><path class="cls-37" d="M238.63038,150.40625l-4.55865-2.47986a1.17988,1.17988,0,0,0,.08187-.10389l4.55865,2.47986a1.1799,1.1799,0,0,1-.08187.10389"/><path class="cls-5" d="M238.71225,150.30236l-4.55865-2.47986a1.19757,1.19757,0,0,0,.07406-.1202l4.55865,2.47986a1.19759,1.19759,0,0,1-.07406.1202"/><path class="cls-6" d="M238.78631,150.18216l-4.55865-2.47986a1.25443,1.25443,0,0,0,.073-.16277l4.55865,2.47986a1.2544,1.2544,0,0,1-.073.16277"/><path class="cls-22" d="M238.85931,150.01939l-4.55865-2.47986a1.34591,1.34591,0,0,0,.04187-.13654l4.55865,2.47986a1.34591,1.34591,0,0,1-.04187.13654"/></g></g></g><g class="cls-3"><g class="cls-38"><g class="cls-3"><path class="cls-15" d="M239.92932,145.849l-4.55865-2.47986a61.11326,61.11326,0,0,1,7.73383,1.48181l4.55865,2.47986a61.11327,61.11327,0,0,0-7.73383-1.48181"/><path class="cls-13" d="M247.66315,147.33078l-4.55865-2.47986q.33893.088.67625.17975l4.55865,2.47986q-.33731-.09176-.67625-.17975"/></g></g></g><polygon class="cls-39" points="238.901 149.883 234.343 147.403 235.371 143.369 239.929 145.849 238.901 149.883"/><polygon class="cls-40" points="231.253 149.817 226.695 147.337 233.011 148.394 237.57 150.874 231.253 149.817"/><g class="cls-3"><g class="cls-41"><g class="cls-3"><path class="cls-10" d="M230.98041,149.72135l-4.55865-2.47986.03232.01673,4.55865,2.47986-.03232-.01673"/><path class="cls-13" d="M231.01273,149.73809l-4.55865-2.47986a.89744.89744,0,0,0,.17223.06374l4.55865,2.47986a.89744.89744,0,0,1-.17223-.06374"/><path class="cls-15" d="M231.185,149.80182l-4.55865-2.47986q.03361.00867.06841.01491l4.55865,2.47986q-.0348-.00622-.06841-.01491"/></g></g></g><g class="cls-3"><g class="cls-42"><g class="cls-3"><path class="cls-22" d="M230.98041,149.72135l-4.55865-2.47986a1.092,1.092,0,0,1-.46934-1.25245l4.55865,2.47986a1.092,1.092,0,0,0,.46934,1.25245"/></g></g></g><polygon class="cls-39" points="230.511 148.469 225.952 145.989 226.743 142.886 231.302 145.366 230.511 148.469"/><polygon class="cls-16" points="230.211 150.551 225.652 148.071 225.662 142.908 230.22 145.388 230.211 150.551"/><g class="cls-3"><g class="cls-43"><g class="cls-3"><path class="cls-15" d="M230.22048,145.38832l-4.55865-2.47986c.42006-.01191.7506-.018,1.08114-.022l4.55865,2.47986c-.33054.00407-.66108.01014-1.08114.022"/></g></g></g><polygon class="cls-39" points="247.949 112.187 243.39 109.707 243.69 108.528 248.249 111.008 247.949 112.187"/><polygon class="cls-40" points="246.804 111.994 242.245 109.514 243.39 109.707 247.949 112.187 246.804 111.994"/><polygon class="cls-39" points="246.804 111.994 242.245 109.514 242.583 108.188 247.141 110.668 246.804 111.994"/><polygon class="cls-40" points="246.51 110.562 241.952 108.082 242.583 108.188 247.141 110.668 246.51 110.562"/><polygon class="cls-40" points="244.557 110.235 239.998 107.755 241.952 108.082 246.51 110.562 244.557 110.235"/><polygon class="cls-39" points="231.302 145.366 226.743 142.886 234.689 111.699 239.248 114.179 231.302 145.366"/><polygon class="cls-16" points="230.22 145.388 225.662 142.908 225.679 133.658 230.238 136.138 230.22 145.388"/><path class="cls-8" d="M230.22044,145.38818l.01718-9.25.088-.01237-.0172,9.25982Z"/><polygon class="cls-17" points="230.238 136.138 225.679 133.658 225.767 133.646 230.326 136.126 230.238 136.138"/><g class="cls-3"><g class="cls-44"><g class="cls-3"><path class="cls-15" d="M243.37922,110.22236l-4.55865-2.47986a3.87546,3.87546,0,0,1,1.17742.01255l4.55865,2.47986a3.87546,3.87546,0,0,0-1.17742-.01255"/></g></g></g><polygon class="cls-39" points="247.141 110.668 242.583 108.188 248.07 86.645 252.628 89.125 247.141 110.668"/><g class="cls-3"><g class="cls-45"><g class="cls-3"><path class="cls-22" d="M239.24779,114.17918l-4.55865-2.47986a5.61091,5.61091,0,0,1,.17091-.55067l4.55865,2.47986a5.611,5.611,0,0,0-.17091.55067"/><path class="cls-6" d="M239.41871,113.6285l-4.55865-2.47986a5.61469,5.61469,0,0,1,.32519-.72242l4.55865,2.47986a5.6147,5.6147,0,0,0-.32519.72242"/><path class="cls-5" d="M239.7439,112.90609l-4.55865-2.47986a5.60759,5.60759,0,0,1,.34751-.5635l4.55865,2.47986a5.60763,5.60763,0,0,0-.34751.5635"/><path class="cls-37" d="M240.09141,112.34259l-4.55865-2.47986q.08223-.11723.16979-.22934.1033-.13232.21358-.25716l4.55865,2.47986q-.1102.12478-.21358.25716-.08751.11208-.16979.22934"/><path class="cls-19" d="M240.47478,111.85609l-4.55865-2.47986a5.41733,5.41733,0,0,1,.43578-.44021l4.55865,2.47986a5.41732,5.41732,0,0,0-.43578.44021"/><path class="cls-10" d="M240.91057,111.41588l-4.55865-2.47986a5.211,5.211,0,0,1,.52188-.41306l4.55865,2.47986a5.211,5.211,0,0,0-.52188.41306"/><path class="cls-13" d="M241.43245,111.00282,236.8738,108.523a4.89183,4.89183,0,0,1,.69657-.40237l4.55865,2.47986a4.89183,4.89183,0,0,0-.69657.40236"/><path class="cls-15" d="M242.129,110.60045l-4.55865-2.47986a4.3597,4.3597,0,0,1,1.2502-.37809l4.55865,2.47986a4.3597,4.3597,0,0,0-1.2502.37809"/></g></g></g><path class="cls-8" d="M250.50332,94.87787l-3.993,15.68436-1.95368-.32732a3.87546,3.87546,0,0,0-1.17742-.01255,4.90629,4.90629,0,0,0-3.118,1.89089l-.09659-.01638Z"/><polygon class="cls-46" points="240.165 112.097 235.606 109.617 245.945 92.398 250.503 94.878 240.165 112.097"/><polygon class="cls-8" points="252.628 89.125 252.579 94.007 248.249 111.008 247.949 112.187 246.804 111.994 247.141 110.668 252.628 89.125"/><path class="cls-8" d="M243.37922,110.22236a3.87546,3.87546,0,0,1,1.17742.01255l1.95368.32732.631.10576-.33761,1.32562,1.14482.19345.30024-1.17875a1.1402,1.1402,0,0,1,.27648,1.115L239.92932,145.849l-1.02814,4.03388a1.31343,1.31343,0,0,1-1.03292.99578.9442.9442,0,0,1-.29832-.00485l-6.31657-1.057a1.04241,1.04241,0,0,1-.7423-1.34783l.79054-3.10263,7.94618-31.1871a5.61144,5.61144,0,0,1,1.01341-2.06593A4.90629,4.90629,0,0,1,243.37922,110.22236Z"/><polygon class="cls-17" points="213.349 152.921 208.79 150.441 225.652 148.071 230.211 150.551 213.349 152.921"/><polygon class="cls-16" points="213.349 152.921 208.79 150.441 208.795 147.733 213.354 150.213 213.349 152.921"/><polygon class="cls-16" points="213.354 150.213 208.795 147.733 208.804 143.145 213.362 145.625 213.354 150.213"/><polygon class="cls-16" points="227.459 114.47 222.9 111.99 222.901 111.861 227.459 114.341 227.459 114.47"/><polygon class="cls-17" points="227.459 114.341 222.901 111.861 225.72 111.464 230.279 113.944 227.459 114.341"/><polygon class="cls-47" points="200.306 156.076 195.747 153.597 208.795 147.733 213.354 150.213 200.306 156.076"/><polygon class="cls-7" points="200.306 156.076 195.747 153.597 195.015 150.889 199.574 153.369 200.306 156.076"/><g class="cls-3"><g class="cls-48"><g class="cls-3"><path class="cls-13" d="M196.11073,155.23111l-4.55865-2.47986q1.71-.97469,3.463-1.86234l4.55865,2.47986q-1.75241.88763-3.463,1.86234"/></g></g></g><polygon class="cls-17" points="216.933 115.95 212.375 113.47 222.9 111.99 227.459 114.47 216.933 115.95"/><polygon class="cls-16" points="216.933 115.95 212.375 113.47 212.375 113.34 216.934 115.82 216.933 115.95"/><polygon class="cls-16" points="213.362 145.625 208.804 143.145 208.858 113.834 213.417 116.314 213.362 145.625"/><polygon class="cls-8" points="230.279 113.944 230.238 136.138 230.22 145.388 230.211 150.551 213.349 152.921 213.354 150.213 213.362 145.625 213.417 116.314 216.934 115.82 216.933 115.95 227.459 114.47 227.459 114.341 230.279 113.944"/><polygon class="cls-17" points="213.417 116.314 208.858 113.834 212.375 113.34 216.934 115.82 213.417 116.314"/><polygon class="cls-17" points="225.483 91.912 220.924 89.432 222.943 89.148 227.501 91.628 225.483 91.912"/><polygon class="cls-16" points="225.479 94.116 220.92 91.636 220.924 89.432 225.483 91.912 225.479 94.116"/><polygon class="cls-17" points="220.096 94.873 215.537 92.393 220.92 91.636 225.479 94.116 220.096 94.873"/><g class="cls-3"><g class="cls-49"><g class="cls-3"><path class="cls-10" d="M181.37164,165.88563l-4.55865-2.47986a87.6212,87.6212,0,0,1,8.58923-6.784l4.55865,2.47986a87.6212,87.6212,0,0,0-8.58923,6.784"/><path class="cls-13" d="M189.96086,159.10168l-4.55865-2.47986q2.99679-2.07369,6.14987-3.87057l4.55865,2.47986q-3.1505,1.79318-6.14987,3.87057"/></g></g></g><polygon class="cls-50" points="162.751 201.253 158.192 198.773 165.394 184.277 169.953 186.757 162.751 201.253"/><polygon class="cls-16" points="220.096 94.873 215.537 92.393 215.541 90.188 220.1 92.668 220.096 94.873"/><polygon class="cls-46" points="169.678 183.719 165.12 181.239 168.743 175.293 173.301 177.773 169.678 183.719"/><polygon class="cls-17" points="216.976 93.107 212.417 90.627 215.541 90.188 220.1 92.668 216.976 93.107"/><polygon class="cls-8" points="227.501 91.628 227.459 114.341 227.459 114.47 216.933 115.95 216.934 115.82 216.976 93.107 220.1 92.668 220.096 94.873 225.479 94.116 225.483 91.912 227.501 91.628"/><polygon class="cls-16" points="216.934 115.82 212.375 113.34 212.417 90.627 216.976 93.107 216.934 115.82"/><g class="cls-3"><g class="cls-51"><g class="cls-3"><path class="cls-37" d="M171.30373,176.48672l-4.55865-2.47986q1.25588-1.55032,2.573-3.04187l4.55865,2.47986q-1.31679,1.49109-2.573,3.04187"/><path class="cls-19" d="M173.87678,173.44485l-4.55865-2.47986a91.79417,91.79417,0,0,1,7.38372-7.45933l4.55865,2.47986a91.79417,91.79417,0,0,0-7.38372,7.45933"/><path class="cls-10" d="M181.2605,165.98552l-4.55865-2.47986.11114-.09989,4.55865,2.47986-.11114.09989"/></g></g></g><polygon class="cls-7" points="173.301 177.773 168.743 175.293 166.745 174.007 171.304 176.487 173.301 177.773"/><g class="cls-3"><g class="cls-52"><g class="cls-3"><path class="cls-22" d="M152.2236,216.39841l-4.55865-2.47986a92.83612,92.83612,0,0,1,3.7066-12.86087l4.55865,2.47986a92.83613,92.83613,0,0,0-3.7066,12.86087"/><path class="cls-6" d="M155.9302,203.53754l-4.55865-2.47986q.54755-1.48888,1.14377-2.95577l4.55865,2.47986q-.596,1.46665-1.14377,2.95577"/></g></g></g><polygon class="cls-7" points="169.678 183.719 165.12 181.239 162.556 179.589 167.114 182.068 169.678 183.719"/><g class="cls-3"><g class="cls-53"><g class="cls-3"><path class="cls-5" d="M166.39608,183.11665l-4.55865-2.47986q.35543-.5267.71813-1.0482l4.55865,2.47986q-.3621.52148-.71813,1.0482"/></g></g></g><polygon class="cls-54" points="157.8 198.845 153.241 196.365 158.192 198.773 162.751 201.253 157.8 198.845"/><g class="cls-3"><g class="cls-55"><g class="cls-3"><path class="cls-6" d="M157.074,200.58177l-4.55865-2.47986q.35436-.87254.72571-1.73674l4.55865,2.47986q-.37137.86438-.72571,1.73674"/></g></g></g><polygon class="cls-54" points="165.439 184.561 160.881 182.082 165.394 184.277 169.953 186.757 165.439 184.561"/><g class="cls-3"><g class="cls-56"><g class="cls-3"><path class="cls-5" d="M165.43922,184.56143l-4.55865-2.47986q.47238-.72725.95686-1.44477l4.55865,2.47986q-.48491.71776-.95686,1.44477"/></g></g></g><path class="cls-8" d="M230.22048,145.38832c.42006-.01191.7506-.018,1.08114-.022l-.79054,3.10263a1.04241,1.04241,0,0,0,.7423,1.34783l6.31657,1.057a1.34667,1.34667,0,0,0,1.33124-.99093l1.02814-4.03388a61.05249,61.05249,0,0,1,8.41007,1.66156,59.1548,59.1548,0,0,1,14.81176,6.27673,59.84094,59.84094,0,0,1,7.66961,5.43208l-.46532.60861,7.092,6.15156a2.68787,2.68787,0,0,1,1.05545.88024,65.48867,65.48867,0,0,1,9.37436,14.751,71.794,71.794,0,0,1,5.04939,15.01309l-55.54428,7.80624a17.46488,17.46488,0,0,0-15.01422-5.05546c-5.81556.81732-11.11556,4.29357-15.04888,9.28055l-55.09567,7.74319a93.147,93.147,0,0,1,4.85037-15.81664q.35436-.87254.72571-1.73674l4.95093,2.40833,7.20241-14.49627-4.51381-2.19566q.47238-.72725.95686-1.44477.35543-.5267.71813-1.0482l2.56417,1.65012,3.62282-5.946-1.99747-1.28585a92.30481,92.30481,0,0,1,10.06791-10.60109,85.658,85.658,0,0,1,14.7391-10.65452q1.71-.97469,3.463-1.86234l.73185,2.7076,13.04844-5.86344-.005,2.70788,16.86195-2.36979Z"/><polygon class="cls-28" points="178.363 160.068 173.805 157.588 187.977 145.829 192.536 148.308 178.363 160.068"/><polygon class="cls-7" points="181.372 165.886 176.813 163.406 173.805 157.588 178.363 160.068 181.372 165.886"/><path class="cls-8" d="M196.11065,155.231a85.66116,85.66116,0,0,0-14.739,10.65457l-3.00836-5.81791,14.17257-11.75917Z"/><polygon class="cls-17" points="220.117 83.192 215.559 80.712 220.942 79.956 225.5 82.436 220.117 83.192"/><polygon class="cls-16" points="220.1 92.668 215.541 90.188 215.559 80.712 220.117 83.192 220.1 92.668"/><polygon class="cls-8" points="225.5 82.436 225.483 91.912 225.479 94.116 220.096 94.873 220.1 92.668 220.117 83.192 225.5 82.436"/><polygon class="cls-7" points="157.074 200.582 152.515 198.102 149.875 196.64 154.434 199.12 157.074 200.582"/><path class="cls-8" d="M157.79957,198.8449q-.37124.86434-.72567,1.73682l-2.64-1.46145.71084-1.56675Z"/><polygon class="cls-24" points="154.434 199.12 149.875 196.64 150.586 195.074 155.145 197.554 154.434 199.12"/><polygon class="cls-54" points="155.145 197.554 150.586 195.074 153.241 196.365 157.8 198.845 155.145 197.554"/><polygon class="cls-54" points="161.835 182.808 157.277 180.328 160.881 182.082 165.439 184.561 161.835 182.808"/><polygon class="cls-24" points="161.835 182.808 157.276 180.328 158.077 178.563 162.636 181.043 161.835 182.808"/><path class="cls-8" d="M166.39605,183.11654q-.48492.71784-.95688,1.44485l-3.604-1.75309.80076-1.765Z"/><polygon class="cls-7" points="199.574 153.369 195.015 150.889 184.437 111.752 188.995 114.232 199.574 153.369"/><polygon class="cls-8" points="203.15 107.869 213.362 145.625 213.354 150.213 200.306 156.076 199.574 153.369 188.995 114.232 203.15 107.869"/><polygon class="cls-47" points="188.995 114.232 184.437 111.752 198.591 105.389 203.15 107.869 188.995 114.232"/><polygon class="cls-50" points="136.667 188.565 132.108 186.086 139.311 171.589 143.869 174.069 136.667 188.565"/><polygon class="cls-54" points="143.869 174.069 139.311 171.589 157.277 180.328 161.835 182.808 143.869 174.069"/><polygon class="cls-8" points="143.869 174.069 161.835 182.808 165.439 184.561 169.953 186.757 162.751 201.253 157.8 198.845 155.145 197.554 136.667 188.565 143.869 174.069"/><polygon class="cls-7" points="167.114 182.068 162.556 179.589 136.06 162.538 140.619 165.018 167.114 182.068"/><polygon class="cls-46" points="140.619 165.018 136.06 162.538 139.691 156.591 144.25 159.071 140.619 165.018"/><polygon class="cls-8" points="144.25 159.071 171.304 176.487 173.301 177.773 169.678 183.719 167.114 182.068 140.619 165.018 144.25 159.071"/></g><polygon class="cls-16" points="222.809 82.814 218.25 80.334 218.266 71.636 222.825 74.116 222.809 82.814"/></svg>