<svg id="Layer_1" data-name="Layer 1" xmlns="http://www.w3.org/2000/svg" xmlns:xlink="http://www.w3.org/1999/xlink" viewBox="0 0 432 432"><defs><style>.cls-1{fill:none;}.cls-2{fill:#fff;}.cls-3{isolation:isolate;}.cls-4{clip-path:url(#clip-path);}.cls-5{fill:#9e4b08;}.cls-6{fill:#994908;}.cls-7{fill:#944707;}.cls-8{fill:#8f4407;}.cls-9{fill:#8b4207;}.cls-10{fill:#864007;}.cls-11{fill:#813e06;}.cls-12{fill:#7c3b06;}.cls-13{clip-path:url(#clip-path-2);}.cls-14{fill:#7a3a06;}.cls-15{fill:#a95108;}.cls-16{clip-path:url(#clip-path-3);}.cls-17{fill:#d1640a;}.cls-18{clip-path:url(#clip-path-4);}.cls-19{clip-path:url(#clip-path-5);}.cls-20{clip-path:url(#clip-path-6);}.cls-21{clip-path:url(#clip-path-7);}.cls-22{clip-path:url(#clip-path-8);}.cls-23{fill:#828282;}.cls-24{fill:#aeaeae;}.cls-25{fill:#a2a2a2;}.cls-26{fill:#dfdfdf;}.cls-27{fill:#8f8f8f;}.cls-28{fill:#b4b4b4;}.cls-29{fill:#a3a3a3;}</style><clipPath id="clip-path"><path class="cls-1" d="M237.94772,249.34781l-4.55865-2.47986a5.426,5.426,0,0,0,4.37432-5.32555l4.55865,2.47986A5.426,5.426,0,0,1,237.94772,249.34781Z"/></clipPath><clipPath id="clip-path-2"><path class="cls-1" d="M219.91791,254.67727l4.55864,2.47987a2.6004,2.6004,0,0,1,1.28762,2.35647,3.4417,3.4417,0,0,1-2.77719,3.38095l-4.55865-2.47986a3.4417,3.4417,0,0,0,2.77719-3.38095A2.60044,2.60044,0,0,0,219.91791,254.67727Z"/></clipPath><clipPath id="clip-path-3"><path class="cls-1" d="M211.91862,263.9876,207.36,261.50775a2.37454,2.37454,0,0,0,1.47982.25452l4.55865,2.47986A2.37442,2.37442,0,0,1,211.91862,263.9876Z"/></clipPath><clipPath id="clip-path-4"><path class="cls-1" d="M196.15077,254.49123l-4.55865-2.47986a3.75123,3.75123,0,0,0,2.33751.40225l4.55865,2.47986A3.75119,3.75119,0,0,1,196.15077,254.49123Z"/></clipPath><clipPath id="clip-path-5"><path class="cls-1" d="M193.78569,270.12051l-4.55866-2.47985a8.16289,8.16289,0,0,1-4.049-7.39337l4.55865,2.47986A8.16286,8.16286,0,0,0,193.78569,270.12051Z"/></clipPath><clipPath id="clip-path-6"><path class="cls-1" d="M235.8646,166.18839l4.55865,2.47987a4.08866,4.08866,0,0,1,2.03189,3.69692l-4.55865-2.47986A4.08867,4.08867,0,0,0,235.8646,166.18839Z"/></clipPath><clipPath id="clip-path-7"><path class="cls-1" d="M238.21236,161.87649l4.55865,2.47986a7.48323,7.48323,0,0,0-4.66394-.80165l-4.55865-2.47986A7.48327,7.48327,0,0,1,238.21236,161.87649Z"/></clipPath><clipPath id="clip-path-8"><path class="cls-1" d="M189.89077,179.75262l-4.55865-2.47986c.00967-5.20483,3.92655-9.97339,8.75686-10.65225l4.55865,2.47986C193.81732,169.77923,189.90044,174.54779,189.89077,179.75262Z"/></clipPath></defs><title>ICONS invente18 colour</title><rect class="cls-2" width="432" height="432"/><g class="cls-3"><g class="cls-3"><g class="cls-4"><g class="cls-3"><path class="cls-5" d="M237.94772,249.34781l-4.55865-2.47986a4.448,4.448,0,0,0,1.27177-.38259l4.55865,2.47986a4.448,4.448,0,0,1-1.27177.38259"/><path class="cls-6" d="M239.21949,248.96522l-4.55865-2.47986a4.94036,4.94036,0,0,0,.70962-.4093l4.55865,2.47986a4.94037,4.94037,0,0,1-.70962.4093"/><path class="cls-7" d="M239.92911,248.55592l-4.55865-2.47986a5.29263,5.29263,0,0,0,.5291-.41873l4.55865,2.47986a5.29263,5.29263,0,0,1-.5291.41873"/><path class="cls-8" d="M240.45821,248.13719l-4.55865-2.47986a5.54211,5.54211,0,0,0,.44676-.45123L240.905,247.686a5.54207,5.54207,0,0,1-.44676.45123"/><path class="cls-9" d="M240.905,247.686l-4.55865-2.47986a5.69847,5.69847,0,0,0,.39409-.50018l4.55865,2.47986a5.69845,5.69845,0,0,1-.39409.50018"/><path class="cls-10" d="M241.299,247.18578l-4.55865-2.47986a5.75681,5.75681,0,0,0,.35626-.57775l4.55865,2.47986a5.75683,5.75683,0,0,1-.35626.57775"/><path class="cls-11" d="M241.65531,246.608l-4.55865-2.47986a5.70282,5.70282,0,0,0,.33109-.73548l4.55865,2.47986a5.70285,5.70285,0,0,1-.33109.73548"/><path class="cls-12" d="M241.98639,245.87254l-4.55865-2.47986a5.40038,5.40038,0,0,0,.33565-1.85028l4.55865,2.47986a5.40039,5.40039,0,0,1-.33565,1.85028"/></g></g></g><g class="cls-3"><g class="cls-13"><g class="cls-3"><path class="cls-5" d="M222.987,262.89455l-4.55865-2.47986a2.8311,2.8311,0,0,0,.80955-.24343l4.55865,2.47986a2.8311,2.8311,0,0,1-.80955.24343"/><path class="cls-6" d="M223.79653,262.65111l-4.55865-2.47986a3.13454,3.13454,0,0,0,.45025-.25968l4.55865,2.47986a3.13453,3.13453,0,0,1-.45025.25968"/><path class="cls-7" d="M224.24678,262.39143l-4.55865-2.47986a3.35394,3.35394,0,0,0,.33529-.26535l4.55865,2.47986a3.35394,3.35394,0,0,1-.33529.26535"/><path class="cls-8" d="M224.58207,262.12608l-4.55865-2.47986a3.51076,3.51076,0,0,0,.283-.28586l4.55865,2.47986a3.51077,3.51077,0,0,1-.283.28586"/><path class="cls-9" d="M224.8651,261.84022l-4.55865-2.47986a3.6106,3.6106,0,0,0,.24968-.3169l4.55865,2.47986a3.61061,3.61061,0,0,1-.24968.3169"/><path class="cls-10" d="M225.11478,261.52332l-4.55865-2.47986a3.65,3.65,0,0,0,.22593-.36641l4.55865,2.47986a3.65005,3.65005,0,0,1-.22593.36641"/><path class="cls-11" d="M225.34071,261.15691l-4.55865-2.47986a3.61967,3.61967,0,0,0,.21-.46657l4.55865,2.47986a3.61969,3.61969,0,0,1-.21.46657"/><path class="cls-12" d="M225.55075,260.69033l-4.55865-2.47986a3.43409,3.43409,0,0,0,.21342-1.17673,2.60044,2.60044,0,0,0-1.28761-2.35647l4.55865,2.47986a2.60044,2.60044,0,0,1,1.28761,2.35647,3.43409,3.43409,0,0,1-.21342,1.17673"/></g></g></g><polygon class="cls-14" points="242.322 244.022 237.763 241.542 237.812 215.103 242.371 217.583 242.322 244.022"/><polygon class="cls-15" points="242.371 217.583 237.812 215.103 242.178 214.49 246.737 216.97 242.371 217.583"/><polygon class="cls-15" points="213.398 264.242 208.84 261.762 218.428 260.415 222.987 262.895 213.398 264.242"/><g class="cls-3"><g class="cls-16"><g class="cls-3"><path class="cls-7" d="M211.91862,263.9876,207.36,261.50774q.04176.02272.08453.04372l4.55865,2.47986q-.04276-.021-.08453-.04372"/><path class="cls-6" d="M212.00314,264.03132l-4.55865-2.47986a2.28592,2.28592,0,0,0,.43813.16186l4.55865,2.47986a2.28592,2.28592,0,0,1-.43813-.16186"/><path class="cls-5" d="M212.44127,264.19318l-4.55865-2.47986a2.45524,2.45524,0,0,0,.95715.049l4.55865,2.47986a2.45524,2.45524,0,0,1-.95715-.049"/></g></g></g><polygon class="cls-14" points="242.267 217.598 237.708 215.118 237.741 197.498 242.3 199.977 242.267 217.598"/><polygon class="cls-15" points="242.3 199.977 237.741 197.498 242.211 196.869 246.77 199.349 242.3 199.977"/><polygon class="cls-17" points="246.77 199.349 246.737 216.97 242.371 217.583 242.267 217.598 242.3 199.977 246.77 199.349"/><polygon class="cls-15" points="198.488 254.893 193.93 252.414 233.389 246.868 237.948 249.348 198.488 254.893"/><polygon class="cls-14" points="242.404 199.764 237.846 197.284 237.896 169.885 242.455 172.365 242.404 199.764"/><g class="cls-3"><g class="cls-18"><g class="cls-3"><path class="cls-7" d="M196.15077,254.49123l-4.55865-2.47986q.066.03588.1335.069l4.55865,2.47986q-.06753-.03316-.1335-.069"/><path class="cls-6" d="M196.28427,254.56027l-4.55865-2.47986a3.61246,3.61246,0,0,0,.69245.25581l4.55865,2.47986a3.61247,3.61247,0,0,1-.69245-.25581"/><path class="cls-5" d="M196.97672,254.81609l-4.55865-2.47986a3.87763,3.87763,0,0,0,1.51156.07739l4.55865,2.47986a3.87763,3.87763,0,0,1-1.51156-.07739"/></g></g></g><g class="cls-3"><g class="cls-19"><g class="cls-3"><path class="cls-12" d="M193.78569,270.12051l-4.55865-2.47986a8.16286,8.16286,0,0,1-4.049-7.39336l4.55865,2.47986a8.16286,8.16286,0,0,0,4.049,7.39336"/></g></g></g><g class="cls-3"><g class="cls-20"><g class="cls-3"><path class="cls-12" d="M242.45514,172.36518l-4.55865-2.47986a4.08867,4.08867,0,0,0-2.03189-3.69693l4.55865,2.47986a4.08867,4.08867,0,0,1,2.03189,3.69693"/></g></g></g><g class="cls-3"><g class="cls-21"><g class="cls-3"><path class="cls-5" d="M238.10708,163.55471l-4.55865-2.47986a7.74118,7.74118,0,0,1,3.01776.15418l4.55865,2.47986a7.74118,7.74118,0,0,0-3.01776-.15418"/><path class="cls-6" d="M241.12484,163.70889l-4.55865-2.47986a7.1999,7.1999,0,0,1,1.38.50981l4.55865,2.47986a7.19989,7.19989,0,0,0-1.38-.50981"/><path class="cls-7" d="M242.50487,164.2187l-4.55865-2.47986q.13463.0661.26615.13765l4.55865,2.47986q-.1315-.07153-.26615-.13765"/></g></g></g><polygon class="cls-15" points="198.648 169.1 194.089 166.621 233.548 161.075 238.107 163.555 198.648 169.1"/><polygon class="cls-14" points="189.737 262.727 185.178 260.247 185.332 177.273 189.891 179.753 189.737 262.727"/><path class="cls-17" d="M246.77,199.15044l-4.36572.61356.05089-27.39882a3.85863,3.85863,0,0,0-4.35682-4.09851l-39.45944,5.54566a5.43439,5.43439,0,0,0-4.38239,5.32672l-.1331,71.65708a3.85572,3.85572,0,0,0,4.36489,4.09733l39.45944-5.54566a5.426,5.426,0,0,0,4.37432-5.32555l.04911-26.43911,4.36572-.61356-.07013,37.75655c-.00967,5.20487-3.92655,9.97339-8.74879,10.65112l-39.45944,5.54566c-4.83032.67886-8.73152-2.99091-8.72185-8.19578l.15412-82.97452c.00967-5.20483,3.92655-9.97339,8.75686-10.65225l39.45944-5.54566c4.82224-.67772,8.72345,2.99208,8.71378,8.19691Zm-33.36041,59.1001a3.44408,3.44408,0,0,0-2.77709,3.38968,2.44523,2.44523,0,0,0,2.766,2.60191l9.58856-1.34758a3.4417,3.4417,0,0,0,2.77719-3.38095,2.44755,2.44755,0,0,0-2.76606-2.61064l-9.58856,1.34758"/><g class="cls-3"><g class="cls-22"><g class="cls-3"><path class="cls-12" d="M189.89077,179.75262l-4.55865-2.47986a10.82406,10.82406,0,0,1,.6725-3.70918l4.55865,2.47986a10.82406,10.82406,0,0,0-.6725,3.70918"/><path class="cls-11" d="M190.56327,176.04344l-4.55865-2.47986a11.394,11.394,0,0,1,.66112-1.46863l4.55865,2.47986a11.394,11.394,0,0,0-.66112,1.46863"/><path class="cls-10" d="M191.22439,174.5748l-4.55865-2.47986a11.48561,11.48561,0,0,1,.71092-1.153l4.55865,2.47986a11.4856,11.4856,0,0,0-.71092,1.153"/><path class="cls-9" d="M191.93531,173.42183l-4.55865-2.47986a11.36185,11.36185,0,0,1,.78574-.99726l4.55865,2.47986a11.36187,11.36187,0,0,0-.78574.99726"/><path class="cls-8" d="M192.72105,172.42457l-4.55865-2.47986a11.05181,11.05181,0,0,1,.89095-.89987l4.55865,2.47986a11.05181,11.05181,0,0,0-.89095.89987"/><path class="cls-7" d="M193.612,171.5247l-4.55865-2.47986a10.566,10.566,0,0,1,1.05613-.83581l4.55865,2.47986a10.566,10.566,0,0,0-1.05613.83581"/><path class="cls-6" d="M194.66813,170.68889l-4.55865-2.47986a9.8868,9.8868,0,0,1,1.4202-.8191l4.55865,2.47986a9.8868,9.8868,0,0,0-1.4202.8191"/><path class="cls-5" d="M196.08833,169.86979l-4.55865-2.47986a8.94936,8.94936,0,0,1,2.5593-.76942l4.55865,2.47986a8.94937,8.94937,0,0,0-2.5593.76942"/></g></g></g></g><g class="cls-3"><polygon class="cls-23" points="235.211 210.604 230.652 208.124 230.652 208.072 235.211 210.552 235.211 210.604"/><polygon class="cls-23" points="225.064 219.386 220.505 216.906 220.509 214.987 225.068 217.467 225.064 219.386"/><polygon class="cls-24" points="225.068 217.467 220.509 214.987 230.652 208.124 235.211 210.604 225.068 217.467"/><polygon class="cls-25" points="225.091 204.619 220.533 202.139 232.456 207.067 237.015 209.547 225.091 204.619"/><polygon class="cls-23" points="225.088 206.538 220.529 204.058 220.533 202.139 225.091 204.619 225.088 206.538"/><polygon class="cls-26" points="225.091 204.619 237.015 209.547 237.012 211.103 225.064 219.386 225.068 217.467 235.211 210.604 235.211 210.552 225.088 206.538 225.091 204.619"/></g><g class="cls-3"><polygon class="cls-27" points="214.528 221.973 209.97 219.493 217.176 198.367 221.735 200.846 214.528 221.973"/><polygon class="cls-28" points="221.735 200.846 217.176 198.367 218.923 198.121 223.481 200.601 221.735 200.846"/><polygon class="cls-26" points="223.481 200.601 216.251 221.731 214.528 221.973 221.735 200.846 223.481 200.601"/></g><g class="cls-3"><polygon class="cls-29" points="202.817 215.157 198.258 212.677 208.301 216.702 212.86 219.182 202.817 215.157"/><polygon class="cls-23" points="200.941 216.147 196.382 213.667 196.385 212.162 200.944 214.642 200.941 216.147"/><polygon class="cls-24" points="200.944 214.642 196.385 212.162 208.325 203.855 212.884 206.334 200.944 214.642"/><polygon class="cls-26" points="212.884 206.334 212.88 208.254 202.817 215.105 202.817 215.157 212.86 219.182 212.856 221.102 200.941 216.147 200.944 214.642 212.884 206.334"/></g></svg>