<svg id="Layer_1" data-name="Layer 1" xmlns="http://www.w3.org/2000/svg" xmlns:xlink="http://www.w3.org/1999/xlink" viewBox="0 0 180 180"><defs><style>.cls-1{fill:none;}.cls-2{isolation:isolate;}.cls-3{clip-path:url(#clip-path);}.cls-4{fill:#a85435;}.cls-5{fill:#a35133;}.cls-6{fill:#9e4f32;}.cls-7{fill:#994c30;}.cls-8{fill:#944a2e;}.cls-9{fill:#8f472d;}.cls-10{fill:#8a452b;}.cls-11{fill:#85422a;}.cls-12{clip-path:url(#clip-path-2);}.cls-13{clip-path:url(#clip-path-3);}.cls-14{clip-path:url(#clip-path-4);}.cls-15{fill:#a8a8a8;}.cls-16{fill:#a3a3a3;}.cls-17{fill:#9e9e9e;}.cls-18{fill:#aeaeae;}.cls-19{clip-path:url(#clip-path-5);}.cls-20{fill:#a0a0a0;}.cls-21{clip-path:url(#clip-path-6);}.cls-22{fill:#999;}.cls-23{fill:#949494;}.cls-24{fill:#8f8f8f;}.cls-25{fill:#8a8a8a;}.cls-26{fill:#858585;}.cls-27{fill:#9f4f32;}.cls-28{fill:#804028;}.cls-29{fill:#a05032;}.cls-30{clip-path:url(#clip-path-7);}.cls-31{clip-path:url(#clip-path-8);}.cls-32{clip-path:url(#clip-path-9);}.cls-33{clip-path:url(#clip-path-10);}.cls-34{clip-path:url(#clip-path-11);}.cls-35{clip-path:url(#clip-path-12);}.cls-36{clip-path:url(#clip-path-13);}.cls-37{fill:#a9a9a9;}.cls-38{clip-path:url(#clip-path-14);}.cls-39{clip-path:url(#clip-path-15);}.cls-40{fill:#a95435;}.cls-41{clip-path:url(#clip-path-16);}.cls-42{fill:#b4b4b4;}.cls-43{clip-path:url(#clip-path-17);}.cls-44{clip-path:url(#clip-path-18);}.cls-45{clip-path:url(#clip-path-19);}.cls-46{clip-path:url(#clip-path-20);}.cls-47{clip-path:url(#clip-path-21);}.cls-48{clip-path:url(#clip-path-22);}.cls-49{clip-path:url(#clip-path-23);}.cls-50{fill:#984c30;}.cls-51{fill:#87432a;}.cls-52{clip-path:url(#clip-path-24);}.cls-53{clip-path:url(#clip-path-25);}.cls-54{clip-path:url(#clip-path-26);}.cls-55{clip-path:url(#clip-path-27);}.cls-56{fill:#b45a39;}.cls-57{clip-path:url(#clip-path-28);}.cls-58{clip-path:url(#clip-path-29);}.cls-59{clip-path:url(#clip-path-30);}.cls-60{clip-path:url(#clip-path-31);}.cls-61{clip-path:url(#clip-path-32);}.cls-62{clip-path:url(#clip-path-33);}.cls-63{clip-path:url(#clip-path-34);}.cls-64{clip-path:url(#clip-path-35);}.cls-65{clip-path:url(#clip-path-36);}.cls-66{clip-path:url(#clip-path-37);}.cls-67{clip-path:url(#clip-path-38);}.cls-68{clip-path:url(#clip-path-39);}.cls-69{clip-path:url(#clip-path-40);}.cls-70{clip-path:url(#clip-path-41);}.cls-71{clip-path:url(#clip-path-42);}.cls-72{fill:#dfdfdf;}.cls-73{clip-path:url(#clip-path-43);}.cls-74{clip-path:url(#clip-path-44);}.cls-75{fill:#df6f46;}.cls-76{fill:#919191;}.cls-77{fill:#adadad;}.cls-78{clip-path:url(#clip-path-45);}.cls-79{clip-path:url(#clip-path-46);}.cls-80{clip-path:url(#clip-path-47);}.cls-81{clip-path:url(#clip-path-48);}.cls-82{fill:gray;}.cls-83{clip-path:url(#clip-path-49);}.cls-84{clip-path:url(#clip-path-50);}.cls-85{clip-path:url(#clip-path-51);}.cls-86{clip-path:url(#clip-path-52);}</style><clipPath id="clip-path"><path class="cls-1" d="M142.07066,126.37348l-4.35689-2.37011c8.038-2.97944,13.85946-11.34346,14.06037-20.32648L156.131,106.047C155.93012,115.03,150.10865,123.394,142.07066,126.37348Z"/></clipPath><clipPath id="clip-path-2"><path class="cls-1" d="M143.48995,88.1256l4.35689,2.37011c5.16131,2.8077,8.449,8.65309,8.28419,15.55128l-4.35689-2.37011C151.9389,96.77869,148.65126,90.9333,143.48995,88.1256Z"/></clipPath><clipPath id="clip-path-3"><path class="cls-1" d="M143.94047,87.28207l4.35688,2.37011a15.39352,15.39352,0,0,0-5.32237-1.73164l-4.3569-2.3701A15.3936,15.3936,0,0,1,143.94047,87.28207Z"/></clipPath><clipPath id="clip-path-4"><path class="cls-1" d="M138.05589,86.43329a14.66569,14.66569,0,0,1,5.43362,1.6921l4.35688,2.37011a14.66559,14.66559,0,0,0-5.43362-1.6921C141.1057,88.09237,139.36295,87.14434,138.05589,86.43329Z"/></clipPath><clipPath id="clip-path-5"><path class="cls-1" d="M142.08525,88.34808,137.72836,85.978c.0896-.8164.13893-1.47168.14795-2.06071A17.88554,17.88554,0,0,0,133.9745,71.967l4.35688,2.37012a17.88543,17.88543,0,0,1,3.90182,11.95026C142.22418,86.87641,142.17485,87.53169,142.08525,88.34808Z"/></clipPath><clipPath id="clip-path-6"><path class="cls-1" d="M127.23494,83.04449a6.16682,6.16682,0,0,0,1.97125-4.97917q1.08927.59257,2.17853,1.1853.83469.45406,1.66946.908l.5089.27684a6.16681,6.16681,0,0,1-1.97125,4.97916q-2.17818-1.18449-4.3562-2.36916l4.35561,2.3694.00026-.0002.00034,0a5.29927,5.29927,0,0,1-2.85411,1.40969l-.00017,0,0-.0001a2.38816,2.38816,0,0,0-.314-.17079l-.83821-.45593q-.70949-.38592-1.419-.77187l-1.78571-.97141.00018,0A5.29922,5.29922,0,0,0,127.23494,83.04449Z"/></clipPath><clipPath id="clip-path-7"><path class="cls-1" d="M128.07415,75.32018a4.0012,4.0012,0,0,0-1.07694-.857l4.35689,2.37011a4.00108,4.00108,0,0,1,1.07694.857A32.1775,32.1775,0,0,1,128.07415,75.32018Z"/></clipPath><clipPath id="clip-path-8"><path class="cls-1" d="M126.54153,75.29553l4.35688,2.37012a3.24589,3.24589,0,0,1,1.05043.91346L127.592,76.209A3.2462,3.2462,0,0,0,126.54153,75.29553Z"/></clipPath><clipPath id="clip-path-9"><path class="cls-1" d="M126.61243,85.542l-4.3569-2.37009a3.42362,3.42362,0,0,0,2.12491.36392,4.38845,4.38845,0,0,0,2.35117-1.15524,5.06088,5.06088,0,0,0,1.60967-4.28877l4.35688,2.37012a5.06082,5.06082,0,0,1-1.60966,4.28875,4.38845,4.38845,0,0,1-2.35117,1.15524A3.4235,3.4235,0,0,1,126.61243,85.542Z"/></clipPath><clipPath id="clip-path-10"><path class="cls-1" d="M124.38066,84.45422a.757.757,0,0,1,.18657.1015l.09528.05183.0965.05249.09767.05315.29935.16283.83276.453,2.74875,1.4953a4.16838,4.16838,0,0,1-2.58684-.445l-4.3569-2.3701A4.16843,4.16843,0,0,0,124.38066,84.45422Z"/></clipPath><clipPath id="clip-path-11"><path class="cls-1" d="M129.59917,68.35779l4.35689,2.37011a14.643,14.643,0,0,1,2.54481,1.75738l-4.3569-2.37009A14.64224,14.64224,0,0,0,129.59917,68.35779Z"/></clipPath><clipPath id="clip-path-12"><path class="cls-1" d="M126.15072,86.37933l-4.35689-2.3701a3.97315,3.97315,0,0,1-.66221-.45271l4.35689,2.37012A3.97366,3.97366,0,0,0,126.15072,86.37933Z"/></clipPath><clipPath id="clip-path-13"><path class="cls-1" d="M126.997,74.463l4.35689,2.37011a4.20107,4.20107,0,0,0-2.60561-.44747,5.31771,5.31771,0,0,0-2.85226,1.40191,6.03893,6.03893,0,0,0-1.81283,5.88176l-4.3569-2.37009a6.039,6.039,0,0,1,1.81284-5.88178,5.31771,5.31771,0,0,1,2.85226-1.40191A4.20113,4.20113,0,0,1,126.997,74.463Z"/></clipPath><clipPath id="clip-path-14"><path class="cls-1" d="M129.59921,68.35784l4.35688,2.37011a15.26159,15.26159,0,0,0-9.10086-1.68836l-4.35689-2.37011A15.26165,15.26165,0,0,1,129.59921,68.35784Z"/></clipPath><clipPath id="clip-path-15"><path class="cls-1" d="M101.457,104.09294a6.20485,6.20485,0,0,0,1.987-4.79122q1.924,1.04667,3.848,2.09329l.50888.27682a6.20482,6.20482,0,0,1-1.987,4.79121,5.29237,5.29237,0,0,1-2.847,1.40244l-.00022,0-.00029-.0004q-.94622-.5148-1.89255-1.02942-1.23193-.67007-2.46385-1.34016l4.35667,2.37a4.18942,4.18942,0,0,1-2.59819-.44657l-4.3569-2.3701a4.18951,4.18951,0,0,0,2.59844.44652A5.29237,5.29237,0,0,0,101.457,104.09294Zm4.35642,2.37022,0,0,0,0v0h.00023l0,0,0,0,0,0-.15509-.08433-.15877-.08634-.16214-.08817-.16519-.08983-.16794-.09132-.17037-.09265-.17248-.0938-.17429-.09478-.17578-.0956-.177-.09624-.17784-.09672-.17839-.097-.17864-.09716-.17857-.09713-.17819-.09693-.1775-.09656-.10605-.05769-.10562-.05746-.10513-.05719-.10456-.05688-.10393-.05654-.10324-.05616-.10247-.05574-.10164-.05529-.10075-.0548-.09978-.05428-.09875-.05372-.09766-.05312-.09649-.05249-.09526-.05182-.094-.05112-.0926-.05038.0926.05038.094.05112.09526.05182.09649.05249.09766.05312.09875.05372.09978.05428.10075.0548.10164.05529.10247.05574.10324.05616.10393.05654.10456.05688.10513.05719.10562.05746.10605.05769.1775.09656.17819.09693.17856.09714.17863.09717.17838.097.17782.09673.17695.09626.17577.09562.17427.0948.17246.09382.17034.09267.16791.09134.16517.08985.16212.08819.15875.08636.15507.08436"/></clipPath><clipPath id="clip-path-16"><path class="cls-1" d="M130.05027,67.51573l4.35689,2.37012a15.96106,15.96106,0,0,0-9.46216-1.77519l-4.3569-2.37011A15.9612,15.9612,0,0,1,130.05027,67.51573Z"/></clipPath><clipPath id="clip-path-17"><path class="cls-1" d="M99.11867,105.77224q1.92391,1.04637,3.84771,2.09288l.00027.00041Q101.04266,106.81889,99.11867,105.77224Z"/></clipPath><clipPath id="clip-path-18"><path class="cls-1" d="M100.7625,96.34138l4.35689,2.37012a3.33749,3.33749,0,0,1,1.0835.94619c.06394.08611.11984.17329.19177.28419l-4.35689-2.37011c-.07193-.1109-.12783-.19808-.19177-.28419A3.3377,3.3377,0,0,0,100.7625,96.34138Z"/></clipPath><clipPath id="clip-path-19"><path class="cls-1" d="M102.512,96.62347a4.03317,4.03317,0,0,0-1.29658-1.12811l4.35688,2.37012a4.03292,4.03292,0,0,1,1.29659,1.1281A26.04327,26.04327,0,0,1,102.512,96.62347Z"/></clipPath><clipPath id="clip-path-20"><path class="cls-1" d="M100.82221,106.577l-4.35689-2.3701a3.46157,3.46157,0,0,0,2.14669.369,4.37174,4.37174,0,0,0,2.34976-1.15675,5.059,5.059,0,0,0,1.60944-4.16767l4.35688,2.37011a5.059,5.059,0,0,1-1.60943,4.16767,4.37174,4.37174,0,0,1-2.34976,1.15675A3.4615,3.4615,0,0,1,100.82221,106.577Z"/></clipPath><clipPath id="clip-path-21"><path class="cls-1" d="M100.36848,107.41895l-4.3569-2.37011a4.0445,4.0445,0,0,1-1.31318-1.147,5.00488,5.00488,0,0,1-.92337-3.0511l4.35688,2.37011a5.005,5.005,0,0,0,.92338,3.05109A4.04445,4.04445,0,0,0,100.36848,107.41895Z"/></clipPath><clipPath id="clip-path-22"><path class="cls-1" d="M101.21537,95.49529l4.35688,2.37012a4.0894,4.0894,0,0,0-1.8476-.48712,4.47847,4.47847,0,0,0-.75383.04213,5.31971,5.31971,0,0,0-2.84463,1.40577,6.0154,6.0154,0,0,0-1.18809,1.524l-4.3569-2.3701a6.0156,6.0156,0,0,1,1.1881-1.524,5.31971,5.31971,0,0,1,2.84463-1.40577,4.47847,4.47847,0,0,1,.75383-.04213A4.08959,4.08959,0,0,1,101.21537,95.49529Z"/></clipPath><clipPath id="clip-path-23"><path class="cls-1" d="M106.41412,49.4051l4.35688,2.37011a28.38494,28.38494,0,0,1,13.46,17.04086L119.87406,66.446A28.385,28.385,0,0,0,106.41412,49.4051Z"/></clipPath><clipPath id="clip-path-24"><path class="cls-1" d="M69.77272,99.86806l-4.3569-2.3701a4.18711,4.18711,0,0,0,2.33875.32737A5.324,5.324,0,0,0,70.60716,96.414a6.43315,6.43315,0,0,0,.9792-1.16619l4.35689,2.37012a6.4334,6.4334,0,0,1-.9792,1.16618,5.324,5.324,0,0,1-2.85259,1.41137A4.187,4.187,0,0,1,69.77272,99.86806Z"/></clipPath><clipPath id="clip-path-25"><path class="cls-1" d="M71.67015,88.96933A4.0297,4.0297,0,0,0,70.36,87.82449l4.35688,2.37011A4.02961,4.02961,0,0,1,76.027,91.33944q-2.17822-1.18486-4.35637-2.36972l4.35646,2.36987a5.03082,5.03082,0,0,1,.89841,3.452l-4.35689-2.37009A5.03088,5.03088,0,0,0,71.67015,88.96933Z"/></clipPath><clipPath id="clip-path-26"><path class="cls-1" d="M69.97841,98.90143l-4.3569-2.3701a3.42947,3.42947,0,0,0,2.13419.37449,4.372,4.372,0,0,0,2.34824-1.16452,5.17336,5.17336,0,0,0,.97128-1.22562l4.35689,2.37011a5.17336,5.17336,0,0,1-.97128,1.22562,4.372,4.372,0,0,1-2.34824,1.16452A3.4294,3.4294,0,0,1,69.97841,98.90143Z"/></clipPath><clipPath id="clip-path-27"><path class="cls-1" d="M69.90186,88.66288,74.25875,91.033a3.33666,3.33666,0,0,1,1.0783.93925,4.25031,4.25031,0,0,1,.7069,3.168l-4.35689-2.37011a4.25031,4.25031,0,0,0-.7069-3.168A3.33675,3.33675,0,0,0,69.90186,88.66288Z"/></clipPath><clipPath id="clip-path-28"><path class="cls-1" d="M48.26367,122.47711l.02286-.07867q2.17847,1.18506,4.35689,2.37012l-.02285.07866Q50.44207,123.66216,48.26367,122.47711Z"/></clipPath><clipPath id="clip-path-29"><path class="cls-1" d="M48.31062,122.31091q2.17846,1.18507,4.35688,2.37011-.0117.04382-.02409.08753-2.17848-1.185-4.35689-2.3701Q48.2989,122.35474,48.31062,122.31091Z"/></clipPath><clipPath id="clip-path-30"><path class="cls-1" d="M48.31062,122.31091l.01863-.07138q.66318.36093,1.32646.72182,1.51515.82434,3.03035,1.64861l-.01854.07106Q50.489,123.496,48.31062,122.31091Z"/></clipPath><clipPath id="clip-path-31"><path class="cls-1" d="M48.26367,122.47711l4.35688,2.37011a6.27587,6.27587,0,0,1-1.743,2.80339q-2.17855-1.1851-4.35729-2.36975l.0004-.00036A6.276,6.276,0,0,0,48.26367,122.47711Z"/></clipPath><clipPath id="clip-path-32"><path class="cls-1" d="M106.41416,49.40513l4.35688,2.37011a27.57965,27.57965,0,0,0-16.46989-3.0673c-.24835.02629-.49662.06118-.73695.095l-4.35689-2.37011c.24033-.03378.48859-.06867.73695-.095A27.57968,27.57968,0,0,1,106.41416,49.40513Z"/></clipPath><clipPath id="clip-path-33"><path class="cls-1" d="M48.32925,122.23953a5.635,5.635,0,0,0-.00378-2.87428q1.924,1.04666,3.848,2.09328l.50888.27683a5.63494,5.63494,0,0,1,.00371,2.87459l-.77541-.4218q-.55861-.30389-1.11725-.6078Q49.56131,122.91,48.32925,122.23953Z"/></clipPath><clipPath id="clip-path-34"><path class="cls-1" d="M48.011,129.06465l-3.84716-2.0928,1.95486,1.06328.24895.13539.2471.13441.48529.26395.23648.12863.45633.2482a.76876.76876,0,0,1,.21815.11865Z"/></clipPath><clipPath id="clip-path-35"><path class="cls-1" d="M70.35991,87.82444l4.35689,2.37011a4.1934,4.1934,0,0,0-2.60073-.44635,5.30574,5.30574,0,0,0-2.8478,1.40016A5.87621,5.87621,0,0,0,67.886,98.11059l-4.35689-2.3701a5.87623,5.87623,0,0,1,1.38228-6.96224,5.30574,5.30574,0,0,1,2.8478-1.40016A4.19341,4.19341,0,0,1,70.35991,87.82444Z"/></clipPath><clipPath id="clip-path-36"><path class="cls-1" d="M47.02912,125.55768q1.92379,1.04652,3.84756,2.093l0,0,.00085-.00009a5.3593,5.3593,0,0,1-2.866,1.41412,4.12241,4.12241,0,0,1-2.56254-.4419l-4.3569-2.3701a4.12252,4.12252,0,0,0,2.56256.44189,5.35918,5.35918,0,0,0,2.86557-1.41377Zm.98192,3.507,0,0,0,0v-.0001l0,0,0,0,0,0v-.00011l-.21815-.11865-.22511-.12244-.23122-.12576-.23648-.12862-.24087-.131-.24442-.13294-.24711-.1344-.24894-.1354-.24992-.13593-.25-.136-.24931-.1356-.24772-.13474-.24527-.13341-.242-.13161-.23782-.12935-.23281-.12663-.0328-.01784-.03267-.01777-.03255-.0177-.03242-.01764-.03229-.01756-.03216-.01749-.032-.01742-.03188-.01734-.03175-.01727-.0316-.01719-.03146-.01711-.03132-.017-.03117-.017-.031-.01687-.03087-.01679-.03071-.01671.03071.01671.03087.01679.031.01687.03117.017.03132.017.03146.01711.0316.01719.03175.01727.03188.01734.032.01742.03216.01749.03229.01756.03242.01764.03255.0177.03267.01777.0328.01784.23279.12663.2378.12936.242.13162.24526.13342.24771.13475.2493.13562.25.136.24992.136.24894.13542.24711.13443.24443.133.24088.131.23649.12865.23123.12579.22512.12247.21816.11868"/></clipPath><clipPath id="clip-path-37"><path class="cls-1" d="M45.8985,127.77665l-4.3569-2.37009a3.40535,3.40535,0,0,0,2.11626.36523,4.40915,4.40915,0,0,0,2.35946-1.16391,4.9513,4.9513,0,0,0,1.42692-5.08423l4.35688,2.37011a4.95127,4.95127,0,0,1-1.42691,5.08422,4.40914,4.40914,0,0,1-2.35946,1.16391A3.40521,3.40521,0,0,1,45.8985,127.77665Z"/></clipPath><clipPath id="clip-path-38"><path class="cls-1" d="M46.84815,117.07491a3.928,3.928,0,0,0-.57986-.38586l4.35689,2.37011a3.92747,3.92747,0,0,1,.57986.38585C49.898,118.734,48.08707,117.89895,46.84815,117.07491Z"/></clipPath><clipPath id="clip-path-39"><path class="cls-1" d="M45.81231,117.52634l4.35689,2.37012a3.25632,3.25632,0,0,1,.73766.54982L46.55,118.07617A3.25677,3.25677,0,0,0,45.81231,117.52634Z"/></clipPath><clipPath id="clip-path-40"><path class="cls-1" d="M45.449,128.62281l-4.35689-2.3701q-.14409-.0784-.28295-.16957l4.35688,2.37011Q45.30481,128.54443,45.449,128.62281Z"/></clipPath><clipPath id="clip-path-41"><path class="cls-1" d="M36.40536,138.31853l-4.35689-2.37011a15.064,15.064,0,0,0,8.0263,1.77722l4.35689,2.37011A15.06394,15.06394,0,0,1,36.40536,138.31853Z"/></clipPath><clipPath id="clip-path-42"><path class="cls-1" d="M36.40537,138.31853l-4.3569-2.37009a14.81184,14.81184,0,0,1-1.37852-.85114l4.35689,2.37012A14.81031,14.81031,0,0,0,36.40537,138.31853Z"/></clipPath><clipPath id="clip-path-43"><path class="cls-1" d="M46.2683,116.689l4.35689,2.37012a4.176,4.176,0,0,0-2.5912-.4432,5.32113,5.32113,0,0,0-2.85225,1.39891,5.93751,5.93751,0,0,0-1.63765,6.41037l-4.3569-2.37009a5.93755,5.93755,0,0,1,1.63766-6.41038,5.32113,5.32113,0,0,1,2.85225-1.39891A4.17606,4.17606,0,0,1,46.2683,116.689Z"/></clipPath><clipPath id="clip-path-44"><path class="cls-1" d="M35.96275,139.16743l-4.3569-2.3701a15.35863,15.35863,0,0,1-1.91384-1.23417l4.35689,2.37011A15.35707,15.35707,0,0,0,35.96275,139.16743Z"/></clipPath><clipPath id="clip-path-45"><path class="cls-1" d="M28.671,133.41611a15.70869,15.70869,0,0,1-2.15824-2.67667l4.35689,2.37011a15.70889,15.70889,0,0,0,2.15824,2.67667A38.97469,38.97469,0,0,1,28.671,133.41611Z"/></clipPath><clipPath id="clip-path-46"><path class="cls-1" d="M106.87465,48.5623l4.35689,2.37012a28.28592,28.28592,0,0,0-16.90468-3.14434c-.25628.0274-.51274.06344-.761.09833-12.73662,1.79-24.3744,11.32587-29.90064,24.54937l-4.3569-2.37009C64.83458,56.84217,76.47235,47.30632,89.209,45.5163c.24825-.03489.50471-.07093.761-.09833A28.286,28.286,0,0,1,106.87465,48.5623Z"/></clipPath><clipPath id="clip-path-47"><path class="cls-1" d="M59.37915,73.28881,55.02226,70.9187a15.95368,15.95368,0,0,1,4.40443.11572l4.35689,2.37011A15.95368,15.95368,0,0,0,59.37915,73.28881Z"/></clipPath><clipPath id="clip-path-48"><path class="cls-1" d="M59.40493,72.369,55.048,69.99886a16.2957,16.2957,0,0,1,4.2603.06681l4.35688,2.37012A16.29513,16.29513,0,0,0,59.40493,72.369Z"/></clipPath><clipPath id="clip-path-49"><path class="cls-1" d="M23.794,120.41865c.2006-8.81878,5.89393-17.13022,13.84393-20.22688l4.35688,2.37012c-7.95,3.09665-13.64332,11.40809-13.84392,20.22687a18.20091,18.20091,0,0,0,2.71877,10.32078l-4.35689-2.3701A18.20094,18.20094,0,0,1,23.794,120.41865Z"/></clipPath><clipPath id="clip-path-50"><path class="cls-1" d="M32.66563,136.762l-4.35689-2.37011a18.24718,18.24718,0,0,1-5.3719-13.87005A23.75177,23.75177,0,0,1,36.98241,99.51453l4.35689,2.37012A23.75174,23.75174,0,0,0,27.29373,122.8919,18.24718,18.24718,0,0,0,32.66563,136.762Z"/></clipPath><clipPath id="clip-path-51"><path class="cls-1" d="M42.30036,101.9052l-4.35689-2.37011a19.21841,19.21841,0,0,1-1.20383-7.25565c.25172-10.49418,8.22962-19.9565,17.87411-21.31195.13625-.01915.27238-.03828.4085-.04879l4.35689,2.37011c-.13612.01051-.27226.02965-.4085.04879C49.32616,74.693,41.34826,84.15537,41.09654,94.64955A19.21841,19.21841,0,0,0,42.30036,101.9052Z"/></clipPath><clipPath id="clip-path-52"><path class="cls-1" d="M41.3393,101.88463l-4.3569-2.37009a20.36888,20.36888,0,0,1-1.0918-7.14179c.26067-10.98808,8.61578-20.901,18.72485-22.32171.14415-.02026.28847-.04054.4326-.05218L59.40493,72.369c-.14413.01164-.28845.03192-.4326.05218C48.86326,73.84189,40.50815,83.75478,40.24748,94.74286A20.36842,20.36842,0,0,0,41.3393,101.88463Z"/></clipPath></defs><title>ICONS invente18 no bg</title><g class="cls-2"><g class="cls-2"><g class="cls-3"><g class="cls-2"><path class="cls-4" d="M142.07066,126.37348l-4.35689-2.37011q.76316-.28288,1.49881-.62927l4.35689,2.37011q-.73522.34578-1.49881.62927"/><path class="cls-5" d="M143.56947,125.74421l-4.35689-2.37011a20.13252,20.13252,0,0,0,2.88067-1.66165l4.35689,2.37011a20.13252,20.13252,0,0,1-2.88067,1.66165"/><path class="cls-6" d="M146.45014,124.08256l-4.35689-2.37011a21.33741,21.33741,0,0,0,2.13872-1.69264l4.35689,2.37011a21.33743,21.33743,0,0,1-2.13872,1.69264"/><path class="cls-7" d="M148.58886,122.38992l-4.35689-2.37011a22.26877,22.26877,0,0,0,1.79148-1.80986l4.35689,2.37011a22.26877,22.26877,0,0,1-1.79148,1.80986"/><path class="cls-8" d="M150.38033,120.58006,146.02344,118.21a22.92809,22.92809,0,0,0,1.58421-2.0106l4.35689,2.37011a22.92809,22.92809,0,0,1-1.58421,2.0106"/><path class="cls-9" d="M151.96454,118.56946l-4.35689-2.37011a23.27826,23.27826,0,0,0,1.4411-2.337l4.35689,2.37011a23.27826,23.27826,0,0,1-1.4411,2.337"/><path class="cls-10" d="M153.40564,116.23248l-4.35689-2.37011a23.23915,23.23915,0,0,0,1.354-3.01064l4.35689,2.37011a23.23915,23.23915,0,0,1-1.354,3.01064"/><path class="cls-11" d="M154.75966,113.22184l-4.35689-2.37011a22.316,22.316,0,0,0,1.37137-7.17485L156.131,106.047a22.316,22.316,0,0,1-1.37137,7.17485"/></g></g></g><g class="cls-2"><g class="cls-12"><g class="cls-2"><path class="cls-11" d="M156.131,106.047l-4.35689-2.37011c.16476-6.8982-3.12289-12.74359-8.28419-15.55129l4.35689,2.37011c5.16131,2.8077,8.44895,8.65309,8.28419,15.55129"/></g></g></g><g class="cls-2"><g class="cls-13"><g class="cls-2"><path class="cls-4" d="M142.975,87.92053l-4.35689-2.37011a15.72383,15.72383,0,0,1,1.82961.357l4.35689,2.37011a15.72383,15.72383,0,0,0-1.82961-.357"/><path class="cls-5" d="M144.80459,88.27753l-4.35689-2.37011a15.29846,15.29846,0,0,1,2.93719,1.087l4.35689,2.37011a15.29846,15.29846,0,0,0-2.93719-1.087"/><path class="cls-6" d="M147.74179,89.36455l-4.35689-2.37011q.28109.13829.55557.28762l4.35689,2.37011q-.27445-.1493-.55557-.28762"/></g></g></g><g class="cls-2"><g class="cls-14"><g class="cls-2"><path class="cls-15" d="M142.41278,88.8034l-4.35689-2.37011a14.98968,14.98968,0,0,1,2.11864.38647l4.35689,2.37011a14.98967,14.98967,0,0,0-2.11864-.38647"/><path class="cls-16" d="M144.53142,89.18986l-4.35689-2.37011a14.54889,14.54889,0,0,1,2.78083,1.02926l4.35689,2.37011a14.54889,14.54889,0,0,0-2.78083-1.02926"/><path class="cls-17" d="M147.31224,90.21913,142.95536,87.849q.27052.13293.53462.27662l4.35689,2.37011q-.26407-.14365-.53462-.27662"/></g></g></g><polygon class="cls-18" points="142.045 88.76 137.688 86.39 138.056 86.433 142.413 88.803 142.045 88.76"/><polygon class="cls-11" points="142.045 88.76 137.688 86.39 137.728 85.978 142.085 88.348 142.045 88.76"/><g class="cls-2"><g class="cls-19"><g class="cls-2"><path class="cls-11" d="M142.08525,88.34808,137.72836,85.978c.0896-.8164.13893-1.47168.14795-2.06071A17.88554,17.88554,0,0,0,133.9745,71.967l4.35689,2.37011a17.88554,17.88554,0,0,1,3.90181,11.95027c-.009.589-.05835,1.24431-.14795,2.06071"/></g></g></g><polygon class="cls-20" points="133.563 80.435 129.206 78.065 133.975 71.967 138.331 74.337 133.563 80.435"/><g class="cls-2"><g class="cls-21"><g class="cls-2"><path class="cls-15" d="M127.055,86.73563l-4.35689-2.37011a4.30868,4.30868,0,0,0,1.68271.08867,4.932,4.932,0,0,0,1.41451-.4271l4.35689,2.37011a4.932,4.932,0,0,1-1.41451.42711,4.30868,4.30868,0,0,1-1.68271-.08867"/><path class="cls-16" d="M130.15223,86.3972l-4.35689-2.37011a5.46037,5.46037,0,0,0,.77875-.4499L130.931,85.9473a5.46036,5.46036,0,0,1-.77875.4499"/><path class="cls-17" d="M130.931,85.9473l-4.35689-2.37011a5.85056,5.85056,0,0,0,.58481-.46308l4.35689,2.37011a5.85055,5.85055,0,0,1-.58481.46308"/><path class="cls-22" d="M131.5158,85.48422l-4.35689-2.37011q.0382-.03439.076-.06962.2237-.20837.42491-.43644l4.35689,2.37011q-.201.22765-.42491.43644-.03783.03523-.076.06962"/><path class="cls-23" d="M132.01674,84.97816l-4.35689-2.37011a6.33708,6.33708,0,0,0,.4381-.55593l4.35689,2.37011a6.33708,6.33708,0,0,1-.4381.55593"/><path class="cls-24" d="M132.45484,84.42223l-4.35689-2.37011a6.37326,6.37326,0,0,0,.39528-.64114l4.35689,2.37011a6.37326,6.37326,0,0,1-.39528.64114"/><path class="cls-25" d="M132.85012,83.78109,128.49323,81.411a6.31387,6.31387,0,0,0,.36618-.81383l4.35689,2.37011a6.31387,6.31387,0,0,1-.36618.81383"/><path class="cls-26" d="M133.2163,82.96726l-4.35689-2.37011a5.82789,5.82789,0,0,0,.34678-2.53183l4.35689,2.37011a5.82789,5.82789,0,0,1-.34678,2.53183"/></g></g></g><polygon class="cls-27" points="132.698 80.462 128.341 78.092 134.017 70.587 138.374 72.957 132.698 80.462"/><polygon class="cls-28" points="132.316 79.167 127.959 76.797 127.592 76.209 131.949 78.579 132.316 79.167"/><polygon class="cls-29" points="132.431 77.69 128.074 75.32 132.144 70.115 136.501 72.485 132.431 77.69"/><g class="cls-2"><g class="cls-30"><g class="cls-2"><path class="cls-26" d="M132.431,77.69028l-4.35689-2.37011a4.00119,4.00119,0,0,0-1.0771-.85712l4.35689,2.37011a4.00119,4.00119,0,0,1,1.0771.85712"/></g></g></g><g class="cls-2"><g class="cls-31"><g class="cls-2"><path class="cls-11" d="M131.94884,78.57911,127.592,76.209a3.2462,3.2462,0,0,0-1.05042-.91348l4.35689,2.37011a3.2462,3.2462,0,0,1,1.05042.91348"/></g></g></g><g class="cls-2"><g class="cls-32"><g class="cls-2"><path class="cls-6" d="M126.61243,85.542l-4.35689-2.37011q.05816.03164.11737.06076l4.35689,2.37011q-.0592-.02913-.11737-.06076"/><path class="cls-5" d="M126.7298,85.60273l-4.35689-2.37011a3.2629,3.2629,0,0,0,.62184.23047l4.35689,2.37011a3.2629,3.2629,0,0,1-.62184-.23047"/><path class="cls-4" d="M127.35164,85.83321l-4.35689-2.37011a3.54731,3.54731,0,0,0,1.38569.0727,4.08816,4.08816,0,0,0,1.17237-.35408l4.35689,2.37011a4.08817,4.08817,0,0,1-1.17237.35408,3.54731,3.54731,0,0,1-1.38569-.0727"/><path class="cls-5" d="M129.9097,85.55182l-4.35689-2.37011a4.52649,4.52649,0,0,0,.64529-.37277l4.35689,2.37011a4.52649,4.52649,0,0,1-.64529.37277"/><path class="cls-6" d="M130.555,85.17906,126.1981,82.809a4.838,4.838,0,0,0,.47991-.37954l4.35689,2.37011a4.83806,4.83806,0,0,1-.47991.37954"/><path class="cls-7" d="M131.0349,84.79951,126.678,82.42941l.0536-.04885q.18716-.17382.35521-.36433l4.35689,2.37011q-.16792.19014-.35521.36433l-.0536.04885"/><path class="cls-8" d="M131.44371,84.38633l-4.35689-2.37011a5.21983,5.21983,0,0,0,.361-.45807l4.35689,2.37011a5.21983,5.21983,0,0,1-.361.45807"/><path class="cls-9" d="M131.80467,83.92826l-4.35689-2.37011a5.25338,5.25338,0,0,0,.32524-.52744l4.35689,2.37011a5.25338,5.25338,0,0,1-.32524.52744"/><path class="cls-10" d="M132.12991,83.40082,127.773,81.03072a5.208,5.208,0,0,0,.3021-.671l4.35689,2.37011a5.208,5.208,0,0,1-.3021.671"/><path class="cls-11" d="M132.432,82.72979l-4.35689-2.37011a4.76751,4.76751,0,0,0,.26616-2.26789l4.35689,2.37011a4.76751,4.76751,0,0,1-.26616,2.26789"/></g></g></g><g class="cls-2"><g class="cls-33"><g class="cls-2"><path class="cls-17" d="M126.15072,86.37934l-4.35689-2.37011q.07139.03883.14407.07458l4.35689,2.37011q-.07267-.03574-.14407-.07458"/><path class="cls-16" d="M126.2948,86.45392l-4.35689-2.37011a3.9885,3.9885,0,0,0,.76022.28171l4.35689,2.37011a3.9885,3.9885,0,0,1-.76022-.28171"/><path class="cls-15" d="M127.055,86.73563l-4.35689-2.37011a4.30868,4.30868,0,0,0,1.68271.08867,4.932,4.932,0,0,0,1.41451-.4271l4.35689,2.37011a4.932,4.932,0,0,1-1.41451.42711,4.30868,4.30868,0,0,1-1.68271-.08867"/></g></g></g><g class="cls-2"><g class="cls-34"><g class="cls-2"><path class="cls-11" d="M136.50087,72.48528,132.144,70.11518a14.64337,14.64337,0,0,0-2.54481-1.75738l4.35689,2.37011a14.64337,14.64337,0,0,1,2.54481,1.75738"/></g></g></g><g class="cls-2"><g class="cls-35"><g class="cls-2"><path class="cls-11" d="M126.15072,86.37933l-4.35689-2.37011a3.97288,3.97288,0,0,1-.66222-.45271l4.35689,2.37011a3.97288,3.97288,0,0,0,.66222.45271"/></g></g></g><g class="cls-2"><g class="cls-36"><g class="cls-2"><path class="cls-11" d="M124.08321,83.66935l-4.35689-2.37011a5.68761,5.68761,0,0,1,.18766-3.43954l4.35689,2.37011a5.68761,5.68761,0,0,0-.18766,3.43954"/><path class="cls-10" d="M124.27087,80.22981,119.914,77.8597a6.27992,6.27992,0,0,1,.363-.8064l4.35689,2.37011a6.27992,6.27992,0,0,0-.363.8064"/><path class="cls-9" d="M124.63389,79.42341,120.277,77.0533a6.33856,6.33856,0,0,1,.39368-.63847l4.35689,2.37011a6.33856,6.33856,0,0,0-.39368.63847"/><path class="cls-8" d="M125.02757,78.78494l-4.35689-2.37011a6.33172,6.33172,0,0,1,.43757-.55512l4.35689,2.37011a6.33172,6.33172,0,0,0-.43757.55512"/><path class="cls-7" d="M125.46514,78.22982l-4.35689-2.37011q.20328-.23018.43089-.44224l.06023-.05495,4.35689,2.37011-.06023.05495q-.22749.21163-.43089.44224"/><path class="cls-6" d="M125.95626,77.73264l-4.35689-2.37011a5.88677,5.88677,0,0,1,.58882-.46627l4.35689,2.37011a5.88677,5.88677,0,0,0-.58882.46627"/><path class="cls-5" d="M126.54508,77.26637l-4.35689-2.37011a5.48236,5.48236,0,0,1,.78159-.45154l4.35689,2.37011a5.48236,5.48236,0,0,0-.78159.45154"/><path class="cls-4" d="M127.32667,76.81483l-4.35689-2.37011a4.95586,4.95586,0,0,1,1.42162-.42915,4.34537,4.34537,0,0,1,1.69558.08919l4.35689,2.37011a4.34537,4.34537,0,0,0-1.69558-.08919,4.95586,4.95586,0,0,0-1.42162.42915"/><path class="cls-5" d="M130.44387,76.47486,126.087,74.10476a4.01179,4.01179,0,0,1,.76529.28336l4.35689,2.37011a4.01179,4.01179,0,0,0-.76529-.28336"/><path class="cls-6" d="M131.20916,76.75822l-4.35689-2.37011q.073.03592.14474.07491l4.35689,2.37011q-.07169-.039-.14474-.07491"/></g></g></g><polygon class="cls-37" points="107.801 101.672 103.444 99.302 121.132 83.557 125.489 85.927 107.801 101.672"/><g class="cls-2"><g class="cls-38"><g class="cls-2"><path class="cls-15" d="M124.85523,69.03959l-4.35689-2.37011a15.79924,15.79924,0,0,1,5.77888.379l4.35689,2.37011a15.79924,15.79924,0,0,0-5.77888-.379"/><path class="cls-16" d="M130.63411,69.4186l-4.35689-2.37011a14.65359,14.65359,0,0,1,2.79489,1.03642L133.429,70.455a14.65359,14.65359,0,0,0-2.79489-1.03642"/><path class="cls-17" d="M133.429,70.455l-4.35689-2.37011q.26615.131.5271.27293l4.35689,2.37011q-.26091-.14193-.5271-.27293"/></g></g></g><g class="cls-2"><g class="cls-39"><g class="cls-2"><path class="cls-17" d="M100.36849,107.419l-4.35689-2.37011q.0717.039.14476.07492l4.35689,2.37011q-.073-.03591-.14476-.07492"/><path class="cls-16" d="M100.51326,107.49389l-4.35689-2.37011a4.003,4.003,0,0,0,.76341.28264l4.35689,2.37011a4.003,4.003,0,0,1-.76341-.28264"/><path class="cls-15" d="M101.27666,107.77653l-4.35689-2.37011a4.33181,4.33181,0,0,0,1.69024.089,4.93732,4.93732,0,0,0,1.41626-.42744l4.35689,2.37011a4.93732,4.93732,0,0,1-1.41626.42744,4.33181,4.33181,0,0,1-1.69024-.089"/><path class="cls-16" d="M104.38316,107.438l-4.35689-2.37011a5.45051,5.45051,0,0,0,.77722-.449l4.35689,2.37011a5.45051,5.45051,0,0,1-.77722.449"/><path class="cls-17" d="M105.16038,106.98905l-4.35689-2.37011a5.84226,5.84226,0,0,0,.58425-.46265l4.35689,2.37011a5.84226,5.84226,0,0,1-.58425.46265"/><path class="cls-22" d="M105.74464,106.5264l-4.35689-2.37011q.0348-.03132.0693-.06336.22544-.20913.42791-.43867l4.35689,2.37011q-.20231.22909-.42791.43867-.0345.032-.0693.06336"/><path class="cls-23" d="M106.24185,106.02437l-4.35689-2.37011a6.27569,6.27569,0,0,0,.43364-.55031l4.35689,2.37011a6.27569,6.27569,0,0,1-.43364.55031"/><path class="cls-24" d="M106.67549,105.47406,102.3186,103.104a6.34867,6.34867,0,0,0,.39386-.63888l4.35689,2.37011a6.34867,6.34867,0,0,1-.39386.63888"/><path class="cls-25" d="M107.06935,104.83518l-4.35689-2.37011a6.32968,6.32968,0,0,0,.366-.81315l4.35689,2.37011a6.32969,6.32969,0,0,1-.366.81315"/><path class="cls-26" d="M107.43538,104.022l-4.35689-2.37011a5.921,5.921,0,0,0,.36553-2.35021l4.35689,2.37011a5.921,5.921,0,0,1-.36553,2.35021"/></g></g></g><polygon class="cls-40" points="106.928 101.622 102.571 99.251 121.246 82.348 125.603 84.718 106.928 101.622"/><g class="cls-2"><g class="cls-41"><g class="cls-2"><path class="cls-4" d="M124.945,68.11066l-4.35689-2.37011a16.51969,16.51969,0,0,1,5.98307.40373l4.35689,2.37011a16.51969,16.51969,0,0,0-5.98307-.40373"/><path class="cls-5" d="M130.92806,68.51439l-4.35689-2.37011a15.34383,15.34383,0,0,1,2.92348,1.08383l4.35689,2.37011a15.34383,15.34383,0,0,0-2.92348-1.08383"/><path class="cls-6" d="M133.85154,69.59822l-4.35689-2.37011q.28057.138.55562.28762l4.35689,2.37011q-.275-.1496-.55562-.28762"/></g></g></g><polygon class="cls-42" points="124.327 69.123 119.97 66.752 120.498 66.669 124.855 69.04 124.327 69.123"/><polygon class="cls-28" points="124.326 69.122 119.97 66.752 119.874 66.446 124.231 68.816 124.326 69.122"/><g class="cls-2"><g class="cls-43"><g class="cls-2"><path class="cls-15" d="M101.27666,107.77653l-4.35689-2.37011a4.33181,4.33181,0,0,0,1.69024.089,4.93732,4.93732,0,0,0,1.41626-.42744l4.35689,2.37011a4.93732,4.93732,0,0,1-1.41626.42744,4.33181,4.33181,0,0,1-1.69024-.089"/></g></g></g><polygon class="cls-28" points="106.626 100.324 102.269 97.954 102.038 97.572 106.395 99.942 106.626 100.324"/><polygon class="cls-40" points="106.869 98.994 102.512 96.623 119.726 81.299 124.083 83.669 106.869 98.994"/><g class="cls-2"><g class="cls-44"><g class="cls-2"><path class="cls-11" d="M106.39466,99.94188l-4.35689-2.37011c-.07193-.1109-.12783-.19808-.19177-.28419a3.3377,3.3377,0,0,0-1.0835-.9462l4.35689,2.37011a3.3377,3.3377,0,0,1,1.0835.9462c.06394.08611.11984.17329.19177.28419"/></g></g></g><g class="cls-2"><g class="cls-45"><g class="cls-2"><path class="cls-26" d="M106.86893,98.99357,102.512,96.62347a4.03317,4.03317,0,0,0-1.29662-1.12813l4.35689,2.37011a4.03317,4.03317,0,0,1,1.29662,1.12813"/></g></g></g><g class="cls-2"><g class="cls-46"><g class="cls-2"><path class="cls-6" d="M100.82221,106.577l-4.35689-2.37011q.05923.03222.1196.06189l4.35689,2.37011q-.06035-.02967-.1196-.06189"/><path class="cls-5" d="M100.94181,106.63885l-4.35689-2.37011a3.30849,3.30849,0,0,0,.63087.23358l4.35689,2.37011a3.3085,3.3085,0,0,1-.63087-.23358"/><path class="cls-4" d="M101.57268,106.87243l-4.35689-2.37011a3.57809,3.57809,0,0,0,1.39621.07357,4.07576,4.07576,0,0,0,1.16927-.35288l4.35689,2.37011a4.07576,4.07576,0,0,1-1.16927.35288,3.57809,3.57809,0,0,1-1.39621-.07357"/><path class="cls-5" d="M104.13817,106.59312,99.78128,104.223a4.50412,4.50412,0,0,0,.64223-.371l4.35689,2.37011a4.50413,4.50413,0,0,1-.64223.371"/><path class="cls-6" d="M104.7804,106.22209l-4.35689-2.37011a4.84,4.84,0,0,0,.48406-.38333l4.35689,2.37011a4.84,4.84,0,0,1-.48406.38333"/><path class="cls-7" d="M105.26446,105.83876l-4.35689-2.37011.0542-.04951a5.00858,5.00858,0,0,0,.3508-.35938l4.35689,2.37011a5.00858,5.00858,0,0,1-.3508.35938l-.0542.04951"/><path class="cls-8" d="M105.66947,105.42987l-4.35689-2.37011a5.13338,5.13338,0,0,0,.3549-.45047l4.35689,2.37011a5.13338,5.13338,0,0,1-.3549.45047"/><path class="cls-9" d="M106.02437,104.9794l-4.35689-2.37011a5.2153,5.2153,0,0,0,.32312-.52419l4.35689,2.37011a5.2153,5.2153,0,0,1-.32312.52419"/><path class="cls-10" d="M106.34749,104.45521l-4.35689-2.37011a5.20684,5.20684,0,0,0,.30206-.67138l4.35689,2.37011a5.20684,5.20684,0,0,1-.30206.67138"/><path class="cls-11" d="M106.64954,103.78383l-4.35689-2.37011a4.781,4.781,0,0,0,.27856-2.16225l4.35689,2.37011a4.781,4.781,0,0,1-.27856,2.16225"/></g></g></g><g class="cls-2"><g class="cls-47"><g class="cls-2"><path class="cls-11" d="M100.36848,107.41895l-4.35689-2.37011a4.04445,4.04445,0,0,1-1.31318-1.147,5.00488,5.00488,0,0,1-.92337-3.0511l4.35689,2.37011a5.00488,5.00488,0,0,0,.92337,3.0511,4.04445,4.04445,0,0,0,1.31318,1.147"/></g></g></g><g class="cls-2"><g class="cls-48"><g class="cls-2"><path class="cls-9" d="M98.93811,100.35018l-4.35689-2.37011a5.83813,5.83813,0,0,1,.34917-.56245l4.35689,2.37011a5.83813,5.83813,0,0,0-.34917.56245"/><path class="cls-8" d="M99.28728,99.78774l-4.35689-2.37011a6.07112,6.07112,0,0,1,.419-.53143l4.35689,2.37011a6.07112,6.07112,0,0,0-.419.53143"/><path class="cls-7" d="M99.7063,99.25631l-4.35689-2.37011a5.98553,5.98553,0,0,1,.41991-.43013l.05544-.05051,4.35689,2.37011-.05544.05051a5.98553,5.98553,0,0,0-.41991.43013"/><path class="cls-6" d="M100.18165,98.77567l-4.35689-2.37011a6.031,6.031,0,0,1,.60276-.47751l4.35689,2.37011a6.031,6.031,0,0,0-.60276.47751"/><path class="cls-5" d="M100.78441,98.29816l-4.35689-2.37011a5.51422,5.51422,0,0,1,.78622-.45457l4.35689,2.37011a5.51422,5.51422,0,0,0-.78621.45457"/><path class="cls-4" d="M101.57062,97.84359l-4.35689-2.37011a4.87722,4.87722,0,0,1,1.40021-.42318,4.47847,4.47847,0,0,1,.75383-.04213,4.26984,4.26984,0,0,1,.94862.13314l4.35689,2.37011a4.26984,4.26984,0,0,0-.94862-.13314,4.47847,4.47847,0,0,0-.75383.04213,4.87722,4.87722,0,0,0-1.40021.42318"/><path class="cls-5" d="M104.67327,97.51142l-4.35689-2.37011a3.96865,3.96865,0,0,1,.75638.28016l4.35689,2.37011a3.96865,3.96865,0,0,0-.75638-.28016"/><path class="cls-6" d="M105.42966,97.79157l-4.35689-2.37011q.07207.03545.1426.07382l4.35689,2.37011q-.07052-.03836-.1426-.07382"/></g></g></g><g class="cls-2"><g class="cls-49"><g class="cls-2"><path class="cls-11" d="M124.231,68.81606,119.87406,66.446A28.385,28.385,0,0,0,106.41412,49.4051L110.771,51.7752A28.385,28.385,0,0,1,124.231,68.81606"/></g></g></g><polygon class="cls-37" points="75.943 97.618 71.586 95.248 93.775 100.851 98.132 103.221 75.943 97.618"/><polygon class="cls-40" points="76.926 94.792 72.569 92.422 94.581 97.98 98.938 100.35 76.926 94.792"/><polygon class="cls-40" points="75.617 96.557 71.26 94.187 94.665 100.095 99.022 102.465 75.617 96.557"/><polygon class="cls-50" points="75.432 96.886 71.075 94.516 71.26 94.187 75.617 96.557 75.432 96.886"/><polygon class="cls-51" points="75.979 95.53 71.622 93.16 71.687 92.77 76.044 95.14 75.979 95.53"/><g class="cls-2"><g class="cls-52"><g class="cls-2"><path class="cls-16" d="M69.77272,99.86806,65.41583,97.498a4.06854,4.06854,0,0,0,.67.23807l4.35689,2.37011a4.06853,4.06853,0,0,1-.67-.23807"/><path class="cls-15" d="M70.44275,100.10613,66.08586,97.736a4.26391,4.26391,0,0,0,1.66871.0893,4.896,4.896,0,0,0,1.40437-.42471l4.35689,2.37011a4.896,4.896,0,0,1-1.40437.42471,4.26391,4.26391,0,0,1-1.66871-.0893"/><path class="cls-16" d="M73.51583,99.77072l-4.35689-2.37011a5.51289,5.51289,0,0,0,.7861-.45435l4.35689,2.37011a5.51289,5.51289,0,0,1-.7861.45435"/><path class="cls-17" d="M74.30194,99.31637,69.945,96.94626a5.96837,5.96837,0,0,0,.586-.463L74.888,98.85336a5.96837,5.96837,0,0,1-.586.463"/><path class="cls-22" d="M74.888,98.85336l-4.35689-2.37011q.03822-.03424.07608-.0693.21861-.20481.418-.43063l4.35689,2.37011q-.19916.22552-.418.43063-.03785.03506-.07608.0693"/><path class="cls-23" d="M75.38207,98.35343l-4.35689-2.37011a6.46932,6.46932,0,0,0,.44683-.567l4.35689,2.37011a6.46932,6.46932,0,0,1-.44683.567"/><path class="cls-24" d="M75.82889,97.78642,71.472,95.41632q.05843-.08329.11436-.16856l4.35689,2.37011q-.05592.08525-.11436.16856"/></g></g></g><g class="cls-2"><g class="cls-53"><g class="cls-2"><path class="cls-26" d="M76.92554,94.79163l-4.35689-2.37011a5.03087,5.03087,0,0,0-.8985-3.4522,4.0297,4.0297,0,0,0-1.31023-1.14486l4.35689,2.37011A4.0297,4.0297,0,0,1,76.027,91.33944a5.03087,5.03087,0,0,1,.8985,3.4522"/></g></g></g><g class="cls-2"><g class="cls-54"><g class="cls-2"><path class="cls-6" d="M69.97841,98.90143l-4.35689-2.37011q.06118.03328.12327.06382l4.35689,2.37011q-.06208-.03054-.12327-.06382"/><path class="cls-5" d="M70.10168,98.96525l-4.35689-2.37011a3.35213,3.35213,0,0,0,.639.23729l4.35689,2.37011a3.35213,3.35213,0,0,1-.639-.23729"/><path class="cls-4" d="M70.74067,99.20254l-4.35689-2.37011a3.50743,3.50743,0,0,0,1.37193.07338,4.01986,4.01986,0,0,0,1.15312-.34868l4.35689,2.37011a4.01986,4.01986,0,0,1-1.15312.34868,3.50743,3.50743,0,0,1-1.37193-.07338"/><path class="cls-5" d="M73.26571,98.92724l-4.35689-2.37011a4.524,4.524,0,0,0,.64512-.37287l4.35689,2.37011a4.524,4.524,0,0,1-.64512.37287"/><path class="cls-6" d="M73.91083,98.55436l-4.35689-2.37011a4.90747,4.90747,0,0,0,.5002-.3973L74.411,98.15707a4.90747,4.90747,0,0,1-.5002.3973"/><path class="cls-7" d="M74.411,98.15707,70.05415,95.787l.0498-.04567a4.84308,4.84308,0,0,0,.35055-.35826l4.35689,2.37011a4.84308,4.84308,0,0,1-.35055.35826l-.0498.04567"/><path class="cls-8" d="M74.81138,97.75314,70.45449,95.383a5.20163,5.20163,0,0,0,.35886-.45579l4.35689,2.37011a5.20163,5.20163,0,0,1-.35886.45579"/><path class="cls-9" d="M75.17024,97.29735l-4.35689-2.37011q.13953-.1989.26188-.41157l4.35689,2.37011q-.12211.21226-.26188.41157"/></g></g></g><g class="cls-2"><g class="cls-55"><g class="cls-2"><path class="cls-11" d="M76.044,95.14023l-4.35689-2.37011a4.25031,4.25031,0,0,0-.7069-3.168,3.33675,3.33675,0,0,0-1.0783-.93925L74.25875,91.033a3.33675,3.33675,0,0,1,1.0783.93925,4.25031,4.25031,0,0,1,.7069,3.168"/></g></g></g><polygon class="cls-56" points="44.432 140.096 40.075 137.726 137.714 124.003 142.071 126.373 44.432 140.096"/><g class="cls-2"><g class="cls-57"><g class="cls-2"><path class="cls-26" d="M52.498,125.21611,48.14109,122.846a5.73766,5.73766,0,0,0,.18438-3.48076l4.35689,2.37011a5.73766,5.73766,0,0,1-.18438,3.48076"/></g></g></g><g class="cls-2"><g class="cls-58"><g class="cls-2"><path class="cls-26" d="M52.498,125.21611,48.14109,122.846a5.73766,5.73766,0,0,0,.18438-3.48076l4.35689,2.37011a5.73766,5.73766,0,0,1-.18438,3.48076"/></g></g></g><g class="cls-2"><g class="cls-59"><g class="cls-2"><path class="cls-26" d="M52.498,125.21611,48.14109,122.846a5.73766,5.73766,0,0,0,.18438-3.48076l4.35689,2.37011a5.73766,5.73766,0,0,1-.18438,3.48076"/></g></g></g><g class="cls-2"><g class="cls-60"><g class="cls-2"><path class="cls-22" d="M50.81469,127.70783l-4.35689-2.37011.06282-.05723a6.20436,6.20436,0,0,0,.43358-.44412l4.35689,2.37011a6.20435,6.20435,0,0,1-.43358.44412l-.06282.05723"/><path class="cls-23" d="M51.31109,127.20648l-4.35689-2.37011a6.26018,6.26018,0,0,0,.43267-.549l4.35689,2.37011a6.26018,6.26018,0,0,1-.43267.549"/><path class="cls-24" d="M51.74375,126.65752l-4.35689-2.37011a6.29778,6.29778,0,0,0,.39091-.634l4.35689,2.37011a6.29778,6.29778,0,0,1-.39091.634"/><path class="cls-25" d="M52.13467,126.02347l-4.35689-2.37011a6.27644,6.27644,0,0,0,.36331-.80737l4.35689,2.37011a6.27644,6.27644,0,0,1-.36331.80737"/><path class="cls-26" d="M52.498,125.21611,48.14109,122.846a5.73766,5.73766,0,0,0,.18438-3.48076l4.35689,2.37011a5.73766,5.73766,0,0,1-.18438,3.48076"/></g></g></g><g class="cls-2"><g class="cls-61"><g class="cls-2"><path class="cls-15" d="M93.56421,48.80289l-4.35689-2.37011c.24033-.03378.48859-.06867.73695-.095a28.43178,28.43178,0,0,1,10.40389.67828l4.35689,2.37011a28.43178,28.43178,0,0,0-10.40389-.67828c-.24835.02629-.49662.06118-.73695.095"/><path class="cls-16" d="M104.705,49.38621l-4.35689-2.37011a26.66308,26.66308,0,0,1,5.09913,1.88853l4.35689,2.37011a26.66308,26.66308,0,0,0-5.09913-1.88853"/><path class="cls-17" d="M109.80418,51.27474l-4.35689-2.37011q.48877.2404.96688.5005l4.35689,2.37011q-.478-.26-.96688-.5005"/></g></g></g><g class="cls-2"><g class="cls-62"><g class="cls-2"><path class="cls-26" d="M52.498,125.21611,48.14109,122.846a5.73766,5.73766,0,0,0,.18438-3.48076l4.35689,2.37011a5.73766,5.73766,0,0,1-.18438,3.48076"/></g></g></g><polygon class="cls-20" points="52.682 121.735 48.325 119.365 65.416 97.498 69.773 99.868 52.682 121.735"/><g class="cls-2"><g class="cls-63"><g class="cls-2"><path class="cls-15" d="M46.34765,128.97721l-4.35689-2.37011a4.257,4.257,0,0,0,1.6639.08751,4.939,4.939,0,0,0,1.41634-.42837l4.35689,2.37011a4.939,4.939,0,0,1-1.41634.42837,4.257,4.257,0,0,1-1.6639-.08751"/></g></g></g><polygon class="cls-29" points="51.801 121.894 47.444 119.524 65.282 96.341 69.639 98.711 51.801 121.894"/><g class="cls-2"><g class="cls-64"><g class="cls-2"><path class="cls-11" d="M67.886,98.11059l-4.35689-2.37011a5.44488,5.44488,0,0,1-.24166-4.51548l4.35689,2.37011a5.44488,5.44488,0,0,0,.24166,4.51548"/><path class="cls-10" d="M67.64434,93.59511,63.28745,91.225a6.32772,6.32772,0,0,1,.368-.81908L68.01237,92.776a6.32772,6.32772,0,0,0-.368.81908"/><path class="cls-9" d="M68.01237,92.776l-4.35689-2.37011a6.32586,6.32586,0,0,1,.392-.63615l4.35689,2.37011a6.32586,6.32586,0,0,0-.392.63615"/><path class="cls-8" d="M68.40441,92.13987l-4.35689-2.37011a6.26867,6.26867,0,0,1,.434-.55083L68.83842,91.589a6.26867,6.26867,0,0,0-.434.55083"/><path class="cls-7" d="M68.83842,91.589l-4.35689-2.37011q.20249-.2293.42985-.44068l.06238-.05694,4.35689,2.37011-.06238.05694q-.22729.21095-.42985.44068"/><path class="cls-6" d="M69.33066,91.09142l-4.35689-2.37011a5.8639,5.8639,0,0,1,.58651-.46443L69.91716,90.627a5.8639,5.8639,0,0,0-.58651.46443"/><path class="cls-5" d="M69.91716,90.627l-4.35689-2.37011a5.46789,5.46789,0,0,1,.77956-.45035l4.35689,2.37011a5.46788,5.46788,0,0,0-.77956.45035"/><path class="cls-4" d="M70.69672,90.17664l-4.35689-2.37011a4.94812,4.94812,0,0,1,1.41935-.42844,4.33887,4.33887,0,0,1,1.693.089L73.809,89.83719a4.33887,4.33887,0,0,0-1.693-.089,4.94812,4.94812,0,0,0-1.41935.42844"/><path class="cls-5" d="M73.809,89.83719l-4.35689-2.37011a4.00194,4.00194,0,0,1,.76318.28253l4.35689,2.37011a4.00194,4.00194,0,0,0-.76318-.28253"/><path class="cls-6" d="M74.57222,90.11972l-4.35689-2.37011q.073.03587.14459.07483l4.35689,2.37011q-.07161-.039-.14459-.07483"/></g></g></g><polygon class="cls-28" points="51.219 120.757 46.862 118.387 46.55 118.076 50.907 120.446 51.219 120.757"/><polygon class="cls-29" points="51.205 119.445 46.848 117.075 63.529 95.74 67.886 98.111 51.205 119.445"/><g class="cls-2"><g class="cls-65"><g class="cls-2"><path class="cls-17" d="M45.449,128.62284l-4.35689-2.37011q.07123.03875.14366.07438l4.35689,2.37011q-.07242-.03563-.14366-.07438"/><path class="cls-16" d="M45.59269,128.69721l-4.35689-2.37011a3.96027,3.96027,0,0,0,.755.28l4.35689,2.37011a3.96027,3.96027,0,0,1-.755-.28"/><path class="cls-15" d="M46.34765,128.97721l-4.35689-2.37011a4.257,4.257,0,0,0,1.6639.08751,4.939,4.939,0,0,0,1.41634-.42837l4.35689,2.37011a4.939,4.939,0,0,1-1.41634.42837,4.257,4.257,0,0,1-1.6639-.08751"/><path class="cls-16" d="M49.42789,128.63636,45.071,126.26625a5.54937,5.54937,0,0,0,.79116-.45721l4.35689,2.37011a5.54937,5.54937,0,0,1-.79116.45721"/><path class="cls-17" d="M50.21906,128.17914,45.86217,125.809a5.99374,5.99374,0,0,0,.59563-.47131l4.35689,2.37011a5.99373,5.99373,0,0,1-.59563.47131"/><path class="cls-22" d="M50.81469,127.70783l-4.35689-2.37011.06282-.05723a6.20436,6.20436,0,0,0,.43358-.44412l4.35689,2.37011a6.20435,6.20435,0,0,1-.43358.44412l-.06282.05723"/></g></g></g><g class="cls-2"><g class="cls-66"><g class="cls-2"><path class="cls-6" d="M45.8985,127.77665l-4.35689-2.37011q.05881.032.11862.06142l4.35689,2.37011q-.0598-.02942-.11862-.06142"/><path class="cls-5" d="M46.01713,127.83806,41.66024,125.468a3.27308,3.27308,0,0,0,.62409.23146l4.35689,2.37011a3.27308,3.27308,0,0,1-.62409-.23146"/><path class="cls-4" d="M46.64122,128.06953l-4.35689-2.37011a3.51454,3.51454,0,0,0,1.37353.07236,4.06924,4.06924,0,0,0,1.167-.35285l4.35689,2.37011a4.06924,4.06924,0,0,1-1.167.35285,3.51454,3.51454,0,0,1-1.37353-.07236"/><path class="cls-5" d="M49.18175,127.789l-4.35689-2.37011a4.56258,4.56258,0,0,0,.6505-.37591l4.35689,2.37011a4.56258,4.56258,0,0,1-.6505.37591"/><path class="cls-6" d="M49.83225,127.41312,45.47536,125.043a4.92414,4.92414,0,0,0,.489-.38687l4.35689,2.37011a4.92412,4.92412,0,0,1-.489.38687"/><path class="cls-7" d="M50.32123,127.02625l-4.35689-2.37011.053-.04827q.18921-.17549.35819-.36707l4.35689,2.37011q-.16888.19123-.35819.36707l-.053.04827"/><path class="cls-8" d="M50.7324,126.6109l-4.35689-2.37011a5.19286,5.19286,0,0,0,.35919-.45576l4.35689,2.37011a5.19286,5.19286,0,0,1-.35919.45576"/><path class="cls-9" d="M51.09159,126.15514,46.7347,123.785a5.21365,5.21365,0,0,0,.32282-.5235l4.35689,2.37011a5.21365,5.21365,0,0,1-.32282.5235"/><path class="cls-10" d="M51.41441,125.63163l-4.35689-2.37011a5.18091,5.18091,0,0,0,.30157-.67046l4.35689,2.37011a5.18091,5.18091,0,0,1-.30157.67046"/><path class="cls-11" d="M51.716,124.96118l-4.35689-2.37011a4.658,4.658,0,0,0,.08515-3.06743l4.35689,2.37011a4.658,4.658,0,0,1-.08515,3.06743"/></g></g></g><g class="cls-2"><g class="cls-67"><g class="cls-2"><path class="cls-26" d="M51.205,119.445l-4.35689-2.37011a3.92794,3.92794,0,0,0-.57987-.38586l4.35689,2.37011a3.92794,3.92794,0,0,1,.57987.38586"/></g></g></g><g class="cls-2"><g class="cls-68"><g class="cls-2"><path class="cls-11" d="M50.90685,120.44628,46.55,118.07617a3.25677,3.25677,0,0,0-.73765-.54984l4.35689,2.37011a3.25677,3.25677,0,0,1,.73765.54984"/></g></g></g><g class="cls-2"><g class="cls-69"><g class="cls-2"><path class="cls-11" d="M45.449,128.62281l-4.35689-2.37011q-.14409-.07838-.283-.16956l4.35689,2.37011q.13876.09118.283.16956"/></g></g></g><g class="cls-2"><g class="cls-70"><g class="cls-2"><path class="cls-6" d="M36.40536,138.31853l-4.35689-2.37011q.264.1436.5331.276l4.35689,2.37011q-.26909-.1324-.5331-.276"/><path class="cls-5" d="M36.93846,138.59454l-4.35689-2.37011a14.6443,14.6443,0,0,0,2.79248,1.036l4.35689,2.37011a14.6443,14.6443,0,0,1-2.79248-1.036"/><path class="cls-4" d="M39.73094,139.63049l-4.35689-2.37011a15.56288,15.56288,0,0,0,4.70071.46526l4.35689,2.37011a15.56288,15.56288,0,0,1-4.70071-.46526"/></g></g></g><polygon class="cls-37" points="35.027 137.467 30.67 135.097 40.809 126.083 45.166 128.453 35.027 137.467"/><g class="cls-2"><g class="cls-71"><g class="cls-2"><path class="cls-26" d="M36.40537,138.31853l-4.35689-2.37011a14.80725,14.80725,0,0,1-1.37854-.85112l4.35689,2.37011a14.80726,14.80726,0,0,0,1.37854.85112"/></g></g></g><path class="cls-72" d="M138.33142,74.33711a17.88579,17.88579,0,0,1,3.90181,11.9503c-.009.589-.05836,1.24429-.148,2.06071l-.04074.412.36825.04332c8.15885.89327,13.93535,8.15459,13.71828,17.24362-.2009,8.983-6.02239,17.347-14.06037,20.32647l-97.639,13.72227a14.94913,14.94913,0,0,1-9.40487-2.62835l10.13925-9.01412a4.0914,4.0914,0,0,0,2.84547.61144,5.3593,5.3593,0,0,0,2.866-1.41413,6.05251,6.05251,0,0,0,1.80485-5.91525L69.77272,99.86806a4.187,4.187,0,0,0,2.33874.32737,5.324,5.324,0,0,0,2.85259-1.41137,6.43315,6.43315,0,0,0,.9792-1.16619l22.18869,5.603a5.00524,5.00524,0,0,0,.92336,3.0511,4.0681,4.0681,0,0,0,3.91159,1.59352,5.29237,5.29237,0,0,0,2.847-1.40244,6.20485,6.20485,0,0,0,1.987-4.79122l17.68759-15.74518a4.09355,4.09355,0,0,0,3.24922.89767,5.29922,5.29922,0,0,0,2.85411-1.40971,6.16682,6.16682,0,0,0,1.97125-4.97917Z"/><g class="cls-2"><g class="cls-73"><g class="cls-2"><path class="cls-11" d="M43.54409,126.42524l-4.35689-2.37011a5.53434,5.53434,0,0,1,.00714-3.96354l4.35689,2.37011a5.53434,5.53434,0,0,0-.00714,3.96354"/><path class="cls-10" d="M43.55122,122.46169l-4.35689-2.37011a6.28773,6.28773,0,0,1,.36426-.81l4.35689,2.37011a6.28773,6.28773,0,0,0-.36426.81"/><path class="cls-9" d="M43.91548,121.65169l-4.35689-2.37011a6.31153,6.31153,0,0,1,.39155-.63533l4.35689,2.37011a6.31153,6.31153,0,0,0-.39155.63533"/><path class="cls-8" d="M44.307,121.01636l-4.35689-2.37011a6.269,6.269,0,0,1,.434-.55071l4.35689,2.37011a6.269,6.269,0,0,0-.434.55071"/><path class="cls-7" d="M44.741,120.46565l-4.35689-2.37011a6.20641,6.20641,0,0,1,.44075-.45078l.06051-.05522,4.35689,2.37011-.06051.05522a6.20641,6.20641,0,0,0-.44075.45078"/><path class="cls-6" d="M45.24225,119.95965l-4.35689-2.37011a5.82841,5.82841,0,0,1,.583-.46154l4.35689,2.37011a5.82841,5.82841,0,0,0-.583.46154"/><path class="cls-5" d="M45.82524,119.4981,41.46835,117.128a5.48016,5.48016,0,0,1,.7812-.4512l4.35689,2.37011a5.48015,5.48015,0,0,0-.7812.4512"/><path class="cls-4" d="M46.60644,119.04691l-4.35689-2.37011a4.97817,4.97817,0,0,1,1.42755-.43095,4.33012,4.33012,0,0,1,1.69167.08879l4.35689,2.37011A4.33012,4.33012,0,0,0,48.034,118.616a4.97817,4.97817,0,0,0-1.42755.43095"/><path class="cls-5" d="M49.72566,118.70475l-4.35689-2.37011a3.97345,3.97345,0,0,1,.75725.28073l4.35689,2.37011a3.97345,3.97345,0,0,0-.75725-.28073"/><path class="cls-6" d="M50.48291,118.98548,46.126,116.61537q.07177.03532.14228.07367l4.35689,2.37011q-.0705-.03835-.14228-.07367"/></g></g></g><g class="cls-2"><g class="cls-74"><g class="cls-2"><path class="cls-11" d="M35.96275,139.16743l-4.35689-2.37011a15.35707,15.35707,0,0,1-1.91385-1.23416l4.35689,2.37011a15.35707,15.35707,0,0,0,1.91385,1.23416"/></g></g></g><polygon class="cls-40" points="33.617 137.614 29.26 135.244 40.851 124.928 45.208 127.298 33.617 137.614"/><polygon class="cls-28" points="34.049 137.933 29.692 135.563 29.26 135.244 33.617 137.614 34.049 137.933"/><path class="cls-75" d="M142.975,87.92053c8.35862,1.12446,14.23076,8.64026,14.01311,18.0319-.21762,9.40029-6.31229,18.17439-14.831,21.31647l-97.7672,13.74893a15.5885,15.5885,0,0,1-10.341-3.08457l-.43194-.31963,11.5912-10.31585.248.18983a3.36232,3.36232,0,0,0,2.55862.65426,4.40914,4.40914,0,0,0,2.35946-1.16391,4.9513,4.9513,0,0,0,1.42692-5.08423l17.8375-23.18241.296.16588a3.42665,3.42665,0,0,0,2.17793.3987,4.372,4.372,0,0,0,2.34824-1.16452,5.17336,5.17336,0,0,0,.97128-1.22562l.18474-.32847,23.40541,5.90739-.02466.35786a4.20609,4.20609,0,0,0,.74751,2.81649,3.35988,3.35988,0,0,0,3.22378,1.307,4.37174,4.37174,0,0,0,2.34976-1.15675,5.059,5.059,0,0,0,1.60944-4.16767l18.67472-16.90385.24785.25038a3.3379,3.3379,0,0,0,2.88666.9378,4.38845,4.38845,0,0,0,2.35117-1.15524,5.06088,5.06088,0,0,0,1.60967-4.28877l5.67576-7.50515.30371.3463a18.58374,18.58374,0,0,1,4.40472,12.88228C143.07338,86.70527,143.04029,87.2631,142.975,87.92053ZM156.131,106.047c.21708-9.08906-5.55943-16.35037-13.71828-17.24364l-.36823-.04332.04074-.412c.0896-.8164.13893-1.47168.14795-2.06071a17.88554,17.88554,0,0,0-3.90181-11.95027l-4.76832,6.09832a6.16682,6.16682,0,0,1-1.97125,4.97914,5.29909,5.29909,0,0,1-2.85413,1.40975,4.09354,4.09354,0,0,1-3.24919-.89768l-17.68763,15.74518a6.20472,6.20472,0,0,1-1.987,4.79121,5.29217,5.29217,0,0,1-2.847,1.40243,4.068,4.068,0,0,1-3.91158-1.59352,5.00488,5.00488,0,0,1-.92337-3.0511l-22.1887-5.603A6.434,6.434,0,0,1,74.964,98.784a5.3242,5.3242,0,0,1-2.85259,1.41134,4.18727,4.18727,0,0,1-2.33878-.32735L52.68235,121.73531a6.05253,6.05253,0,0,1-1.80488,5.91526,5.35909,5.35909,0,0,1-2.86593,1.41412,4.09136,4.09136,0,0,1-2.84549-.61143l-10.13925,9.01413a14.94907,14.94907,0,0,0,9.40486,2.62836l97.639-13.72227c8.038-2.97944,13.85946-11.34346,14.06037-20.32648"/><polygon class="cls-28" points="32.921 136.994 28.565 134.624 28.309 134.392 32.666 136.762 32.921 136.994"/><polygon class="cls-40" points="33.028 135.786 28.671 133.416 39.187 124.055 43.544 126.425 33.028 135.786"/><polygon class="cls-76" points="64.128 73.46 59.771 71.09 59.924 70.714 64.281 73.084 64.128 73.46"/><polygon class="cls-77" points="63.784 73.405 59.427 71.034 59.771 71.09 64.128 73.46 63.784 73.405"/><g class="cls-2"><g class="cls-78"><g class="cls-2"><path class="cls-26" d="M33.02787,135.78621,28.671,133.41611a17.41943,17.41943,0,0,1-4.877-12.99745,22.16679,22.16679,0,0,1,1.36448-7.11759l4.35689,2.37011a22.16679,22.16679,0,0,0-1.36448,7.11759,17.41943,17.41943,0,0,0,4.877,12.99745"/></g></g></g><g class="cls-2"><g class="cls-79"><g class="cls-2"><path class="cls-10" d="M63.66523,72.43578l-4.35689-2.37011q.82782-1.98086,1.83351-3.84735l4.35689,2.37011q-1.00319,1.86447-1.83351,3.84735"/><path class="cls-9" d="M65.49873,68.58843l-4.35689-2.37011A43.39393,43.39393,0,0,1,63.827,61.86359l4.35689,2.37011a43.39393,43.39393,0,0,0-2.68511,4.35474"/><path class="cls-8" d="M68.18384,64.23369,63.827,61.86359a42.79262,42.79262,0,0,1,2.95879-3.75513l4.35689,2.37011a42.79263,42.79263,0,0,0-2.95879,3.75513"/><path class="cls-7" d="M71.14263,60.47856l-4.35689-2.37011a41.72523,41.72523,0,0,1,3.35761-3.39166l4.35689,2.37011a41.72523,41.72523,0,0,0-3.35761,3.39166"/><path class="cls-6" d="M74.50025,57.08691,70.14336,54.7168a40.08194,40.08194,0,0,1,4.0189-3.18025l4.35689,2.37011a40.08194,40.08194,0,0,0-4.0189,3.18025"/><path class="cls-5" d="M78.51915,53.90665l-4.35689-2.37011a37.64517,37.64517,0,0,1,5.367-3.09816l4.35689,2.37011a37.64517,37.64517,0,0,0-5.367,3.09816"/><path class="cls-4" d="M83.88618,50.80849l-4.35689-2.37011A33.77658,33.77658,0,0,1,89.209,45.5163c.24825-.03489.50471-.07093.761-.09833a29.15867,29.15867,0,0,1,10.68075.6934l4.35689,2.37011a29.15867,29.15867,0,0,0-10.68075-.6934c-.25628.0274-.51274.06344-.761.09833a33.77658,33.77658,0,0,0-9.67969,2.92208"/><path class="cls-5" d="M105.0076,48.48147l-4.35689-2.37011a27.34727,27.34727,0,0,1,5.22959,1.93628l4.35689,2.37011a27.34727,27.34727,0,0,0-5.22959-1.93628"/><path class="cls-6" d="M110.23719,50.41775l-4.35689-2.37011q.50267.24717.99435.51465l4.35689,2.37011q-.49161-.26743-.99435-.51465"/></g></g></g><g class="cls-2"><g class="cls-80"><g class="cls-2"><path class="cls-15" d="M59.37915,73.28881,55.02226,70.9187a15.95368,15.95368,0,0,1,4.40443.11572l4.35689,2.37011a15.95368,15.95368,0,0,0-4.40443-.11572"/></g></g></g><g class="cls-2"><g class="cls-81"><g class="cls-2"><path class="cls-4" d="M59.40493,72.369,55.048,69.99886a16.2957,16.2957,0,0,1,4.2603.06681l4.35689,2.37011a16.2957,16.2957,0,0,0-4.2603-.06681"/></g></g></g><polygon class="cls-42" points="41.995 102.562 37.638 100.192 38.119 100.012 42.476 102.382 41.995 102.562"/><polygon class="cls-82" points="42.476 102.382 38.119 100.012 37.943 99.535 42.3 101.905 42.476 102.382"/><g class="cls-2"><g class="cls-83"><g class="cls-2"><path class="cls-26" d="M33.02787,135.78621,28.671,133.41611a17.41943,17.41943,0,0,1-4.877-12.99745,22.16679,22.16679,0,0,1,1.36448-7.11759l4.35689,2.37011a22.16679,22.16679,0,0,0-1.36448,7.11759,17.41943,17.41943,0,0,0,4.877,12.99745"/><path class="cls-25" d="M29.51534,115.67117l-4.35689-2.37011a23.26266,23.26266,0,0,1,1.35391-3.01035l4.35689,2.37011a23.26266,23.26266,0,0,0-1.35391,3.01035"/><path class="cls-24" d="M30.86925,112.66083l-4.35689-2.37011a23.37171,23.37171,0,0,1,1.44748-2.34766l4.35689,2.37011a23.37171,23.37171,0,0,0-1.44748,2.34766"/><path class="cls-23" d="M32.31673,110.31316l-4.35689-2.37011a23.0619,23.0619,0,0,1,1.59431-2.02348l4.35689,2.37011a23.0619,23.0619,0,0,0-1.59431,2.02348"/><path class="cls-22" d="M33.911,108.28969l-4.35689-2.37011a22.42474,22.42474,0,0,1,1.80619-1.82442l4.35689,2.37011a22.42474,22.42474,0,0,0-1.80619,1.82442"/><path class="cls-17" d="M35.71722,106.46526l-4.35689-2.37011a21.50465,21.50465,0,0,1,2.15744-1.70678l4.35689,2.37011a21.50466,21.50466,0,0,0-2.15744,1.70678"/><path class="cls-16" d="M37.87466,104.75848l-4.35689-2.37011a20.31214,20.31214,0,0,1,2.887-1.66638l4.35689,2.37011a20.31215,20.31215,0,0,0-2.887,1.66638"/><path class="cls-15" d="M40.76165,103.09211,36.40476,100.722q.60677-.286,1.23314-.53023l4.35689,2.37011q-.62614.24389-1.23314.53023"/></g></g></g><g class="cls-2"><g class="cls-84"><g class="cls-2"><path class="cls-11" d="M32.66563,136.762l-4.35689-2.37011a18.24718,18.24718,0,0,1-5.3719-13.87005,23.22738,23.22738,0,0,1,1.43074-7.45252l4.35689,2.37011a23.22738,23.22738,0,0,0-1.43074,7.45252,18.24718,18.24718,0,0,0,5.3719,13.87005"/><path class="cls-10" d="M28.72446,115.43938l-4.35689-2.37011a24.39763,24.39763,0,0,1,1.41695-3.15079l4.35689,2.37011a24.39763,24.39763,0,0,0-1.41695,3.15079"/><path class="cls-9" d="M30.14141,112.28858l-4.35689-2.37011a24.5164,24.5164,0,0,1,1.51955-2.46524l4.35689,2.37011a24.5164,24.5164,0,0,0-1.51955,2.46524"/><path class="cls-8" d="M31.661,109.82335l-4.35689-2.37011a24.18955,24.18955,0,0,1,1.673-2.12355l4.35689,2.37011a24.18955,24.18955,0,0,0-1.673,2.12355"/><path class="cls-7" d="M33.334,107.69979l-4.35689-2.37011a23.515,23.515,0,0,1,1.89534-1.91438l4.35689,2.37011a23.515,23.515,0,0,0-1.89534,1.91438"/><path class="cls-6" d="M35.22932,105.78542l-4.35689-2.37011A22.54144,22.54144,0,0,1,33.132,101.6278l4.35689,2.37011a22.54143,22.54143,0,0,0-2.25953,1.78751"/><path class="cls-5" d="M37.48885,103.99791,33.132,101.6278a21.2767,21.2767,0,0,1,3.043-1.75467l4.35689,2.37011a21.2767,21.2767,0,0,0-3.043,1.75467"/><path class="cls-4" d="M40.53187,102.24324,36.175,99.87314q.39963-.1879.80743-.35861l4.35689,2.37011q-.40774.17062-.80743.35861"/></g></g></g><g class="cls-2"><g class="cls-85"><g class="cls-2"><path class="cls-26" d="M42.30036,101.9052l-4.35689-2.37011a19.21841,19.21841,0,0,1-1.20383-7.25565,22.15927,22.15927,0,0,1,1.36107-7.08724l4.35689,2.37011a22.15926,22.15926,0,0,0-1.36107,7.08724,19.21841,19.21841,0,0,0,1.20383,7.25565"/><path class="cls-25" d="M42.45761,87.56231,38.10072,85.1922a23.30361,23.30361,0,0,1,1.35563-3.0157l4.35689,2.37011a23.30361,23.30361,0,0,0-1.35563,3.0157"/><path class="cls-24" d="M43.81323,84.54661l-4.35689-2.37011a23.52954,23.52954,0,0,1,1.45849-2.36628l4.35689,2.37011a23.52954,23.52954,0,0,0-1.45849,2.36628"/><path class="cls-23" d="M45.27172,82.18033l-4.35689-2.37011a23.3018,23.3018,0,0,1,1.61282-2.04709l4.35689,2.37011a23.3018,23.3018,0,0,0-1.61282,2.04709"/><path class="cls-22" d="M46.88454,80.13323l-4.35689-2.37011a22.67359,22.67359,0,0,1,1.82546-1.84393L48.71,78.2893a22.67359,22.67359,0,0,0-1.82546,1.84393"/><path class="cls-17" d="M48.71,78.2893,44.35312,75.9192A21.65944,21.65944,0,0,1,46.51728,74.206l4.35689,2.37011A21.65944,21.65944,0,0,0,48.71,78.2893"/><path class="cls-16" d="M50.87417,76.57607,46.51728,74.206a20.21164,20.21164,0,0,1,2.90142-1.67435l4.35689,2.37011a20.21163,20.21163,0,0,0-2.90142,1.67435"/><path class="cls-15" d="M53.77559,74.90172,49.4187,72.53162a18.15769,18.15769,0,0,1,5.19506-1.56412c.13625-.01915.27238-.03828.4085-.04879l4.35689,2.37011c-.13612.01051-.27226.02965-.4085.04879a18.15769,18.15769,0,0,0-5.19506,1.56412"/></g></g></g><path class="cls-72" d="M93.56421,48.80289c.24033-.03378.48859-.06867.73695-.095C108.07842,47.11746,120.108,55.1941,124.231,68.81612l.09556.30639.5287-.08292a14.991,14.991,0,0,1,11.6457,3.44575L132.431,77.69028a4.08471,4.08471,0,0,0-3.68273-1.30458,5.31794,5.31794,0,0,0-2.85225,1.40188,6.03892,6.03892,0,0,0-1.81282,5.88179l-17.21431,15.3242a3.99643,3.99643,0,0,0-3.14426-1.61526,4.47563,4.47563,0,0,0-.75379.0421,5.31979,5.31979,0,0,0-2.84465,1.4058,6.01537,6.01537,0,0,0-1.18809,1.524L76.92554,94.79163a5.03087,5.03087,0,0,0-.8985-3.4522,4.06527,4.06527,0,0,0-3.91095-1.59121,5.30593,5.30593,0,0,0-2.84779,1.40014,5.8762,5.8762,0,0,0-1.3823,6.96223L51.205,119.445a4.09807,4.09807,0,0,0-3.171-.829,5.32113,5.32113,0,0,0-2.85224,1.39889,5.93745,5.93745,0,0,0-1.63762,6.41034l-10.51627,9.361a17.41943,17.41943,0,0,1-4.877-12.99745c.2006-8.81878,5.89393-17.13022,13.84393-20.22688l.48087-.18-.1753-.47673a19.21841,19.21841,0,0,1-1.20383-7.25565c.25172-10.49418,8.22962-19.9565,17.87411-21.31195.13624-.01915.27238-.03828.4085-.04879a15.95368,15.95368,0,0,1,4.40443.11572l.34422.05538.15287-.37589C69.60647,60.01834,81.03586,50.56363,93.56421,48.80289Z"/><path class="cls-75" d="M137.39874,72.01336l.30373.27714-5.38631,6.87664-.36731-.588a3.324,3.324,0,0,0-3.19126-1.279,4.389,4.389,0,0,0-2.35827,1.16009,4.942,4.942,0,0,0-1.41893,5.109l.11152.32145-18.46573,16.43365-.23151-.38238c-.07193-.1109-.12783-.19808-.19177-.28419a3.35651,3.35651,0,0,0-3.22614-1.31473,4.368,4.368,0,0,0-2.34728,1.15586,4.974,4.974,0,0,0-1.13207,1.5421l-.17686.37921L75.97913,95.52967l.06482-.38944a4.25031,4.25031,0,0,0-.7069-3.168,3.35446,3.35446,0,0,0-3.21857-1.30756,4.36672,4.36672,0,0,0-2.34693,1.15624,4.77438,4.77438,0,0,0-.996,5.96578l.18357.27673L51.21867,120.75687l-.31182-.31059a3.35513,3.35513,0,0,0-2.874-.91577,4.354,4.354,0,0,0-2.3478,1.157,4.829,4.829,0,0,0-1.22763,5.5575l.16754.33955-11.7035,10.4094-.25579-.232a18.24718,18.24718,0,0,1-5.3719-13.87005A23.75177,23.75177,0,0,1,41.3393,101.88463a20.36842,20.36842,0,0,1-1.09182-7.14177c.26067-10.98808,8.61578-20.901,18.72485-22.32171.14415-.02026.28847-.04054.4326-.05218a16.2957,16.2957,0,0,1,4.2603.06681c5.52624-13.2235,17.164-22.75935,29.90064-24.54937.24825-.03489.50471-.07093.761-.09833,14.03353-1.62655,26.30321,6.52877,30.61814,20.32258A15.66866,15.66866,0,0,1,137.39874,72.01336ZM132.431,77.69025l4.06986-5.205a14.991,14.991,0,0,0-11.64565-3.44575l-.52874.08293-.09552-.3064c-4.123-13.622-16.15258-21.69864-29.92981-20.10818-.24835.02629-.49665.06118-.737.095C81.03586,50.56358,69.60645,60.01833,64.28066,73.084l-.15291.3759-.34417-.05534a15.95384,15.95384,0,0,0-4.40449-.11573c-.13609.01051-.27225.02964-.40846.04879C49.32611,74.693,41.34822,84.15535,41.09651,94.64951a19.21851,19.21851,0,0,0,1.20384,7.25566l.17527.4767-.48085.18c-7.95,3.09667-13.64332,11.40808-13.844,20.22689a17.4195,17.4195,0,0,0,4.877,12.99743l10.51623-9.36093a5.93751,5.93751,0,0,1,1.63765-6.41037A5.32113,5.32113,0,0,1,48.034,118.616a4.0983,4.0983,0,0,1,3.171.829L67.886,98.11059a5.87621,5.87621,0,0,1,1.38228-6.96223,5.30574,5.30574,0,0,1,2.8478-1.40016A4.06521,4.06521,0,0,1,76.027,91.3394a5.03072,5.03072,0,0,1,.8985,3.45221l22.0126,5.55857a6.0154,6.0154,0,0,1,1.18809-1.524,5.31971,5.31971,0,0,1,2.84463-1.40577,4.47847,4.47847,0,0,1,.75383-.04213,3.99631,3.99631,0,0,1,3.14424,1.61528l17.21431-15.32422a6.03893,6.03893,0,0,1,1.81283-5.88176,5.31771,5.31771,0,0,1,2.85226-1.40191,4.08475,4.08475,0,0,1,3.68272,1.30458"/><g class="cls-2"><g class="cls-86"><g class="cls-2"><path class="cls-11" d="M41.3393,101.88463l-4.35689-2.37011a20.36842,20.36842,0,0,1-1.09182-7.14177,23.193,23.193,0,0,1,1.42481-7.424l4.35689,2.37011a23.193,23.193,0,0,0-1.42481,7.424,20.36842,20.36842,0,0,0,1.09182,7.14177"/><path class="cls-10" d="M41.67229,87.31887,37.3154,84.94876a24.39562,24.39562,0,0,1,1.41915-3.157l4.35689,2.37011a24.39562,24.39562,0,0,0-1.41915,3.157"/><path class="cls-9" d="M43.09145,84.16188l-4.35689-2.37011a24.635,24.635,0,0,1,1.527-2.47744l4.35689,2.37011a24.635,24.635,0,0,0-1.527,2.47744"/><path class="cls-8" d="M44.61845,81.68444l-4.35689-2.37011a24.39978,24.39978,0,0,1,1.68883-2.14356l4.35689,2.37011a24.39978,24.39978,0,0,0-1.68883,2.14356"/><path class="cls-7" d="M46.30728,79.54089l-4.35689-2.37011a23.74579,23.74579,0,0,1,1.91177-1.93111L48.219,77.60978a23.74579,23.74579,0,0,0-1.91177,1.93111"/><path class="cls-6" d="M48.219,77.60978l-4.35689-2.37011a22.68835,22.68835,0,0,1,2.267-1.79466l4.35689,2.37011a22.68835,22.68835,0,0,0-2.267,1.79466"/><path class="cls-5" d="M50.48609,75.81511,46.1292,73.445a21.17787,21.17787,0,0,1,3.04-1.75431l4.35689,2.37011a21.17787,21.17787,0,0,0-3.04,1.75431"/><path class="cls-4" d="M53.52611,74.0608,49.16922,71.6907A19.03513,19.03513,0,0,1,54.61544,70.051c.14415-.02026.28847-.04054.4326-.05218L59.40493,72.369c-.14413.01164-.28845.03192-.4326.05218a19.03513,19.03513,0,0,0-5.44622,1.63965"/></g></g></g></g></svg>