<svg id="Layer_1" data-name="Layer 1" xmlns="http://www.w3.org/2000/svg" xmlns:xlink="http://www.w3.org/1999/xlink" viewBox="0 0 432 432"><defs><style>.cls-1{fill:none;}.cls-2{fill:#fff;}.cls-3{isolation:isolate;}.cls-4{clip-path:url(#clip-path);}.cls-5{fill:#a8a8a8;}.cls-6{fill:#a3a3a3;}.cls-7{fill:#783906;}.cls-8{fill:#a74f08;}.cls-9{clip-path:url(#clip-path-2);}.cls-10{fill:#7c3b06;}.cls-11{clip-path:url(#clip-path-3);}.cls-12{clip-path:url(#clip-path-4);}.cls-13{fill:#9e9e9e;}.cls-14{clip-path:url(#clip-path-5);}.cls-15{clip-path:url(#clip-path-6);}.cls-16{fill:#9e4b08;}.cls-17{fill:#994908;}.cls-18{fill:#944707;}.cls-19{clip-path:url(#clip-path-7);}.cls-20{fill:#d1640a;}.cls-21{clip-path:url(#clip-path-8);}.cls-22{fill:#813e06;}.cls-23{fill:#864007;}.cls-24{fill:#8b4207;}.cls-25{fill:#8f4407;}.cls-26{clip-path:url(#clip-path-9);}.cls-27{clip-path:url(#clip-path-10);}.cls-28{clip-path:url(#clip-path-11);}.cls-29{clip-path:url(#clip-path-12);}.cls-30{fill:#a54f08;}.cls-31{clip-path:url(#clip-path-13);}.cls-32{clip-path:url(#clip-path-14);}.cls-33{fill:#858585;}.cls-34{fill:#8a8a8a;}.cls-35{fill:#8f8f8f;}.cls-36{fill:#949494;}.cls-37{fill:#999;}.cls-38{fill:#dfdfdf;}</style><clipPath id="clip-path"><path class="cls-1" d="M243.19824,301.45745a91.39424,91.39424,0,0,0,23.10887-11.46872l4.55864,2.47988a91.39447,91.39447,0,0,1-23.10886,11.4687Q245.47754,302.69739,243.19824,301.45745Z"/></clipPath><clipPath id="clip-path-2"><path class="cls-1" d="M284.42922,136.70276l-4.55866-2.47985a1.306,1.306,0,0,1-.18032-.11856l4.55865,2.47986A1.30408,1.30408,0,0,0,284.42922,136.70276Z"/></clipPath><clipPath id="clip-path-3"><path class="cls-1" d="M277.19317,146.87321l-4.55867-2.47986a1.29527,1.29527,0,0,1-.17064-.11116l4.55865,2.47986A1.294,1.294,0,0,0,277.19317,146.87321Z"/></clipPath><clipPath id="clip-path-4"><path class="cls-1" d="M228.97434,304.77518a82.7923,82.7923,0,0,0,14.2239-3.31773q2.27933,1.23993,4.55864,2.47986A82.79217,82.79217,0,0,1,233.533,307.255a75.47563,75.47563,0,0,1-17.88894.408,69.44819,69.44819,0,0,1-26.54619-8.05159l-4.55865-2.47985a69.44845,69.44845,0,0,0,26.54619,8.05158A75.47563,75.47563,0,0,0,228.97434,304.77518Z"/></clipPath><clipPath id="clip-path-5"><path class="cls-1" d="M275.27616,126.2626a1.29792,1.29792,0,0,0-.17946-.118l4.55865,2.47988a1.29641,1.29641,0,0,1,.17946.11794C278.4672,127.99851,276.57756,127.11708,275.27616,126.2626Z"/></clipPath><clipPath id="clip-path-6"><path class="cls-1" d="M275.09667,126.14463l4.55865,2.47988a1.336,1.336,0,0,0-.83074-.1431l-4.55865-2.47986A1.33616,1.33616,0,0,1,275.09667,126.14463Z"/></clipPath><clipPath id="clip-path-7"><path class="cls-1" d="M268.04979,136.4318a1.30111,1.30111,0,0,0-.17134-.1116l4.55865,2.47986a1.3007,1.3007,0,0,1,.17134.11159C271.24084,138.16772,269.35473,137.28089,268.04979,136.4318Z"/></clipPath><clipPath id="clip-path-8"><path class="cls-1" d="M277.81148,131.58533l-4.55865-2.47986a1.71826,1.71826,0,0,1-.17183-2.34419,1.77787,1.77787,0,0,1,1.18493-.75973l4.55865,2.47986a1.77787,1.77787,0,0,0-1.18493.75973A1.71826,1.71826,0,0,0,277.81148,131.58533Z"/></clipPath><clipPath id="clip-path-9"><path class="cls-1" d="M267.8784,136.32018,272.437,138.8a1.33683,1.33683,0,0,0-.83134-.1433l-4.55865-2.47986A1.33687,1.33687,0,0,1,267.8784,136.32018Z"/></clipPath><clipPath id="clip-path-10"><path class="cls-1" d="M270.5851,141.76319l-4.55865-2.47986a1.737,1.737,0,0,1-.17183-2.34421,1.79974,1.79974,0,0,1,1.19243-.76224l4.55865,2.47986a1.79974,1.79974,0,0,0-1.19243.76224A1.737,1.737,0,0,0,270.5851,141.76319Z"/></clipPath><clipPath id="clip-path-11"><path class="cls-1" d="M278.048,124.06464l4.55864,2.47988a9.0956,9.0956,0,0,0-5.65488-.97259l-4.55865-2.47986A9.09573,9.09573,0,0,1,278.048,124.06464Z"/></clipPath><clipPath id="clip-path-12"><path class="cls-1" d="M269.01594,145.81285l-4.55865-2.47986c-3.36245-3.56043-3.64524-9.61563-.58275-14.44134q.2108-.33225.44254-.65666a13.68039,13.68039,0,0,1,1.541-1.8047,11.75807,11.75807,0,0,1,6.535-3.33822l4.55865,2.47986a11.75807,11.75807,0,0,0-6.535,3.33822,13.68041,13.68041,0,0,0-1.541,1.8047q-.232.3239-.44254.65666C265.37071,136.19722,265.65349,142.25242,269.01594,145.81285Z"/></clipPath><clipPath id="clip-path-13"><path class="cls-1" d="M247.831,122.33187a72.67215,72.67215,0,0,1,18.0271,4.09842l4.55864,2.47986a72.6719,72.6719,0,0,0-18.02709-4.09842,78.04043,78.04043,0,0,0-18.50569.41029l-4.55866-2.47985A78.04,78.04,0,0,1,247.831,122.33187Z"/></clipPath><clipPath id="clip-path-14"><path class="cls-1" d="M187.66571,302.24993l-4.55867-2.47985a72.22669,72.22669,0,0,1-26.2542-24.69445c-12.26532-19.09007-16.27259-43.26495-11.28539-68.07294,8.90553-44.32645,44.46406-78.73815,83.75781-84.26053l4.55865,2.47986c-39.29375,5.52238-74.85228,39.93407-83.75781,84.26053-4.9872,24.808-.97993,48.98287,11.28539,68.07294A72.22651,72.22651,0,0,0,187.66571,302.24993Z"/></clipPath></defs><title>ICONS invente18 colour</title><rect class="cls-2" width="432" height="432"/><g class="cls-3"><g class="cls-3"><g class="cls-4"><g class="cls-3"><path class="cls-5" d="M204.597,305.71294l-4.55865-2.47986a72.05067,72.05067,0,0,0,11.04706,1.9501,75.47563,75.47563,0,0,0,17.88894-.408,85.19307,85.19307,0,0,0,24.43273-7.38354l4.55865,2.47986A85.19307,85.19307,0,0,1,233.533,307.255a75.47563,75.47563,0,0,1-17.88894.408,72.05068,72.05068,0,0,1-11.04706-1.9501"/><path class="cls-6" d="M257.96572,299.87149l-4.55865-2.47986a93.5631,93.5631,0,0,0,12.9-7.4029l4.55865,2.47986a93.56311,93.56311,0,0,1-12.9,7.4029"/></g></g></g><polygon class="cls-7" points="271.658 292.876 267.099 290.396 248.607 230.51 253.166 232.99 271.658 292.876"/><polygon class="cls-8" points="240.896 225.068 236.337 222.588 256.006 222.53 260.564 225.009 240.896 225.068"/><g class="cls-3"><g class="cls-9"><g class="cls-3"><path class="cls-10" d="M284.42922,136.70276l-4.55865-2.47986a1.30409,1.30409,0,0,1-.18033-.11854l4.55865,2.47986a1.30408,1.30408,0,0,0,.18033.11854"/></g></g></g><g class="cls-3"><g class="cls-11"><g class="cls-3"><path class="cls-10" d="M277.19317,146.87321l-4.55865-2.47986a1.294,1.294,0,0,1-.17066-.11115l4.55865,2.47986a1.294,1.294,0,0,0,.17066.11115"/></g></g></g><g class="cls-3"><g class="cls-12"><g class="cls-3"><path class="cls-13" d="M189.1014,299.61338l-4.55865-2.47986q1.20785.65706,2.443,1.26492l4.55865,2.47986q-1.235-.60777-2.443-1.26492"/><path class="cls-6" d="M191.54438,300.8783l-4.55865-2.47986a68.31572,68.31572,0,0,0,13.05261,4.83464l4.55865,2.47986a68.31572,68.31572,0,0,1-13.05261-4.83464"/><path class="cls-5" d="M204.597,305.71294l-4.55865-2.47986a72.05067,72.05067,0,0,0,11.04706,1.9501,75.47563,75.47563,0,0,0,17.88894-.408,85.19307,85.19307,0,0,0,24.43273-7.38354l4.55865,2.47986A85.19307,85.19307,0,0,1,233.533,307.255a75.47563,75.47563,0,0,1-17.88894.408,72.05068,72.05068,0,0,1-11.04706-1.9501"/></g></g></g><polygon class="cls-7" points="284.249 136.584 279.69 134.104 274.142 129.796 278.701 132.276 284.249 136.584"/><polygon class="cls-7" points="280.731 129.438 276.172 126.958 275.276 126.263 279.835 128.742 280.731 129.438"/><g class="cls-3"><g class="cls-14"><g class="cls-3"><path class="cls-10" d="M279.83481,128.74246l-4.55865-2.47986a1.29792,1.29792,0,0,0-.17948-.118l4.55865,2.47986a1.29792,1.29792,0,0,1,.17948.118"/></g></g></g><polygon class="cls-7" points="278.701 132.276 274.142 129.796 273.253 129.105 277.811 131.585 278.701 132.276"/><polygon class="cls-7" points="277.023 146.762 272.464 144.282 266.88 139.946 271.439 142.426 277.023 146.762"/><g class="cls-3"><g class="cls-15"><g class="cls-3"><path class="cls-16" d="M278.82458,128.48141l-4.55865-2.47986a1.38075,1.38075,0,0,1,.5397.02831l4.55865,2.47986a1.38074,1.38074,0,0,0-.5397-.02831"/><path class="cls-17" d="M279.36428,128.50971l-4.55865-2.47986a1.28226,1.28226,0,0,1,.24456.09071l4.55865,2.47986a1.28226,1.28226,0,0,0-.24456-.09071"/><path class="cls-18" d="M279.60884,128.60042l-4.55865-2.47986.04648.02407,4.55865,2.47986-.04648-.02407"/></g></g></g><polygon class="cls-7" points="273.473 139.583 268.914 137.103 268.05 136.432 272.608 138.912 273.473 139.583"/><g class="cls-3"><g class="cls-19"><g class="cls-3"><path class="cls-10" d="M272.60844,138.91167l-4.55865-2.47986a1.30111,1.30111,0,0,0-.17139-.11163L272.43705,138.8a1.30111,1.30111,0,0,1,.17139.11163"/></g></g></g><path class="cls-20" d="M278.82458,128.48141a1.31868,1.31868,0,0,1,1.01022.26105l.89613.6958,5.54129,4.30308a1.736,1.736,0,0,1,.17183,2.34421,1.79327,1.79327,0,0,1-1.18754.7601,1.3146,1.3146,0,0,1-1.00762-.26143l-5.54813-4.30832-.88929-.69056a1.71826,1.71826,0,0,1-.17183-2.34419A1.77787,1.77787,0,0,1,278.82458,128.48141Z"/><g class="cls-3"><g class="cls-21"><g class="cls-3"><path class="cls-10" d="M277.81148,131.58533l-4.55865-2.47986a1.62274,1.62274,0,0,1-.42742-1.861l4.55865,2.47986a1.62274,1.62274,0,0,0,.42742,1.861"/><path class="cls-22" d="M277.38406,129.72436l-4.55865-2.47986a2.03021,2.03021,0,0,1,.11764-.26153l4.55865,2.47986a2.03023,2.03023,0,0,0-.11764.26153"/><path class="cls-23" d="M277.5017,129.46283l-4.55865-2.47986a2.06455,2.06455,0,0,1,.1355-.21826l4.55865,2.47986a2.0646,2.0646,0,0,0-.1355.21826"/><path class="cls-24" d="M277.6372,129.24458l-4.55865-2.47986.00245-.00344a2.01064,2.01064,0,0,1,.13678-.17332l4.55865,2.47986a2.01064,2.01064,0,0,0-.13678.17332l-.00245.00344"/><path class="cls-25" d="M277.77643,129.06782l-4.55865-2.47986a1.93249,1.93249,0,0,1,.15562-.15722l4.55865,2.47986a1.93251,1.93251,0,0,0-.15562.15722"/><path class="cls-18" d="M277.93205,128.91061l-4.55865-2.47986a1.85285,1.85285,0,0,1,.18525-.14662l4.55865,2.47986a1.85285,1.85285,0,0,0-.18525.14662"/><path class="cls-17" d="M278.1173,128.764l-4.55865-2.47986a1.75578,1.75578,0,0,1,.24985-.14433l4.55865,2.47986a1.75578,1.75578,0,0,0-.24985.14433"/><path class="cls-16" d="M278.36716,128.61965l-4.55865-2.47986a1.5947,1.5947,0,0,1,.45743-.13825l4.55865,2.47986a1.5947,1.5947,0,0,0-.45743.13825"/></g></g></g><polygon class="cls-7" points="271.439 142.426 266.88 139.946 266.026 139.283 270.585 141.763 271.439 142.426"/><g class="cls-3"><g class="cls-26"><g class="cls-3"><path class="cls-16" d="M271.6057,138.65674l-4.55865-2.47986a1.38108,1.38108,0,0,1,.53974.0283l4.55865,2.47986a1.38107,1.38107,0,0,0-.53974-.0283"/><path class="cls-17" d="M272.14544,138.685l-4.55865-2.47986a1.28411,1.28411,0,0,1,.24492.09083l4.55865,2.47986a1.28411,1.28411,0,0,0-.24491-.09083"/><path class="cls-18" d="M272.39036,138.77587,267.8317,136.296l.04669.02417L272.43705,138.8l-.04669-.02417"/></g></g></g><path class="cls-20" d="M271.6057,138.65674a1.32055,1.32055,0,0,1,1.00274.25492l.86456.67132,5.57286,4.32756a1.73028,1.73028,0,0,1,.17181,2.35284,1.78686,1.78686,0,0,1-1.18666.75357,1.32891,1.32891,0,0,1-1.0085-.25491l-5.5837-4.33587-.85372-.663a1.737,1.737,0,0,1-.17183-2.34421A1.79974,1.79974,0,0,1,271.6057,138.65674Z"/><g class="cls-3"><g class="cls-27"><g class="cls-3"><path class="cls-10" d="M270.5851,141.76319l-4.55865-2.47986a1.65106,1.65106,0,0,1-.4219-1.87042l4.55865,2.47986a1.65106,1.65106,0,0,0,.4219,1.87042"/><path class="cls-22" d="M270.16319,139.89277l-4.55865-2.47986a2.00191,2.00191,0,0,1,.116-.25811l4.55865,2.47986a2.00191,2.00191,0,0,0-.116.25811"/><path class="cls-23" d="M270.27923,139.63466l-4.55865-2.47986a2.01964,2.01964,0,0,1,.12469-.20244l4.55865,2.47986a2.01969,2.01969,0,0,0-.12469.20244"/><path class="cls-24" d="M270.40392,139.43222l-4.55865-2.47986.00935-.01324a2.06348,2.06348,0,0,1,.13312-.16763l4.55865,2.47986a2.0635,2.0635,0,0,0-.13312.16763l-.00935.01324"/><path class="cls-25" d="M270.54639,139.25135l-4.55865-2.47986a1.97535,1.97535,0,0,1,.15908-.16072l4.55865,2.47986a1.97538,1.97538,0,0,0-.15908.16072"/><path class="cls-18" d="M270.70547,139.09063l-4.55865-2.47986a1.88365,1.88365,0,0,1,.18836-.1491l4.55865,2.47986a1.88366,1.88366,0,0,0-.18836.1491"/><path class="cls-17" d="M270.89383,138.94153l-4.55865-2.47986a1.77465,1.77465,0,0,1,.25253-.14589l4.55865,2.47986a1.77465,1.77465,0,0,0-.25253.14589"/><path class="cls-16" d="M271.14636,138.79564l-4.55865-2.47986a1.60163,1.60163,0,0,1,.45934-.1389l4.55865,2.47986a1.60163,1.60163,0,0,0-.45934.1389"/></g></g></g><g class="cls-3"><g class="cls-28"><g class="cls-3"><path class="cls-16" d="M276.95173,125.57193l-4.55865-2.47986a9.408,9.408,0,0,1,3.67684.19256l4.55865,2.47986a9.408,9.408,0,0,0-3.67684-.19256"/><path class="cls-17" d="M280.62858,125.76449l-4.55865-2.47986a8.71614,8.71614,0,0,1,1.662.61638l4.55865,2.47986a8.71615,8.71615,0,0,0-1.662-.61638"/><path class="cls-18" d="M282.29055,126.38086,277.7319,123.901q.15926.07836.31607.16364l4.55865,2.47986q-.15678-.08529-.31607-.16364"/></g></g></g><polygon class="cls-7" points="233.616 233.542 229.058 231.062 223.205 208.573 227.764 211.053 233.616 233.542"/><g class="cls-3"><g class="cls-29"><g class="cls-3"><path class="cls-10" d="M269.01594,145.81285l-4.55865-2.47986c-2.76647-2.92935-3.44824-7.54746-1.89739-11.78016l4.55865,2.47986c-1.55085,4.2327-.86907,8.85081,1.89739,11.78016"/><path class="cls-22" d="M267.11855,134.03269l-4.55865-2.47986a13.816,13.816,0,0,1,.80366-1.78788l4.55865,2.47986a13.816,13.816,0,0,0-.80366,1.78788"/><path class="cls-23" d="M267.92221,132.2448l-4.55865-2.47986q.2378-.44239.511-.8733.17568-.27691.36587-.54849l4.55865,2.47986q-.19031.27129-.36587.54849-.27321.43052-.511.8733"/><path class="cls-24" d="M268.79906,130.823l-4.55865-2.47986q.038-.05422.07667-.10817a13.82865,13.82865,0,0,1,.88377-1.11149l4.55865,2.47986a13.82865,13.82865,0,0,0-.88377,1.11149q-.03864.054-.07667.10817"/><path class="cls-25" d="M269.7595,129.60336l-4.55865-2.47986q.31935-.36163.65721-.69321.20583-.2022.4179-.393l4.55865,2.47986q-.212.19082-.4179.393-.33752.33155-.65721.69321"/><path class="cls-18" d="M270.83461,128.51711l-4.55865-2.47986a12.74654,12.74654,0,0,1,1.27565-1.00964l4.55865,2.47986a12.74656,12.74656,0,0,0-1.27565,1.00964"/><path class="cls-17" d="M272.11026,127.50746l-4.55865-2.47986a12.04875,12.04875,0,0,1,1.71462-.99035l4.55865,2.47986a12.04875,12.04875,0,0,0-1.71462.99035"/><path class="cls-16" d="M273.82488,126.51712l-4.55865-2.47986a10.90411,10.90411,0,0,1,3.12685-.94519l4.55865,2.47986a10.90411,10.90411,0,0,0-3.12685.94519"/></g></g></g><path class="cls-20" d="M276.95173,125.57193a9.0783,9.0783,0,0,1,5.79412,1.05l-2.01492,2.81636-.89613-.6958a1.31868,1.31868,0,0,0-1.01022-.26105,1.77787,1.77787,0,0,0-1.18493.75973,1.71826,1.71826,0,0,0,.17183,2.34419l.88929.69056L273.473,139.583l-.86456-.67132a1.32055,1.32055,0,0,0-1.00274-.25492,1.79974,1.79974,0,0,0-1.19243.76224,1.737,1.737,0,0,0,.17183,2.34421l.85372.663-2.42287,3.38666c-3.36245-3.56042-3.64524-9.61563-.58275-14.44134q.2108-.33225.44254-.65666a13.68041,13.68041,0,0,1,1.541-1.8047A11.75807,11.75807,0,0,1,276.95173,125.57193Z"/><polygon class="cls-30" points="218.078 204.635 213.519 202.155 228.725 203.138 233.284 205.618 218.078 204.635"/><g class="cls-3"><g class="cls-31"><g class="cls-3"><path class="cls-5" d="M233.88392,125.222l-4.55865-2.47986a78.04043,78.04043,0,0,1,18.50569-.41029,73.74726,73.74726,0,0,1,11.34108,2.00736l4.55865,2.47986a73.74727,73.74727,0,0,0-11.34108-2.00736,78.04043,78.04043,0,0,0-18.50569.41029"/><path class="cls-6" d="M263.73069,126.81909l-4.55865-2.47986q3.40739.88451,6.686,2.09106l4.55865,2.47986q-3.27483-1.20547-6.686-2.09106"/></g></g></g><polygon class="cls-7" points="215.208 210.432 210.649 207.952 198.455 172.291 203.014 174.77 215.208 210.432"/><polygon class="cls-20" points="203.014 174.77 218.078 204.635 233.284 205.618 240.896 225.068 260.564 225.009 271.658 292.876 253.166 232.99 233.616 233.542 227.764 211.053 215.208 210.432 203.014 174.77"/><g class="cls-3"><g class="cls-32"><g class="cls-3"><path class="cls-33" d="M187.66571,302.24993l-4.55865-2.47986a72.22651,72.22651,0,0,1-26.25421-24.69444c-12.26532-19.09007-16.27259-43.26495-11.28539-68.07294a109.81944,109.81944,0,0,1,4.55879-16.16051l4.55865,2.47986a109.81945,109.81945,0,0,0-4.55879,16.16051c-4.9872,24.808-.97993,48.98287,11.28539,68.07294a72.22651,72.22651,0,0,0,26.25421,24.69444"/><path class="cls-34" d="M154.68489,193.322l-4.55865-2.47986a111.215,111.215,0,0,1,6.4759-14.40451l4.55865,2.47986a111.215,111.215,0,0,0-6.4759,14.40451"/><path class="cls-35" d="M161.16079,178.91753l-4.55865-2.47986a111.77019,111.77019,0,0,1,6.93135-11.24042l4.55865,2.47986a111.77016,111.77016,0,0,0-6.93135,11.24042"/><path class="cls-36" d="M168.09214,167.67711l-4.55865-2.47986a110.98483,110.98483,0,0,1,7.668-9.72993l4.55865,2.47986a110.98482,110.98482,0,0,0-7.668,9.72993"/><path class="cls-37" d="M175.76013,157.94718l-4.55865-2.47986a108.67131,108.67131,0,0,1,8.75039-8.8381l4.55865,2.47986a108.67131,108.67131,0,0,0-8.75039,8.8381"/><path class="cls-13" d="M184.51052,149.10908l-4.55865-2.47986a104.537,104.537,0,0,1,10.44172-8.26554l4.55865,2.47986a104.537,104.537,0,0,0-10.44172,8.26554"/><path class="cls-6" d="M194.95224,140.84354l-4.55865-2.47986a97.93753,97.93753,0,0,1,14.04128-8.10542l4.55865,2.47986a97.93754,97.93754,0,0,0-14.04128,8.10542"/><path class="cls-5" d="M208.99352,132.73812l-4.55865-2.47986a87.03365,87.03365,0,0,1,24.89039-7.5161l4.55865,2.47986a87.03365,87.03365,0,0,0-24.89039,7.5161"/></g></g></g><path class="cls-38" d="M233.88392,125.222a78.04043,78.04043,0,0,1,18.50569-.41029,72.67215,72.67215,0,0,1,18.0271,4.09842,13.68041,13.68041,0,0,0-1.541,1.8047q-.232.3239-.44254.65666a70.31916,70.31916,0,0,0-16.62562-3.6688,75.60026,75.60026,0,0,0-17.92151.3977c-38.06994,5.35-72.52453,38.69419-81.15779,81.63877-4.82555,24.03326-.94494,47.45666,10.93708,65.95234,11.89006,18.49452,30.34413,29.85179,51.9787,31.97151a75.47563,75.47563,0,0,0,17.88894-.408,88.23158,88.23158,0,0,0,37.33277-14.78645l1.19676,2.40761a91.15251,91.15251,0,0,1-38.54042,15.2616,77.93662,77.93662,0,0,1-18.46.42483c-22.33123-2.19468-41.38529-13.91708-53.65061-33.00715s-16.27259-43.26495-11.28539-68.07294C159.03164,165.15609,194.59016,130.74439,233.88392,125.222Z"/></g></svg>