<svg id="Layer_1" data-name="Layer 1" xmlns="http://www.w3.org/2000/svg" xmlns:xlink="http://www.w3.org/1999/xlink" viewBox="0 0 180 180"><defs><style>.cls-1{fill:none;}.cls-2{isolation:isolate;}.cls-3{fill:#804028;}.cls-4{clip-path:url(#clip-path);}.cls-5{fill:#a8a8a8;}.cls-6{fill:#a3a3a3;}.cls-7{fill:#b25938;}.cls-8{clip-path:url(#clip-path-2);}.cls-9{fill:#85422a;}.cls-10{clip-path:url(#clip-path-3);}.cls-11{clip-path:url(#clip-path-4);}.cls-12{clip-path:url(#clip-path-5);}.cls-13{fill:#a85435;}.cls-14{fill:#a35133;}.cls-15{fill:#9e4f32;}.cls-16{fill:#df6f46;}.cls-17{clip-path:url(#clip-path-6);}.cls-18{fill:#8a452b;}.cls-19{fill:#8f472d;}.cls-20{fill:#944a2e;}.cls-21{fill:#994c30;}.cls-22{clip-path:url(#clip-path-7);}.cls-23{clip-path:url(#clip-path-8);}.cls-24{clip-path:url(#clip-path-9);}.cls-25{clip-path:url(#clip-path-10);}.cls-26{clip-path:url(#clip-path-11);}.cls-27{fill:#9e9e9e;}.cls-28{clip-path:url(#clip-path-12);}.cls-29{fill:#b05837;}.cls-30{clip-path:url(#clip-path-13);}.cls-31{clip-path:url(#clip-path-14);}.cls-32{fill:#858585;}.cls-33{fill:#8a8a8a;}.cls-34{fill:#8f8f8f;}.cls-35{fill:#949494;}.cls-36{fill:#999;}.cls-37{fill:#dfdfdf;}</style><clipPath id="clip-path"><path class="cls-1" d="M114.4907,152.88339a79.92531,79.92531,0,0,0,17.53782-8.50534l3.65729,1.98955a79.92543,79.92543,0,0,1-17.5378,8.50533Q116.31932,153.87818,114.4907,152.88339Z"/></clipPath><clipPath id="clip-path-2"><path class="cls-1" d="M146.8815,25.901l-3.65731-1.98953a1.07213,1.07213,0,0,1-.1125-.07061l3.6573,1.98954A1.069,1.069,0,0,0,146.8815,25.901Z"/></clipPath><clipPath id="clip-path-3"><path class="cls-1" d="M140.86857,33.8252l-3.65731-1.98953a1.0714,1.0714,0,0,1-.1125-.07061l3.6573,1.98954A1.069,1.069,0,0,0,140.86857,33.8252Z"/></clipPath><clipPath id="clip-path-4"><path class="cls-1" d="M139.439,17.81381a1.09468,1.09468,0,0,0-.108-.0672l3.6573,1.98954a1.09449,1.09449,0,0,1,.10805.0672C141.99914,19.2065,140.53622,18.41069,139.439,17.81381Z"/></clipPath><clipPath id="clip-path-5"><path class="cls-1" d="M139.331,17.7466l3.65729,1.98955a1.18488,1.18488,0,0,0-.73532-.12433l-3.6573-1.98954A1.185,1.185,0,0,1,139.331,17.7466Z"/></clipPath><clipPath id="clip-path-6"><path class="cls-1" d="M141.41056,22.01965l-3.6573-1.98954a1.26491,1.26491,0,0,1-.14881-1.81152,1.53208,1.53208,0,0,1,.99118-.5963l3.6573,1.98954a1.53208,1.53208,0,0,0-.99118.5963A1.26491,1.26491,0,0,0,141.41056,22.01965Z"/></clipPath><clipPath id="clip-path-7"><path class="cls-1" d="M133.41806,25.73912a1.06755,1.06755,0,0,0-.11256-.07065L136.9628,27.658a1.065,1.065,0,0,1,.11256.07064C135.97816,27.13181,134.51525,26.336,133.41806,25.73912Z"/></clipPath><clipPath id="clip-path-8"><path class="cls-1" d="M133.30548,25.66846l3.65729,1.98954a1.16711,1.16711,0,0,0-.72418-.12179l-3.6573-1.98954A1.16723,1.16723,0,0,1,133.30548,25.66846Z"/></clipPath><clipPath id="clip-path-9"><path class="cls-1" d="M135.39752,29.94386l-3.6573-1.98954a1.26512,1.26512,0,0,1-.14881-1.81154,1.53187,1.53187,0,0,1,.98987-.59611l3.6573,1.98954a1.53187,1.53187,0,0,0-.98987.59611A1.26512,1.26512,0,0,0,135.39752,29.94386Z"/></clipPath><clipPath id="clip-path-10"><path class="cls-1" d="M140.69023,17.37878l-3.6573-1.98954a8.03342,8.03342,0,0,1,4.82772.76175l3.65729,1.98955A8.03331,8.03331,0,0,0,140.69023,17.37878Z"/></clipPath><clipPath id="clip-path-11"><path class="cls-1" d="M100.88651,156.14072a74.43125,74.43125,0,0,0,13.60419-3.25733q1.82866.99477,3.65729,1.98955a74.43208,74.43208,0,0,1-13.60419,3.25732,67.80439,67.80439,0,0,1-14.91254.46652,60.375,60.375,0,0,1-24.01511-7.06112l-3.65731-1.98953A60.37515,60.37515,0,0,0,85.974,156.60724,67.80438,67.80438,0,0,0,100.88651,156.14072Z"/></clipPath><clipPath id="clip-path-12"><path class="cls-1" d="M134.0864,33.08425l-3.65731-1.98952c-2.79006-2.71538-3.03492-7.37615-.51058-11.12814q.18413-.27377.38813-.54085a10.98377,10.98377,0,0,1,1.30794-1.42744,10.20883,10.20883,0,0,1,5.41836-2.60906l3.6573,1.98954a10.20883,10.20883,0,0,0-5.41836,2.60906,10.98378,10.98378,0,0,0-1.30794,1.42744q-.204.26682-.38813.54085C131.05147,25.70811,131.29633,30.36888,134.0864,33.08425Z"/></clipPath><clipPath id="clip-path-13"><path class="cls-1" d="M116.55658,14.9619a64.27035,64.27035,0,0,1,15.058,3.03641l3.65729,1.98955a64.26945,64.26945,0,0,0-15.058-3.03642,69.87043,69.87043,0,0,0-15.37886.47167l-3.65731-1.98952A69.86975,69.86975,0,0,1,116.55658,14.9619Z"/></clipPath><clipPath id="clip-path-14"><path class="cls-1" d="M64.46711,153.65257,60.8098,151.663a58.002,58.002,0,0,1-21.18245-19.67655c-9.21492-14.36718-12.11248-32.37088-8.15442-50.70709,7.41182-34.34373,37.00893-61.25073,69.70479-65.84583l3.6573,1.98954c-32.69587,4.5951-62.293,31.5021-69.70479,65.84583-3.95806,18.33621-1.0605,36.33991,8.15442,50.70709A58.00182,58.00182,0,0,0,64.46711,153.65257Z"/></clipPath></defs><title>ICONS invente18 no bg</title><g class="cls-2"><polygon class="cls-3" points="136.302 146.73 132.644 144.741 117.234 98.615 120.891 100.604 136.302 146.73"/><g class="cls-2"><g class="cls-4"><g class="cls-2"><path class="cls-5" d="M79.02162,156.8114l-3.6573-1.98954A62.35626,62.35626,0,0,0,85.974,156.60724a67.80438,67.80438,0,0,0,14.91254-.46652,76.0692,76.0692,0,0,0,21.80007-6.57463l3.6573,1.98954a76.0692,76.0692,0,0,1-21.80007,6.57463,67.80439,67.80439,0,0,1-14.91254.46652,62.35625,62.35625,0,0,1-10.60965-1.78538"/><path class="cls-6" d="M126.34388,151.55563l-3.6573-1.98954a80.9641,80.9641,0,0,0,9.34194-5.188l3.6573,1.98954a80.96411,80.96411,0,0,1-9.34194,5.188"/></g></g></g><polygon class="cls-7" points="110.676 94.581 107.019 92.591 123.404 92.389 127.061 94.378 110.676 94.581"/><g class="cls-2"><g class="cls-8"><g class="cls-2"><path class="cls-9" d="M146.8815,25.901l-3.6573-1.98954a1.069,1.069,0,0,1-.11251-.0706l3.6573,1.98954a1.069,1.069,0,0,0,.11251.0706"/></g></g></g><g class="cls-2"><g class="cls-10"><g class="cls-2"><path class="cls-9" d="M140.86857,33.8252l-3.6573-1.98954a1.069,1.069,0,0,1-.11251-.0706l3.6573,1.98954a1.069,1.069,0,0,0,.11251.0706"/></g></g></g><polygon class="cls-3" points="146.769 25.83 143.112 23.841 138.492 20.555 142.149 22.545 146.769 25.83"/><polygon class="cls-3" points="143.841 20.333 140.184 18.343 139.439 17.814 143.096 19.803 143.841 20.333"/><g class="cls-2"><g class="cls-11"><g class="cls-2"><path class="cls-9" d="M143.09633,19.80335l-3.6573-1.98954a1.09466,1.09466,0,0,0-.10807-.06722l3.6573,1.98954a1.09467,1.09467,0,0,1,.10807.06722"/></g></g></g><polygon class="cls-3" points="142.149 22.545 138.492 20.555 137.753 20.03 141.411 22.02 142.149 22.545"/><g class="cls-2"><g class="cls-12"><g class="cls-2"><path class="cls-13" d="M142.25293,19.61182l-3.6573-1.98954a1.23682,1.23682,0,0,1,.48319.025l3.6573,1.98954a1.23683,1.23683,0,0,0-.48319-.025"/><path class="cls-14" d="M142.73612,19.63683l-3.6573-1.98954a1.115,1.115,0,0,1,.21231.07868l3.6573,1.98954a1.115,1.115,0,0,0-.21231-.07868"/><path class="cls-15" d="M142.94843,19.71551l-3.6573-1.98954.03983.02062,3.6573,1.98954-.03983-.02062"/></g></g></g><polygon class="cls-3" points="140.756 33.755 137.099 31.765 132.447 28.457 136.104 30.446 140.756 33.755"/><polygon class="cls-3" points="137.793 28.239 134.136 26.249 133.418 25.739 137.075 27.729 137.793 28.239"/><path class="cls-16" d="M142.25293,19.61182a1.16635,1.16635,0,0,1,.8434.19153l.74458.52947,4.61395,3.28127a1.26585,1.26585,0,0,1,.14077,1.81265,1.53139,1.53139,0,0,1-.98977.59611,1.14638,1.14638,0,0,1-.83689-.19245l-4.62013-3.28566-.73829-.5251a1.26491,1.26491,0,0,1-.14881-1.81152A1.53208,1.53208,0,0,1,142.25293,19.61182Z"/><g class="cls-2"><g class="cls-17"><g class="cls-2"><path class="cls-9" d="M141.41056,22.01965l-3.6573-1.98954a1.19651,1.19651,0,0,1-.371-1.40878l3.6573,1.98954a1.19651,1.19651,0,0,0,.371,1.40878"/><path class="cls-18" d="M141.03961,20.61087l-3.6573-1.98954a1.49816,1.49816,0,0,1,.087-.19338l3.6573,1.98954a1.49817,1.49817,0,0,0-.087.19338"/><path class="cls-19" d="M141.12659,20.41749l-3.6573-1.98954a1.5581,1.5581,0,0,1,.09693-.15714l3.6573,1.98954a1.55808,1.55808,0,0,0-.09693.15714"/><path class="cls-20" d="M141.22352,20.26035l-3.6573-1.98954q.01847-.02634.03823-.05222.03571-.0468.07411-.09024l3.6573,1.98954q-.03835.04343-.07411.09024-.01976.02588-.03823.05222"/><path class="cls-21" d="M141.33586,20.11788l-3.6573-1.98954a1.60937,1.60937,0,0,1,.12959-.13086l3.6573,1.98954a1.60937,1.60937,0,0,0-.12959.13086"/><path class="cls-15" d="M141.46545,19.987l-3.6573-1.98954a1.58077,1.58077,0,0,1,.15823-.12516l3.6573,1.98954a1.58077,1.58077,0,0,0-.15823.12516"/><path class="cls-14" d="M141.62368,19.86186l-3.6573-1.98954a1.53681,1.53681,0,0,1,.21929-.12649l3.6573,1.98954a1.53681,1.53681,0,0,0-.21929.12649"/><path class="cls-13" d="M141.843,19.73538l-3.6573-1.98954a1.4321,1.4321,0,0,1,.41-.12356l3.6573,1.98954a1.4321,1.4321,0,0,0-.41.12356"/></g></g></g><g class="cls-2"><g class="cls-22"><g class="cls-2"><path class="cls-9" d="M137.07536,27.72866l-3.6573-1.98954a1.06755,1.06755,0,0,0-.11258-.07066l3.6573,1.98954a1.06755,1.06755,0,0,1,.11258.07066"/></g></g></g><polygon class="cls-3" points="136.104 30.446 132.447 28.457 131.74 27.954 135.398 29.944 136.104 30.446"/><g class="cls-2"><g class="cls-23"><g class="cls-2"><path class="cls-13" d="M136.23859,27.53621l-3.6573-1.98954a1.22174,1.22174,0,0,1,.47707.02451l3.6573,1.98954a1.22174,1.22174,0,0,0-.47707-.02451"/><path class="cls-14" d="M136.71566,27.56072l-3.6573-1.98954a1.09271,1.09271,0,0,1,.20832.07718l3.6573,1.98954a1.09271,1.09271,0,0,0-.20832-.07718"/><path class="cls-15" d="M136.924,27.6379l-3.6573-1.98954.03881.02009,3.6573,1.98954-.03881-.02009"/></g></g></g><path class="cls-16" d="M136.23859,27.53621a1.146,1.146,0,0,1,.83678.19245l.71757.51026,4.641,3.30048a1.26409,1.26409,0,0,1,.14881,1.81154,1.53178,1.53178,0,0,1-.98977.59611,1.14638,1.14638,0,0,1-.83689-.19245l-4.65181-3.30817-.70673-.50257a1.26512,1.26512,0,0,1-.14881-1.81154A1.53187,1.53187,0,0,1,136.23859,27.53621Z"/><g class="cls-2"><g class="cls-24"><g class="cls-2"><path class="cls-9" d="M135.39752,29.94386l-3.6573-1.98954a1.19672,1.19672,0,0,1-.37085-1.40892l3.6573,1.98954a1.19672,1.19672,0,0,0,.37085,1.40892"/><path class="cls-18" d="M135.02667,28.53494l-3.6573-1.98954a1.49833,1.49833,0,0,1,.087-.1934l3.6573,1.98954a1.49835,1.49835,0,0,0-.087.1934"/><path class="cls-19" d="M135.11366,28.34155l-3.6573-1.98954a1.55812,1.55812,0,0,1,.0968-.157l3.6573,1.98954a1.55814,1.55814,0,0,0-.0968.157"/><path class="cls-20" d="M135.21047,28.18458l-3.6573-1.98954q.01848-.02636.03824-.05226.03566-.04671.074-.09007l3.6573,1.98954q-.03828.04335-.074.09007-.01977.0259-.03824.05226"/><path class="cls-21" d="M135.3227,28.04225l-3.6573-1.98954a1.61162,1.61162,0,0,1,.12977-.131l3.6573,1.98954a1.6116,1.6116,0,0,0-.12977.131"/><path class="cls-15" d="M135.45247,27.91121l-3.6573-1.98954a1.58289,1.58289,0,0,1,.15844-.12533l3.6573,1.98954a1.58288,1.58288,0,0,0-.15844.12533"/><path class="cls-14" d="M135.61091,27.78588l-3.6573-1.98954a1.53723,1.53723,0,0,1,.21933-.12652l3.6573,1.98954a1.53722,1.53722,0,0,0-.21933.12652"/><path class="cls-13" d="M135.83024,27.65936l-3.6573-1.98954a1.42669,1.42669,0,0,1,.40835-.12315l3.6573,1.98954a1.42668,1.42668,0,0,0-.40835.12315"/></g></g></g><g class="cls-2"><g class="cls-25"><g class="cls-2"><path class="cls-13" d="M140.69023,17.37878l-3.6573-1.98954a8.37923,8.37923,0,0,1,3.27116.168l3.6573,1.98954a8.37923,8.37923,0,0,0-3.27116-.168"/><path class="cls-14" d="M143.96139,17.54682l-3.6573-1.98954a7.49146,7.49146,0,0,1,1.42764.5287l3.6573,1.98954a7.49146,7.49146,0,0,0-1.42764-.5287"/><path class="cls-15" d="M145.389,18.07551l-3.6573-1.98954q.06472.03184.12892.065l3.6573,1.98954q-.06419-.03317-.12892-.065"/></g></g></g><g class="cls-2"><g class="cls-26"><g class="cls-2"><path class="cls-27" d="M65.61647,151.53582l-3.6573-1.98954q1.04363.56772,2.113,1.09369l3.6573,1.98954q-1.0692-.52586-2.113-1.09369"/><path class="cls-6" d="M67.72948,152.62952,64.07218,150.64a59.32887,59.32887,0,0,0,11.29214,4.18189l3.6573,1.98954a59.32887,59.32887,0,0,1-11.29214-4.18189"/><path class="cls-5" d="M79.02162,156.8114l-3.6573-1.98954A62.35626,62.35626,0,0,0,85.974,156.60724a67.80438,67.80438,0,0,0,14.91254-.46652,76.0692,76.0692,0,0,0,21.80007-6.57463l3.6573,1.98954a76.0692,76.0692,0,0,1-21.80007,6.57463,67.80439,67.80439,0,0,1-14.91254.46652,62.35625,62.35625,0,0,1-10.60965-1.78538"/></g></g></g><polygon class="cls-3" points="104.617 101.197 100.96 99.208 96.083 81.871 99.74 83.861 104.617 101.197"/><path class="cls-16" d="M140.69023,17.37878a8.03342,8.03342,0,0,1,4.82772.76175l-1.677,2.1923-.74458-.52947a1.16635,1.16635,0,0,0-.8434-.19153,1.53208,1.53208,0,0,0-.99118.5963,1.26491,1.26491,0,0,0,.14881,1.81152l.73829.5251-4.35592,5.69418-.71757-.51026a1.146,1.146,0,0,0-.83678-.19245,1.53187,1.53187,0,0,0-.98987.59611,1.26512,1.26512,0,0,0,.14881,1.81154l.70673.50257-2.01784,2.63782c-2.79007-2.71537-3.03494-7.37614-.51059-11.12813q.18413-.27377.38813-.54085a10.98378,10.98378,0,0,1,1.30794-1.42744A10.20883,10.20883,0,0,1,140.69023,17.37878Z"/><g class="cls-2"><g class="cls-28"><g class="cls-2"><path class="cls-9" d="M134.0864,33.08425l-3.6573-1.98954a8.28714,8.28714,0,0,1-1.66195-8.88124l3.6573,1.98954a8.28714,8.28714,0,0,0,1.66195,8.88124"/><path class="cls-18" d="M132.42446,24.203l-3.6573-1.98954a10.3598,10.3598,0,0,1,.6002-1.33346l3.6573,1.98954a10.3598,10.3598,0,0,0-.6002,1.33346"/><path class="cls-19" d="M133.02465,22.86955,129.36735,20.88q.24928-.46394.55116-.91343.05985-.089.12179-.1773l3.6573,1.98954q-.06195.0883-.12179.1773-.30193.44877-.55116.91343"/><path class="cls-20" d="M133.69761,21.77883l-3.6573-1.98954q.12864-.18337.26633-.36355.23535-.30732.48787-.593l3.6573,1.98954q-.25224.28563-.48787.593-.13769.1801-.26633.36355"/><path class="cls-21" d="M134.45181,20.8223l-3.6573-1.98954a10.98025,10.98025,0,0,1,.82007-.83446l.06348-.0576,3.6573,1.98954-.06348.0576a10.98026,10.98026,0,0,0-.82007.83446"/><path class="cls-15" d="M135.33536,19.93024l-3.6573-1.98954a10.74565,10.74565,0,0,1,1.07555-.85073l3.6573,1.98954a10.74565,10.74565,0,0,0-1.07555.85073"/><path class="cls-14" d="M136.41091,19.07951,132.75361,17.09a10.45528,10.45528,0,0,1,1.48844-.85886l3.6573,1.98954a10.45528,10.45528,0,0,0-1.48844.85886"/><path class="cls-13" d="M137.89935,18.22065l-3.6573-1.98954a9.74005,9.74005,0,0,1,2.79088-.84187l3.6573,1.98954a9.74005,9.74005,0,0,0-2.79088.84187"/></g></g></g><polygon class="cls-29" points="91.677 78.987 88.02 76.997 100.68 77.621 104.337 79.61 91.677 78.987"/><g class="cls-2"><g class="cls-30"><g class="cls-2"><path class="cls-5" d="M104.835,17.4231l-3.6573-1.98954a69.87043,69.87043,0,0,1,15.37886-.47167A65.19216,65.19216,0,0,1,127.64667,16.826l3.6573,1.98954a65.19215,65.19215,0,0,0-11.09008-1.86408,69.87043,69.87043,0,0,0-15.37886.47167"/><path class="cls-6" d="M131.304,18.81551l-3.6573-1.98954q2.01231.52237,3.96791,1.17233l3.6573,1.98954q-1.95445-.64966-3.96791-1.17233"/></g></g></g><polygon class="cls-16" points="79.131 56.021 91.677 78.987 104.337 79.61 110.676 94.581 127.061 94.378 136.302 146.73 120.891 100.604 104.617 101.197 99.74 83.861 89.282 83.49 79.131 56.021"/><polygon class="cls-3" points="89.282 83.49 85.625 81.5 75.473 54.031 79.131 56.021 89.282 83.49"/><g class="cls-2"><g class="cls-31"><g class="cls-2"><path class="cls-32" d="M64.46711,153.65257l-3.6573-1.98954a58.00182,58.00182,0,0,1-21.18246-19.67654c-9.21492-14.36718-12.11248-32.37088-8.15442-50.70709a80.73932,80.73932,0,0,1,3.13352-10.79352l3.6573,1.98954a80.73932,80.73932,0,0,0-3.13352,10.79352c-3.95806,18.33621-1.0605,36.33991,8.15442,50.70709a58.00182,58.00182,0,0,0,21.18246,19.67654"/><path class="cls-33" d="M38.26376,72.47541l-3.6573-1.98954a83.54286,83.54286,0,0,1,4.842-10.7576l3.6573,1.98954a83.54286,83.54286,0,0,0-4.842,10.7576"/><path class="cls-34" d="M43.1058,61.71781l-3.6573-1.98954a86.25359,86.25359,0,0,1,5.36006-8.69022l3.6573,1.98954a86.25359,86.25359,0,0,0-5.36006,8.69022"/><path class="cls-35" d="M48.46586,53.02759l-3.6573-1.98954a88.08657,88.08657,0,0,1,6.09782-7.73278l3.6573,1.98954a88.08657,88.08657,0,0,0-6.09782,7.73278"/><path class="cls-36" d="M54.56368,45.29481l-3.6573-1.98954a88.80676,88.80676,0,0,1,7.15815-7.2236l3.6573,1.98954a88.80676,88.80676,0,0,0-7.15815,7.2236"/><path class="cls-27" d="M61.72184,38.07121l-3.6573-1.98954a88.01329,88.01329,0,0,1,8.82488-6.97546l3.6573,1.98954a88.01329,88.01329,0,0,0-8.82488,6.97546"/><path class="cls-6" d="M70.54672,31.09576l-3.6573-1.98954a84.9474,84.9474,0,0,1,12.1279-6.99048l3.6573,1.98954a84.9474,84.9474,0,0,0-12.1279,6.99048"/><path class="cls-5" d="M82.67461,24.10528l-3.6573-1.98954a77.499,77.499,0,0,1,22.16041-6.68218l3.6573,1.98954a77.499,77.499,0,0,0-22.16041,6.68218"/></g></g></g><path class="cls-37" d="M104.835,17.4231a69.87043,69.87043,0,0,1,15.37886-.47167,64.27034,64.27034,0,0,1,15.058,3.03641,10.98378,10.98378,0,0,0-1.30794,1.42744q-.204.26682-.38813.54085A62.57193,62.57193,0,0,0,119.777,19.27746a67.99451,67.99451,0,0,0-14.9538.45872C73.09793,24.19313,44.39146,50.248,37.212,83.51226c-3.82088,17.6946-1.02625,35.09042,7.8773,48.96546,9.68608,15.08752,25.91729,24.60493,44.54193,26.11906a67.80439,67.80439,0,0,0,14.91254-.46652,77.73971,77.73971,0,0,0,31.142-11.76267l.9093,1.96394a79.9979,79.9979,0,0,1-32.05583,12.11156,69.71438,69.71438,0,0,1-15.34487.47972c-19.185-1.55639-35.92024-11.37464-45.90977-26.94678-9.21492-14.36718-12.11248-32.37088-8.15442-50.70709C42.54206,48.9252,72.13916,22.01821,104.835,17.4231Z"/></g></svg>