<svg id="Layer_1" data-name="Layer 1" xmlns="http://www.w3.org/2000/svg" xmlns:xlink="http://www.w3.org/1999/xlink" viewBox="0 0 180 180"><defs><style>.cls-1{fill:none;}.cls-2{isolation:isolate;}.cls-3{clip-path:url(#clip-path);}.cls-4{fill:#a85435;}.cls-5{fill:#a35133;}.cls-6{fill:#9e4f32;}.cls-7{fill:#994c30;}.cls-8{fill:#944a2e;}.cls-9{fill:#8f472d;}.cls-10{fill:#8a452b;}.cls-11{fill:#85422a;}.cls-12{clip-path:url(#clip-path-2);}.cls-13{fill:#824129;}.cls-14{fill:#b45a39;}.cls-15{clip-path:url(#clip-path-3);}.cls-16{fill:#df6f46;}.cls-17{clip-path:url(#clip-path-4);}.cls-18{clip-path:url(#clip-path-5);}.cls-19{clip-path:url(#clip-path-6);}.cls-20{clip-path:url(#clip-path-7);}.cls-21{clip-path:url(#clip-path-8);}.cls-22{fill:#828282;}.cls-23{fill:#aeaeae;}.cls-24{fill:#a2a2a2;}.cls-25{fill:#dfdfdf;}.cls-26{fill:#8f8f8f;}.cls-27{fill:#b4b4b4;}.cls-28{fill:#a3a3a3;}</style><clipPath id="clip-path"><path class="cls-1" d="M111.94772,123.34781l-4.55865-2.47986a5.426,5.426,0,0,0,4.37432-5.32555l4.55865,2.47986A5.426,5.426,0,0,1,111.94772,123.34781Z"/></clipPath><clipPath id="clip-path-2"><path class="cls-1" d="M93.91791,128.67727l4.55864,2.47987a2.6004,2.6004,0,0,1,1.28762,2.35647,3.4417,3.4417,0,0,1-2.77719,3.38095l-4.55865-2.47986a3.4417,3.4417,0,0,0,2.77719-3.38095A2.60044,2.60044,0,0,0,93.91791,128.67727Z"/></clipPath><clipPath id="clip-path-3"><path class="cls-1" d="M85.91862,137.9876,81.36,135.50775a2.37454,2.37454,0,0,0,1.47982.25452l4.55865,2.47986A2.37442,2.37442,0,0,1,85.91862,137.9876Z"/></clipPath><clipPath id="clip-path-4"><path class="cls-1" d="M70.15077,128.49122l-4.55865-2.47986a3.75123,3.75123,0,0,0,2.33751.40225l4.55865,2.47986A3.75119,3.75119,0,0,1,70.15077,128.49122Z"/></clipPath><clipPath id="clip-path-5"><path class="cls-1" d="M67.78569,144.12051,63.227,141.64066a8.16289,8.16289,0,0,1-4.049-7.39337l4.55865,2.47986A8.16286,8.16286,0,0,0,67.78569,144.12051Z"/></clipPath><clipPath id="clip-path-6"><path class="cls-1" d="M109.8646,40.18839l4.55865,2.47987a4.08866,4.08866,0,0,1,2.03189,3.69692l-4.55865-2.47986A4.08867,4.08867,0,0,0,109.8646,40.18839Z"/></clipPath><clipPath id="clip-path-7"><path class="cls-1" d="M112.21236,35.87649l4.55865,2.47986a7.48324,7.48324,0,0,0-4.66394-.80165l-4.55865-2.47986A7.48327,7.48327,0,0,1,112.21236,35.87649Z"/></clipPath><clipPath id="clip-path-8"><path class="cls-1" d="M63.89077,53.75262l-4.55865-2.47986c.00967-5.20483,3.92655-9.97339,8.75686-10.65225l4.55865,2.47986C67.81732,43.77923,63.90044,48.54779,63.89077,53.75262Z"/></clipPath></defs><title>ICONS invente18 no bg</title><g class="cls-2"><g class="cls-2"><g class="cls-3"><g class="cls-2"><path class="cls-4" d="M111.94772,123.34781l-4.55865-2.47986a4.448,4.448,0,0,0,1.27177-.38259l4.55865,2.47986a4.448,4.448,0,0,1-1.27177.38259"/><path class="cls-5" d="M113.21949,122.96522l-4.55865-2.47986a4.94036,4.94036,0,0,0,.70962-.4093l4.55865,2.47986a4.94037,4.94037,0,0,1-.70962.4093"/><path class="cls-6" d="M113.92911,122.55592l-4.55865-2.47986a5.29263,5.29263,0,0,0,.5291-.41873l4.55865,2.47986a5.29263,5.29263,0,0,1-.5291.41873"/><path class="cls-7" d="M114.45821,122.13719l-4.55865-2.47986a5.54211,5.54211,0,0,0,.44676-.45123L114.905,121.686a5.54207,5.54207,0,0,1-.44676.45123"/><path class="cls-8" d="M114.905,121.686l-4.55865-2.47986a5.69847,5.69847,0,0,0,.39409-.50018l4.55865,2.47986a5.69845,5.69845,0,0,1-.39409.50018"/><path class="cls-9" d="M115.299,121.18578l-4.55865-2.47986a5.75681,5.75681,0,0,0,.35626-.57775l4.55865,2.47986a5.75683,5.75683,0,0,1-.35626.57775"/><path class="cls-10" d="M115.65531,120.608l-4.55865-2.47986a5.70282,5.70282,0,0,0,.33109-.73548l4.55865,2.47986a5.70285,5.70285,0,0,1-.33109.73548"/><path class="cls-11" d="M115.98639,119.87254l-4.55865-2.47986a5.40038,5.40038,0,0,0,.33565-1.85028l4.55865,2.47986a5.40039,5.40039,0,0,1-.33565,1.85028"/></g></g></g><g class="cls-2"><g class="cls-12"><g class="cls-2"><path class="cls-4" d="M96.987,136.89455l-4.55865-2.47986a2.8311,2.8311,0,0,0,.80955-.24343l4.55865,2.47986a2.8311,2.8311,0,0,1-.80955.24343"/><path class="cls-5" d="M97.79653,136.65111l-4.55865-2.47986a3.13454,3.13454,0,0,0,.45025-.25968l4.55865,2.47986a3.13454,3.13454,0,0,1-.45025.25968"/><path class="cls-6" d="M98.24678,136.39143l-4.55865-2.47986a3.35394,3.35394,0,0,0,.33529-.26535l4.55865,2.47986a3.35394,3.35394,0,0,1-.33529.26535"/><path class="cls-7" d="M98.58207,136.12608l-4.55865-2.47986a3.51076,3.51076,0,0,0,.283-.28586l4.55865,2.47986a3.51076,3.51076,0,0,1-.283.28586"/><path class="cls-8" d="M98.8651,135.84022l-4.55865-2.47986a3.61059,3.61059,0,0,0,.24968-.3169l4.55865,2.47986a3.61061,3.61061,0,0,1-.24968.3169"/><path class="cls-9" d="M99.11478,135.52332l-4.55865-2.47986a3.65,3.65,0,0,0,.22593-.36641l4.55865,2.47986a3.65,3.65,0,0,1-.22593.36641"/><path class="cls-10" d="M99.34071,135.15691,94.78206,132.677a3.61968,3.61968,0,0,0,.21-.46657l4.55865,2.47986a3.61968,3.61968,0,0,1-.21.46657"/><path class="cls-11" d="M99.55075,134.69033l-4.55865-2.47986a3.43409,3.43409,0,0,0,.21342-1.17673,2.60044,2.60044,0,0,0-1.28761-2.35647l4.55865,2.47986a2.60044,2.60044,0,0,1,1.28761,2.35647,3.43409,3.43409,0,0,1-.21342,1.17673"/></g></g></g><polygon class="cls-13" points="116.322 118.022 111.763 115.542 111.812 89.103 116.371 91.583 116.322 118.022"/><polygon class="cls-14" points="116.371 91.583 111.812 89.103 116.178 88.49 120.737 90.97 116.371 91.583"/><polygon class="cls-14" points="87.398 138.242 82.84 135.762 92.428 134.415 96.987 136.895 87.398 138.242"/><g class="cls-2"><g class="cls-15"><g class="cls-2"><path class="cls-6" d="M85.91862,137.9876,81.36,135.50774q.04176.02272.08453.04372l4.55865,2.47986q-.04276-.021-.08453-.04372"/><path class="cls-5" d="M86.00314,138.03132l-4.55865-2.47986a2.28592,2.28592,0,0,0,.43813.16186l4.55865,2.47986a2.28592,2.28592,0,0,1-.43813-.16186"/><path class="cls-4" d="M86.44127,138.19318l-4.55865-2.47986a2.45524,2.45524,0,0,0,.95715.049l4.55865,2.47986a2.45524,2.45524,0,0,1-.95715-.049"/></g></g></g><polygon class="cls-13" points="116.267 91.598 111.708 89.118 111.741 71.498 116.3 73.977 116.267 91.598"/><polygon class="cls-14" points="116.3 73.977 111.741 71.498 116.211 70.869 120.77 73.349 116.3 73.977"/><polygon class="cls-16" points="120.77 73.349 120.737 90.97 116.371 91.583 116.267 91.598 116.3 73.977 120.77 73.349"/><polygon class="cls-14" points="72.488 128.893 67.93 126.414 107.389 120.868 111.948 123.348 72.488 128.893"/><polygon class="cls-13" points="116.404 73.764 111.846 71.284 111.896 43.885 116.455 46.365 116.404 73.764"/><g class="cls-2"><g class="cls-17"><g class="cls-2"><path class="cls-6" d="M70.15077,128.49122l-4.55865-2.47986q.066.03588.1335.069l4.55865,2.47986q-.06753-.03316-.1335-.069"/><path class="cls-5" d="M70.28427,128.56027l-4.55865-2.47986a3.61246,3.61246,0,0,0,.69245.25581l4.55865,2.47986a3.61247,3.61247,0,0,1-.69245-.25581"/><path class="cls-4" d="M70.97672,128.81609l-4.55865-2.47986a3.87763,3.87763,0,0,0,1.51156.07739l4.55865,2.47986a3.87763,3.87763,0,0,1-1.51156-.07739"/></g></g></g><g class="cls-2"><g class="cls-18"><g class="cls-2"><path class="cls-11" d="M67.78569,144.12051,63.227,141.64065a8.16286,8.16286,0,0,1-4.049-7.39336l4.55865,2.47986a8.16286,8.16286,0,0,0,4.049,7.39336"/></g></g></g><g class="cls-2"><g class="cls-19"><g class="cls-2"><path class="cls-11" d="M116.45514,46.36518l-4.55865-2.47986a4.08867,4.08867,0,0,0-2.03189-3.69693l4.55865,2.47986a4.08867,4.08867,0,0,1,2.03189,3.69693"/></g></g></g><g class="cls-2"><g class="cls-20"><g class="cls-2"><path class="cls-4" d="M112.10708,37.55471l-4.55865-2.47986a7.74118,7.74118,0,0,1,3.01776.15418l4.55865,2.47986a7.74118,7.74118,0,0,0-3.01776-.15418"/><path class="cls-5" d="M115.12484,37.70889,110.56619,35.229a7.1999,7.1999,0,0,1,1.38.50981l4.55865,2.47986a7.1999,7.1999,0,0,0-1.38-.50981"/><path class="cls-6" d="M116.50487,38.2187l-4.55865-2.47986q.13463.0661.26615.13765l4.55865,2.47986q-.1315-.07153-.26615-.13765"/></g></g></g><polygon class="cls-14" points="72.648 43.1 68.089 40.621 107.548 35.075 112.107 37.555 72.648 43.1"/><polygon class="cls-13" points="63.737 136.727 59.178 134.247 59.332 51.273 63.891 53.753 63.737 136.727"/><path class="cls-16" d="M120.77,73.15044l-4.36572.61356.05089-27.39882a3.85863,3.85863,0,0,0-4.35682-4.09851L72.63888,47.81234a5.43439,5.43439,0,0,0-4.38239,5.32672l-.1331,71.65708a3.85572,3.85572,0,0,0,4.36489,4.09733l39.45944-5.54566a5.426,5.426,0,0,0,4.37432-5.32555l.04911-26.43911,4.36572-.61356-.07013,37.75655c-.00967,5.20487-3.92655,9.97339-8.74879,10.65112l-39.45944,5.54566c-4.83032.67886-8.73152-2.99091-8.72185-8.19578l.15412-82.97452c.00967-5.20483,3.92655-9.97339,8.75686-10.65225l39.45944-5.54566c4.82224-.67772,8.72345,2.99208,8.71378,8.19691Zm-33.36041,59.1001a3.44408,3.44408,0,0,0-2.77709,3.38968,2.44523,2.44523,0,0,0,2.766,2.60191l9.58856-1.34758a3.4417,3.4417,0,0,0,2.77719-3.38095,2.44755,2.44755,0,0,0-2.76606-2.61064l-9.58856,1.34758"/><g class="cls-2"><g class="cls-21"><g class="cls-2"><path class="cls-11" d="M63.89077,53.75262l-4.55865-2.47986a10.82406,10.82406,0,0,1,.6725-3.70918l4.55865,2.47986a10.82406,10.82406,0,0,0-.6725,3.70918"/><path class="cls-10" d="M64.56327,50.04344l-4.55865-2.47986a11.394,11.394,0,0,1,.66112-1.46863l4.55865,2.47986a11.394,11.394,0,0,0-.66112,1.46863"/><path class="cls-9" d="M65.22439,48.5748l-4.55865-2.47986a11.48561,11.48561,0,0,1,.71092-1.153l4.55865,2.47986a11.48561,11.48561,0,0,0-.71092,1.153"/><path class="cls-8" d="M65.93531,47.42183,61.37666,44.942a11.36185,11.36185,0,0,1,.78574-.99726L66.721,46.42457a11.36185,11.36185,0,0,0-.78574.99726"/><path class="cls-7" d="M66.721,46.42457,62.1624,43.94471a11.0518,11.0518,0,0,1,.89095-.89987L67.612,45.5247a11.05181,11.05181,0,0,0-.89095.89987"/><path class="cls-6" d="M67.612,45.5247l-4.55865-2.47986a10.566,10.566,0,0,1,1.05613-.83581l4.55865,2.47986a10.566,10.566,0,0,0-1.05613.83581"/><path class="cls-5" d="M68.66813,44.68889,64.10948,42.209a9.88679,9.88679,0,0,1,1.4202-.8191l4.55865,2.47986a9.88679,9.88679,0,0,0-1.4202.8191"/><path class="cls-4" d="M70.08833,43.86979l-4.55865-2.47986a8.94936,8.94936,0,0,1,2.5593-.76942l4.55865,2.47986a8.94936,8.94936,0,0,0-2.5593.76942"/></g></g></g></g><g class="cls-2"><polygon class="cls-22" points="109.211 84.604 104.652 82.124 104.652 82.072 109.211 84.552 109.211 84.604"/><polygon class="cls-22" points="99.064 93.386 94.505 90.906 94.509 88.987 99.068 91.467 99.064 93.386"/><polygon class="cls-23" points="99.068 91.467 94.509 88.987 104.652 82.124 109.211 84.604 99.068 91.467"/><polygon class="cls-24" points="99.091 78.619 94.533 76.139 106.456 81.067 111.015 83.547 99.091 78.619"/><polygon class="cls-22" points="99.088 80.538 94.529 78.058 94.533 76.139 99.091 78.619 99.088 80.538"/><polygon class="cls-25" points="99.091 78.619 111.015 83.547 111.012 85.103 99.064 93.386 99.068 91.467 109.211 84.604 109.211 84.552 99.088 80.538 99.091 78.619"/></g><g class="cls-2"><polygon class="cls-26" points="88.528 95.973 83.97 93.493 91.176 72.367 95.735 74.846 88.528 95.973"/><polygon class="cls-27" points="95.735 74.846 91.176 72.367 92.923 72.121 97.481 74.601 95.735 74.846"/><polygon class="cls-25" points="97.481 74.601 90.251 95.731 88.528 95.973 95.735 74.846 97.481 74.601"/></g><g class="cls-2"><polygon class="cls-28" points="76.817 89.157 72.258 86.677 82.301 90.702 86.86 93.182 76.817 89.157"/><polygon class="cls-22" points="74.941 90.147 70.382 87.667 70.385 86.162 74.944 88.642 74.941 90.147"/><polygon class="cls-23" points="74.944 88.642 70.385 86.162 82.325 77.855 86.884 80.334 74.944 88.642"/><polygon class="cls-25" points="86.884 80.334 86.88 82.254 76.817 89.105 76.817 89.157 86.86 93.182 86.856 95.102 74.941 90.147 74.944 88.642 86.884 80.334"/></g></svg>