<svg id="Layer_1" data-name="Layer 1" xmlns="http://www.w3.org/2000/svg" xmlns:xlink="http://www.w3.org/1999/xlink" viewBox="0 0 432 432"><defs><style>.cls-1{fill:none;}.cls-2{fill:#fff;}.cls-3{isolation:isolate;}.cls-4{clip-path:url(#clip-path);}.cls-5{fill:#a8a8a8;}.cls-6{fill:#a3a3a3;}.cls-7{fill:#9e9e9e;}.cls-8{fill:#a0a0a0;}.cls-9{clip-path:url(#clip-path-2);}.cls-10{fill:#999;}.cls-11{fill:#949494;}.cls-12{fill:#8f8f8f;}.cls-13{fill:#8a8a8a;}.cls-14{fill:#858585;}.cls-15{clip-path:url(#clip-path-3);}.cls-16{fill:#a9a9a9;}.cls-17{clip-path:url(#clip-path-4);}.cls-18{clip-path:url(#clip-path-5);}.cls-19{clip-path:url(#clip-path-6);}.cls-20{clip-path:url(#clip-path-7);}.cls-21{clip-path:url(#clip-path-8);}.cls-22{clip-path:url(#clip-path-9);}.cls-23{clip-path:url(#clip-path-10);}.cls-24{clip-path:url(#clip-path-11);}.cls-25{clip-path:url(#clip-path-12);}.cls-26{fill:#dfdfdf;}.cls-27{clip-path:url(#clip-path-13);}.cls-28{clip-path:url(#clip-path-14);}.cls-29{clip-path:url(#clip-path-15);}.cls-30{clip-path:url(#clip-path-16);}</style><clipPath id="clip-path"><path class="cls-1" d="M272.24474,213.61364l4.55864,2.47986a15.8519,15.8519,0,0,0-5.86205-1.82709l-4.55866-2.47986A15.852,15.852,0,0,1,272.24474,213.61364Z"/></clipPath><clipPath id="clip-path-2"><path class="cls-1" d="M254.06669,211.772l-4.55866-2.47985a3.98124,3.98124,0,0,0,2.46962.42526,5.04335,5.04335,0,0,0,2.71919-1.345,5.84907,5.84907,0,0,0,1.85913-4.96341l4.55865,2.47987a5.84905,5.84905,0,0,1-1.85912,4.96341,5.04334,5.04334,0,0,1-2.71919,1.345A3.98116,3.98116,0,0,1,254.06669,211.772Z"/></clipPath><clipPath id="clip-path-3"><path class="cls-1" d="M254.416,200.16782l4.55865,2.47987a4.21135,4.21135,0,0,1,1.37487,1.22231l-4.55866-2.47985A4.21138,4.21138,0,0,0,254.416,200.16782Z"/></clipPath><clipPath id="clip-path-4"><path class="cls-1" d="M257.70083,192.93642l4.55864,2.47987a16.57139,16.57139,0,0,0-10.01936-1.78159l-4.55865-2.47986A16.57146,16.57146,0,0,1,257.70083,192.93642Z"/></clipPath><clipPath id="clip-path-5"><path class="cls-1" d="M233.52844,226.10225l-4.55865-2.47985a3.13806,3.13806,0,0,0-.22368-.3316l4.55865,2.47986A3.13943,3.13943,0,0,1,233.52844,226.10225Z"/></clipPath><clipPath id="clip-path-6"><path class="cls-1" d="M227.48689,222.18945l4.55865,2.47987a3.87425,3.87425,0,0,1,1.25922,1.10134l-4.55865-2.47986A3.87442,3.87442,0,0,0,227.48689,222.18945Z"/></clipPath><clipPath id="clip-path-7"><path class="cls-1" d="M227.0853,233.78474l-4.55865-2.47985a4.0074,4.0074,0,0,0,2.48529.42783,5.05364,5.05364,0,0,0,2.71995-1.34126,5.86479,5.86479,0,0,0,1.86692-4.83485l4.55864,2.47987a5.86475,5.86475,0,0,1-1.86691,4.83484,5.05364,5.05364,0,0,1-2.71995,1.34126A4.0073,4.0073,0,0,1,227.0853,233.78474Z"/></clipPath><clipPath id="clip-path-8"><path class="cls-1" d="M195.21087,214.15849l4.55864,2.47987a3.86792,3.86792,0,0,1,1.25259,1.09288,4.86465,4.86465,0,0,1,.81011,3.672l-4.55865-2.47986a4.86465,4.86465,0,0,0-.81011-3.672A3.86818,3.86818,0,0,0,195.21087,214.15849Z"/></clipPath><clipPath id="clip-path-9"><path class="cls-1" d="M194.79546,225.7526l-4.55865-2.47985a4.00634,4.00634,0,0,0,2.48506.42828,5.06482,5.06482,0,0,0,2.7194-1.33925,5.61267,5.61267,0,0,0,1.12383-1.42856l4.55865,2.47986a5.61258,5.61258,0,0,1-1.12382,1.42855,5.06482,5.06482,0,0,1-2.7194,1.33925A4.00624,4.00624,0,0,1,194.79546,225.7526Z"/></clipPath><clipPath id="clip-path-10"><path class="cls-1" d="M233.38163,173.06381l4.55865,2.47987a29.14209,29.14209,0,0,0-17.42963-3.23361q-.3991.04624-.79572.102l-4.55865-2.47986q.39716-.05582.79572-.102A29.14212,29.14212,0,0,1,233.38163,173.06381Z"/></clipPath><clipPath id="clip-path-11"><path class="cls-1" d="M169.60316,255.9598,165.0445,253.48a3.97692,3.97692,0,0,0,2.46771.42433,5.087,5.087,0,0,0,2.72679-1.34363,5.75331,5.75331,0,0,0,1.65261-5.88518l4.55865,2.47987a5.75329,5.75329,0,0,1-1.65261,5.88517,5.087,5.087,0,0,1-2.72679,1.34363A3.97678,3.97678,0,0,1,169.60316,255.9598Z"/></clipPath><clipPath id="clip-path-12"><path class="cls-1" d="M170.00072,244.3637l4.55864,2.47987a3.80859,3.80859,0,0,1,.86092.64135l-4.55866-2.47985A3.80863,3.80863,0,0,0,170.00072,244.3637Z"/></clipPath><clipPath id="clip-path-13"><path class="cls-1" d="M159.69085,266.99686l-4.55866-2.47986a15.7608,15.7608,0,0,1-1.94686-1.253l4.55864,2.47987A15.762,15.762,0,0,0,159.69085,266.99686Z"/></clipPath><clipPath id="clip-path-14"><path class="cls-1" d="M188.68565,198.15848l-4.55867-2.47985c5.46932-13.42865,17.346-23.82333,31.02929-25.74639l4.55865,2.47986C206.03165,174.33516,194.155,184.72984,188.68565,198.15848Z"/></clipPath><clipPath id="clip-path-15"><path class="cls-1" d="M156.32873,264.54245l-4.55866-2.47986a18.67276,18.67276,0,0,1-5.49133-14.18173c.22614-9.64349,6.521-18.43709,14.83961-21.672l4.55865,2.47987c-8.31858,3.23492-14.61348,12.02852-14.83961,21.672A18.67274,18.67274,0,0,0,156.32873,264.54245Z"/></clipPath><clipPath id="clip-path-16"><path class="cls-1" d="M165.677,228.68871l-4.55866-2.47985a20.64049,20.64049,0,0,1-1.2829-7.78049c.26573-11.252,8.78186-21.37067,19.13887-22.82625.14809-.02081.29519-.03973.444-.057a16.96663,16.96663,0,0,1,4.70864.13346l4.55864,2.47987a16.96616,16.96616,0,0,0-4.70863-.13347c-.14884.01723-.29595.03614-.444.057-10.357,1.45558-18.87314,11.57428-19.13887,22.82625A20.6403,20.6403,0,0,0,165.677,228.68871Z"/></clipPath></defs><title>ICONS invente18 colour</title><rect class="cls-2" width="432" height="432"/><g class="cls-3"><g class="cls-3"><g class="cls-4"><g class="cls-3"><path class="cls-5" d="M270.94133,214.26642l-4.55865-2.47986a16.2,16.2,0,0,1,2.28323.41742l4.55865,2.47986a16.2,16.2,0,0,0-2.28323-.41742"/><path class="cls-6" d="M273.22456,214.68384l-4.55865-2.47986a15.7241,15.7241,0,0,1,3.0012,1.11082l4.55865,2.47986a15.72411,15.72411,0,0,0-3.0012-1.11082"/><path class="cls-7" d="M276.22576,215.79466l-4.55865-2.47986q.29221.14356.57764.29884l4.55865,2.47986q-.28538-.15525-.57764-.29884"/></g></g></g><polygon class="cls-8" points="261.115 205.889 256.556 203.409 262.031 196.408 266.589 198.887 261.115 205.889"/><g class="cls-3"><g class="cls-9"><g class="cls-3"><path class="cls-7" d="M254.06669,211.772,249.508,209.2921q.0679.03694.13709.071l4.55865,2.47986q-.06917-.034-.13709-.071"/><path class="cls-6" d="M254.20377,211.84294l-4.55865-2.47986a3.81216,3.81216,0,0,0,.72676.26936l4.55865,2.47986a3.81215,3.81215,0,0,1-.72676-.26936"/><path class="cls-5" d="M254.93054,212.1123l-4.55865-2.47986a4.11139,4.11139,0,0,0,1.60576.08494,4.68634,4.68634,0,0,0,1.34437-.40585l4.55865,2.47986a4.68634,4.68634,0,0,1-1.34437.40585,4.11139,4.11139,0,0,1-1.60576-.08494"/><path class="cls-6" d="M257.88067,211.79139l-4.55865-2.47986a5.19742,5.19742,0,0,0,.74132-.42833l4.55865,2.47986a5.19742,5.19742,0,0,1-.74132.42833"/><path class="cls-7" d="M258.622,211.36306l-4.55865-2.47986a5.6017,5.6017,0,0,0,.56423-.44734l4.55865,2.47986a5.6017,5.6017,0,0,1-.56423.44734"/><path class="cls-10" d="M259.18622,210.91571l-4.55865-2.47986q.03478-.03137.06927-.0635.21944-.20351.41457-.42482l4.55865,2.47986q-.19507.22089-.41457.42482-.03448.03212-.06927.0635"/><path class="cls-11" d="M259.67006,210.4274l-4.55865-2.47986a5.99027,5.99027,0,0,0,.4144-.52584l4.55865,2.47986a5.99027,5.99027,0,0,1-.4144.52584"/><path class="cls-12" d="M260.08446,209.90156l-4.55865-2.47986a6.01471,6.01471,0,0,0,.37238-.60392l4.55865,2.47986a6.01472,6.01472,0,0,1-.37238.60392"/><path class="cls-13" d="M260.45684,209.29764l-4.55865-2.47986a5.99157,5.99157,0,0,0,.34687-.7704l4.55865,2.47986a5.99157,5.99157,0,0,1-.34687.7704"/><path class="cls-14" d="M260.80371,208.52724l-4.55865-2.47986a5.5626,5.5626,0,0,0,.31091-2.63844l4.55865,2.47986a5.5626,5.5626,0,0,1-.31091,2.63844"/></g></g></g><g class="cls-3"><g class="cls-15"><g class="cls-3"><path class="cls-14" d="M260.34956,203.87l-4.55865-2.47986a4.21153,4.21153,0,0,0-1.37486-1.22232l4.55865,2.47986a4.21153,4.21153,0,0,1,1.37486,1.22232"/></g></g></g><polygon class="cls-16" points="234.157 228.036 229.599 225.557 248.626 208.629 253.185 211.109 234.157 228.036"/><g class="cls-3"><g class="cls-17"><g class="cls-3"><path class="cls-5" d="M252.2401,193.63471l-4.55865-2.47986a17.50286,17.50286,0,0,1,6.49289.39191l4.55865,2.47986a17.50286,17.50286,0,0,0-6.49289-.39191"/><path class="cls-6" d="M258.733,194.02662l-4.55865-2.47986a15.55347,15.55347,0,0,1,2.96437,1.09868l4.55865,2.47986a15.55348,15.55348,0,0,0-2.96437-1.09868"/><path class="cls-7" d="M261.69736,195.12529l-4.55865-2.47986q.28448.13994.56212.291l4.55865,2.47986q-.27762-.151-.56212-.291"/></g></g></g><g class="cls-3"><g class="cls-18"><g class="cls-3"><path class="cls-14" d="M233.52844,226.10225l-4.55865-2.47986a3.13945,3.13945,0,0,0-.22368-.33159l4.55865,2.47986a3.13943,3.13943,0,0,1,.22368.33159"/></g></g></g><g class="cls-3"><g class="cls-19"><g class="cls-3"><path class="cls-14" d="M233.30476,225.77067l-4.55865-2.47986a3.87442,3.87442,0,0,0-1.25922-1.10135l4.55865,2.47986a3.87442,3.87442,0,0,1,1.25922,1.10135"/></g></g></g><g class="cls-3"><g class="cls-20"><g class="cls-3"><path class="cls-7" d="M227.0853,233.78474l-4.55865-2.47986q.06872.03739.13876.07181l4.55865,2.47986q-.07-.03442-.13876-.07181"/><path class="cls-6" d="M227.22406,233.85654l-4.55865-2.47986a3.83541,3.83541,0,0,0,.73138.27081l4.55865,2.47986a3.83541,3.83541,0,0,1-.73138-.27081"/><path class="cls-5" d="M227.95544,234.12735l-4.55865-2.47986a4.139,4.139,0,0,0,1.61514.08523,4.70756,4.70756,0,0,0,1.35053-.40759l4.55865,2.47986a4.70756,4.70756,0,0,1-1.35053.40759,4.139,4.139,0,0,1-1.61514-.08523"/><path class="cls-6" d="M230.92112,233.805l-4.55865-2.47986a5.20629,5.20629,0,0,0,.74245-.42895l4.55865,2.47986a5.20628,5.20628,0,0,1-.74245.42895"/><path class="cls-7" d="M231.66356,233.376l-4.55865-2.47986a5.59962,5.59962,0,0,0,.56-.44346l4.55865,2.47986a5.59962,5.59962,0,0,1-.56.44346"/><path class="cls-10" d="M232.22353,232.93259l-4.55865-2.47986q.03364-.03028.067-.06127.21514-.20041.40685-.41781l4.55865,2.47986q-.19164.217-.40685.41781-.03336.031-.067.06126"/><path class="cls-11" d="M232.69738,232.45352l-4.55865-2.47986a6.0029,6.0029,0,0,0,.41526-.52689l4.55865,2.47986a6.00289,6.00289,0,0,1-.41526.52689"/><path class="cls-12" d="M233.11263,231.92662l-4.55865-2.47986a6.01442,6.01442,0,0,0,.3724-.60392l4.55865,2.47986a6.01444,6.01444,0,0,1-.3724.60392"/><path class="cls-13" d="M233.485,231.3227l-4.55865-2.47986a5.98309,5.98309,0,0,0,.34721-.7715l4.55865,2.47986a5.98309,5.98309,0,0,1-.34721.7715"/><path class="cls-14" d="M233.83224,230.5512l-4.55865-2.47986a5.601,5.601,0,0,0,.32522-2.51472l4.55865,2.47986a5.601,5.601,0,0,1-.32522,2.51472"/></g></g></g><polygon class="cls-16" points="201.124 223.413 196.565 220.933 220.411 226.952 224.969 229.431 201.124 223.413"/><g class="cls-3"><g class="cls-21"><g class="cls-3"><path class="cls-14" d="M201.8322,221.40326l-4.55865-2.47986a4.86465,4.86465,0,0,0-.81011-3.672,3.86818,3.86818,0,0,0-1.25257-1.09289l4.55865,2.47986a3.86817,3.86817,0,0,1,1.25257,1.09289,4.86465,4.86465,0,0,1,.81011,3.672"/></g></g></g><g class="cls-3"><g class="cls-22"><g class="cls-3"><path class="cls-7" d="M194.79546,225.7526l-4.55865-2.47986q.06841.03722.13811.0715l4.55865,2.47986q-.06969-.03428-.13811-.0715"/><path class="cls-6" d="M194.93357,225.8241l-4.55865-2.47986a3.839,3.839,0,0,0,.73172.27122l4.55865,2.47986a3.839,3.839,0,0,1-.73172-.27122"/><path class="cls-5" d="M195.66529,226.09532l-4.55865-2.47986a4.13526,4.13526,0,0,0,1.61523.08557,4.70943,4.70943,0,0,0,1.35112-.40788l4.55865,2.47986a4.70943,4.70943,0,0,1-1.35112.40788,4.13526,4.13526,0,0,1-1.61523-.08557"/><path class="cls-6" d="M198.63164,225.773l-4.55865-2.47986a5.22394,5.22394,0,0,0,.74485-.43037l4.55865,2.47986a5.22394,5.22394,0,0,1-.74485.43037"/><path class="cls-7" d="M199.37649,225.34264l-4.55865-2.47986a5.63782,5.63782,0,0,0,.57819-.45957l4.55865,2.47986a5.6378,5.6378,0,0,1-.57819.45957"/><path class="cls-10" d="M199.95468,224.88307l-4.55865-2.47986.04523-.04143a5.60139,5.60139,0,0,0,.41571-.42329l4.55865,2.47986a5.60137,5.60137,0,0,1-.41571.42329l-.04523.04143"/><path class="cls-11" d="M200.41563,224.41835l-4.55865-2.47986a5.61478,5.61478,0,0,0,.38795-.49215l4.55865,2.47986a5.61478,5.61478,0,0,1-.38795.49215"/><path class="cls-12" d="M200.80357,223.9262l-4.55865-2.47986a5.61479,5.61479,0,0,0,.32017-.51312l4.55865,2.47986a5.61481,5.61481,0,0,1-.32017.51312"/></g></g></g><g class="cls-3"><g class="cls-23"><g class="cls-3"><path class="cls-5" d="M219.71493,172.4121l-4.55865-2.47986q.39716-.05582.79572-.102a30.14636,30.14636,0,0,1,11.04055.7158l4.55865,2.47986a30.14636,30.14636,0,0,0-11.04055-.7158q-.3991.04624-.79572.102"/><path class="cls-6" d="M231.5512,173.02586l-4.55865-2.47986a28.10213,28.10213,0,0,1,5.37372,1.99205l4.55865,2.47986a28.10212,28.10212,0,0,0-5.37372-1.99205"/><path class="cls-7" d="M236.92493,175.01791l-4.55865-2.47986q.51354.25274,1.01536.52576l4.55865,2.47986q-.50175-.27295-1.01536-.52576"/></g></g></g><polygon class="cls-8" points="176.45 249.155 171.892 246.675 190.202 223.254 194.761 225.734 176.45 249.155"/><g class="cls-3"><g class="cls-24"><g class="cls-3"><path class="cls-7" d="M169.60316,255.9598l-4.55865-2.47986q.0678.03688.13686.07085l4.55865,2.47986q-.06905-.034-.13686-.07085"/><path class="cls-6" d="M169.74,256.03065l-4.55865-2.47986a3.80428,3.80428,0,0,0,.72523.2688l4.55865,2.47986a3.80428,3.80428,0,0,1-.72523-.2688"/><path class="cls-5" d="M170.46526,256.29945l-4.55865-2.47986a4.11047,4.11047,0,0,0,1.6056.0847,4.71355,4.71355,0,0,0,1.35214-.40846l4.55865,2.47986a4.71355,4.71355,0,0,1-1.35214.40846,4.11047,4.11047,0,0,1-1.6056-.0847"/><path class="cls-6" d="M173.423,255.97569l-4.55865-2.47986a5.255,5.255,0,0,0,.74923-.43294l4.55865,2.47986a5.255,5.255,0,0,1-.74923.43294"/><path class="cls-7" d="M174.17223,255.54275l-4.55865-2.47986a5.67863,5.67863,0,0,0,.56636-.44839l4.55865,2.47986a5.67865,5.67865,0,0,1-.56636.44839"/><path class="cls-10" d="M174.73859,255.09437l-4.55865-2.47986.05906-.05385a5.88912,5.88912,0,0,0,.414-.42384l4.55865,2.47986a5.88912,5.88912,0,0,1-.414.42384l-.05906.05385"/><path class="cls-11" d="M175.21166,254.61668l-4.55865-2.47986a5.94586,5.94586,0,0,0,.41147-.52218l4.55865,2.47986a5.94584,5.94584,0,0,1-.41147.52218"/><path class="cls-12" d="M175.62313,254.09451l-4.55865-2.47986a6.00143,6.00143,0,0,0,.3719-.60335l4.55865,2.47986a6.00146,6.00146,0,0,1-.3719.60335"/><path class="cls-13" d="M175.995,253.49115l-4.55865-2.47986a6.01332,6.01332,0,0,0,.34947-.77743l4.55865,2.47986a6.01332,6.01332,0,0,1-.34947.77743"/><path class="cls-14" d="M176.3445,252.71372l-4.55865-2.47986a5.41836,5.41836,0,0,0,.10576-3.55838l4.55865,2.47986a5.41836,5.41836,0,0,1-.10576,3.55838"/></g></g></g><g class="cls-3"><g class="cls-25"><g class="cls-3"><path class="cls-14" d="M175.42028,247.48492l-4.55865-2.47986a3.80907,3.80907,0,0,0-.86091-.64136l4.55865,2.47986a3.80907,3.80907,0,0,1,.86091.64136"/></g></g></g><path class="cls-26" d="M266.58936,198.88737a18.96021,18.96021,0,0,1,4.50825,13.17027c-.00941.736-.07486,1.47129-.15628,2.20878,8.62321.949,14.93574,8.50668,14.701,18.47121-.22638,9.77319-6.6896,18.66823-15.16018,21.80353l-102.205,14.364a15.999,15.999,0,0,1-10.53309-3.16131l11.35859-10.11037a3.91612,3.91612,0,0,0,2.96828.75069,5.087,5.087,0,0,0,2.72679-1.34363,5.75331,5.75331,0,0,0,1.65261-5.88518l18.31056-23.42182a4.00171,4.00171,0,0,0,2.5197.44737,5.06482,5.06482,0,0,0,2.7194-1.33925,5.61268,5.61268,0,0,0,1.12383-1.42856l23.84557,6.0184a4.85728,4.85728,0,0,0,.86691,3.26648,3.89542,3.89542,0,0,0,3.73437,1.51462,5.05364,5.05364,0,0,0,2.71995-1.34126,5.86479,5.86479,0,0,0,1.86692-4.83485L253.18468,211.109a3.88886,3.88886,0,0,0,3.35162,1.08821,5.04334,5.04334,0,0,0,2.71919-1.345,5.84907,5.84907,0,0,0,1.85913-4.96341Z"/><polygon class="cls-16" points="157.744 265.744 153.185 263.264 164.544 253.154 169.103 255.633 157.744 265.744"/><g class="cls-3"><g class="cls-27"><g class="cls-3"><path class="cls-14" d="M159.69085,266.99686l-4.55865-2.47986a15.76017,15.76017,0,0,1-1.94686-1.253l4.55865,2.47986a15.76018,15.76018,0,0,0,1.94686,1.253"/></g></g></g><g class="cls-3"><g class="cls-28"><g class="cls-3"><path class="cls-13" d="M188.68565,198.15848l-4.55865-2.47986a44.85138,44.85138,0,0,1,2.03667-4.324l4.55865,2.47986a44.85136,44.85136,0,0,0-2.03667,4.324"/><path class="cls-12" d="M190.72232,193.83448l-4.55865-2.47986a45.05556,45.05556,0,0,1,2.7921-4.52878l4.55865,2.47986a45.05558,45.05558,0,0,0-2.7921,4.52878"/><path class="cls-11" d="M193.51443,189.3057l-4.55865-2.47986a44.52818,44.52818,0,0,1,3.078-3.90657l4.55865,2.47986a44.5282,44.5282,0,0,0-3.078,3.90657"/><path class="cls-10" d="M196.59241,185.39913l-4.55865-2.47986a43.27648,43.27648,0,0,1,3.4859-3.52128l4.55865,2.47986a43.27647,43.27647,0,0,0-3.4859,3.52128"/><path class="cls-7" d="M200.07831,181.87785l-4.55865-2.47986a41.33031,41.33031,0,0,1,4.1336-3.27179l4.55865,2.47986a41.3303,41.3303,0,0,0-4.1336,3.27179"/><path class="cls-6" d="M204.21191,178.60606l-4.55865-2.47986a38.62075,38.62075,0,0,1,5.49977-3.17725l4.55865,2.47986a38.62076,38.62076,0,0,0-5.49977,3.17725"/><path class="cls-5" d="M209.71168,175.42881l-4.55865-2.47986a34.83064,34.83064,0,0,1,10.00324-3.0167l4.55865,2.47986a34.83064,34.83064,0,0,0-10.00324,3.0167"/></g></g></g><g class="cls-3"><g class="cls-29"><g class="cls-3"><path class="cls-14" d="M156.32873,264.54245l-4.55865-2.47986a18.67274,18.67274,0,0,1-5.49134-14.18173,23.73178,23.73178,0,0,1,1.45869-7.60916l4.55865,2.47986a23.73178,23.73178,0,0,0-1.45869,7.60916,18.67274,18.67274,0,0,0,5.49134,14.18173"/><path class="cls-13" d="M152.29608,242.75156l-4.55865-2.47986a24.85676,24.85676,0,0,1,1.44779-3.21846l4.55865,2.47986a24.85675,24.85675,0,0,0-1.44779,3.21846"/><path class="cls-12" d="M153.74387,239.5331l-4.55865-2.47986a25.07157,25.07157,0,0,1,1.553-2.51815l4.55865,2.47986a25.07157,25.07157,0,0,0-1.553,2.51815"/><path class="cls-11" d="M155.29687,237.01494l-4.55865-2.47986a24.83317,24.83317,0,0,1,1.71578-2.17735l4.55865,2.47986a24.83315,24.83315,0,0,0-1.71578,2.17736"/><path class="cls-10" d="M157.01265,234.83759l-4.55865-2.47986a24.19247,24.19247,0,0,1,1.94741-1.96717l4.55865,2.47986a24.19246,24.19246,0,0,0-1.94741,1.96717"/><path class="cls-7" d="M158.96006,232.87042l-4.55865-2.47986a23.15763,23.15763,0,0,1,2.32274-1.838l4.55865,2.47986a23.15763,23.15763,0,0,0-2.32274,1.838"/><path class="cls-6" d="M161.28281,231.03247l-4.55865-2.47986a21.68667,21.68667,0,0,1,3.08351-1.78058l4.55865,2.47986a21.68668,21.68668,0,0,0-3.08351,1.78058"/><path class="cls-5" d="M164.36631,229.25189l-4.55865-2.47986q.64613-.30451,1.31069-.56318l4.55865,2.47986q-.66426.25832-1.31069.56318"/></g></g></g><path class="cls-26" d="M219.71493,172.4121q.39716-.05582.79572-.102c15.01091-1.72933,27.48708,7.28721,31.72945,21.32464a16.10428,16.10428,0,0,1,13.04632,3.93175L260.34956,203.87a3.91546,3.91546,0,0,0-3.80571-1.64229,5.06853,5.06853,0,0,0-2.72049,1.34075,5.75491,5.75491,0,0,0-1.63672,5.92615l-18.65819,16.60764a3.13943,3.13943,0,0,0-.22368-.33159,3.87413,3.87413,0,0,0-3.72652-1.52627,5.05566,5.05566,0,0,0-2.71984,1.34318,5.82637,5.82637,0,0,0-1.31667,1.80139l-23.70953-5.9857a4.86465,4.86465,0,0,0-.81011-3.672,3.878,3.878,0,0,0-3.72578-1.51829,5.08254,5.08254,0,0,0-2.72853,1.34493,5.54524,5.54524,0,0,0-1.15009,6.9123l-17.99741,23.01473a3.898,3.898,0,0,0-3.3358-1.06728,5.0645,5.0645,0,0,0-2.719,1.33913,5.62294,5.62294,0,0,0-1.41348,6.43934l-11.6233,10.34635a18.67274,18.67274,0,0,1-5.49134-14.18173c.22614-9.64349,6.521-18.43709,14.83961-21.672a20.6403,20.6403,0,0,1-1.28291-7.78048c.26573-11.252,8.78186-21.37067,19.13887-22.82625.14809-.02081.29519-.03973.444-.057a16.96663,16.96663,0,0,1,4.70864.13346C194.155,184.72984,206.03165,174.33516,219.71493,172.4121Z"/><g class="cls-3"><g class="cls-30"><g class="cls-3"><path class="cls-14" d="M165.677,228.68871l-4.55865-2.47986a20.64031,20.64031,0,0,1-1.28291-7.78048,23.79116,23.79116,0,0,1,1.46066-7.61888l4.55865,2.47986a23.79116,23.79116,0,0,0-1.46066,7.61888,20.6403,20.6403,0,0,0,1.28291,7.78048"/><path class="cls-13" d="M165.85476,213.28935l-4.55865-2.47986a24.92719,24.92719,0,0,1,1.45006-3.22579l4.55865,2.47986a24.92719,24.92719,0,0,0-1.45006,3.22579"/><path class="cls-12" d="M167.30482,210.06356l-4.55865-2.47986a25.12878,25.12878,0,0,1,1.55736-2.52671l4.55865,2.47986a25.12876,25.12876,0,0,0-1.55736,2.52671"/><path class="cls-11" d="M168.86218,207.53685l-4.55865-2.47986a24.86711,24.86711,0,0,1,1.7212-2.18468l4.55865,2.47986a24.86713,24.86713,0,0,0-1.7212,2.18468"/><path class="cls-10" d="M170.58338,205.35217l-4.55865-2.47986a24.19754,24.19754,0,0,1,1.94823-1.96792l4.55865,2.47986a24.19752,24.19752,0,0,0-1.94823,1.96792"/><path class="cls-7" d="M172.53161,203.38425l-4.55865-2.47986a23.13527,23.13527,0,0,1,2.31193-1.83013l4.55865,2.47986a23.13527,23.13527,0,0,0-2.31193,1.83013"/><path class="cls-6" d="M174.84354,201.55412l-4.55865-2.47986a21.63165,21.63165,0,0,1,3.1048-1.79157l4.55865,2.47986a21.63166,21.63166,0,0,0-3.1048,1.79157"/><path class="cls-5" d="M177.94835,199.76255l-4.55865-2.47986a19.51606,19.51606,0,0,1,5.58463-1.68057c.14809-.02081.29519-.03973.444-.057a16.96663,16.96663,0,0,1,4.70864.13346l4.55865,2.47986a16.96663,16.96663,0,0,0-4.70864-.13346c-.14884.01723-.29595.03614-.444.057a19.51606,19.51606,0,0,0-5.58463,1.68057"/></g></g></g></g></svg>