<svg id="Layer_1" data-name="Layer 1" xmlns="http://www.w3.org/2000/svg" xmlns:xlink="http://www.w3.org/1999/xlink" viewBox="0 0 180 180"><defs><style>.cls-1{fill:none;}.cls-2{isolation:isolate;}.cls-3{fill:#b4b4b4;}.cls-4{fill:#828282;}.cls-5{fill:#dfdfdf;}.cls-6{clip-path:url(#clip-path);}.cls-7{fill:#85422a;}.cls-8{fill:#8a452b;}.cls-9{fill:#8f472d;}.cls-10{fill:#944a2e;}.cls-11{fill:#994c30;}.cls-12{fill:#9e4f32;}.cls-13{fill:#a35133;}.cls-14{fill:#a85435;}.cls-15{clip-path:url(#clip-path-2);}.cls-16{clip-path:url(#clip-path-3);}.cls-17{clip-path:url(#clip-path-4);}.cls-18{clip-path:url(#clip-path-5);}.cls-19{clip-path:url(#clip-path-6);}.cls-20{clip-path:url(#clip-path-7);}.cls-21{clip-path:url(#clip-path-8);}.cls-22{clip-path:url(#clip-path-9);}.cls-23{fill:#df6f46;}.cls-24{clip-path:url(#clip-path-10);}.cls-25{clip-path:url(#clip-path-11);}.cls-26{clip-path:url(#clip-path-12);}.cls-27{clip-path:url(#clip-path-13);}.cls-28{clip-path:url(#clip-path-14);}.cls-29{clip-path:url(#clip-path-15);}.cls-30{clip-path:url(#clip-path-16);}.cls-31{clip-path:url(#clip-path-17);}.cls-32{clip-path:url(#clip-path-18);}.cls-33{clip-path:url(#clip-path-19);}.cls-34{clip-path:url(#clip-path-20);}.cls-35{clip-path:url(#clip-path-21);}.cls-36{fill:#804028;}.cls-37{clip-path:url(#clip-path-22);}.cls-38{fill:#b45a39;}.cls-39{clip-path:url(#clip-path-23);}.cls-40{fill:#984c30;}.cls-41{fill:#814029;}.cls-42{fill:#824129;}.cls-43{clip-path:url(#clip-path-24);}.cls-44{clip-path:url(#clip-path-25);}.cls-45{clip-path:url(#clip-path-26);}.cls-46{clip-path:url(#clip-path-27);}.cls-47{clip-path:url(#clip-path-28);}.cls-48{fill:#b15838;}.cls-49{clip-path:url(#clip-path-29);}.cls-50{clip-path:url(#clip-path-30);}.cls-51{clip-path:url(#clip-path-31);}.cls-52{fill:#af5737;}.cls-53{clip-path:url(#clip-path-32);}.cls-54{clip-path:url(#clip-path-33);}.cls-55{clip-path:url(#clip-path-34);}.cls-56{clip-path:url(#clip-path-35);}.cls-57{fill:#8d462c;}.cls-58{fill:#87432a;}.cls-59{clip-path:url(#clip-path-36);}.cls-60{clip-path:url(#clip-path-37);}.cls-61{clip-path:url(#clip-path-38);}.cls-62{clip-path:url(#clip-path-39);}.cls-63{clip-path:url(#clip-path-40);}</style><clipPath id="clip-path"><path class="cls-1" d="M74.608,125.18245l4.05657,2.20675a.99831.99831,0,0,0-.434-.11921,1.10686,1.10686,0,0,0-.20509.00974A1.45907,1.45907,0,0,0,76.85885,128.5l-4.05657-2.20674a1.45907,1.45907,0,0,1,1.16667-1.22027,1.10687,1.10687,0,0,1,.20509-.00974A.99852.99852,0,0,1,74.608,125.18245Z"/></clipPath><clipPath id="clip-path-2"><path class="cls-1" d="M74.18484,132.41969,70.12826,130.213a3.38345,3.38345,0,0,0,1.24292-.86617,5.08641,5.08641,0,0,0,.8272-1.2572,7.87285,7.87285,0,0,0,.6039-1.79632L76.85885,128.5a7.87285,7.87285,0,0,1-.6039,1.79632,5.08641,5.08641,0,0,1-.8272,1.2572A3.38345,3.38345,0,0,1,74.18484,132.41969Z"/></clipPath><clipPath id="clip-path-3"><path class="cls-1" d="M71.71668,132.45206l-4.05658-2.20673a2.46878,2.46878,0,0,0,1.53076.21173,4.37838,4.37838,0,0,0,.93741-.24412l4.05657,2.20674a4.37838,4.37838,0,0,1-.93741.24412A2.46867,2.46867,0,0,1,71.71668,132.45206Z"/></clipPath><clipPath id="clip-path-4"><path class="cls-1" d="M71.08938,108.49474a1.02855,1.02855,0,0,1,.64068.11005l4.05657,2.20675a1.02844,1.02844,0,0,0-.64067-.11006C73.929,110.03946,72.30634,109.15678,71.08938,108.49474Z"/></clipPath><clipPath id="clip-path-5"><path class="cls-1" d="M67.46821,111.1631l4.05657,2.20675-.02328.41095-4.05658-2.20672Z"/></clipPath><clipPath id="clip-path-6"><path class="cls-1" d="M67.51336,110.37845l4.05657,2.20675c-.00392.067-.01963.33633-.04515.78464q-2.02831-1.10335-4.05658-2.20673C67.49372,110.71478,67.50944,110.44543,67.51336,110.37845Z"/></clipPath><clipPath id="clip-path-7"><path class="cls-1" d="M67.51428,110.36286a1.13573,1.13573,0,0,0-.55117-1.09322l4.05656,2.20675a1.13568,1.13568,0,0,1,.55118,1.09321l-.00091.01559q-2.02831-1.10336-4.05658-2.20673Z"/></clipPath><clipPath id="clip-path-8"><path class="cls-1" d="M66.96313,109.26963l4.05657,2.20674a1.00388,1.00388,0,0,0-.55965-.11632l-4.05657-2.20674A1.004,1.004,0,0,1,66.96313,109.26963Z"/></clipPath><clipPath id="clip-path-9"><path class="cls-1" d="M70.45995,111.36006l-4.05658-2.20673,4.686-.65858,4.05657,2.20674Z"/></clipPath><clipPath id="clip-path-10"><path class="cls-1" d="M70.38683,111.3679l-4.05657-2.20674q.03634-.00511.07322-.00786L70.46005,111.36Q70.42323,111.36276,70.38683,111.3679Z"/></clipPath><clipPath id="clip-path-11"><path class="cls-1" d="M70.4287,134.79378,66.37212,132.587a3.66654,3.66654,0,0,1-.58809-.39785,4.51431,4.51431,0,0,1-1.46681-3.623c.00411-2.21333.21262-6.69411.41223-10.655.127-2.424.25356-4.64384.33266-6.0022.05026-.86187.07986-1.35138.08142-1.37715a1.48536,1.48536,0,0,1,1.11707-1.35845c.023-.00472.04629-.00894.06965-.01222l4.05657,2.20674c-.02336.00328-.04661.0075-.06965.01222a1.48536,1.48536,0,0,0-1.11707,1.35845c-.00156.02576-.03115.51528-.08142,1.37715-.0791,1.35836-.20564,3.57817-.33266,6.0022-.19961,3.96091-.40812,8.44169-.41223,10.655a4.51431,4.51431,0,0,0,1.46681,3.623A3.66593,3.66593,0,0,0,70.4287,134.79378Z"/></clipPath><clipPath id="clip-path-12"><path class="cls-1" d="M63.79851,114.86338l-4.05658-2.20673c-.01013-.8373-.02954-1.32942-.02953-1.33567l4.05657,2.20675C63.769,113.534,63.78837,114.02609,63.79851,114.86338Z"/></clipPath><clipPath id="clip-path-13"><path class="cls-1" d="M59.7124,111.321a1.11232,1.11232,0,0,0-.5534-.95427l4.05657,2.20674a1.11229,1.11229,0,0,1,.55341.95426C62.552,112.86571,60.92936,111.983,59.7124,111.321Z"/></clipPath><clipPath id="clip-path-14"><path class="cls-1" d="M59.15885,110.36662l4.05656,2.20675a.9993.9993,0,0,0-.56989-.11506c-.01912.00168-.03824.00385-.05747.00655l-4.05657-2.20674c.01923-.0027.03835-.00488.05747-.00655A.99943.99943,0,0,1,59.15885,110.36662Z"/></clipPath><clipPath id="clip-path-15"><path class="cls-1" d="M62.64543,112.45832l-4.05658-2.20674,7.67165-1.07818,4.05656,2.20675Z"/></clipPath><clipPath id="clip-path-16"><path class="cls-1" d="M62.52971,112.47458l-4.05657-2.20674c.01956-.00377.0389-.007.05835-.00972l4.05657,2.20674C62.5686,112.46759,62.54926,112.47081,62.52971,112.47458Z"/></clipPath><clipPath id="clip-path-17"><path class="cls-1" d="M58.46591,136.96143l-4.05658-2.20672a.99836.99836,0,0,1-.08992-.05533,1.29315,1.29315,0,0,1-.21287-1.768,14.5601,14.5601,0,0,0,1.66505-3.98532,36.96787,36.96787,0,0,0,1.01875-5.20836,77.04617,77.04617,0,0,0,.57838-9.58062c.00082-.44255-.00095-.83421-.00446-1.16626-.00515-.50483-.01413-.87171-.02343-1.06853l4.05657,2.20674c.0093.19682.01829.5637.02343,1.06853.00351.332.00528.72371.00446,1.16626a77.04617,77.04617,0,0,1-.57838,9.58062,36.96787,36.96787,0,0,1-1.01875,5.20836,14.5601,14.5601,0,0,1-1.66505,3.98532,1.29315,1.29315,0,0,0,.21287,1.768A.99446.99446,0,0,0,58.46591,136.96143Z"/></clipPath><clipPath id="clip-path-18"><path class="cls-1" d="M61.39742,114.12906l-4.05657-2.20674.00029-.15561,4.05657,2.20675Z"/></clipPath><clipPath id="clip-path-19"><path class="cls-1" d="M61.39771,113.97344l-4.05657-2.20674a1.47907,1.47907,0,0,1,1.132-1.49886l4.05657,2.20674A1.47907,1.47907,0,0,0,61.39771,113.97344Z"/></clipPath><clipPath id="clip-path-20"><path class="cls-1" d="M57.7296,114.10861,53.673,111.90188a8.70144,8.70144,0,0,1,3.66259-1.47417l1.1374-.15985,4.05657,2.20674-1.1374.15985A8.70144,8.70144,0,0,0,57.7296,114.10861Z"/></clipPath><clipPath id="clip-path-21"><path class="cls-1" d="M53.20628,121.435l-4.05658-2.20673a1.25011,1.25011,0,0,1-.38028-1.69308,16.18572,16.18572,0,0,1,1.29315-2.04017,15.29785,15.29785,0,0,1,3.61044-3.59315l4.05657,2.20674a15.29785,15.29785,0,0,0-3.61044,3.59316,16.18571,16.18571,0,0,0-1.29315,2.04017A1.25009,1.25009,0,0,0,53.20628,121.435Z"/></clipPath><clipPath id="clip-path-22"><path class="cls-1" d="M140.97128,68.38436l-4.05657-2.20674c-.50318-.73315-.92635-1.443-1.38134-2.20879l4.05656,2.20674C140.04493,66.94141,140.4681,67.65122,140.97128,68.38436Z"/></clipPath><clipPath id="clip-path-23"><path class="cls-1" d="M139.78788,63.05333l-4.05659-2.20672c.42615-.88969.852-1.667,1.278-2.47017l4.05657,2.20674C140.63984,61.38638,140.214,62.16366,139.78788,63.05333Z"/></clipPath><clipPath id="clip-path-24"><path class="cls-1" d="M129.27739,64.92809l-4.05657-2.20674a4.52365,4.52365,0,0,0-.10207-1.0403l4.05657,2.20674A4.52365,4.52365,0,0,1,129.27739,64.92809Z"/></clipPath><clipPath id="clip-path-25"><path class="cls-1" d="M123.81981,71.62938l-4.05658-2.20673a3.035,3.035,0,0,0,1.91292.29679,4.30538,4.30538,0,0,0,3.43413-3.482,4.92366,4.92366,0,0,0,.10605-1.104l4.05657,2.20674a4.92367,4.92367,0,0,1-.10605,1.104,4.30538,4.30538,0,0,1-3.43413,3.482A3.035,3.035,0,0,1,123.81981,71.62938Z"/></clipPath><clipPath id="clip-path-26"><path class="cls-1" d="M123.59568,59.53849l4.05656,2.20674a3.15561,3.15561,0,0,1,1.52308,2.14257l-4.05657-2.20674A3.15565,3.15565,0,0,0,123.59568,59.53849Z"/></clipPath><clipPath id="clip-path-27"><path class="cls-1" d="M122.33439,73.60083,118.2778,71.3941c-1.66268-.90449-2.74961-2.96941-2.74432-5.81595-.02345-4.61245,2.64128-7.82208,5.77331-8.26226a4.22943,4.22943,0,0,1,2.64616.396l4.05657,2.20674a4.22937,4.22937,0,0,0-2.64616-.396c-3.132.44018-5.79676,3.64981-5.77331,8.26226C119.58477,70.63142,120.6717,72.69635,122.33439,73.60083Z"/></clipPath><clipPath id="clip-path-28"><path class="cls-1" d="M105.13024,78.988l-4.05657-2.20674a12.15529,12.15529,0,0,0,6.0255-10.36347l4.05657,2.20674A12.15529,12.15529,0,0,1,105.13024,78.988Z"/></clipPath><clipPath id="clip-path-29"><path class="cls-1" d="M104.75515,81.38343l-4.05659-2.20673a1.03348,1.03348,0,0,1-.46915-.54808,1.48846,1.48846,0,0,1,.67594-1.75457l4.05657,2.20674a1.48846,1.48846,0,0,0-.67594,1.75457A1.03342,1.03342,0,0,0,104.75515,81.38343Z"/></clipPath><clipPath id="clip-path-30"><path class="cls-1" d="M114.59952,32.44127l4.05657,2.20675a1.02543,1.02543,0,0,0-.6359-.11068l-4.05657-2.20674A1.02554,1.02554,0,0,1,114.59952,32.44127Z"/></clipPath><clipPath id="clip-path-31"><path class="cls-1" d="M117.50528,34.73943l-4.05657-2.20674a1.2312,1.2312,0,0,1,.51491-.20209l4.05657,2.20674A1.2312,1.2312,0,0,0,117.50528,34.73943Z"/></clipPath><clipPath id="clip-path-32"><path class="cls-1" d="M111.20267,43.36126l-4.05657-2.20674a8.4822,8.4822,0,0,1,3.75279-6.941l4.05657,2.20674A8.4822,8.4822,0,0,0,111.20267,43.36126Z"/></clipPath><clipPath id="clip-path-33"><path class="cls-1" d="M63.33259,81.73643,59.276,79.5297a9.24936,9.24936,0,0,0,1.96772-3.07708,1.24938,1.24938,0,0,0,.02636-1.26568l4.05657,2.20674a1.24938,1.24938,0,0,1-.02636,1.26568A9.24936,9.24936,0,0,1,63.33259,81.73643Z"/></clipPath><clipPath id="clip-path-34"><path class="cls-1" d="M66.81991,75.4378l-4.05659-2.20674c.23384-.86265.5082-1.96438.82243-3.0112l4.05657,2.20674C67.3281,73.47342,67.05374,74.57515,66.81991,75.4378Z"/></clipPath><clipPath id="clip-path-35"><path class="cls-1" d="M61.28759,83.25986,57.231,81.05313a7.49607,7.49607,0,0,0,2.045-1.52343l4.05657,2.20674A7.49616,7.49616,0,0,1,61.28759,83.25986Z"/></clipPath><clipPath id="clip-path-36"><path class="cls-1" d="M126.11767,110.58743l-4.05657-2.20674c-.24754-.35419-.44709-.69781-.66265-1.07377l4.05657,2.20675C125.67058,109.88962,125.87013,110.23324,126.11767,110.58743Z"/></clipPath><clipPath id="clip-path-37"><path class="cls-1" d="M125.5459,108.0142l-4.05657-2.20673c.201-.42586.4099-.801.61081-1.19224l4.05657,2.20674C125.95579,107.21323,125.74687,107.58834,125.5459,108.0142Z"/></clipPath><clipPath id="clip-path-38"><path class="cls-1" d="M113.77178,123.34656l-4.05659-2.20673a4.15085,4.15085,0,0,0,2.57546.36927,8.78409,8.78409,0,0,0,3.55789-1.21742l4.05656,2.20675a8.78412,8.78412,0,0,1-3.55787,1.21741A4.15077,4.15077,0,0,1,113.77178,123.34656Z"/></clipPath><clipPath id="clip-path-39"><path class="cls-1" d="M113.25548,111.16064l4.05656,2.20675c1.181.64245,1.508,2.22384,1.48253,3.39209l-4.05658-2.20673C114.76344,113.38449,114.43649,111.80309,113.25548,111.16064Z"/></clipPath><clipPath id="clip-path-40"><path class="cls-1" d="M112.38439,125.17953l-4.05658-2.20672c-1.71786-.93452-2.67351-2.90448-2.66855-5.571.00777-4.18461,2.29687-7.79954,6.03775-8.32528a4.4823,4.4823,0,0,1,2.831.41264l4.05656,2.20675a4.48214,4.48214,0,0,0-2.83094-.41265c-3.74088.52575-6.03,4.14067-6.03775,8.32528C109.71087,122.27506,110.66652,124.245,112.38439,125.17953Z"/></clipPath></defs><title>ICONS invente18 no bg</title><g class="cls-2"><polygon class="cls-3" points="93.015 94.489 88.958 92.282 140.201 85.081 144.258 87.287 93.015 94.489"/><polygon class="cls-3" points="91.562 96.266 87.506 94.06 88.955 93.856 93.012 96.063 91.562 96.266"/><polygon class="cls-4" points="91.467 147.294 87.411 145.088 87.506 94.06 91.562 96.266 91.467 147.294"/><polygon class="cls-5" points="91.467 147.294 91.562 96.266 93.012 96.063 92.917 147.091 91.467 147.294"/><polygon class="cls-3" points="91.565 94.693 87.509 92.486 88.958 92.282 93.015 94.489 91.565 94.693"/><polygon class="cls-3" points="40.323 101.895 36.266 99.688 87.509 92.486 91.565 94.693 40.323 101.895"/><polygon class="cls-4" points="40.32 103.468 36.263 101.261 36.266 99.688 40.323 101.895 40.32 103.468"/><polygon class="cls-5" points="144.258 87.287 144.255 88.861 93.012 96.063 91.562 96.266 40.32 103.468 40.323 101.895 91.565 94.693 93.015 94.489 144.258 87.287"/></g><g class="cls-2"><polygon class="cls-3" points="91.676 35.114 87.619 32.907 89.069 32.704 93.126 34.91 91.676 35.114"/><polygon class="cls-4" points="91.565 94.693 87.509 92.486 87.619 32.907 91.676 35.114 91.565 94.693"/><polygon class="cls-5" points="91.676 35.114 93.126 34.91 93.015 94.489 91.565 94.693 91.676 35.114"/></g><g class="cls-2"><g class="cls-2"><g class="cls-6"><g class="cls-2"><path class="cls-7" d="M76.85885,128.5l-4.05657-2.20674a1.54437,1.54437,0,0,1,.07388-.27891l4.05657,2.20674a1.54437,1.54437,0,0,0-.07388.27891"/><path class="cls-8" d="M76.93273,128.22108l-4.05657-2.20674a1.559,1.559,0,0,1,.09-.2l4.05657,2.20674a1.559,1.559,0,0,0-.09.2"/><path class="cls-9" d="M77.02272,128.021l-4.05657-2.20674a1.557,1.557,0,0,1,.09665-.15683l4.05657,2.20674a1.557,1.557,0,0,0-.09665.15683"/><path class="cls-10" d="M77.11937,127.86422l-4.05657-2.20674a1.53615,1.53615,0,0,1,.10629-.1349l4.05657,2.20674a1.53617,1.53617,0,0,0-.10629.1349"/><path class="cls-11" d="M77.22566,127.72931l-4.05657-2.20674a1.4954,1.4954,0,0,1,.12044-.12165l4.05657,2.20674a1.4954,1.4954,0,0,0-.12044.12165"/><path class="cls-12" d="M77.3461,127.60767l-4.05657-2.20674a1.43234,1.43234,0,0,1,.1436-.11362L77.4897,127.494a1.43236,1.43236,0,0,0-.1436.11362"/><path class="cls-13" d="M77.4897,127.494l-4.05657-2.20674a1.34092,1.34092,0,0,1,.19138-.11044l4.05657,2.20674a1.34092,1.34092,0,0,0-.19138.11044"/><path class="cls-14" d="M77.68109,127.38361l-4.05657-2.20674a1.20235,1.20235,0,0,1,.34443-.10388,1.10687,1.10687,0,0,1,.20509-.00974,1.03273,1.03273,0,0,1,.21058.03134l4.05657,2.20674a1.03273,1.03273,0,0,0-.21058-.03134,1.10686,1.10686,0,0,0-.20509.00974,1.20234,1.20234,0,0,0-.34443.10388"/><path class="cls-13" d="M78.44119,127.30132l-4.05657-2.20674a.97913.97913,0,0,1,.18728.06918l4.05657,2.20674a.97912.97912,0,0,0-.18728-.06918"/><path class="cls-12" d="M78.62848,127.37051l-4.05657-2.20674.03611.01868,4.05657,2.20674-.03611-.01868"/></g></g></g><g class="cls-2"><g class="cls-15"><g class="cls-2"><path class="cls-14" d="M74.18484,132.41969,70.12826,130.213q.09708-.03857.18877-.08185l4.05657,2.20674q-.09176.04325-.18877.08185"/><path class="cls-13" d="M74.3736,132.33784,70.317,130.1311a3.1998,3.1998,0,0,0,.45783-.26394l4.05657,2.20674a3.19981,3.19981,0,0,1-.45783.26394"/><path class="cls-12" d="M74.83143,132.0739l-4.05657-2.20674a3.46135,3.46135,0,0,0,.34691-.2752l4.05657,2.20674a3.46133,3.46133,0,0,1-.34691.2752"/><path class="cls-11" d="M75.17834,131.7987,71.12177,129.592q.12939-.1165.24941-.24518l.05148-.05719,4.05657,2.20674-.05148.05719q-.12042.12852-.24941.24518"/><path class="cls-10" d="M75.47924,131.49633l-4.05657-2.20674a4.5283,4.5283,0,0,0,.3116-.39673l4.05657,2.20674a4.5283,4.5283,0,0,1-.3116.39673"/><path class="cls-9" d="M75.79084,131.09959l-4.05657-2.20674a5.32833,5.32833,0,0,0,.32834-.5338l4.05657,2.20674a5.32832,5.32832,0,0,1-.32834.5338"/><path class="cls-8" d="M76.11918,130.5658l-4.05657-2.20674q.07219-.13416.13577-.26948a7.06041,7.06041,0,0,0,.27711-.65354l4.05657,2.20674a7.06041,7.06041,0,0,1-.27711.65354q-.06351.135-.13577.26948"/><path class="cls-7" d="M76.53206,129.64277,72.47548,127.436a7.87221,7.87221,0,0,0,.32679-1.14278L76.85885,128.5a7.87221,7.87221,0,0,1-.32679,1.14278"/></g></g></g><g class="cls-2"><g class="cls-16"><g class="cls-2"><path class="cls-12" d="M71.71668,132.45206l-4.05657-2.20674q.03116.01695.06339.03281l4.05657,2.20674q-.03223-.01586-.06339-.03281"/><path class="cls-13" d="M71.78007,132.48488l-4.05657-2.20674a1.94237,1.94237,0,0,0,.37129.1364l4.05657,2.20674a1.94237,1.94237,0,0,1-.37129-.1364"/><path class="cls-14" d="M72.15135,132.62128l-4.05657-2.20674a2.81565,2.81565,0,0,0,1.09607.04253,4.37838,4.37838,0,0,0,.93741-.24412l4.05657,2.20674a4.37838,4.37838,0,0,1-.93741.24412,2.81565,2.81565,0,0,1-1.09607-.04253"/></g></g></g><g class="cls-2"><g class="cls-17"><g class="cls-2"><path class="cls-14" d="M75.146,110.70148l-4.05657-2.20674a1.06408,1.06408,0,0,1,.41471.02121l4.05657,2.20674a1.06408,1.06408,0,0,0-.41471-.02121"/><path class="cls-13" d="M75.56066,110.72269,71.50409,108.516a.98878.98878,0,0,1,.18961.07l4.05657,2.20674a.98878.98878,0,0,0-.18961-.07"/><path class="cls-12" d="M75.75028,110.79273,71.6937,108.586l.03642.01884,4.05657,2.20674-.03642-.01884"/></g></g></g><g class="cls-2"><g class="cls-18"><g class="cls-2"><path class="cls-7" d="M71.5015,113.7808l-4.05657-2.20674c.04309-.76364.068-1.18882.06935-1.2112a1.13572,1.13572,0,0,0-.55122-1.09325l4.05657,2.20674a1.13572,1.13572,0,0,1,.55122,1.09325c-.00131.02238-.02626.44756-.06935,1.2112"/></g></g></g><g class="cls-2"><g class="cls-19"><g class="cls-2"><path class="cls-7" d="M71.5015,113.7808l-4.05657-2.20674c.04309-.76364.068-1.18882.06935-1.2112a1.13572,1.13572,0,0,0-.55122-1.09325l4.05657,2.20674a1.13572,1.13572,0,0,1,.55122,1.09325c-.00131.02238-.02626.44756-.06935,1.2112"/></g></g></g><g class="cls-2"><g class="cls-20"><g class="cls-2"><path class="cls-7" d="M71.5015,113.7808l-4.05657-2.20674c.04309-.76364.068-1.18882.06935-1.2112a1.13572,1.13572,0,0,0-.55122-1.09325l4.05657,2.20674a1.13572,1.13572,0,0,1,.55122,1.09325c-.00131.02238-.02626.44756-.06935,1.2112"/></g></g></g><g class="cls-2"><g class="cls-21"><g class="cls-2"><path class="cls-14" d="M70.46005,111.36l-4.05657-2.20674a1.038,1.038,0,0,1,.33693.02873l4.05657,2.20674a1.03794,1.03794,0,0,0-.33693-.02873"/><path class="cls-13" d="M70.797,111.38878,66.74041,109.182a.97345.97345,0,0,1,.187.06911l4.05657,2.20674a.97345.97345,0,0,0-.187-.06911"/><path class="cls-12" d="M70.984,111.45788l-4.05657-2.20674.03572.01848,4.05657,2.20674-.03572-.01848"/></g></g></g><g class="cls-2"><g class="cls-22"><g class="cls-2"><path class="cls-14" d="M70.45995,111.36006l-4.05657-2.20674,4.686-.65858,4.05657,2.20674-4.686.65858"/></g></g></g><path class="cls-23" d="M75.146,110.70148a1.04876,1.04876,0,0,1,1.19124,1.11173,1.48573,1.48573,0,0,1-1.196,1.45606l-3.63969.51152c.04309-.76364.068-1.18882.06935-1.2112a1.06455,1.06455,0,0,0-1.1109-1.20954Z"/><g class="cls-2"><g class="cls-24"><g class="cls-2"><path class="cls-14" d="M70.38683,111.3679l-4.05657-2.20674q.03634-.00511.07322-.00786L70.46005,111.36q-.03683.00271-.07322.00786"/></g></g></g><path class="cls-23" d="M70.38683,111.3679q.03634-.00511.07322-.00786a1.06461,1.06461,0,0,1,1.11089,1.20956c-.00132.02238-.02636.44764-.06938,1.21122-.01606.28612-.03449.61637-.05484.98443-.08255,1.34272-.18211,3.18915-.28189,5.15663-.20751,3.94474-.41605,8.44279-.41991,10.5178a2.19717,2.19717,0,0,0,.69331,1.82146,2.24787,2.24787,0,0,0,1.80919.40264,4.37838,4.37838,0,0,0,.93741-.24412,3.38345,3.38345,0,0,0,1.24292-.86617,5.08641,5.08641,0,0,0,.8272-1.2572,7.87285,7.87285,0,0,0,.6039-1.79632,1.45907,1.45907,0,0,1,1.16667-1.22027,1.10686,1.10686,0,0,1,.20509-.00974,1.08789,1.08789,0,0,1,.96651,1.34223,9.2461,9.2461,0,0,1-.41937,1.57156,9.12067,9.12067,0,0,1-1.72743,3.00874,6.13481,6.13481,0,0,1-2.34144,1.65156,6.6303,6.6303,0,0,1-1.46622.38758,4.30142,4.30142,0,0,1-3.40205-.83571,4.51431,4.51431,0,0,1-1.46681-3.623c.00411-2.21333.21262-6.69411.41223-10.655.127-2.424.25356-4.64384.33266-6.0022.05026-.86187.07986-1.35138.08142-1.37715a1.48536,1.48536,0,0,1,1.11707-1.35845C70.34022,111.37541,70.36347,111.37119,70.38683,111.3679Z"/><g class="cls-2"><g class="cls-25"><g class="cls-2"><path class="cls-7" d="M70.4287,134.79378,66.37213,132.587a3.66593,3.66593,0,0,1-.5881-.39785,4.51431,4.51431,0,0,1-1.46681-3.623c.00411-2.21333.21262-6.69411.41223-10.655.127-2.424.25356-4.64384.33266-6.0022.05026-.86187.07986-1.35138.08142-1.37715a1.48273,1.48273,0,0,1,.08865-.42416l4.05657,2.20674a1.48273,1.48273,0,0,0-.08865.42416c-.00156.02576-.03115.51528-.08142,1.37715-.0791,1.35836-.20564,3.57817-.33266,6.0022-.19961,3.96091-.40812,8.44169-.41223,10.655a4.51431,4.51431,0,0,0,1.46681,3.623,3.66593,3.66593,0,0,0,.5881.39785"/><path class="cls-8" d="M69.28876,112.31442l-4.05657-2.20674a1.54576,1.54576,0,0,1,.08985-.19989l4.05657,2.20674a1.54576,1.54576,0,0,0-.08985.19989"/><path class="cls-9" d="M69.37861,112.11453,65.322,109.90779a1.56224,1.56224,0,0,1,.09694-.15728l4.05657,2.20674a1.56225,1.56225,0,0,0-.09694.15728"/><path class="cls-10" d="M69.47555,111.95725,65.419,109.75052a1.5507,1.5507,0,0,1,.1073-.13618l4.05657,2.20674a1.55071,1.55071,0,0,0-.1073.13618"/><path class="cls-11" d="M69.58285,111.82107l-4.05657-2.20674a1.51261,1.51261,0,0,1,.12193-.12314l4.05657,2.20674a1.5126,1.5126,0,0,0-.12193.12314"/><path class="cls-12" d="M69.70478,111.69793l-4.05657-2.20674a1.44706,1.44706,0,0,1,.14511-.11479l4.05657,2.20674a1.44707,1.44707,0,0,0-.14511.11479"/><path class="cls-13" d="M69.84989,111.58314l-4.05657-2.20674a1.3494,1.3494,0,0,1,.19258-.11112l4.05657,2.20674a1.34941,1.34941,0,0,0-.19258.11112"/><path class="cls-14" d="M70.04247,111.472l-4.05657-2.20674a1.21891,1.21891,0,0,1,.27471-.0919c.023-.00472.04629-.00894.06965-.01222l4.05657,2.20674c-.02336.00328-.04661.0075-.06965.01222a1.21891,1.21891,0,0,0-.27471.0919"/></g></g></g><g class="cls-2"><g class="cls-26"><g class="cls-2"><path class="cls-7" d="M63.79851,114.86338l-4.05657-2.20674c-.01014-.83729-.02955-1.32941-.02954-1.33566l4.05657,2.20674c0,.00625.0194.49837.02954,1.33566"/></g></g></g><g class="cls-2"><g class="cls-27"><g class="cls-2"><path class="cls-7" d="M63.769,113.52772,59.7124,111.321a1.11228,1.11228,0,0,0-.55358-.95436l4.05657,2.20674a1.11228,1.11228,0,0,1,.55358.95436"/></g></g></g><g class="cls-2"><g class="cls-28"><g class="cls-2"><path class="cls-14" d="M62.58805,112.46486l-4.05657-2.20674c.01923-.0027.03835-.00488.05747-.00655a1.02728,1.02728,0,0,1,.349.02788l4.05657,2.20674a1.02728,1.02728,0,0,0-.349-.02788c-.01912.00168-.03824.00385-.05747.00655"/><path class="cls-13" d="M62.99449,112.48619l-4.05657-2.20674a.97364.97364,0,0,1,.18491.06854l4.05657,2.20674a.97364.97364,0,0,0-.18491-.06854"/><path class="cls-12" d="M63.1794,112.55473,59.12283,110.348l.036.01863,4.05657,2.20674-.036-.01863"/></g></g></g><g class="cls-2"><g class="cls-29"><g class="cls-2"><path class="cls-14" d="M62.64543,112.45832l-4.05657-2.20674,7.67164-1.07818,4.05657,2.20674-7.67164,1.07818"/></g></g></g><path class="cls-23" d="M63.769,113.52772a1.04691,1.04691,0,0,0-1.12354-1.06941l7.67164-1.07818a1.48528,1.48528,0,0,0-1.117,1.35844c-.00156.02576-.03116.51528-.08135,1.3771l-5.32018.7477C63.78837,114.02609,63.769,113.534,63.769,113.52772Z"/><g class="cls-2"><g class="cls-30"><g class="cls-2"><path class="cls-14" d="M62.52971,112.47458l-4.05657-2.20674c.01956-.00377.0389-.007.05835-.00972l4.05657,2.20674c-.01945.00273-.03879.00595-.05835.00972"/></g></g></g><g class="cls-2"><g class="cls-31"><g class="cls-2"><path class="cls-7" d="M58.46591,136.96143l-4.05657-2.20674a.99445.99445,0,0,1-.08992-.05532,1.23553,1.23553,0,0,1-.3714-1.45369l4.05657,2.20674a1.23553,1.23553,0,0,0,.3714,1.45369.99446.99446,0,0,0,.08992.05532"/><path class="cls-8" d="M58.00459,135.45243,53.948,133.24569a1.51752,1.51752,0,0,1,.08815-.19627l4.05657,2.20674a1.51753,1.51753,0,0,0-.08815.19627"/><path class="cls-9" d="M58.09274,135.25616l-4.05657-2.20674q.03222-.06.07038-.118.19746-.30061.38477-.6492l4.05657,2.20674q-.18711.34777-.38477.6492-.03817.05794-.07038.118"/><path class="cls-8" d="M58.54789,134.48895l-4.05657-2.20674a13.62945,13.62945,0,0,0,.77074-1.7421l4.05657,2.20674a13.62944,13.62944,0,0,1-.77074,1.7421"/><path class="cls-7" d="M59.31863,132.74685l-4.05657-2.20674c.18406-.50049.3546-1.03463.50954-1.594a36.96787,36.96787,0,0,0,1.01875-5.20836,77.04617,77.04617,0,0,0,.57838-9.58062c.00082-.44255-.00095-.83421-.00446-1.16626-.00515-.50483-.01413-.87171-.02343-1.06853l4.05657,2.20674c.0093.19682.01829.5637.02343,1.06853.00351.332.00528.72371.00446,1.16626a77.04617,77.04617,0,0,1-.57838,9.58062,36.96787,36.96787,0,0,1-1.01875,5.20836c-.15494.55939-.32548,1.09353-.50954,1.594"/></g></g></g><g class="cls-2"><g class="cls-32"><g class="cls-2"><path class="cls-7" d="M61.39742,114.12906l-4.05657-2.20674.00029-.15561,4.05657,2.20674-.00029.15561"/></g></g></g><g class="cls-2"><g class="cls-33"><g class="cls-2"><path class="cls-7" d="M61.39771,113.97344l-4.05657-2.20674a1.45934,1.45934,0,0,1,.08932-.565l4.05657,2.20674a1.45934,1.45934,0,0,0-.08932.565"/><path class="cls-8" d="M61.487,113.40846l-4.05657-2.20674a1.5433,1.5433,0,0,1,.08969-.19965l4.05657,2.20674a1.54329,1.54329,0,0,0-.08969.19965"/><path class="cls-9" d="M61.57672,113.20881l-4.05657-2.20674a1.554,1.554,0,0,1,.09647-.15657l4.05657,2.20674a1.554,1.554,0,0,0-.09647.15657"/><path class="cls-10" d="M61.67319,113.05224l-4.05657-2.20674a1.53647,1.53647,0,0,1,.10637-.135l4.05657,2.20674a1.53647,1.53647,0,0,0-.10637.135"/><path class="cls-11" d="M61.77956,112.91722,57.723,110.71048a1.4954,1.4954,0,0,1,.12042-.12164L61.9,112.79558a1.4954,1.4954,0,0,0-.12042.12164"/><path class="cls-12" d="M61.9,112.79558l-4.05657-2.20674a1.43271,1.43271,0,0,1,.14392-.11384l4.05657,2.20674a1.43271,1.43271,0,0,0-.14392.11384"/><path class="cls-13" d="M62.0439,112.68174,57.98733,110.475a1.34757,1.34757,0,0,1,.19188-.1107l4.05657,2.20674a1.34757,1.34757,0,0,0-.19188.1107"/><path class="cls-14" d="M62.23579,112.571l-4.05657-2.20674a1.24364,1.24364,0,0,1,.29392-.09646l4.05657,2.20674a1.24365,1.24365,0,0,0-.29392.09646"/></g></g></g><path class="cls-23" d="M62.58805,112.46486c.01923-.0027.03835-.00488.05747-.00655a1.047,1.047,0,0,1,1.12353,1.06949c0,.00617.01939.49829.02956,1.33561.004.33612.00658.72773.00576,1.16608-.00331,1.78106-.06411,4.33947-.3015,7.12151a47.11714,47.11714,0,0,1-1.40919,8.45271,17.372,17.372,0,0,1-2.051,4.83478,1.37567,1.37567,0,0,1-.94226.63256,1.01151,1.01151,0,0,1-.72441-.16493,1.29315,1.29315,0,0,1-.21287-1.768,14.5601,14.5601,0,0,0,1.66505-3.98532,36.96787,36.96787,0,0,0,1.01875-5.20836,77.04617,77.04617,0,0,0,.57838-9.58062c.00082-.44255-.00095-.83421-.00446-1.16626-.00515-.50483-.01413-.87171-.02343-1.06853l.00029-.15561a1.47907,1.47907,0,0,1,1.132-1.49886C62.54926,112.47081,62.5686,112.46759,62.58805,112.46486Z"/><g class="cls-2"><g class="cls-34"><g class="cls-2"><path class="cls-13" d="M57.7296,114.10861,53.673,111.90188a9.88563,9.88563,0,0,1,1.33619-.76672l4.05657,2.20674a9.88563,9.88563,0,0,0-1.33619.76672"/><path class="cls-14" d="M59.06578,113.34189l-4.05657-2.20674a8.09064,8.09064,0,0,1,2.32641-.70745l1.1374-.15985,4.05657,2.20674-1.1374.15985a8.09064,8.09064,0,0,0-2.32641.70745"/></g></g></g><g class="cls-2"><g class="cls-35"><g class="cls-2"><path class="cls-7" d="M53.20628,121.435l-4.05657-2.20674a1.21538,1.21538,0,0,1-.45739-1.51664l4.05657,2.20674a1.21538,1.21538,0,0,0,.45739,1.51664"/><path class="cls-8" d="M52.74889,119.91837l-4.05657-2.20674a1.59473,1.59473,0,0,1,.07711-.17643c.0046-.00889.02436-.04749.059-.112L52.88505,119.63c-.03469.06448-.05445.10308-.059.112a1.59472,1.59472,0,0,0-.07711.17643"/><path class="cls-9" d="M52.88505,119.63l-4.05657-2.20674a16.50775,16.50775,0,0,1,1.0023-1.60506l4.05657,2.20674a16.50774,16.50774,0,0,0-1.0023,1.60506"/><path class="cls-10" d="M53.88735,118.02491l-4.05657-2.20674q.11034-.15729.23181-.32314c.29488-.402.63768-.83721,1.02835-1.27962l4.05657,2.20674c-.39067.44241-.73347.87758-1.02835,1.27962q-.12145.16559-.23181.32314"/><path class="cls-11" d="M55.1475,116.42215l-4.05657-2.20674a15.38239,15.38239,0,0,1,1.23377-1.25l4.05657,2.20674a15.38239,15.38239,0,0,0-1.23377,1.25"/><path class="cls-12" d="M56.38127,115.17215l-4.05657-2.20674a12.85953,12.85953,0,0,1,1.284-1.01937l4.05657,2.20674a12.85956,12.85956,0,0,0-1.284,1.01937"/><path class="cls-13" d="M57.66532,114.15278,53.60874,111.946l.06428-.04417,4.05657,2.20674-.06428.04417"/></g></g></g><path class="cls-23" d="M57.7296,114.10861a8.70144,8.70144,0,0,1,3.66259-1.47417l1.1374-.15985a1.47891,1.47891,0,0,0-1.13194,1.49877l-.00029.15568c.00929.19673.01826.5636.02345,1.0685l-.03339.00469a6.25306,6.25306,0,0,0-2.56451,1.026,11.22643,11.22643,0,0,0-2.07773,1.86515,15.07727,15.07727,0,0,0-1.88485,2.67258,1.39638,1.39638,0,0,1-1.02433.77655,1.024,1.024,0,0,1-.60465-.09431,1.244,1.244,0,0,1-.40535-1.70624,16.18571,16.18571,0,0,1,1.29315-2.04017A15.29785,15.29785,0,0,1,57.7296,114.10861Z"/></g><g class="cls-2"><polygon class="cls-36" points="142.848 71.241 138.791 69.034 136.915 66.178 140.971 68.384 142.848 71.241"/><g class="cls-2"><g class="cls-37"><g class="cls-2"><path class="cls-7" d="M140.97128,68.38436l-4.05657-2.20674c-.50318-.73315-.92635-1.443-1.38134-2.20879l4.05657,2.20674c.455.76584.87817,1.47565,1.38134,2.20879"/></g></g></g><polygon class="cls-38" points="142.874 57.382 138.817 55.175 141.34 54.82 145.397 57.027 142.874 57.382"/><g class="cls-2"><g class="cls-39"><g class="cls-2"><path class="cls-8" d="M139.78788,63.05333l-4.05657-2.20674c.42614-.88968.852-1.667,1.27794-2.47016l4.05657,2.20674c-.426.80321-.8518,1.58048-1.27794,2.47016"/></g></g></g><polygon class="cls-40" points="141.066 60.583 137.009 58.376 138.817 55.175 142.874 57.382 141.066 60.583"/><polygon class="cls-38" points="139.708 63.065 135.651 60.858 135.731 60.847 139.788 63.053 139.708 63.065"/><polygon class="cls-11" points="133.748 72.52 129.692 70.313 134.263 62.6 138.319 64.807 133.748 72.52"/><polygon class="cls-36" points="138.319 64.807 134.263 62.6 129.926 56.425 133.982 58.631 138.319 64.807"/><polygon class="cls-38" points="133.982 58.631 129.926 56.425 132.529 56.059 136.585 58.265 133.982 58.631"/><path class="cls-23" d="M145.39692,57.027l-4.39412,7.31636,4.49659,6.525-2.65145.37264-1.87664-2.8566c-.50318-.73315-.92635-1.443-1.38134-2.20879l-.04813.00676c-.426.88966-.876,1.69626-1.35822,2.59381l-1.86423,3.38234-2.57127.36137,4.571-7.71291-4.337-6.17571,2.60332-.36587,1.82085,2.7175c.47921.71057.87836,1.37191,1.30153,2.08171l.08007-.01125c.42614-.88968.852-1.667,1.27794-2.47016l1.80784-3.20155Z"/></g><g class="cls-2"><polygon class="cls-41" points="129.607 73.102 125.55 70.895 125.45 68.506 129.507 70.713 129.607 73.102"/><polygon class="cls-42" points="129.273 67.34 125.216 65.133 125.221 62.721 129.277 64.928 129.273 67.34"/><g class="cls-2"><g class="cls-43"><g class="cls-2"><path class="cls-7" d="M129.27739,64.92809l-4.05657-2.20674a4.52365,4.52365,0,0,0-.10207-1.0403l4.05657,2.20674a4.52365,4.52365,0,0,1,.10207,1.0403"/></g></g></g><g class="cls-2"><g class="cls-44"><g class="cls-2"><path class="cls-12" d="M123.81981,71.62938l-4.05657-2.20674q.04933.02684.09995.05165l4.05657,2.20674q-.05062-.02481-.09995-.05165"/><path class="cls-13" d="M123.91976,71.681l-4.05657-2.20674a2.69377,2.69377,0,0,0,.51675.19018l4.05657,2.20674a2.69377,2.69377,0,0,1-.51675-.19018"/><path class="cls-14" d="M124.4365,71.87121l-4.05657-2.20674a3.32265,3.32265,0,0,0,1.29622.055,3.58929,3.58929,0,0,0,1.02659-.30872l4.05657,2.20674a3.58929,3.58929,0,0,1-1.02659.30872,3.32265,3.32265,0,0,1-1.29622-.055"/><path class="cls-13" d="M126.75932,71.61745l-4.05657-2.20674a3.92108,3.92108,0,0,0,.56218-.32418l4.05657,2.20674a3.92109,3.92109,0,0,1-.56218.32418"/><path class="cls-12" d="M127.32149,71.29328l-4.05657-2.20674a4.15013,4.15013,0,0,0,.41537-.32868l4.05657,2.20674a4.15013,4.15013,0,0,1-.41537.32868"/><path class="cls-11" d="M127.73686,70.9646l-4.05657-2.20674a4.33729,4.33729,0,0,0,.34958-.35314l4.05657,2.20674a4.33728,4.33728,0,0,1-.34958.35314"/><path class="cls-10" d="M128.08644,70.61147l-4.05657-2.20674a4.50825,4.50825,0,0,0,.31156-.39554l4.05657,2.20674a4.50825,4.50825,0,0,1-.31156.39554"/><path class="cls-9" d="M128.398,70.21593l-4.05657-2.20674a4.6826,4.6826,0,0,0,.2904-.47141l4.05657,2.20674a4.6826,4.6826,0,0,1-.2904.47141"/><path class="cls-8" d="M128.6884,69.74452l-4.05657-2.20674a4.89426,4.89426,0,0,0,.28425-.6335l4.05657,2.20674a4.89424,4.89424,0,0,1-.28425.6335"/><path class="cls-7" d="M128.97264,69.111l-4.05657-2.20674a5.16052,5.16052,0,0,0,.19421-.66682,4.92366,4.92366,0,0,0,.10605-1.104l4.05657,2.20674a4.92367,4.92367,0,0,1-.10605,1.104,5.16052,5.16052,0,0,1-.19421.66682"/></g></g></g><polygon class="cls-38" points="129.229 61.106 125.172 58.899 125.228 58.891 129.285 61.098 129.229 61.106"/><g class="cls-2"><g class="cls-45"><g class="cls-2"><path class="cls-7" d="M129.17532,63.8878l-4.05657-2.20674a3.15565,3.15565,0,0,0-1.52307-2.14257l4.05657,2.20674a3.15565,3.15565,0,0,1,1.52307,2.14257"/></g></g></g><polygon class="cls-38" points="129.3 52.815 125.243 50.608 127.574 50.281 131.631 52.488 129.3 52.815"/><polygon class="cls-42" points="129.285 61.098 125.228 58.891 125.243 50.608 129.3 52.815 129.285 61.098"/><g class="cls-2"><g class="cls-46"><g class="cls-2"><path class="cls-7" d="M122.33439,73.60083l-4.05657-2.20674c-1.66269-.90449-2.74962-2.96941-2.74434-5.81595a10.37235,10.37235,0,0,1,.605-3.62926l4.05657,2.20674a10.37235,10.37235,0,0,0-.605,3.62926c-.00529,2.84654,1.08165,4.91146,2.74434,5.81595"/><path class="cls-8" d="M120.19507,64.15562l-4.05657-2.20674a8.67936,8.67936,0,0,1,.50375-1.12395l4.05657,2.20674a8.67936,8.67936,0,0,0-.50375,1.12395"/><path class="cls-9" d="M120.69882,63.03167l-4.05657-2.20674a7.983,7.983,0,0,1,.49265-.80056l4.05657,2.20674a7.983,7.983,0,0,0-.49265.80056"/><path class="cls-10" d="M121.19147,62.23112l-4.05657-2.20674a7.43415,7.43415,0,0,1,.515-.65443l4.05657,2.20674a7.43415,7.43415,0,0,0-.515.65443"/><path class="cls-11" d="M121.70644,61.57669,117.64987,59.37a6.94855,6.94855,0,0,1,.56-.566l4.05657,2.20674a6.94855,6.94855,0,0,0-.56.566"/><path class="cls-12" d="M122.26646,61.01067l-4.05657-2.20674a6.48986,6.48986,0,0,1,.65351-.517L122.92,60.49371a6.48987,6.48987,0,0,0-.65351.517"/><path class="cls-13" d="M122.92,60.49371,118.86339,58.287a6.02661,6.02661,0,0,1,.86562-.49838l4.05657,2.20674a6.02662,6.02662,0,0,0-.86562.49838"/><path class="cls-14" d="M123.78559,59.99533,119.729,57.7886a5.52536,5.52536,0,0,1,1.57778-.47271,4.6868,4.6868,0,0,1,1.83546.07868l4.05657,2.20674a4.6868,4.6868,0,0,0-1.83546-.07868,5.52536,5.52536,0,0,0-1.57778.47271"/><path class="cls-13" d="M127.19883,59.60131l-4.05657-2.20674a3.60626,3.60626,0,0,1,.68668.25318l4.05657,2.20674a3.60626,3.60626,0,0,0-.68668-.25318"/><path class="cls-12" d="M127.88551,59.85449l-4.05657-2.20674q.06315.031.124.06417l4.05657,2.20674q-.06087-.03311-.124-.06417"/></g></g></g><path class="cls-23" d="M131.5999,69.24329c-.0023,1.23633.02713,2.63242.10545,3.56356l-2.09877.295-.09968-2.3889-.056.00787a5.64531,5.64531,0,0,1-4.3867,3.33927c-3.10012.43569-5.482-2.06469-5.47415-6.27517-.02345-4.61245,2.64128-7.82208,5.77331-8.26226a3.61109,3.61109,0,0,1,3.86515,1.58311l.056-.00787.01538-8.28268,2.33114-.32762Zm-2.327-1.90308.00448-2.41212a4.52365,4.52365,0,0,0-.10207-1.0403,2.95026,2.95026,0,0,0-3.367-2.44832c-2.41915.34-3.85723,2.83275-3.86291,5.89331-.00522,2.80988,1.27211,4.94688,3.78734,4.59339a4.30538,4.30538,0,0,0,3.43413-3.482,4.92367,4.92367,0,0,0,.10605-1.104"/></g><g class="cls-2"><g class="cls-2"><g class="cls-47"><g class="cls-2"><path class="cls-13" d="M105.13024,78.988l-4.05657-2.20674q.43679-.24644.849-.53166l4.05657,2.20674q-.41189.28471-.849.53166"/><path class="cls-12" d="M105.97922,78.45633l-4.05657-2.20674a11.43057,11.43057,0,0,0,1.14737-.9078l4.05657,2.20674a11.43057,11.43057,0,0,1-1.14737.9078"/><path class="cls-11" d="M107.12658,77.54853,103.07,75.34179a11.90157,11.90157,0,0,0,.95781-.96763l4.05657,2.20674a11.90159,11.90159,0,0,1-.95781.96763"/><path class="cls-10" d="M108.08439,76.5809l-4.05657-2.20674a12.25274,12.25274,0,0,0,.84715-1.07532l4.05657,2.20674a12.25274,12.25274,0,0,1-.84715,1.07532"/><path class="cls-9" d="M108.93155,75.50558,104.875,73.29885a12.44832,12.44832,0,0,0,.77194-1.25248l4.05657,2.20674a12.44833,12.44833,0,0,1-.77194,1.25248"/><path class="cls-8" d="M109.70349,74.25311l-4.05657-2.20674a12.42263,12.42263,0,0,0,.7208-1.60288l4.05657,2.20674a12.42263,12.42263,0,0,1-.7208,1.60288"/><path class="cls-7" d="M110.42429,72.65023l-4.05657-2.20674a11.77575,11.77575,0,0,0,.73145-4.02571l4.05657,2.20674a11.77575,11.77575,0,0,1-.73145,4.02571"/></g></g></g><polygon class="cls-48" points="104.962 79.081 100.905 76.874 101.074 76.781 105.13 78.988 104.962 79.081"/><g class="cls-2"><g class="cls-49"><g class="cls-2"><path class="cls-7" d="M104.75515,81.38343l-4.05657-2.20674a1.03342,1.03342,0,0,1-.46916-.54807,1.36722,1.36722,0,0,1,.0103-.95633l4.05657,2.20674a1.36723,1.36723,0,0,0-.0103.95633,1.03342,1.03342,0,0,0,.46916.54807"/><path class="cls-8" d="M104.29628,79.879l-4.05657-2.20674a1.57014,1.57014,0,0,1,.09133-.20314l4.05657,2.20674a1.57012,1.57012,0,0,0-.09133.20314"/><path class="cls-9" d="M104.38761,79.6759,100.331,77.46916a1.5693,1.5693,0,0,1,.09709-.15755l4.05657,2.20674a1.56932,1.56932,0,0,0-.09709.15755"/><path class="cls-10" d="M104.4847,79.51835l-4.05657-2.20674a1.54009,1.54009,0,0,1,.1066-.13534L104.5913,79.383a1.5401,1.5401,0,0,0-.1066.13534"/><path class="cls-11" d="M104.5913,79.383l-4.05657-2.20674a1.49443,1.49443,0,0,1,.1203-.12153l4.05657,2.20674a1.49445,1.49445,0,0,0-.1203.12153"/><path class="cls-12" d="M104.7116,79.26148,100.655,77.05474a1.43938,1.43938,0,0,1,.14453-.11434l4.05657,2.20674a1.43938,1.43938,0,0,0-.14453.11434"/><path class="cls-13" d="M104.85613,79.14714l-4.05657-2.20674q.05122-.03541.10579-.06635l4.05657,2.20674q-.05454.03088-.10579.06635"/></g></g></g><g class="cls-2"><g class="cls-50"><g class="cls-2"><path class="cls-14" d="M118.02019,34.53734l-4.05657-2.20674a1.05232,1.05232,0,0,1,.41039.02188l4.05657,2.20674a1.05232,1.05232,0,0,0-.41039-.02188"/><path class="cls-13" d="M118.43058,34.55922,114.374,32.35248a.99189.99189,0,0,1,.18939.0701L118.62,34.62931a.9919.9919,0,0,0-.18939-.0701"/><path class="cls-12" d="M118.62,34.62931l-4.05657-2.20674.03613.01869,4.05657,2.20674-.03613-.01869"/></g></g></g><g class="cls-2"><g class="cls-51"><g class="cls-2"><path class="cls-13" d="M117.50528,34.73943l-4.05657-2.20674a1.32744,1.32744,0,0,1,.17428-.09918l4.05657,2.20674a1.32744,1.32744,0,0,0-.17428.09918"/><path class="cls-14" d="M117.67956,34.64025,113.623,32.43351a1.18553,1.18553,0,0,1,.34063-.10291l4.05657,2.20674a1.18553,1.18553,0,0,0-.34063.10291"/></g></g></g><polygon class="cls-42" points="111.156 68.625 107.099 66.418 107.146 41.155 111.203 43.361 111.156 68.625"/><polygon class="cls-52" points="114.955 36.42 110.899 34.214 113.449 32.533 117.505 34.739 114.955 36.42"/><path class="cls-23" d="M118.02019,34.53734a1.00723,1.00723,0,0,1,1.07.57575,1.481,1.481,0,0,1-.56391,1.79069l-2.54983,1.68083a5.44835,5.44835,0,0,0-2.39474,4.44229l-.04692,25.26326a15.21344,15.21344,0,0,1-7.5358,12.96137l-.16842.09283a1.24583,1.24583,0,0,1-.43552.15,1.012,1.012,0,0,1-1.10909-.659,1.48846,1.48846,0,0,1,.67594-1.75457l.16832-.0928a12.15529,12.15529,0,0,0,6.0255-10.36347l.04692-25.26326a8.4822,8.4822,0,0,1,3.75279-6.941l2.54983-1.68083A1.2312,1.2312,0,0,1,118.02019,34.53734Z"/><g class="cls-2"><g class="cls-53"><g class="cls-2"><path class="cls-7" d="M111.20267,43.36126l-4.05657-2.20674a8.1951,8.1951,0,0,1,.51154-2.807l4.05657,2.20674a8.1951,8.1951,0,0,0-.51154,2.807"/><path class="cls-8" d="M111.7142,40.55423l-4.05657-2.20674a8.64545,8.64545,0,0,1,.50048-1.11132l4.05657,2.20674a8.64543,8.64543,0,0,0-.50048,1.11132"/><path class="cls-9" d="M112.21468,39.44291l-4.05657-2.20674a8.65342,8.65342,0,0,1,.53534-.8683L112.75,38.57461a8.65342,8.65342,0,0,0-.53534.8683"/><path class="cls-10" d="M112.75,38.57461l-4.05657-2.20674a8.513,8.513,0,0,1,.58857-.74709l4.05657,2.20674a8.513,8.513,0,0,0-.58857.74709"/><path class="cls-11" d="M113.33859,37.82752,109.282,35.62079a8.273,8.273,0,0,1,.6659-.6727l4.05657,2.20674a8.273,8.273,0,0,0-.6659.6727"/><path class="cls-12" d="M114.00448,37.15482l-4.05657-2.20674a7.96137,7.96137,0,0,1,.79883-.632l4.05657,2.20674a7.96137,7.96137,0,0,0-.79883.632"/><path class="cls-13" d="M114.80332,36.5228l-4.05657-2.20674q.07543-.05215.15213-.10254l4.05657,2.20674q-.0767.05038-.15213.10254"/></g></g></g></g><g class="cls-2"><polygon class="cls-38" points="66.764 75.446 62.707 73.239 62.763 73.231 66.82 75.438 66.764 75.446"/><g class="cls-2"><g class="cls-54"><g class="cls-2"><path class="cls-11" d="M63.33259,81.73643,59.276,79.5297c.09486-.09483.1935-.19968.29445-.314L63.627,81.42243c-.101.11432-.1996.21917-.29445.314"/><path class="cls-10" d="M63.627,81.42243l-4.05657-2.20674a8.74264,8.74264,0,0,0,.59947-.76334l4.05657,2.20674a8.74265,8.74265,0,0,1-.59947.76334"/><path class="cls-9" d="M64.22651,80.65909l-4.05657-2.20674a9.63756,9.63756,0,0,0,.59556-.966l4.05657,2.20674a9.63756,9.63756,0,0,1-.59556.966"/><path class="cls-8" d="M64.82207,79.69313,60.7655,77.48639a9.35682,9.35682,0,0,0,.47823-1.03378c.02623-.06867.05094-.13332.07324-.194l4.05657,2.20674c-.02231.06065-.047.1253-.07324.194a9.35682,9.35682,0,0,1-.47823,1.03378"/><path class="cls-7" d="M65.37355,78.46538,61.317,76.25865a1.433,1.433,0,0,0,.11215-.43714,2.20712,2.20712,0,0,0-.159-.63457l4.05657,2.20674a2.20712,2.20712,0,0,1,.159.63457,1.433,1.433,0,0,1-.11215.43714"/></g></g></g><g class="cls-2"><g class="cls-55"><g class="cls-2"><path class="cls-7" d="M66.81991,75.4378l-4.05657-2.20674c.23383-.86265.50819-1.96438.82242-3.0112l4.05657,2.20674c-.31423,1.04681-.58858,2.14855-.82242,3.0112"/></g></g></g><polygon class="cls-36" points="61.86 85.297 57.804 83.09 57.231 81.053 61.288 83.26 61.86 85.297"/><g class="cls-2"><g class="cls-56"><g class="cls-2"><path class="cls-13" d="M61.28759,83.25986,57.231,81.05313a6.47135,6.47135,0,0,0,.84362-.49876l4.05657,2.20674a6.47135,6.47135,0,0,1-.84362.49876"/><path class="cls-12" d="M62.13121,82.76111l-4.05657-2.20674a7.89262,7.89262,0,0,0,.78651-.62256l4.05657,2.20674a7.89262,7.89262,0,0,1-.78651.62256"/><path class="cls-11" d="M62.91772,82.13855l-4.05657-2.20674c.13971-.12577.27865-.25985.41487-.40211l4.05657,2.20674c-.13622.14226-.27516.27635-.41487.40211"/></g></g></g><polygon class="cls-38" points="70.205 63.933 66.148 61.726 68.615 61.379 72.672 63.586 70.205 63.933"/><polygon class="cls-57" points="67.642 72.427 63.586 70.22 66.148 61.726 70.205 63.933 67.642 72.427"/><path class="cls-23" d="M72.672,63.58607l-3.5189,10.37422C67.47,78.95082,66.328,81.54883,64.73117,83.26a7.379,7.379,0,0,1-2.8707,2.03709l-.57288-2.03718a7.49616,7.49616,0,0,0,2.045-1.52343,9.24936,9.24936,0,0,0,1.96772-3.07708,1.24938,1.24938,0,0,0,.02636-1.26568l-4.72637-12.111,2.54726-.358L65.944,72.72579c.29469.8748.605,1.92029.81981,2.71989l.05606-.00788c.23383-.86265.50819-1.96438.82242-3.0112l2.56237-8.49378Z"/><polygon class="cls-38" points="60.6 65.283 56.544 63.076 59.091 62.718 63.148 64.925 60.6 65.283"/><polygon class="cls-36" points="65.327 77.394 61.27 75.187 56.544 63.076 60.6 65.283 65.327 77.394"/><polygon class="cls-58" points="48.702 81.571 44.645 79.365 48.366 55.02 52.423 57.226 48.702 81.571"/><polygon class="cls-36" points="49.626 88.598 45.569 86.392 39.012 72.507 43.068 74.713 49.626 88.598"/><polygon class="cls-38" points="52.423 57.226 48.366 55.02 76.435 51.075 80.491 53.282 52.423 57.226"/><polygon class="cls-42" points="36.107 75.692 32.051 73.485 32.055 71.306 36.112 73.513 36.107 75.692"/><polygon class="cls-23" points="80.491 53.282 80.487 55.46 54.133 59.164 49.626 88.598 43.068 74.713 36.107 75.692 36.112 73.513 44.346 72.356 48.702 81.571 52.423 57.226 80.491 53.282"/><polygon class="cls-38" points="36.112 73.513 32.055 71.306 40.29 70.149 44.346 72.356 36.112 73.513"/></g><g class="cls-2"><polygon class="cls-36" points="127.02 111.965 122.964 109.758 122.061 108.381 126.118 110.587 127.02 111.965"/><g class="cls-2"><g class="cls-59"><g class="cls-2"><path class="cls-7" d="M126.11767,110.58743l-4.05657-2.20674c-.24754-.35419-.44709-.69781-.66265-1.07377l4.05657,2.20674c.21556.376.41511.71958.66265,1.07377"/></g></g></g><polygon class="cls-38" points="127.033 105.281 122.976 103.075 124.193 102.903 128.25 105.11 127.033 105.281"/><polygon class="cls-38" points="125.506 108.02 121.449 105.813 121.489 105.807 125.546 108.014 125.506 108.02"/><polygon class="cls-40" points="126.157 106.822 122.1 104.615 122.976 103.075 127.033 105.281 126.157 106.822"/><g class="cls-2"><g class="cls-60"><g class="cls-2"><path class="cls-8" d="M125.5459,108.0142l-4.05657-2.20674c.201-.42585.4099-.801.61081-1.19224l4.05657,2.20674c-.20091.39127-.40983.76638-.61081,1.19224"/></g></g></g><polygon class="cls-11" points="122.63 112.582 118.574 110.375 120.783 106.65 124.84 108.857 122.63 112.582"/><polygon class="cls-36" points="124.84 108.857 120.783 106.65 118.69 103.677 122.747 105.884 124.84 108.857"/><polygon class="cls-38" points="122.747 105.884 118.69 103.677 119.948 103.5 124.005 105.707 122.747 105.884"/><path class="cls-23" d="M128.25006,105.1102l-2.12072,3.52212,2.17241,3.15214-1.28162.18012-.90246-1.37715c-.24754-.35419-.44709-.69781-.66265-1.07377l-.03205.0045c-.201.4345-.418.81939-.651,1.2584l-.8999,1.63046-1.24163.1745,2.20919-3.72472-2.09269-2.97318,1.25771-.17676.87847,1.31138c.22356.34025.41512.65907.6227,1.00158l.04009-.00563c.201-.42585.4099-.801.61081-1.19224l.87584-1.54064Z"/></g><g class="cls-2"><g class="cls-2"><g class="cls-61"><g class="cls-2"><path class="cls-12" d="M113.77178,123.34656l-4.05657-2.20674q.0583.03172.118.061l4.05657,2.20674q-.05966-.02924-.118-.061"/><path class="cls-13" d="M113.88976,123.40752l-4.05657-2.20674a3.37482,3.37482,0,0,0,.64744.23708l4.05657,2.20674a3.37482,3.37482,0,0,1-.64744-.23708"/><path class="cls-14" d="M114.5372,123.6446l-4.05657-2.20674a4.67927,4.67927,0,0,0,1.81.07123,9.24036,9.24036,0,0,0,2.73569-.77445l4.05657,2.20674a9.24036,9.24036,0,0,1-2.73569.77445,4.67926,4.67926,0,0,1-1.81-.07123"/><path class="cls-13" d="M119.08292,122.94139l-4.05657-2.20674a9.20559,9.20559,0,0,0,.8222-.443l4.05657,2.20674a9.20552,9.20552,0,0,1-.8222.443"/></g></g></g><g class="cls-2"><g class="cls-62"><g class="cls-2"><path class="cls-7" d="M118.79457,116.75948l-4.05657-2.20674c.02545-1.16825-.30151-2.74965-1.48252-3.3921l4.05657,2.20674c1.181.64246,1.508,2.22385,1.48252,3.3921"/></g></g></g><polygon class="cls-38" points="111.978 117.718 107.921 115.511 114.738 114.553 118.795 116.759 111.978 117.718"/><g class="cls-2"><g class="cls-63"><g class="cls-2"><path class="cls-7" d="M112.38439,125.17953l-4.05657-2.20674c-1.71787-.9345-2.67351-2.90447-2.66856-5.571a10.52655,10.52655,0,0,1,.62064-3.59954l4.05657,2.20674a10.52655,10.52655,0,0,0-.62064,3.59954c-.005,2.66651.95069,4.63648,2.66856,5.571"/><path class="cls-8" d="M110.33646,116.009l-4.05657-2.20674a8.86608,8.86608,0,0,1,.51-1.13878l4.05657,2.20674a8.86607,8.86607,0,0,0-.51,1.13878"/><path class="cls-9" d="M110.84647,114.87023l-4.05657-2.20674a8.03769,8.03769,0,0,1,.50022-.81342l4.05657,2.20674a8.03768,8.03768,0,0,0-.50022.81342"/><path class="cls-10" d="M111.34669,114.05681l-4.05657-2.20674a7.4062,7.4062,0,0,1,.51055-.64878l4.05657,2.20674a7.40618,7.40618,0,0,0-.51055.64878"/><path class="cls-11" d="M111.85725,113.408l-4.05657-2.20674a6.90423,6.90423,0,0,1,.55683-.56294l4.05657,2.20674a6.90423,6.90423,0,0,0-.55683.56294"/><path class="cls-12" d="M112.41407,112.84509l-4.05657-2.20674a6.505,6.505,0,0,1,.656-.51881l4.05657,2.20674a6.505,6.505,0,0,0-.656.51881"/><path class="cls-13" d="M113.07008,112.32629l-4.05657-2.20674a6.22137,6.22137,0,0,1,.896-.515l4.05657,2.20674a6.22139,6.22139,0,0,0-.896.515"/><path class="cls-14" d="M113.96611,111.81133l-4.05657-2.20674a6.24627,6.24627,0,0,1,1.78747-.52806,5.05362,5.05362,0,0,1,1.96148.0736l4.05657,2.20674a5.05361,5.05361,0,0,0-1.96148-.0736,6.24627,6.24627,0,0,0-1.78747.52806"/><path class="cls-13" d="M117.71506,111.35687l-4.05657-2.20674a3.77859,3.77859,0,0,1,.73367.26882l4.05657,2.20674a3.77859,3.77859,0,0,0-.73367-.26882"/><path class="cls-12" d="M118.44873,111.62569l-4.05657-2.20674q.069.03386.13581.07022l4.05657,2.20674q-.0668-.03634-.13581-.07022"/></g></g></g><path class="cls-23" d="M121.0523,117.07317a10.96119,10.96119,0,0,1-.08223,1.17845l-9.01972,1.26764c.0417,3.40843,2.0578,4.52531,4.39688,4.19657a8.78409,8.78409,0,0,0,3.55789-1.21742l.38914,1.75178a10.90976,10.90976,0,0,1-4.27125,1.456c-3.957.55612-6.315-1.91306-6.30719-6.09767s2.29687-7.79954,6.03775-8.32528C119.951,110.69336,121.057,114.52266,121.0523,117.07317Zm-2.25773-.31369c.03513-1.61263-.60124-4.0125-3.22856-3.64326-2.363.3321-3.40079,2.829-3.58836,4.60131l6.81692-.95806"/></g></svg>