<svg id="Layer_1" data-name="Layer 1" xmlns="http://www.w3.org/2000/svg" xmlns:xlink="http://www.w3.org/1999/xlink" viewBox="0 0 432 432"><defs><style>.cls-1{fill:none;}.cls-2{fill:#fff;}.cls-3{isolation:isolate;}.cls-4{fill:#783906;}.cls-5{fill:#9d4b08;}.cls-6{fill:#a54f08;}.cls-7{clip-path:url(#clip-path);}.cls-8{fill:#944707;}.cls-9{fill:#994908;}.cls-10{fill:#9e4b08;}.cls-11{fill:#8f4407;}.cls-12{fill:#8b4207;}.cls-13{fill:#864007;}.cls-14{fill:#813e06;}.cls-15{clip-path:url(#clip-path-2);}.cls-16{fill:#7c3b06;}.cls-17{fill:#a95109;}.cls-18{clip-path:url(#clip-path-3);}.cls-19{clip-path:url(#clip-path-4);}.cls-20{clip-path:url(#clip-path-5);}.cls-21{clip-path:url(#clip-path-6);}.cls-22{fill:#a74f08;}.cls-23{clip-path:url(#clip-path-7);}.cls-24{clip-path:url(#clip-path-8);}.cls-25{clip-path:url(#clip-path-9);}.cls-26{fill:#7e3c06;}.cls-27{fill:#9c4b08;}.cls-28{clip-path:url(#clip-path-10);}.cls-29{clip-path:url(#clip-path-11);}.cls-30{clip-path:url(#clip-path-12);}.cls-31{clip-path:url(#clip-path-13);}.cls-32{fill:#853f07;}.cls-33{clip-path:url(#clip-path-14);}.cls-34{clip-path:url(#clip-path-15);}.cls-35{fill:#954707;}.cls-36{clip-path:url(#clip-path-16);}.cls-37{clip-path:url(#clip-path-17);}.cls-38{fill:#924607;}.cls-39{clip-path:url(#clip-path-18);}.cls-40{clip-path:url(#clip-path-19);}.cls-41{clip-path:url(#clip-path-20);}.cls-42{fill:#a24d08;}.cls-43{clip-path:url(#clip-path-21);}.cls-44{clip-path:url(#clip-path-22);}.cls-45{clip-path:url(#clip-path-23);}.cls-46{fill:#9b4a08;}.cls-47{clip-path:url(#clip-path-24);}.cls-48{clip-path:url(#clip-path-25);}.cls-49{fill:#7d3c06;}.cls-50{fill:#a95108;}.cls-51{clip-path:url(#clip-path-26);}.cls-52{clip-path:url(#clip-path-27);}.cls-53{clip-path:url(#clip-path-28);}.cls-54{clip-path:url(#clip-path-29);}.cls-55{fill:#a64f08;}.cls-56{clip-path:url(#clip-path-30);}.cls-57{fill:#793a06;}.cls-58{fill:#a85008;}.cls-59{clip-path:url(#clip-path-31);}.cls-60{clip-path:url(#clip-path-32);}.cls-61{fill:#7a3a06;}.cls-62{clip-path:url(#clip-path-33);}.cls-63{clip-path:url(#clip-path-34);}.cls-64{fill:#823e07;}.cls-65{fill:#974808;}.cls-66{fill:#9f4c08;}.cls-67{fill:#d1640a;}.cls-68{fill:#8c4307;}.cls-69{fill:gray;}.cls-70{fill:#a8a8a8;}.cls-71{fill:#b0b0b0;}.cls-72{clip-path:url(#clip-path-35);}.cls-73{fill:#9e9e9e;}.cls-74{fill:#a3a3a3;}.cls-75{fill:#999;}.cls-76{fill:#949494;}.cls-77{fill:#8f8f8f;}.cls-78{fill:#8a8a8a;}.cls-79{clip-path:url(#clip-path-36);}.cls-80{fill:#858585;}.cls-81{fill:#b5b5b5;}.cls-82{clip-path:url(#clip-path-37);}.cls-83{clip-path:url(#clip-path-38);}.cls-84{clip-path:url(#clip-path-39);}.cls-85{clip-path:url(#clip-path-40);}.cls-86{fill:#b2b2b2;}.cls-87{clip-path:url(#clip-path-41);}.cls-88{clip-path:url(#clip-path-42);}.cls-89{clip-path:url(#clip-path-43);}.cls-90{fill:#868686;}.cls-91{fill:#a7a7a7;}.cls-92{clip-path:url(#clip-path-44);}.cls-93{clip-path:url(#clip-path-45);}.cls-94{clip-path:url(#clip-path-46);}.cls-95{clip-path:url(#clip-path-47);}.cls-96{fill:#8e8e8e;}.cls-97{clip-path:url(#clip-path-48);}.cls-98{clip-path:url(#clip-path-49);}.cls-99{fill:#9f9f9f;}.cls-100{clip-path:url(#clip-path-50);}.cls-101{clip-path:url(#clip-path-51);}.cls-102{fill:#9c9c9c;}.cls-103{clip-path:url(#clip-path-52);}.cls-104{clip-path:url(#clip-path-53);}.cls-105{clip-path:url(#clip-path-54);}.cls-106{fill:#adadad;}.cls-107{clip-path:url(#clip-path-55);}.cls-108{clip-path:url(#clip-path-56);}.cls-109{clip-path:url(#clip-path-57);}.cls-110{fill:#a5a5a5;}.cls-111{clip-path:url(#clip-path-58);}.cls-112{clip-path:url(#clip-path-59);}.cls-113{fill:#b4b4b4;}.cls-114{clip-path:url(#clip-path-60);}.cls-115{clip-path:url(#clip-path-61);}.cls-116{clip-path:url(#clip-path-62);}.cls-117{clip-path:url(#clip-path-63);}.cls-118{fill:#b1b1b1;}.cls-119{clip-path:url(#clip-path-64);}.cls-120{fill:#b3b3b3;}.cls-121{fill:#818181;}.cls-122{clip-path:url(#clip-path-65);}.cls-123{clip-path:url(#clip-path-66);}.cls-124{fill:#828282;}.cls-125{clip-path:url(#clip-path-67);}.cls-126{clip-path:url(#clip-path-68);}.cls-127{fill:#acacac;}.cls-128{fill:#a2a2a2;}.cls-129{fill:#a9a9a9;}.cls-130{fill:#dfdfdf;}.cls-131{fill:#969696;}</style><clipPath id="clip-path"><path class="cls-1" d="M274.528,259.26194l-4.55866-2.47985q.07512.04084.15276.07848a3.76183,3.76183,0,0,0,2.1813.32677,5.2,5.2,0,0,0,3.80576-2.89692l4.55865,2.47986a5.2,5.2,0,0,1-3.80576,2.89692,3.76183,3.76183,0,0,1-2.1813-.32677Q274.60309,259.30281,274.528,259.26194Z"/></clipPath><clipPath id="clip-path-2"><path class="cls-1" d="M274.67231,248.13587l4.55864,2.47987c1.9694,1.07132,2.62042,3.77994,1.43685,6.15454l-4.55865-2.47986C277.29272,251.91581,276.64169,249.20719,274.67231,248.13587Z"/></clipPath><clipPath id="clip-path-3"><path class="cls-1" d="M263.22924,262.06785l4.55864,2.47987a3.70751,3.70751,0,0,1,1.4429,1.42775,5.35263,5.35263,0,0,1-1.61406,6.67494l-4.55865-2.47986a5.35263,5.35263,0,0,0,1.61406-6.67494A3.7076,3.7076,0,0,0,263.22924,262.06785Z"/></clipPath><clipPath id="clip-path-4"><path class="cls-1" d="M263.07853,273.18941l-4.55866-2.47985a3.78192,3.78192,0,0,0,2.34592.40429,4.71242,4.71242,0,0,0,2.19227-.94331l4.55865,2.47986a4.71242,4.71242,0,0,1-2.19227.94331A3.78182,3.78182,0,0,1,263.07853,273.18941Z"/></clipPath><clipPath id="clip-path-5"><path class="cls-1" d="M278.74483,241.83345l-4.55866-2.47986a3.745,3.745,0,0,0,2.33438.401l4.55865,2.47986A3.74491,3.74491,0,0,1,278.74483,241.83345Z"/></clipPath><clipPath id="clip-path-6"><path class="cls-1" d="M278.87929,230.70732l4.55864,2.47987a4.09068,4.09068,0,0,1,2.03173,3.70213,5.44044,5.44044,0,0,1-4.39047,5.34508l-4.55865-2.47986a5.44044,5.44044,0,0,0,4.39047-5.34508A4.09071,4.09071,0,0,0,278.87929,230.70732Z"/></clipPath><clipPath id="clip-path-7"><path class="cls-1" d="M247.47619,279.90136l-4.55865-2.47985a3.75431,3.75431,0,0,0,2.33978.40237l4.55865,2.47986A3.75426,3.75426,0,0,1,247.47619,279.90136Z"/></clipPath><clipPath id="clip-path-8"><path class="cls-1" d="M247.60922,268.76619l4.55865,2.47987a4.09984,4.09984,0,0,1,2.03062,3.71362,5.43241,5.43241,0,0,1-4.38252,5.34405l-4.55865-2.47986a5.43241,5.43241,0,0,0,4.38252-5.34405A4.09986,4.09986,0,0,0,247.60922,268.76619Z"/></clipPath><clipPath id="clip-path-9"><path class="cls-1" d="M274.58681,225.57926l-4.55866-2.47985a3.78192,3.78192,0,0,0,2.34592.4043,4.713,4.713,0,0,0,2.19235-.94332,5.3528,5.3528,0,0,0,1.61406-6.67494,3.707,3.707,0,0,0-1.44253-1.42734l4.55864,2.47987a3.70685,3.70685,0,0,1,1.44254,1.42733,5.3528,5.3528,0,0,1-1.61406,6.67494,4.713,4.713,0,0,1-2.19235.94332A3.78179,3.78179,0,0,1,274.58681,225.57926Z"/></clipPath><clipPath id="clip-path-10"><path class="cls-1" d="M232.02461,266.45966l4.55865,2.47987c1.97172,1.07259,2.61247,3.77884,1.43014,6.14263l-4.55865-2.47986C234.63708,270.23851,233.99632,267.53226,232.02461,266.45966Z"/></clipPath><clipPath id="clip-path-11"><path class="cls-1" d="M231.87448,277.56917l-4.55867-2.47985q.0786.04272.16.082a3.77145,3.77145,0,0,0,2.1861.328,5.165,5.165,0,0,0,3.79285-2.897l4.55865,2.47986a5.165,5.165,0,0,1-3.79285,2.897,3.77145,3.77145,0,0,1-2.1861-.328Q231.95307,277.61194,231.87448,277.56917Z"/></clipPath><clipPath id="clip-path-12"><path class="cls-1" d="M241.48879,257.44918l-4.55866-2.47986a13.50308,13.50308,0,0,0,8.415,1.44926l4.55865,2.47986A13.50305,13.50305,0,0,1,241.48879,257.44918Z"/></clipPath><clipPath id="clip-path-13"><path class="cls-1" d="M253.816,223.82858l4.55865,2.47987c4.40914,2.39852,7.33652,7.30556,7.3253,13.35067-.01744,9.38948-7.1048,18.01784-15.79613,19.23933l-4.55865-2.47986c8.69133-1.22149,15.77869-9.84985,15.79613-19.23933C261.15253,231.13414,258.22514,226.2271,253.816,223.82858Z"/></clipPath><clipPath id="clip-path-14"><path class="cls-1" d="M263.33484,203.73647l4.55865,2.47987c1.96948,1.07137,2.62051,3.77971,1.43687,6.146l-4.55865-2.47986C265.95535,207.51619,265.30431,204.80785,263.33484,203.73647Z"/></clipPath><clipPath id="clip-path-15"><path class="cls-1" d="M263.19,214.85367l-4.55866-2.47986q.0754.041.15334.07878a3.79015,3.79015,0,0,0,2.19.32742,5.17878,5.17878,0,0,0,3.797-2.89756l4.55865,2.47986a5.17878,5.17878,0,0,1-3.797,2.89756,3.79015,3.79015,0,0,1-2.19-.32742Q263.26544,214.89469,263.19,214.85367Z"/></clipPath><clipPath id="clip-path-16"><path class="cls-1" d="M223.53385,288.26736l-4.55867-2.47985a38.29256,38.29256,0,0,1-4.78284-3.27789l4.55864,2.47987A38.29273,38.29273,0,0,0,223.53385,288.26736Z"/></clipPath><clipPath id="clip-path-17"><path class="cls-1" d="M265.66172,191.26017l-4.55866-2.47985a38.907,38.907,0,0,1,5.40248,1.68684l4.55864,2.47987A38.90683,38.90683,0,0,0,265.66172,191.26017Z"/></clipPath><clipPath id="clip-path-18"><path class="cls-1" d="M220.62985,255.73386l4.55865,2.47987a3.71311,3.71311,0,0,1,1.44178,1.423,5.36429,5.36429,0,0,1-1.61416,6.68362l-4.55865-2.47986a5.36429,5.36429,0,0,0,1.61416-6.68362A3.71317,3.71317,0,0,0,220.62985,255.73386Z"/></clipPath><clipPath id="clip-path-19"><path class="cls-1" d="M220.47725,266.85514l-4.55865-2.47985a3.79193,3.79193,0,0,0,2.35173.4059,4.70021,4.70021,0,0,0,2.18713-.94071l4.55865,2.47986a4.70021,4.70021,0,0,1-2.18713.94071A3.79185,3.79185,0,0,1,220.47725,266.85514Z"/></clipPath><clipPath id="clip-path-20"><path class="cls-1" d="M247.60129,212.54129l-4.55866-2.47985a3.75442,3.75442,0,0,0,2.33981.40237,5.43239,5.43239,0,0,0,4.38252-5.344,4.08786,4.08786,0,0,0-2.02555-3.70479l4.55864,2.47987a4.08781,4.08781,0,0,1,2.02556,3.70478,5.43239,5.43239,0,0,1-4.38252,5.344A3.75428,3.75428,0,0,1,247.60129,212.54129Z"/></clipPath><clipPath id="clip-path-21"><path class="cls-1" d="M214.0103,280.53871l-4.55866-2.47986A42.06442,42.06442,0,0,1,206.088,273.838l4.55864,2.47988A42.06541,42.06541,0,0,0,214.0103,280.53871Z"/></clipPath><clipPath id="clip-path-22"><path class="cls-1" d="M253.531,190.25956l-4.55866-2.47985a42.985,42.985,0,0,1,5.58976.00961l4.55864,2.47988A42.98477,42.98477,0,0,0,253.531,190.25956Z"/></clipPath><clipPath id="clip-path-23"><path class="cls-1" d="M216.3389,250.60385l-4.55865-2.47985a3.74049,3.74049,0,0,0,2.331.4016,5.44046,5.44046,0,0,0,4.39055-5.34509,4.09068,4.09068,0,0,0-2.03171-3.70212l4.55864,2.47987a4.09065,4.09065,0,0,1,2.03172,3.70211,5.44046,5.44046,0,0,1-4.39055,5.34509A3.74043,3.74043,0,0,1,216.3389,250.60385Z"/></clipPath><clipPath id="clip-path-24"><path class="cls-1" d="M231.98673,219.241l-4.55866-2.47985a3.77754,3.77754,0,0,0,2.343.40423,4.68821,4.68821,0,0,0,2.18672-.94253,5.34787,5.34787,0,0,0,1.6221-6.67616,3.70424,3.70424,0,0,0-1.44174-1.42581l4.55865,2.47987a3.70417,3.70417,0,0,1,1.44175,1.4258,5.34787,5.34787,0,0,1-1.6221,6.67616,4.68821,4.68821,0,0,1-2.18672.94253A3.77744,3.77744,0,0,1,231.98673,219.241Z"/></clipPath><clipPath id="clip-path-25"><path class="cls-1" d="M207.27783,270.55926l-4.55866-2.47985a47.51188,47.51188,0,0,1-2.31975-5.7331l4.55864,2.47987A47.51247,47.51247,0,0,0,207.27783,270.55926Z"/></clipPath><clipPath id="clip-path-26"><path class="cls-1" d="M220.68855,222.05593l4.55865,2.47986c1.9694,1.07133,2.6204,3.77971,1.43686,6.14592l-4.55865-2.47986C223.30895,225.83564,222.658,223.12727,220.68855,222.05593Z"/></clipPath><clipPath id="clip-path-27"><path class="cls-1" d="M220.54366,233.173l-4.55865-2.47986q.07539.041.15334.07879a3.78024,3.78024,0,0,0,2.18486.32627,5.19407,5.19407,0,0,0,3.8022-2.89633l4.55865,2.47986a5.19407,5.19407,0,0,1-3.8022,2.89633,3.78024,3.78024,0,0,1-2.18486-.32627Q220.619,233.214,220.54366,233.173Z"/></clipPath><clipPath id="clip-path-28"><path class="cls-1" d="M241.3938,192.67415l-4.55866-2.47986a45.77618,45.77618,0,0,1,5.36839-1.48055l4.55865,2.47988A45.77416,45.77416,0,0,0,241.3938,192.67415Z"/></clipPath><clipPath id="clip-path-29"><path class="cls-1" d="M203.25676,258.08988,198.6981,255.61a52.31537,52.31537,0,0,1-.70195-5.8136l4.55864,2.47987A52.31462,52.31462,0,0,0,203.25676,258.08988Z"/></clipPath><clipPath id="clip-path-30"><path class="cls-1" d="M229.30618,198.62562l-4.55866-2.47985a54.419,54.419,0,0,1,5.54773-3.20858l4.55865,2.47986A54.42031,54.42031,0,0,0,229.30618,198.62562Z"/></clipPath><clipPath id="clip-path-31"><path class="cls-1" d="M202.5442,245.06029l-4.55866-2.47986a59.03439,59.03439,0,0,1,.80511-6.62174l4.55865,2.47987A59.03408,59.03408,0,0,0,202.5442,245.06029Z"/></clipPath><clipPath id="clip-path-32"><path class="cls-1" d="M219.11959,207.266l-4.55866-2.47986a59.57939,59.57939,0,0,1,4.35631-4.19933l4.55864,2.47988A59.57893,59.57893,0,0,0,219.11959,207.266Z"/></clipPath><clipPath id="clip-path-33"><path class="cls-1" d="M205.12452,231.23092l-4.55866-2.47985a60.63792,60.63792,0,0,1,2.125-5.796l4.55864,2.47987A60.64,60.64,0,0,0,205.12452,231.23092Z"/></clipPath><clipPath id="clip-path-34"><path class="cls-1" d="M210.60951,218.70472l-4.55866-2.47985a62.6025,62.6025,0,0,1,3.71839-5.67419l4.55865,2.47987A62.5995,62.5995,0,0,0,210.60951,218.70472Z"/></clipPath><clipPath id="clip-path-35"><path class="cls-1" d="M197.67625,198.08546l-4.55867-2.47985q.063.03425.1281.06586a3.20641,3.20641,0,0,0,1.8534.277,4.378,4.378,0,0,0,3.2119-2.4497l4.55865,2.47986a4.378,4.378,0,0,1-3.2119,2.4497,3.20641,3.20641,0,0,1-1.8534-.277Q197.73923,198.11974,197.67625,198.08546Z"/></clipPath><clipPath id="clip-path-36"><path class="cls-1" d="M197.09566,188.28212l4.55865,2.47988a3.87612,3.87612,0,0,1,1.21533,5.21665l-4.55865-2.47986A3.87615,3.87615,0,0,0,197.09566,188.28212Z"/></clipPath><clipPath id="clip-path-37"><path class="cls-1" d="M187.41042,200.08666l4.55865,2.47987a3.14378,3.14378,0,0,1,1.22005,1.2035,4.53794,4.53794,0,0,1-1.37191,5.66423l-4.55865-2.47986a4.53794,4.53794,0,0,0,1.37191-5.66423A3.14386,3.14386,0,0,0,187.41042,200.08666Z"/></clipPath><clipPath id="clip-path-38"><path class="cls-1" d="M187.98278,209.88806l-4.55865-2.47986a3.2023,3.2023,0,0,0,1.9861.34321,3.95951,3.95951,0,0,0,1.84833-.797l4.55865,2.47986a3.95951,3.95951,0,0,1-1.84833.797A3.20225,3.20225,0,0,1,187.98278,209.88806Z"/></clipPath><clipPath id="clip-path-39"><path class="cls-1" d="M201.24576,183.32254l-4.55866-2.47986a3.1817,3.1817,0,0,0,1.98311.34029l4.55865,2.47986A3.18166,3.18166,0,0,1,201.24576,183.32254Z"/></clipPath><clipPath id="clip-path-40"><path class="cls-1" d="M200.66643,173.52686l4.55864,2.47987a3.46045,3.46045,0,0,1,1.7201,3.13177,4.60662,4.60662,0,0,1-3.7163,4.52433l-4.55865-2.47986a4.60662,4.60662,0,0,0,3.7163-4.52433A3.46049,3.46049,0,0,0,200.66643,173.52686Z"/></clipPath><clipPath id="clip-path-41"><path class="cls-1" d="M174.75832,215.569l-4.55866-2.47985a3.18183,3.18183,0,0,0,1.98315.34028l4.55865,2.47986A3.18172,3.18172,0,0,1,174.75832,215.569Z"/></clipPath><clipPath id="clip-path-42"><path class="cls-1" d="M174.18084,205.7637l4.55865,2.47987a3.46689,3.46689,0,0,1,1.71828,3.14147,4.59972,4.59972,0,0,1-3.7163,4.52427l-4.55865-2.47986a4.59972,4.59972,0,0,0,3.7163-4.52427A3.46693,3.46693,0,0,0,174.18084,205.7637Z"/></clipPath><clipPath id="clip-path-43"><path class="cls-1" d="M197.73171,169.56109l-4.55866-2.47986a3.20242,3.20242,0,0,0,1.98615.34321,3.95915,3.95915,0,0,0,1.84833-.79708,4.5472,4.5472,0,0,0,1.37191-5.66417,3.14267,3.14267,0,0,0-1.21962-1.20312l4.55865,2.47988a3.14252,3.14252,0,0,1,1.21963,1.2031,4.5472,4.5472,0,0,1-1.37191,5.66417,3.95915,3.95915,0,0,1-1.84833.79708A3.20234,3.20234,0,0,1,197.73171,169.56109Z"/></clipPath><clipPath id="clip-path-44"><path class="cls-1" d="M161.5538,213.6036l-4.55866-2.47985q.063.03426.12816.06588a3.18571,3.18571,0,0,0,1.84812.27751,4.38309,4.38309,0,0,0,3.2172-2.45884l4.55865,2.47986a4.38309,4.38309,0,0,1-3.2172,2.45884,3.18571,3.18571,0,0,1-1.84812-.27751Q161.61682,213.63789,161.5538,213.6036Z"/></clipPath><clipPath id="clip-path-45"><path class="cls-1" d="M160.97329,203.80029l4.55865,2.47986a3.86775,3.86775,0,0,1,1.21534,5.208l-4.55865-2.47986A3.86775,3.86775,0,0,0,160.97329,203.80029Z"/></clipPath><clipPath id="clip-path-46"><path class="cls-1" d="M169.69389,196.55467l-4.55865-2.47986a11.42752,11.42752,0,0,0,7.12133,1.2273l4.55865,2.47986A11.42749,11.42749,0,0,1,169.69389,196.55467Z"/></clipPath><clipPath id="clip-path-47"><path class="cls-1" d="M179.43511,167.70387l4.55864,2.47987c3.73285,2.03062,6.21113,6.1846,6.20161,11.30878-.01476,7.94565-6.01855,15.25485-13.38015,16.28945l-4.55865-2.47986c7.3616-1.03461,13.36539-8.3438,13.38015-16.28945C185.64623,173.88849,183.168,169.7345,179.43511,167.70387Z"/></clipPath><clipPath id="clip-path-48"><path class="cls-1" d="M187.49842,150.67846l4.55864,2.47987a3.87068,3.87068,0,0,1,1.21638,5.21208l-4.55865-2.47986A3.87069,3.87069,0,0,0,187.49842,150.67846Z"/></clipPath><clipPath id="clip-path-49"><path class="cls-1" d="M188.072,160.47838l-4.55866-2.47986q.063.03428.12817.06589a3.20667,3.20667,0,0,0,1.8537.277,4.39793,4.39793,0,0,0,3.21962-2.45085l4.55865,2.47986a4.39793,4.39793,0,0,1-3.21962,2.45085,3.20667,3.20667,0,0,1-1.8537-.277Q188.135,160.51267,188.072,160.47838Z"/></clipPath><clipPath id="clip-path-50"><path class="cls-1" d="M154.48183,222.6594l-4.55867-2.47985a33.95136,33.95136,0,0,1-4.05506-2.77517l4.55864,2.47987A33.95089,33.95089,0,0,0,154.48183,222.6594Z"/></clipPath><clipPath id="clip-path-51"><path class="cls-1" d="M190.16742,140.49114l-4.55866-2.47985a32.50555,32.50555,0,0,1,4.57808,1.431l4.55864,2.47987A32.50654,32.50654,0,0,0,190.16742,140.49114Z"/></clipPath><clipPath id="clip-path-52"><path class="cls-1" d="M151.32539,194.72022l4.55864,2.47987a3.139,3.139,0,0,1,1.22149,1.20831,4.52873,4.52873,0,0,1-1.37189,5.65558l-4.55865-2.47986a4.52873,4.52873,0,0,0,1.37189-5.65558A3.13913,3.13913,0,0,0,151.32539,194.72022Z"/></clipPath><clipPath id="clip-path-53"><path class="cls-1" d="M151.89374,204.51774l-4.55866-2.47985a3.20881,3.20881,0,0,0,1.98985.34374,3.963,3.963,0,0,0,1.85006-.79751l4.55865,2.47986a3.963,3.963,0,0,1-1.85006.79751A3.20869,3.20869,0,0,1,151.89374,204.51774Z"/></clipPath><clipPath id="clip-path-54"><path class="cls-1" d="M174.86432,158.51488l-4.55865-2.47986a3.18172,3.18172,0,0,0,1.98312.34029,4.59977,4.59977,0,0,0,3.7163-4.52427,3.467,3.467,0,0,0-1.71826-3.14154l4.55864,2.47987a3.46692,3.46692,0,0,1,1.71826,3.14154,4.59977,4.59977,0,0,1-3.7163,4.52427A3.18167,3.18167,0,0,1,174.86432,158.51488Z"/></clipPath><clipPath id="clip-path-55"><path class="cls-1" d="M146.42159,216.108l-4.55865-2.47985a33.80625,33.80625,0,0,1-2.85236-3.57522l4.55864,2.47987A33.80707,33.80707,0,0,0,146.42159,216.108Z"/></clipPath><clipPath id="clip-path-56"><path class="cls-1" d="M179.88624,139.6455l-4.55867-2.47986a36.25475,36.25475,0,0,1,4.74095.00792l4.55864,2.47987A36.25307,36.25307,0,0,0,179.88624,139.6455Z"/></clipPath><clipPath id="clip-path-57"><path class="cls-1" d="M148.385,190.75163l-4.55866-2.47985a3.18185,3.18185,0,0,0,1.98318.34029,4.59978,4.59978,0,0,0,3.71624-4.52433,3.4591,3.4591,0,0,0-1.71686-3.13246l4.55865,2.47987a3.45906,3.45906,0,0,1,1.71686,3.13245,4.59978,4.59978,0,0,1-3.71624,4.52433A3.18176,3.18176,0,0,1,148.385,190.75163Z"/></clipPath><clipPath id="clip-path-58"><path class="cls-1" d="M161.63968,164.19154l-4.55866-2.47985a3.21158,3.21158,0,0,0,1.99115.34322,3.96691,3.96691,0,0,0,1.85178-.79775,4.53372,4.53372,0,0,0,1.36387-5.65452,3.12873,3.12873,0,0,0-1.223-1.21433l4.55865,2.47987a3.12865,3.12865,0,0,1,1.223,1.21432,4.53372,4.53372,0,0,1-1.36387,5.65452,3.96691,3.96691,0,0,1-1.85178.79775A3.2115,3.2115,0,0,1,161.63968,164.19154Z"/></clipPath><clipPath id="clip-path-59"><path class="cls-1" d="M140.71929,207.66073l-4.55866-2.47985a38.96517,38.96517,0,0,1-1.969-4.85757l4.55865,2.47987A38.96421,38.96421,0,0,0,140.71929,207.66073Z"/></clipPath><clipPath id="clip-path-60"><path class="cls-1" d="M151.376,166.19663l4.55864,2.47987a3.86236,3.86236,0,0,1,1.21639,5.20349l-4.55865-2.47986A3.86238,3.86238,0,0,0,151.376,166.19663Z"/></clipPath><clipPath id="clip-path-61"><path class="cls-1" d="M151.94951,175.99645l-4.55866-2.47985q.06307.03428.12824.06592a3.20323,3.20323,0,0,0,1.852.277,4.39693,4.39693,0,0,0,3.22136-2.45943l4.55865,2.47986a4.39693,4.39693,0,0,1-3.22136,2.45943,3.20323,3.20323,0,0,1-1.852-.277Q152.01257,176.03076,151.94951,175.99645Z"/></clipPath><clipPath id="clip-path-62"><path class="cls-1" d="M169.60777,141.68645l-4.55866-2.47986a40.88308,40.88308,0,0,1,4.54309-1.25221l4.55865,2.47987A40.88256,40.88256,0,0,0,169.60777,141.68645Z"/></clipPath><clipPath id="clip-path-63"><path class="cls-1" d="M137.30335,197.09425l-4.55867-2.47985a43.99213,43.99213,0,0,1-.59146-4.9215l4.55865,2.47987A43.98866,43.98866,0,0,0,137.30335,197.09425Z"/></clipPath><clipPath id="clip-path-64"><path class="cls-1" d="M159.37177,146.72942l-4.55866-2.47986a47.15482,47.15482,0,0,1,4.698-2.71746l4.55864,2.47986A47.15455,47.15455,0,0,0,159.37177,146.72942Z"/></clipPath><clipPath id="clip-path-65"><path class="cls-1" d="M136.70725,186.06237l-4.55865-2.47985a50.10466,50.10466,0,0,1,.67511-5.60952l4.55864,2.47988A50.10653,50.10653,0,0,0,136.70725,186.06237Z"/></clipPath><clipPath id="clip-path-66"><path class="cls-1" d="M150.74121,154.0534l-4.55865-2.47985a50.53534,50.53534,0,0,1,3.69046-3.56121l4.55864,2.47987A50.53967,50.53967,0,0,0,150.74121,154.0534Z"/></clipPath><clipPath id="clip-path-67"><path class="cls-1" d="M138.89126,174.34584l-4.55865-2.47986a50.08838,50.08838,0,0,1,1.80295-4.91235l4.55864,2.47987A50.0908,50.0908,0,0,0,138.89126,174.34584Z"/></clipPath><clipPath id="clip-path-68"><path class="cls-1" d="M143.53974,163.73508l-4.55866-2.47985a52.94035,52.94035,0,0,1,3.14823-4.80754l4.55864,2.47988A52.93851,52.93851,0,0,0,143.53974,163.73508Z"/></clipPath></defs><title>ICONS invente18 colour</title><rect class="cls-2" width="432" height="432"/><g class="cls-3"><polygon class="cls-4" points="287.08 279.579 282.521 277.099 276.634 273.527 281.193 276.006 287.08 279.579"/><polygon class="cls-5" points="296.603 244.772 292.044 242.292 298.735 244.222 303.294 246.701 296.603 244.772"/><polygon class="cls-4" points="274.879 290.551 270.32 288.071 266.126 282.558 270.685 285.038 274.879 290.551"/><polygon class="cls-6" points="297.324 231.645 292.765 229.165 299.916 229.578 304.474 232.057 297.324 231.645"/><polygon class="cls-4" points="262.205 297.276 257.647 294.796 254.648 288.363 259.206 290.843 262.205 297.276"/><g class="cls-3"><g class="cls-7"><g class="cls-3"><path class="cls-8" d="M274.528,259.26194l-4.55865-2.47986q.06557.03567.13309.06889l4.55865,2.47986q-.06751-.03321-.13309-.06889"/><path class="cls-9" d="M274.66107,259.33083l-4.55865-2.47986.01967.0096a3.63123,3.63123,0,0,0,.67264.24745l4.55865,2.47986a3.63123,3.63123,0,0,1-.67264-.24745l-.01967-.0096"/><path class="cls-10" d="M275.35338,259.58788l-4.55865-2.47986a3.85687,3.85687,0,0,0,1.50866.07932,4.508,4.508,0,0,0,1.29089-.39035l4.55865,2.47986a4.508,4.508,0,0,1-1.29089.39035,3.85687,3.85687,0,0,1-1.50866-.07932"/><path class="cls-9" d="M278.15293,259.27684l-4.55865-2.47986a5.02353,5.02353,0,0,0,.71621-.41346l4.55865,2.47986a5.02353,5.02353,0,0,1-.71621.41346"/><path class="cls-8" d="M278.86914,258.86338l-4.55865-2.47986a5.303,5.303,0,0,0,.53123-.42037l4.55865,2.47986a5.303,5.303,0,0,1-.53123.42037"/><path class="cls-11" d="M279.40037,258.443l-4.55865-2.47986a5.4886,5.4886,0,0,0,.4416-.446L279.842,257.997a5.4886,5.4886,0,0,1-.4416.446"/><path class="cls-12" d="M279.842,257.997l-4.55865-2.47986a5.62928,5.62928,0,0,0,.38916-.49389l4.55865,2.47986a5.62928,5.62928,0,0,1-.38916.49389"/><path class="cls-13" d="M280.23113,257.50309l-4.55865-2.47986a5.75667,5.75667,0,0,0,.35731-.57982l4.55865,2.47986a5.75667,5.75667,0,0,1-.3573.57982"/><path class="cls-14" d="M280.58843,256.92327l-4.55865-2.47986q.04066-.07563.07936-.153l4.55865,2.47986q-.03869.07736-.07936.153"/></g></g></g><g class="cls-3"><g class="cls-15"><g class="cls-3"><path class="cls-14" d="M280.6678,256.77028l-4.55865-2.47986a5.79673,5.79673,0,0,0,.25568-.5932l4.55865,2.47986a5.79671,5.79671,0,0,1-.25568.5932"/><path class="cls-16" d="M280.92348,256.17708l-4.55865-2.47986a4.461,4.461,0,0,0-1.69251-5.56135l4.55865,2.47986a4.461,4.461,0,0,1,1.69251,5.56135"/></g></g></g><polygon class="cls-17" points="294.825 218.693 290.267 216.214 297.39 214.089 301.949 216.569 294.825 218.693"/><g class="cls-3"><g class="cls-18"><g class="cls-3"><path class="cls-8" d="M267.61671,272.65041l-4.55865-2.47986q.17383-.13282.335-.278l4.55865,2.47986q-.16111.145-.335.278"/><path class="cls-11" d="M267.9517,272.37239l-4.55865-2.47986a5.51308,5.51308,0,0,0,.44409-.44849l4.55865,2.47986a5.51307,5.51307,0,0,1-.44409.44849"/><path class="cls-12" d="M268.39579,271.9239l-4.55865-2.47986a5.631,5.631,0,0,0,.39013-.49527l4.55865,2.47986a5.631,5.631,0,0,1-.39013.49527"/><path class="cls-13" d="M268.78592,271.42862l-4.55865-2.47986a5.72237,5.72237,0,0,0,.35423-.57492l4.55865,2.47986a5.72239,5.72239,0,0,1-.35423.57492"/><path class="cls-14" d="M269.14014,270.8537l-4.55865-2.47986a5.74612,5.74612,0,0,0,.334-.74339l4.55865,2.47986a5.74612,5.74612,0,0,1-.334.74339"/><path class="cls-16" d="M269.47418,270.11031l-4.55865-2.47986a4.91779,4.91779,0,0,0-.24341-4.13485,3.7076,3.7076,0,0,0-1.44289-1.42776l4.55865,2.47986a3.7076,3.7076,0,0,1,1.44289,1.42776,4.91779,4.91779,0,0,1,.24341,4.13485"/></g></g></g><g class="cls-3"><g class="cls-19"><g class="cls-3"><path class="cls-8" d="M263.07853,273.18941l-4.55865-2.47986q.06492.03532.13113.06786l4.55865,2.47986q-.0662-.03255-.13113-.06786"/><path class="cls-9" d="M263.20966,273.25728l-4.55865-2.47986a3.625,3.625,0,0,0,.69023.25571l4.55865,2.47986a3.625,3.625,0,0,1-.69023-.25571"/><path class="cls-10" d="M263.89989,273.513l-4.55865-2.47986a3.903,3.903,0,0,0,1.52455.08073,4.462,4.462,0,0,0,1.28067-.38707l4.55865,2.47986a4.462,4.462,0,0,1-1.28067.38707,3.903,3.903,0,0,1-1.52455-.08073"/><path class="cls-9" d="M266.70512,273.20665l-4.55865-2.47986a5.01253,5.01253,0,0,0,.71439-.413l4.55865,2.47986a5.01253,5.01253,0,0,1-.71439.413"/><path class="cls-8" d="M267.41951,272.79366l-4.55865-2.47986q.09937-.06876.1972-.14325l4.55865,2.47986q-.0978.0745-.1972.14325"/></g></g></g><g class="cls-3"><g class="cls-20"><g class="cls-3"><path class="cls-8" d="M278.74483,241.83345l-4.55865-2.47986q.0658.0358.13319.06889l4.55865,2.47986q-.06737-.03308-.13319-.06889"/><path class="cls-9" d="M278.878,241.90234l-4.55865-2.47986a3.60134,3.60134,0,0,0,.69023.255l4.55865,2.47986a3.60134,3.60134,0,0,1-.69023-.255"/><path class="cls-10" d="M279.56824,242.15731l-4.55865-2.47986a3.87569,3.87569,0,0,0,1.511.07709l4.55865,2.47986a3.87569,3.87569,0,0,1-1.511-.07709"/></g></g></g><g class="cls-3"><g class="cls-21"><g class="cls-3"><path class="cls-10" d="M281.0792,242.23441l-4.55865-2.47986a4.47687,4.47687,0,0,0,1.28017-.38494l4.55865,2.47986a4.47687,4.47687,0,0,1-1.28017.38494"/><path class="cls-9" d="M282.35936,241.84947l-4.55865-2.47986a4.95527,4.95527,0,0,0,.71178-.41052l4.55865,2.47986a4.95528,4.95528,0,0,1-.71178.41052"/><path class="cls-8" d="M283.07114,241.43895l-4.55865-2.47986a5.30134,5.30134,0,0,0,.53-.41941l4.55865,2.47986a5.30136,5.30136,0,0,1-.53.41941"/><path class="cls-11" d="M283.60112,241.01953l-4.55865-2.47986a5.54881,5.54881,0,0,0,.44733-.45181l4.55865,2.47986a5.54885,5.54885,0,0,1-.44733.45181"/><path class="cls-12" d="M284.04845,240.56772l-4.55865-2.47986a5.70658,5.70658,0,0,0,.39463-.50086l4.55865,2.47986a5.70658,5.70658,0,0,1-.39463.50086"/><path class="cls-13" d="M284.44307,240.06686l-4.55865-2.47986a5.76923,5.76923,0,0,0,.35711-.57916l4.55865,2.47986a5.76921,5.76921,0,0,1-.35711.57916"/><path class="cls-14" d="M284.80018,239.4877l-4.55865-2.47986a5.72194,5.72194,0,0,0,.332-.73752l4.55865,2.47986a5.722,5.722,0,0,1-.332.73752"/><path class="cls-16" d="M285.13219,238.75017l-4.55865-2.47986a5.43046,5.43046,0,0,0,.33748-1.86085,4.09071,4.09071,0,0,0-2.03172-3.70214l4.55865,2.47986a4.09071,4.09071,0,0,1,2.03172,3.70214,5.43046,5.43046,0,0,1-.33748,1.86085"/></g></g></g><polygon class="cls-4" points="247.359 300.806 242.801 298.326 242.014 291.003 246.572 293.483 247.359 300.806"/><polygon class="cls-22" points="289.448 207.78 284.889 205.3 291.703 201.724 296.262 204.204 289.448 207.78"/><g class="cls-3"><g class="cls-23"><g class="cls-3"><path class="cls-8" d="M247.47619,279.90136l-4.55865-2.47986q.066.03591.13362.06911l4.55865,2.47986q-.06759-.03319-.13362-.06911"/><path class="cls-9" d="M247.6098,279.97047l-4.55865-2.47986a3.61377,3.61377,0,0,0,.69264.25588l4.55865,2.47986a3.61377,3.61377,0,0,1-.69264-.25588"/><path class="cls-10" d="M248.30245,280.22635l-4.55865-2.47986a3.88244,3.88244,0,0,0,1.51352.07739l4.55865,2.47986a3.88244,3.88244,0,0,1-1.51352-.07739"/></g></g></g><g class="cls-3"><g class="cls-24"><g class="cls-3"><path class="cls-10" d="M249.816,280.30374l-4.55865-2.47986a4.46965,4.46965,0,0,0,1.27812-.38421l4.55865,2.47986a4.46965,4.46965,0,0,1-1.27812.38421"/><path class="cls-9" d="M251.09409,279.91953l-4.55865-2.47986a4.93894,4.93894,0,0,0,.70943-.40913l4.55865,2.47986a4.939,4.939,0,0,1-.70943.40913"/><path class="cls-8" d="M251.80352,279.5104l-4.55865-2.47986a5.28253,5.28253,0,0,0,.52819-.418l4.55865,2.47986a5.28252,5.28252,0,0,1-.52819.418"/><path class="cls-11" d="M252.33171,279.09241l-4.55865-2.47986a5.53127,5.53127,0,0,0,.446-.45045l4.55865,2.47986a5.53129,5.53129,0,0,1-.446.45045"/><path class="cls-12" d="M252.77768,278.642l-4.55865-2.47986a5.69332,5.69332,0,0,0,.39364-.49962l4.55865,2.47986a5.6933,5.6933,0,0,1-.39364.49962"/><path class="cls-13" d="M253.17132,278.14235l-4.55865-2.47986a5.76274,5.76274,0,0,0,.35685-.57877l4.55865,2.47986a5.76276,5.76276,0,0,1-.35685.57877"/><path class="cls-14" d="M253.52817,277.56358l-4.55865-2.47986a5.72438,5.72438,0,0,0,.33186-.7372l4.55865,2.47986a5.72439,5.72439,0,0,1-.33186.7372"/><path class="cls-16" d="M253.86,276.82638l-4.55865-2.47986a5.44635,5.44635,0,0,0,.33846-1.86669,4.09986,4.09986,0,0,0-2.03062-3.71363l4.55865,2.47986a4.09986,4.09986,0,0,1,2.03062,3.71363,5.44635,5.44635,0,0,1-.33846,1.86669"/></g></g></g><g class="cls-3"><g class="cls-25"><g class="cls-3"><path class="cls-8" d="M274.58681,225.57926l-4.55865-2.47986q.06492.03532.13114.06787l4.55865,2.47986q-.0662-.03255-.13114-.06787"/><path class="cls-9" d="M274.71794,225.64712l-4.55865-2.47986a3.62509,3.62509,0,0,0,.69024.25571l4.55865,2.47986a3.62509,3.62509,0,0,1-.69024-.25571"/><path class="cls-10" d="M275.40819,225.90284l-4.55865-2.47986a3.9029,3.9029,0,0,0,1.52453.08073,4.46223,4.46223,0,0,0,1.28073-.38709l4.55865,2.47986a4.46224,4.46224,0,0,1-1.28073.38709,3.90291,3.90291,0,0,1-1.52453-.08073"/><path class="cls-9" d="M278.21345,225.59647l-4.55865-2.47986a5.01365,5.01365,0,0,0,.71455-.41308l4.55865,2.47986a5.01364,5.01364,0,0,1-.71455.41308"/><path class="cls-8" d="M278.928,225.1834l-4.55865-2.47986q.0993-.06871.19707-.14315.17379-.13279.33492-.278l4.55865,2.47986q-.16108.145-.33492.278-.09773.07445-.19707.14315"/><path class="cls-11" d="M279.46,224.76228l-4.55865-2.47986a5.51308,5.51308,0,0,0,.44409-.44849l4.55865,2.47986a5.51309,5.51309,0,0,1-.44409.44849"/><path class="cls-12" d="M279.90407,224.31379l-4.55865-2.47986a5.63093,5.63093,0,0,0,.39013-.49527l4.55865,2.47986a5.631,5.631,0,0,1-.39013.49527"/><path class="cls-13" d="M280.2942,223.81852l-4.55865-2.47986a5.72239,5.72239,0,0,0,.35423-.57492l4.55865,2.47986a5.7224,5.7224,0,0,1-.35423.57492"/><path class="cls-14" d="M280.64843,223.24359l-4.55865-2.47986a5.74618,5.74618,0,0,0,.334-.7434l4.55865,2.47986a5.74619,5.74619,0,0,1-.334.7434"/><path class="cls-16" d="M280.98247,222.5002l-4.55865-2.47986a4.9181,4.9181,0,0,0-.24334-4.13489,3.707,3.707,0,0,0-1.44253-1.42734l4.55865,2.47986a3.707,3.707,0,0,1,1.44253,1.42734,4.9181,4.9181,0,0,1,.24334,4.13489"/></g></g></g><polygon class="cls-26" points="233.41 300.018 228.852 297.538 229.859 290.067 234.417 292.546 233.41 300.018"/><polygon class="cls-27" points="281.12 198.777 276.561 196.297 282.177 190.719 286.736 193.199 281.12 198.777"/><g class="cls-3"><g class="cls-28"><g class="cls-3"><path class="cls-14" d="M238.0134,275.08216l-4.55865-2.47986a5.77685,5.77685,0,0,0,.25838-.59827l4.55865,2.47986a5.77685,5.77685,0,0,1-.25838.59827"/><path class="cls-16" d="M238.27177,274.48388l-4.55865-2.47986a4.44581,4.44581,0,0,0-1.68851-5.54436l4.55865,2.47986a4.44581,4.44581,0,0,1,1.68851,5.54436"/></g></g></g><g class="cls-3"><g class="cls-29"><g class="cls-3"><path class="cls-8" d="M231.87448,277.56917l-4.55865-2.47986q.066.0359.134.06933l4.55865,2.47986q-.068-.03342-.134-.06933"/><path class="cls-9" d="M232.00844,277.63851l-4.55865-2.47986.026.01266a3.64455,3.64455,0,0,0,.67495.24828l4.55865,2.47986a3.64456,3.64456,0,0,1-.67495-.24828l-.026-.01266"/><path class="cls-10" d="M232.7094,277.89944l-4.55865-2.47986a3.86364,3.86364,0,0,0,1.51115.07969,4.49368,4.49368,0,0,0,1.28683-.38892l4.55865,2.47986a4.49369,4.49369,0,0,1-1.28683.38892,3.86364,3.86364,0,0,1-1.51115-.07969"/><path class="cls-9" d="M235.50738,277.59021l-4.55865-2.47986a4.98881,4.98881,0,0,0,.71146-.41069l4.55865,2.47986a4.98881,4.98881,0,0,1-.71146.41069"/><path class="cls-8" d="M236.21884,277.17953l-4.55865-2.47986a5.25874,5.25874,0,0,0,.52661-.4167l4.55865,2.47986a5.25874,5.25874,0,0,1-.52661.4167"/><path class="cls-11" d="M236.74545,276.76282,232.1868,274.283a5.44143,5.44143,0,0,0,.438-.44235l4.55865,2.47986a5.44143,5.44143,0,0,1-.438.44235"/><path class="cls-12" d="M237.1834,276.32048l-4.55865-2.47986a5.58463,5.58463,0,0,0,.38612-.49005l4.55865,2.47986a5.58463,5.58463,0,0,1-.38612.49005"/><path class="cls-13" d="M237.56953,275.83043l-4.55865-2.47986a5.71956,5.71956,0,0,0,.35485-.57585l4.55865,2.47986a5.71955,5.71955,0,0,1-.35485.57585"/><path class="cls-14" d="M237.92437,275.25458l-4.55865-2.47986q.04575-.0851.089-.17242l4.55865,2.47986q-.04326.08732-.089.17242"/></g></g></g><g class="cls-3"><g class="cls-30"><g class="cls-3"><path class="cls-8" d="M241.48879,257.44918l-4.55865-2.47986q.23791.12942.4815.249l4.55865,2.47986q-.24356-.11959-.4815-.249"/><path class="cls-9" d="M241.97029,257.69821l-4.55865-2.47986a13.01452,13.01452,0,0,0,2.49424.92152l4.55865,2.47986a13.01452,13.01452,0,0,1-2.49424-.92152"/><path class="cls-10" d="M244.46454,258.61974l-4.55865-2.47986a13.95213,13.95213,0,0,0,5.43928.2787l4.55865,2.47986a13.95213,13.95213,0,0,1-5.43928-.2787"/></g></g></g><g class="cls-3"><g class="cls-31"><g class="cls-3"><path class="cls-10" d="M249.90382,258.89844l-4.55865-2.47986a16.06213,16.06213,0,0,0,4.5925-1.38133l4.55865,2.47986a16.06213,16.06213,0,0,1-4.5925,1.38133"/><path class="cls-9" d="M254.49632,257.5171l-4.55865-2.47986a17.82553,17.82553,0,0,0,2.56037-1.47672l4.55865,2.47986a17.82552,17.82552,0,0,1-2.56037,1.47672"/><path class="cls-8" d="M257.05669,256.04039l-4.55865-2.47986a19.09773,19.09773,0,0,0,1.90947-1.51113l4.55865,2.47986a19.09773,19.09773,0,0,1-1.90947,1.51113"/><path class="cls-11" d="M258.96616,254.52926l-4.55865-2.47986a20.00546,20.00546,0,0,0,1.61279-1.629l4.55865,2.47986a20.00545,20.00545,0,0,1-1.61279,1.629"/><path class="cls-12" d="M260.57895,252.90029l-4.55865-2.47986a20.5806,20.5806,0,0,0,1.42315-1.80627l4.55865,2.47986a20.58062,20.58062,0,0,1-1.42315,1.80627"/><path class="cls-13" d="M262.0021,251.094l-4.55865-2.47986a20.803,20.803,0,0,0,1.28764-2.08826l4.55865,2.47986a20.803,20.803,0,0,1-1.28764,2.08826"/><path class="cls-14" d="M263.28974,249.00575l-4.55865-2.47986a20.61729,20.61729,0,0,0,1.19649-2.65789l4.55865,2.47986a20.61728,20.61728,0,0,1-1.19649,2.65789"/><path class="cls-16" d="M264.48623,246.34786l-4.55865-2.47986a19.52174,19.52174,0,0,0,1.21372-6.68875c.01123-6.04511-2.91616-10.95215-7.32529-13.35067l4.55865,2.47986c4.40913,2.39853,7.33652,7.30556,7.32529,13.35067a19.52174,19.52174,0,0,1-1.21372,6.68875"/></g></g></g><polygon class="cls-32" points="221.222 295.559 216.663 293.079 218.975 285.787 223.534 288.267 221.222 295.559"/><g class="cls-3"><g class="cls-33"><g class="cls-3"><path class="cls-14" d="M269.33036,212.36231l-4.55865-2.47986a5.75637,5.75637,0,0,0,.25757-.5964l4.55865,2.47986a5.75635,5.75635,0,0,1-.25757.5964"/><path class="cls-16" d="M269.58793,211.76591l-4.55865-2.47986a4.45364,4.45364,0,0,0-1.69444-5.54958l4.55865,2.47986a4.45364,4.45364,0,0,1,1.69444,5.54958"/></g></g></g><g class="cls-3"><g class="cls-34"><g class="cls-3"><path class="cls-8" d="M263.19,214.85367l-4.55865-2.47986q.06579.03579.13353.06912l4.55865,2.47986q-.06774-.03332-.13353-.06912"/><path class="cls-9" d="M263.32358,214.92279l-4.55865-2.47986.0198.00966a3.67569,3.67569,0,0,0,.67386.24714l4.55865,2.47986a3.67569,3.67569,0,0,1-.67386-.24714l-.0198-.00966"/><path class="cls-10" d="M264.01724,215.17959l-4.55865-2.47986a3.87584,3.87584,0,0,0,1.51613.08028,4.49385,4.49385,0,0,0,1.287-.389l4.55865,2.47986a4.49385,4.49385,0,0,1-1.287.389,3.87584,3.87584,0,0,1-1.51613-.08028"/><path class="cls-9" d="M266.82037,214.87092l-4.55865-2.47986a4.99279,4.99279,0,0,0,.712-.411l4.55865,2.47986a4.99279,4.99279,0,0,1-.712.411"/><path class="cls-8" d="M267.5324,214.45988,262.97375,211.98a5.2721,5.2721,0,0,0,.528-.4178l4.55865,2.47986a5.27208,5.27208,0,0,1-.528.4178"/><path class="cls-11" d="M268.06037,214.04208l-4.55865-2.47986a5.466,5.466,0,0,0,.43989-.44433l4.55865,2.47986a5.466,5.466,0,0,1-.43989.44433"/><path class="cls-12" d="M268.50027,213.59775l-4.55865-2.47986a5.62121,5.62121,0,0,0,.38861-.49323l4.55865,2.47986a5.62118,5.62118,0,0,1-.38861.49323"/><path class="cls-13" d="M268.88888,213.10452l-4.55865-2.47986a5.769,5.769,0,0,0,.358-.581l4.55865,2.47986a5.769,5.769,0,0,1-.358.581"/><path class="cls-14" d="M269.24686,212.52355l-4.55865-2.47986q.04282-.07965.0835-.16124l4.55865,2.47986q-.04067.08159-.0835.16124"/></g></g></g><polygon class="cls-35" points="275.697 186.436 271.138 183.956 275.195 185.918 279.754 188.398 275.697 186.436"/><polygon class="cls-8" points="271.064 192.947 266.506 190.467 271.138 183.956 275.697 186.436 271.064 192.947"/><g class="cls-3"><g class="cls-36"><g class="cls-3"><path class="cls-16" d="M223.53385,288.26736l-4.55865-2.47986a38.29073,38.29073,0,0,1-4.78285-3.27788l4.55865,2.47986a38.29073,38.29073,0,0,0,4.78285,3.27788"/></g></g></g><g class="cls-3"><g class="cls-37"><g class="cls-3"><path class="cls-10" d="M265.66172,191.26017l-4.55865-2.47986q.44957.10631.89526.222l4.55865,2.47986q-.44564-.1157-.89526-.222"/><path class="cls-9" d="M266.557,191.48215l-4.55865-2.47986a38.29732,38.29732,0,0,1,4.50721,1.46488l4.55865,2.47986a38.29734,38.29734,0,0,0-4.50721-1.46488"/></g></g></g><polygon class="cls-4" points="213.112 289.974 208.553 287.494 205.244 284.381 209.802 286.861 213.112 289.974"/><polygon class="cls-38" points="209.802 286.861 205.244 284.381 209.452 278.059 214.01 280.539 209.802 286.861"/><g class="cls-3"><g class="cls-39"><g class="cls-3"><path class="cls-8" d="M225.01611,266.32034l-4.55865-2.47986q.17328-.1324.334-.27719l4.55865,2.47986q-.16065.14459-.334.27719"/><path class="cls-11" d="M225.35009,266.04315l-4.55865-2.47986a5.50233,5.50233,0,0,0,.44321-.44762l4.55865,2.47986a5.50233,5.50233,0,0,1-.44321.44762"/><path class="cls-12" d="M225.7933,265.59553l-4.55865-2.47986a5.62779,5.62779,0,0,0,.38989-.495l4.55865,2.47986a5.62781,5.62781,0,0,1-.38989.495"/><path class="cls-13" d="M226.1832,265.10054l-4.55865-2.47986a5.72723,5.72723,0,0,0,.35445-.57528l4.55865,2.47986a5.72725,5.72725,0,0,1-.35445.57528"/><path class="cls-14" d="M226.53764,264.52526,221.979,262.0454a5.75907,5.75907,0,0,0,.3348-.74506l4.55865,2.47986a5.75908,5.75908,0,0,1-.3348.74506"/><path class="cls-16" d="M226.87244,263.7802l-4.55865-2.47986a4.93044,4.93044,0,0,0-.24216-4.14348,3.71317,3.71317,0,0,0-1.44177-1.423l4.55865,2.47986a3.71317,3.71317,0,0,1,1.44177,1.423,4.93044,4.93044,0,0,1,.24216,4.14348"/></g></g></g><g class="cls-3"><g class="cls-40"><g class="cls-3"><path class="cls-8" d="M220.47725,266.85514l-4.55865-2.47986q.06519.03546.13168.06815l4.55865,2.47986q-.06648-.03268-.13168-.06815"/><path class="cls-9" d="M220.60894,266.92329l-4.55865-2.47986a3.63917,3.63917,0,0,0,.69283.25668l4.55865,2.47986a3.63915,3.63915,0,0,1-.69283-.25668"/><path class="cls-10" d="M221.30177,267.18l-4.55865-2.47986a3.90974,3.90974,0,0,0,1.52721.08108,4.45391,4.45391,0,0,0,1.27849-.3863l4.55865,2.47986a4.45391,4.45391,0,0,1-1.27849.3863,3.90974,3.90974,0,0,1-1.52721-.08108"/><path class="cls-9" d="M224.10747,266.87475l-4.55865-2.47986a4.99709,4.99709,0,0,0,.71221-.41172l4.55865,2.47986a4.9971,4.9971,0,0,1-.71221.41172"/><path class="cls-8" d="M224.81968,266.463l-4.55865-2.47986q.099-.06848.19643-.14269l4.55865,2.47986q-.09742.07421-.19643.14269"/></g></g></g><g class="cls-3"><g class="cls-41"><g class="cls-3"><path class="cls-8" d="M247.60129,212.54129l-4.55865-2.47986q.066.03591.13362.06911l4.55865,2.47986q-.06759-.03319-.13362-.06911"/><path class="cls-9" d="M247.7349,212.6104l-4.55865-2.47986a3.61381,3.61381,0,0,0,.69265.25588l4.55865,2.47986a3.6138,3.6138,0,0,1-.69265-.25588"/><path class="cls-10" d="M248.42755,212.86629l-4.55865-2.47986a3.88246,3.88246,0,0,0,1.51353.07739,4.46967,4.46967,0,0,0,1.27812-.38421l4.55865,2.47986a4.46967,4.46967,0,0,1-1.27812.38421,3.88246,3.88246,0,0,1-1.51353-.07739"/><path class="cls-9" d="M251.21921,212.55947l-4.55865-2.47986a4.939,4.939,0,0,0,.70944-.40914l4.55865,2.47986a4.939,4.939,0,0,1-.70944.40914"/><path class="cls-8" d="M251.92865,212.15033,247.37,209.67046a5.28259,5.28259,0,0,0,.52819-.418l4.55865,2.47986a5.28257,5.28257,0,0,1-.52819.418"/><path class="cls-11" d="M252.45684,211.73234l-4.55865-2.47986a5.53133,5.53133,0,0,0,.446-.45045l4.55865,2.47986a5.53133,5.53133,0,0,1-.446.45045"/><path class="cls-12" d="M252.90281,211.28189l-4.55865-2.47986a5.69333,5.69333,0,0,0,.39365-.49962l4.55865,2.47986a5.69334,5.69334,0,0,1-.39365.49962"/><path class="cls-13" d="M253.29646,210.78227l-4.55865-2.47986a5.7627,5.7627,0,0,0,.35684-.57877l4.55865,2.47986a5.76272,5.76272,0,0,1-.35684.57877"/><path class="cls-14" d="M253.6533,210.2035l-4.55865-2.47986a5.72428,5.72428,0,0,0,.33186-.73719l4.55865,2.47986a5.72428,5.72428,0,0,1-.33186.73719"/><path class="cls-16" d="M253.98516,209.46631l-4.55865-2.47986a5.4461,5.4461,0,0,0,.33844-1.8666,4.08786,4.08786,0,0,0-2.02555-3.70479l4.55865,2.47986a4.08786,4.08786,0,0,1,2.02555,3.70479,5.4461,5.4461,0,0,1-.33844,1.8666"/></g></g></g><polygon class="cls-42" points="261.721 182.859 257.163 180.379 261.694 181.056 266.253 183.536 261.721 182.859"/><polygon class="cls-13" points="259.121 190.269 254.562 187.789 257.163 180.379 261.721 182.859 259.121 190.269"/><g class="cls-3"><g class="cls-43"><g class="cls-3"><path class="cls-16" d="M214.0103,280.53871l-4.55865-2.47986A42.06224,42.06224,0,0,1,206.088,273.838l4.55865,2.47986a42.06224,42.06224,0,0,0,3.36369,4.22082"/></g></g></g><g class="cls-3"><g class="cls-44"><g class="cls-3"><path class="cls-10" d="M253.531,190.25956l-4.55865-2.47986a42.98754,42.98754,0,0,1,5.58976.00962l4.55865,2.47986a42.98754,42.98754,0,0,0-5.58976-.00962"/></g></g></g><g class="cls-3"><g class="cls-45"><g class="cls-3"><path class="cls-8" d="M216.3389,250.60385l-4.55865-2.47986q.066.03588.13349.069l4.55865,2.47986q-.06752-.03315-.13349-.069"/><path class="cls-9" d="M216.47239,250.67289l-4.55865-2.47986a3.60638,3.60638,0,0,0,.69112.25535l4.55865,2.47986a3.60638,3.60638,0,0,1-.69112-.25535"/><path class="cls-10" d="M217.16351,250.92823l-4.55865-2.47986a3.864,3.864,0,0,0,1.50641.07722,4.4771,4.4771,0,0,0,1.28023-.385l4.55865,2.47986a4.4771,4.4771,0,0,1-1.28023.385,3.864,3.864,0,0,1-1.50641-.07722"/><path class="cls-9" d="M219.95016,250.6205l-4.55865-2.47986a4.9554,4.9554,0,0,0,.7118-.41053L220.662,250.21a4.95539,4.95539,0,0,1-.7118.41053"/><path class="cls-8" d="M220.662,250.21l-4.55865-2.47986a5.3014,5.3014,0,0,0,.53-.41942l4.55865,2.47986a5.30141,5.30141,0,0,1-.53.41942"/><path class="cls-11" d="M221.19194,249.79055l-4.55865-2.47986a5.54883,5.54883,0,0,0,.44733-.45182l4.55865,2.47986a5.54883,5.54883,0,0,1-.44733.45181"/><path class="cls-12" d="M221.63927,249.33874l-4.55865-2.47986a5.70655,5.70655,0,0,0,.39462-.50086l4.55865,2.47986a5.70655,5.70655,0,0,1-.39462.50086"/><path class="cls-13" d="M222.03389,248.83788l-4.55865-2.47986a5.76919,5.76919,0,0,0,.3571-.57915l4.55865,2.47986a5.76917,5.76917,0,0,1-.3571.57915"/><path class="cls-14" d="M222.391,248.25872l-4.55865-2.47986a5.72191,5.72191,0,0,0,.332-.73752l4.55865,2.47986a5.7219,5.7219,0,0,1-.332.73752"/><path class="cls-16" d="M222.723,247.5212l-4.55865-2.47986a5.43043,5.43043,0,0,0,.33747-1.86084,4.09068,4.09068,0,0,0-2.03171-3.70212l4.55865,2.47986a4.09068,4.09068,0,0,1,2.03171,3.70212,5.43043,5.43043,0,0,1-.33747,1.86084"/></g></g></g><polygon class="cls-4" points="204.449 280.076 199.891 277.596 197.56 273.533 202.118 276.013 204.449 280.076"/><polygon class="cls-46" points="202.118 276.013 197.56 273.533 202.719 268.079 207.278 270.559 202.118 276.013"/><g class="cls-3"><g class="cls-47"><g class="cls-3"><path class="cls-8" d="M231.98673,219.241l-4.55865-2.47986q.06492.03532.13113.06787l4.55865,2.47986q-.0662-.03255-.13113-.06787"/><path class="cls-9" d="M232.11786,219.30888l-4.55865-2.47986a3.62419,3.62419,0,0,0,.69014.25568l4.55865,2.47986a3.62419,3.62419,0,0,1-.69014-.25568"/><path class="cls-10" d="M232.808,219.56456l-4.55865-2.47986a3.896,3.896,0,0,0,1.52173.0807,4.44169,4.44169,0,0,0,1.27489-.38523l4.55865,2.47986a4.44169,4.44169,0,0,1-1.27489.38523,3.896,3.896,0,0,1-1.52173-.0807"/><path class="cls-9" d="M235.60462,219.26l-4.55865-2.47986a4.98023,4.98023,0,0,0,.70988-.41037l4.55865,2.47986a4.98023,4.98023,0,0,1-.70988.41037"/><path class="cls-8" d="M236.3145,218.84967l-4.55865-2.47986q.1018-.07044.202-.14694.17783-.13545.34243-.28376l4.55865,2.47986q-.16455.1481-.34243.28376-.10012.0765-.202.14694"/><path class="cls-11" d="M236.85888,218.419l-4.55865-2.47986a5.52431,5.52431,0,0,0,.44508-.44947l4.55865,2.47986a5.52431,5.52431,0,0,1-.44508.44947"/><path class="cls-12" d="M237.304,217.96951l-4.55865-2.47986a5.63538,5.63538,0,0,0,.39048-.49571l4.55865,2.47986a5.6354,5.6354,0,0,1-.39048.49571"/><path class="cls-13" d="M237.69444,217.4738l-4.55865-2.47986a5.72071,5.72071,0,0,0,.35424-.575l4.55865,2.47986a5.72071,5.72071,0,0,1-.35424.575"/><path class="cls-14" d="M238.04868,216.89884,233.49,214.419a5.73927,5.73927,0,0,0,.33361-.7425l4.55865,2.47986a5.73927,5.73927,0,0,1-.33361.7425"/><path class="cls-16" d="M238.38229,216.15634l-4.55865-2.47986a4.91156,4.91156,0,0,0-.24374-4.12978,3.70424,3.70424,0,0,0-1.44174-1.42581l4.55865,2.47986a3.70424,3.70424,0,0,1,1.44174,1.42581,4.91156,4.91156,0,0,1,.24374,4.12978"/></g></g></g><g class="cls-3"><g class="cls-48"><g class="cls-3"><path class="cls-16" d="M207.27783,270.55926l-4.55865-2.47986a47.50959,47.50959,0,0,1-2.31976-5.7331l4.55865,2.47986a47.50957,47.50957,0,0,0,2.31976,5.7331"/></g></g></g><polygon class="cls-49" points="246.762 191.194 242.204 188.714 243.018 181.131 247.577 183.611 246.762 191.194"/><polygon class="cls-50" points="247.577 183.611 243.018 181.131 247.713 180.471 252.271 182.951 247.577 183.611"/><g class="cls-3"><g class="cls-51"><g class="cls-3"><path class="cls-14" d="M226.68406,230.68172l-4.55865-2.47986a5.7563,5.7563,0,0,0,.2575-.59627l4.55865,2.47986a5.75634,5.75634,0,0,1-.2575.59627"/><path class="cls-16" d="M226.94156,230.08545l-4.55865-2.47986a4.45374,4.45374,0,0,0-1.69436-5.54965l4.55865,2.47986a4.45374,4.45374,0,0,1,1.69436,5.54965"/></g></g></g><g class="cls-3"><g class="cls-52"><g class="cls-3"><path class="cls-8" d="M220.54366,233.173l-4.55865-2.47986q.06579.03579.13354.06912l4.55865,2.47986q-.06774-.03332-.13354-.06912"/><path class="cls-9" d="M220.6772,233.24211l-4.55865-2.47986.0198.00966a3.66261,3.66261,0,0,0,.6716.24633l4.55865,2.47986a3.66261,3.66261,0,0,1-.6716-.24633l-.0198-.00966"/><path class="cls-10" d="M221.3686,233.49811l-4.55865-2.47986a3.86821,3.86821,0,0,0,1.51326.07994,4.50069,4.50069,0,0,0,1.28889-.38965l4.55865,2.47986a4.5007,4.5007,0,0,1-1.28889.38965,3.86821,3.86821,0,0,1-1.51326-.07994"/><path class="cls-9" d="M224.17074,233.18839l-4.55865-2.47986a5.01131,5.01131,0,0,0,.71459-.41253l4.55865,2.47986a5.0113,5.0113,0,0,1-.71459.41253"/><path class="cls-8" d="M224.88533,232.77587l-4.55865-2.47986a5.29376,5.29376,0,0,0,.53022-.41958l4.55865,2.47986a5.29378,5.29378,0,0,1-.53022.41958"/><path class="cls-11" d="M225.41555,232.35629l-4.55865-2.47986a5.48542,5.48542,0,0,0,.44139-.44584l4.55865,2.47986a5.48545,5.48545,0,0,1-.44139.44584"/><path class="cls-12" d="M225.85694,231.91045l-4.55865-2.47986a5.634,5.634,0,0,0,.38948-.49431l4.55865,2.47986a5.63406,5.63406,0,0,1-.38948.49431"/><path class="cls-13" d="M226.24642,231.41614l-4.55865-2.47986a5.77068,5.77068,0,0,0,.35815-.58122l4.55865,2.47986a5.77071,5.77071,0,0,1-.35815.58122"/><path class="cls-14" d="M226.60457,230.83492l-4.55865-2.47986q.04072-.07573.07948-.15321l4.55865,2.47986q-.03876.07747-.07948.15321"/></g></g></g><g class="cls-3"><g class="cls-53"><g class="cls-3"><path class="cls-10" d="M241.3938,192.67415l-4.55865-2.47986a45.77649,45.77649,0,0,1,5.36837-1.48054l4.55865,2.47986a45.7765,45.7765,0,0,0-5.36837,1.48054"/></g></g></g><g class="cls-3"><g class="cls-54"><g class="cls-3"><path class="cls-16" d="M203.25676,258.08988,198.69811,255.61a52.3114,52.3114,0,0,1-.702-5.81359l4.55865,2.47986a52.31142,52.31142,0,0,0,.702,5.81359"/></g></g></g><polygon class="cls-55" points="197.012 261.638 192.453 259.159 198.698 255.61 203.257 258.09 197.012 261.638"/><polygon class="cls-4" points="198.22 266.361 193.662 263.881 192.453 259.159 197.012 261.638 198.22 266.361"/><g class="cls-3"><g class="cls-56"><g class="cls-3"><path class="cls-9" d="M229.30618,198.62562l-4.55865-2.47986a54.4204,54.4204,0,0,1,5.54773-3.20856l4.55865,2.47986a54.4204,54.4204,0,0,0-5.54773,3.20856"/></g></g></g><polygon class="cls-57" points="234.854 195.417 230.295 192.937 229.756 185.545 234.315 188.025 234.854 195.417"/><polygon class="cls-58" points="234.315 188.025 229.756 185.545 234.285 183.595 238.843 186.074 234.315 188.025"/><g class="cls-3"><g class="cls-59"><g class="cls-3"><path class="cls-16" d="M202.5442,245.06029l-4.55865-2.47986a59.03339,59.03339,0,0,1,.8051-6.62173l4.55865,2.47986a59.03339,59.03339,0,0,0-.8051,6.62173"/></g></g></g><g class="cls-3"><g class="cls-60"><g class="cls-3"><path class="cls-11" d="M219.11959,207.266l-4.55865-2.47986c1.15438-1.226,2.34742-2.40367,3.5929-3.525l4.55865,2.47986c-1.24549,1.12129-2.43853,2.29894-3.5929,3.525"/><path class="cls-8" d="M222.71249,203.741l-4.55865-2.47986q.37842-.34068.7634-.67436l4.55865,2.47986q-.385.33365-.7634.67436"/></g></g></g><polygon class="cls-50" points="195.893 247.309 191.334 244.829 197.986 242.58 202.544 245.06 195.893 247.309"/><polygon class="cls-61" points="195.884 252.375 191.325 249.896 191.334 244.829 195.893 247.309 195.884 252.375"/><g class="cls-3"><g class="cls-62"><g class="cls-3"><path class="cls-16" d="M205.12452,231.23092l-4.55865-2.47986q.47139-1.517,1.01871-3.0069l4.55865,2.47986q-.5473,1.48818-1.01871,3.0069"/><path class="cls-14" d="M206.14323,228.224l-4.55865-2.47986q.519-1.41133,1.10625-2.78909l4.55865,2.47986q-.5872,1.37627-1.10625,2.78909"/></g></g></g><g class="cls-3"><g class="cls-63"><g class="cls-3"><path class="cls-13" d="M210.60951,218.70472l-4.55865-2.47986q1.35356-2.33371,2.89445-4.52717l4.55865,2.47986q-1.53687,2.19077-2.89445,4.52717"/><path class="cls-12" d="M213.504,214.17755l-4.55865-2.47986q.40606-.57883.82392-1.147l4.55865,2.47986q-.41779.56814-.82392,1.147"/></g></g></g><polygon class="cls-4" points="223.476 203.067 218.917 200.587 216.222 194.206 220.781 196.686 223.476 203.067"/><polygon class="cls-42" points="220.781 196.686 216.222 194.206 220.288 191.102 224.847 193.582 220.781 196.686"/><polygon class="cls-55" points="198.47 231.112 193.911 228.632 200.566 228.751 205.125 231.231 198.47 231.112"/><polygon class="cls-64" points="197.243 236.168 192.685 233.688 193.911 228.632 198.47 231.112 197.243 236.168"/><polygon class="cls-4" points="214.328 213.031 209.769 210.551 205.903 205.018 210.462 207.497 214.328 213.031"/><polygon class="cls-65" points="210.462 207.497 205.903 205.018 209.218 200.973 213.777 203.453 210.462 207.497"/><polygon class="cls-4" points="207.249 225.435 202.691 222.955 197.3 219.374 201.859 221.854 207.249 225.435"/><polygon class="cls-66" points="204.206 217.141 199.647 214.661 206.051 216.225 210.61 218.705 204.206 217.141"/><path class="cls-67" d="M304.465,237.1153l-7.171,1.90675a57.14355,57.14355,0,0,1-.69141,5.75006l6.69138,1.92936-1.21864,5.06352-7.21624.38317a61.94159,61.94159,0,0,1-2.21361,6.10238l5.48573,4.27691-2.34719,4.71217-6.56286-2.13754c-.99623,1.72186-2.08846,3.388-3.23663,5.00147l4.41854,5.42955-3.323,4.04552-5.8875-3.57219a59.49892,59.49892,0,0,1-4.6212,4.52181l2.37367,6.91838-4.06605,3.10405-4.19407-5.513a55.15492,55.15492,0,0,1-4.95466,2.94368l1.00338,7.353-4.52825,1.94166-2.99918-6.43291a47.97446,47.97446,0,0,1-5.87323,1.67246l-1.27953,7.63068-4.69407.65971-.78723-7.32288a42.39151,42.39151,0,0,1-5.64592.01551l-2.99245,7.18859-4.52348-.66952,1.00691-7.47122a38.86543,38.86543,0,0,1-5.05846-1.51051l-4.08028,6.48569-4.05656-1.96249,2.31191-7.29173a38.29073,38.29073,0,0,1-4.78285-3.27788l-5.6391,4.98471-3.30971-3.11336,4.20811-6.32211a42.06224,42.06224,0,0,1-3.36369-4.22082l-6.19736,3.758-2.33089-4.06338,5.15947-5.45325a47.50957,47.50957,0,0,1-2.31976-5.7331l-6.73788,1.53471-1.2085-4.72241,6.24506-3.54859a52.31142,52.31142,0,0,1-.702-5.81359l-6.67106.0991.00941-5.06653,6.65105-2.24858a59.03339,59.03339,0,0,1,.8051-6.62173l-6.10612-2.27088,1.22666-5.05607,6.65468.11931a60.63691,60.63691,0,0,1,2.125-5.796l-5.39092-3.58141,2.34719-4.71217,6.40376,1.56338a62.601,62.601,0,0,1,3.71838-5.67419l-3.86576-5.53315,3.315-4.0444,5.34248,3.813a59.57992,59.57992,0,0,1,4.3563-4.19932l-2.69492-6.38061,4.066-3.104,4.45924,5.04351a54.4204,54.4204,0,0,1,5.54773-3.20856l-.53878-7.39237,4.52827-1.95024,2.55041,6.59971a45.7765,45.7765,0,0,1,5.36837-1.48054l.81492-7.58262,4.69407-.65971,1.25981,7.30828a42.98754,42.98754,0,0,1,5.58976.00962l2.60043-7.41,4.5315.677-.59095,7.724a38.90914,38.90914,0,0,1,5.40247,1.68686l4.63292-6.51145,4.05656,1.9624-2.83276,7.44274a38.0636,38.0636,0,0,1,4.19894,2.93648l5.61619-5.57792,3.30971,3.11336-4.11325,6.9917a42.02,42.02,0,0,1,3.51527,4.476l6.81377-3.57661,2.3309,4.05471-5.76,5.43384a48.255,48.255,0,0,1,1.99275,5.00117l7.12337-2.12484,1.20851,4.71383-6.56685,4.2853a52.98081,52.98081,0,0,1,.73351,6.07708l7.1507.41259Zm-54.56119,21.78314c8.69133-1.22149,15.77869-9.84985,15.79613-19.23933.01742-9.38081-7.04158-16.021-15.73291-14.79954-8.69936,1.22262-15.78672,9.851-15.80415,19.23179-.01744,9.38948,7.04156,16.0297,15.74092,14.80708m-24.88771,7.4219a5.36429,5.36429,0,0,0,1.61416-6.68362,3.68967,3.68967,0,0,0-3.7935-1.82891,4.70137,4.70137,0,0,0-2.18713.94071,5.362,5.362,0,0,0-1.61408,6.68361,3.68942,3.68942,0,0,0,3.79342,1.82892,4.70021,4.70021,0,0,0,2.18713-.94071m55.65169-9.55006c1.21376-2.43517.49814-5.22161-1.59009-6.2333a3.78024,3.78024,0,0,0-2.18486-.32627,5.19419,5.19419,0,0,0-3.8022,2.89642c-1.21374,2.42659-.49814,5.22161,1.59009,6.2333a3.76183,3.76183,0,0,0,2.1813.32677,5.2,5.2,0,0,0,3.80576-2.89692m-5.9093-39.29318a5.35292,5.35292,0,0,0-1.61406,6.675,3.67851,3.67851,0,0,0,3.78828,1.83143,4.713,4.713,0,0,0,2.19235-.94332,5.3528,5.3528,0,0,0,1.61406-6.67494,3.67816,3.67816,0,0,0-3.78828-1.83152,4.713,4.713,0,0,0-2.19235.94332m-42.6005-6.33875a5.34337,5.34337,0,0,0-1.61406,6.675,3.67736,3.67736,0,0,0,3.7858,1.83187,4.68821,4.68821,0,0,0,2.18672-.94253,5.34787,5.34787,0,0,0,1.6221-6.67616,3.68315,3.68315,0,0,0-3.79184-1.831,4.69371,4.69371,0,0,0-2.18871.94281m35.45872,61.51205a5.35263,5.35263,0,0,0,1.61406-6.67494,3.67725,3.67725,0,0,0-3.78588-1.83195,4.689,4.689,0,0,0-2.18664.94261,5.34775,5.34775,0,0,0-1.6221,6.67607,3.67836,3.67836,0,0,0,3.78828,1.83152,4.71242,4.71242,0,0,0,2.19227-.94331m1.71365-60.2881c1.21383-2.4266.49821-5.213-1.5901-6.22472a3.78943,3.78943,0,0,0-2.19-.32742,5.17889,5.17889,0,0,0-3.797,2.89756c-1.21374,2.42659-.49821,5.213,1.5901,6.22472a3.79015,3.79015,0,0,0,2.19.32742,5.17878,5.17878,0,0,0,3.797-2.89756m-42.6463,18.31941c1.21374-2.42659.49813-5.213-1.59019-6.2247a3.78935,3.78935,0,0,0-2.18991-.32743,5.17871,5.17871,0,0,0-3.79707,2.89757c-1.21374,2.42659-.49821,5.213,1.5901,6.22463a3.78024,3.78024,0,0,0,2.18486.32627,5.19407,5.19407,0,0,0,3.8022-2.89633m11.32934,44.40044c1.21374-2.42659.50624-5.21408-1.5901-6.22463a3.768,3.768,0,0,0-2.18436-.3283,5.17815,5.17815,0,0,0-3.79459,2.89732c-1.21383,2.42651-.50624,5.21408,1.5901,6.22463a3.77145,3.77145,0,0,0,2.1861.328,5.165,5.165,0,0,0,3.79285-2.897m11.80257,5.22158a5.43241,5.43241,0,0,0,4.38252-5.34405,3.86031,3.86031,0,0,0-4.36495-4.11459,5.44052,5.44052,0,0,0-4.39047,5.34508,3.86554,3.86554,0,0,0,4.3729,4.11356m-35.51091-33.41288a3.86422,3.86422,0,0,0,4.36487,4.1146,5.44046,5.44046,0,0,0,4.39055-5.34509,3.86336,3.86336,0,0,0-4.373-4.10488,5.43683,5.43683,0,0,0-4.38242,5.33537m66.77414-4.65645a5.44044,5.44044,0,0,0,4.39047-5.34508,3.86335,3.86335,0,0,0-4.37291-4.10489,5.43,5.43,0,0,0-4.3825,5.33539,3.86027,3.86027,0,0,0,4.36495,4.11459M249.95864,203.4937a5.431,5.431,0,0,0-4.39045,5.3365,3.86552,3.86552,0,0,0,4.3729,4.11347,5.43239,5.43239,0,0,0,4.38252-5.344,3.854,3.854,0,0,0-4.365-4.106"/><polygon class="cls-68" points="201.859 221.854 197.3 219.374 199.647 214.661 204.206 217.141 201.859 221.854"/></g><g class="cls-3"><polygon class="cls-69" points="208.311 215.293 203.753 212.813 198.761 209.798 203.32 212.278 208.311 215.293"/><polygon class="cls-70" points="216.375 185.817 211.816 183.338 217.483 184.97 222.041 187.45 216.375 185.817"/><polygon class="cls-69" points="197.979 224.585 193.421 222.105 189.866 217.444 194.424 219.924 197.979 224.585"/><polygon class="cls-71" points="216.98 174.694 212.421 172.214 218.483 172.564 223.041 175.044 216.98 174.694"/><polygon class="cls-69" points="187.238 230.287 182.679 227.807 180.135 222.356 184.693 224.836 187.238 230.287"/><g class="cls-3"><g class="cls-72"><g class="cls-3"><path class="cls-73" d="M197.67625,198.08546l-4.55865-2.47986q.05567.03028.113.05849l4.55865,2.47986q-.05732-.0282-.113-.05849"/><path class="cls-74" d="M197.78924,198.14395l-4.55865-2.47986.01509.00737a3.1079,3.1079,0,0,0,.57021.20918l4.55865,2.47986a3.1079,3.1079,0,0,1-.57021-.20918l-.01509-.00737"/><path class="cls-70" d="M198.37454,198.3605l-4.55865-2.47986a3.28023,3.28023,0,0,0,1.2832.06785,3.80745,3.80745,0,0,0,1.09036-.32954l4.55865,2.47986a3.80745,3.80745,0,0,1-1.09036.32954,3.28023,3.28023,0,0,1-1.2832-.06785"/><path class="cls-74" d="M200.7481,198.0988l-4.55865-2.47986a4.22854,4.22854,0,0,0,.603-.34809l4.55865,2.47986a4.22852,4.22852,0,0,1-.603.34809"/><path class="cls-73" d="M201.35112,197.75071l-4.55865-2.47986a4.4592,4.4592,0,0,0,.44657-.35337l4.55865,2.47986a4.45917,4.45917,0,0,1-.44657.35337"/><path class="cls-75" d="M201.79769,197.39734l-4.55865-2.47986a4.6148,4.6148,0,0,0,.37139-.37512l4.55865,2.47986a4.61482,4.61482,0,0,1-.37139.37512"/><path class="cls-76" d="M202.16908,197.02222l-4.55865-2.47986a4.73544,4.73544,0,0,0,.32739-.41551l4.55865,2.47986a4.73547,4.73547,0,0,1-.32739.41551"/><path class="cls-77" d="M202.49648,196.60671l-4.55865-2.47986a4.84719,4.84719,0,0,0,.30077-.48809l4.55865,2.47986a4.84717,4.84717,0,0,1-.30077.48809"/><path class="cls-78" d="M202.79725,196.11862l-4.55865-2.47986q.03716-.06912.07239-.14l4.55865,2.47986q-.03522.07084-.07239.14"/></g></g></g><g class="cls-3"><g class="cls-79"><g class="cls-3"><path class="cls-78" d="M202.86964,195.97865l-4.55865-2.47986a4.91793,4.91793,0,0,0,.21723-.50389l4.55865,2.47986a4.91788,4.91788,0,0,1-.21723.50389"/><path class="cls-80" d="M203.08687,195.47476l-4.55865-2.47986a3.77994,3.77994,0,0,0-1.43256-4.71278l4.55865,2.47986a3.77994,3.77994,0,0,1,1.43256,4.71278"/></g></g></g><polygon class="cls-81" points="214.87 163.728 210.311 161.248 216.345 159.45 220.904 161.929 214.87 163.728"/><g class="cls-3"><g class="cls-82"><g class="cls-3"><path class="cls-73" d="M191.81721,209.43426l-4.55865-2.47986q.15027-.1145.28937-.23983l4.55865,2.47986q-.13906.12516-.28937.23983"/><path class="cls-75" d="M192.10658,209.19443l-4.55865-2.47986a4.67721,4.67721,0,0,0,.37682-.38054l4.55865,2.47986a4.67721,4.67721,0,0,1-.37682.38054"/><path class="cls-76" d="M192.48341,208.81389l-4.55865-2.47986a4.7698,4.7698,0,0,0,.33051-.41957l4.55865,2.47986a4.76982,4.76982,0,0,1-.33051.41957"/><path class="cls-77" d="M192.81391,208.39432l-4.55865-2.47986a4.842,4.842,0,0,0,.29979-.48658l4.55865,2.47986a4.842,4.842,0,0,1-.29979.48658"/><path class="cls-78" d="M193.1137,207.90774l-4.55865-2.47986a4.85987,4.85987,0,0,0,.2825-.62872l4.55865,2.47986a4.85986,4.85986,0,0,1-.2825.62872"/><path class="cls-80" d="M193.3962,207.279l-4.55865-2.47986a4.1795,4.1795,0,0,0-.20708-3.509,3.14386,3.14386,0,0,0-1.22-1.2035l4.55865,2.47986a3.14386,3.14386,0,0,1,1.22,1.2035,4.1795,4.1795,0,0,1,.20708,3.509"/></g></g></g><g class="cls-3"><g class="cls-83"><g class="cls-3"><path class="cls-73" d="M187.98278,209.88806l-4.55865-2.47986q.05514.03.11137.05764l4.55865,2.47986q-.05622-.02764-.11137-.05764"/><path class="cls-74" d="M188.09415,209.9457l-4.55865-2.47986a3.07676,3.07676,0,0,0,.586.21711l4.55865,2.47986a3.07676,3.07676,0,0,1-.586-.21711"/><path class="cls-70" d="M188.68016,210.1628l-4.55865-2.47986a3.29966,3.29966,0,0,0,1.28872.06847,3.75227,3.75227,0,0,0,1.07707-.32541l4.55865,2.47986a3.75227,3.75227,0,0,1-1.07707.32541,3.29966,3.29966,0,0,1-1.28872-.06847"/><path class="cls-74" d="M191.04595,209.90586,186.4873,207.426a4.20469,4.20469,0,0,0,.59936-.34648l4.55865,2.47986a4.20469,4.20469,0,0,1-.59936.34648"/><path class="cls-73" d="M191.64531,209.55938l-4.55865-2.47986q.08666-.06.1719-.12513l4.55865,2.47986q-.08522.06517-.1719.12513"/></g></g></g><g class="cls-3"><g class="cls-84"><g class="cls-3"><path class="cls-73" d="M201.24576,183.32254l-4.55865-2.47986q.05578.03035.11291.0584l4.55865,2.47986q-.05712-.028-.11291-.0584"/><path class="cls-74" d="M201.35867,183.38094,196.8,180.90108a3.05665,3.05665,0,0,0,.58594.21644l4.55865,2.47986a3.05665,3.05665,0,0,1-.58594-.21644"/><path class="cls-70" d="M201.94461,183.59737l-4.55865-2.47986a3.29454,3.29454,0,0,0,1.28426.06546l4.55865,2.47986a3.29453,3.29453,0,0,1-1.28426-.06546"/></g></g></g><g class="cls-3"><g class="cls-85"><g class="cls-3"><path class="cls-70" d="M203.22886,183.66283l-4.55865-2.47986a3.7849,3.7849,0,0,0,1.08224-.32553l4.55865,2.47986a3.7849,3.7849,0,0,1-1.08224.32553"/><path class="cls-74" d="M204.31111,183.3373l-4.55865-2.47986a4.19747,4.19747,0,0,0,.60292-.34776l4.55865,2.47986a4.19746,4.19746,0,0,1-.60292.34776"/><path class="cls-73" d="M204.914,182.98955l-4.55865-2.47986a4.49279,4.49279,0,0,0,.44909-.35542l4.55865,2.47986a4.49278,4.49278,0,0,1-.44909.35542"/><path class="cls-75" d="M205.36313,182.63413l-4.55865-2.47986a4.70213,4.70213,0,0,0,.379-.38284l4.55865,2.47986a4.70212,4.70212,0,0,1-.379.38284"/><path class="cls-76" d="M205.74217,182.25129l-4.55865-2.47986a4.83389,4.83389,0,0,0,.33431-.4243l4.55865,2.47986a4.83391,4.83391,0,0,1-.33431.4243"/><path class="cls-77" d="M206.07648,181.827l-4.55865-2.47986a4.88426,4.88426,0,0,0,.30226-.4902l4.55865,2.47986a4.88422,4.88422,0,0,1-.30226.4902"/><path class="cls-78" d="M206.37874,181.33679l-4.55865-2.47986a4.84133,4.84133,0,0,0,.281-.6243l4.55865,2.47986a4.84132,4.84132,0,0,1-.281.6243"/><path class="cls-80" d="M206.65978,180.71249l-4.55865-2.47986a4.59355,4.59355,0,0,0,.28539-1.574,3.46049,3.46049,0,0,0-1.72009-3.13178l4.55865,2.47986a3.46049,3.46049,0,0,1,1.72009,3.13178,4.59354,4.59354,0,0,1-.28539,1.574"/></g></g></g><polygon class="cls-69" points="174.667 233.272 170.108 230.792 169.439 224.594 173.998 227.074 174.667 233.272"/><polygon class="cls-86" points="210.314 154.48 205.756 152 211.519 148.978 216.078 151.457 210.314 154.48"/><g class="cls-3"><g class="cls-87"><g class="cls-3"><path class="cls-73" d="M174.75832,215.569l-4.55865-2.47986q.05578.03035.11291.0584l4.55865,2.47986q-.05712-.028-.11291-.0584"/><path class="cls-74" d="M174.87122,215.62742l-4.55865-2.47986a3.05669,3.05669,0,0,0,.58595.21644l4.55865,2.47986a3.05668,3.05668,0,0,1-.58595-.21644"/><path class="cls-70" d="M175.45717,215.84386l-4.55865-2.47986a3.29463,3.29463,0,0,0,1.28429.06546l4.55865,2.47986a3.29463,3.29463,0,0,1-1.28429-.06546"/></g></g></g><g class="cls-3"><g class="cls-88"><g class="cls-3"><path class="cls-70" d="M176.74146,215.90931l-4.55865-2.47986a3.8002,3.8002,0,0,0,1.08679-.32669l4.55865,2.47986a3.8002,3.8002,0,0,1-1.08679.32669"/><path class="cls-74" d="M177.82825,215.58263l-4.55865-2.47986a4.19394,4.19394,0,0,0,.60245-.34745l4.55865,2.47986a4.19392,4.19392,0,0,1-.60245.34745"/><path class="cls-73" d="M178.4307,215.23517l-4.55865-2.47986a4.48,4.48,0,0,0,.4478-.35438l4.55865,2.47986a4.48,4.48,0,0,1-.4478.35438"/><path class="cls-75" d="M178.8785,214.88079l-4.55865-2.47986a4.68543,4.68543,0,0,0,.37773-.38151l4.55865,2.47986a4.68543,4.68543,0,0,1-.37773.38151"/><path class="cls-76" d="M179.25623,214.49928l-4.55865-2.47986a4.81772,4.81772,0,0,0,.33316-.42285l4.55865,2.47986a4.81772,4.81772,0,0,1-.33316.42285"/><path class="cls-77" d="M179.58939,214.07643l-4.55865-2.47986a4.87261,4.87261,0,0,0,.30164-.48921l4.55865,2.47986a4.87261,4.87261,0,0,1-.30164.48921"/><path class="cls-78" d="M179.891,213.58722l-4.55865-2.47986a4.83811,4.83811,0,0,0,.28062-.6234l4.55865,2.47986a4.8381,4.8381,0,0,1-.28062.6234"/><path class="cls-80" d="M180.17165,212.96382,175.613,210.484a4.6065,4.6065,0,0,0,.28611-1.57878,3.46693,3.46693,0,0,0-1.71827-3.14148l4.55865,2.47986a3.46693,3.46693,0,0,1,1.71827,3.14148,4.6065,4.6065,0,0,1-.28611,1.57878"/></g></g></g><g class="cls-3"><g class="cls-89"><g class="cls-3"><path class="cls-73" d="M197.73171,169.56109l-4.55865-2.47986q.05514.03.11137.05764l4.55865,2.47986q-.05622-.02764-.11137-.05764"/><path class="cls-74" d="M197.84307,169.61873l-4.55865-2.47986a3.07681,3.07681,0,0,0,.586.21711l4.55865,2.47986a3.0768,3.0768,0,0,1-.586-.21711"/><path class="cls-70" d="M198.42909,169.83584l-4.55865-2.47986a3.29975,3.29975,0,0,0,1.28876.06847,3.75171,3.75171,0,0,0,1.07693-.32536l4.55865,2.47986a3.75171,3.75171,0,0,1-1.07693.32536,3.29975,3.29975,0,0,1-1.28876-.06847"/><path class="cls-74" d="M200.79477,169.579l-4.55865-2.47986a4.20467,4.20467,0,0,0,.59936-.34648l4.55865,2.47986a4.20467,4.20467,0,0,1-.59936.34648"/><path class="cls-73" d="M201.39413,169.23247l-4.55865-2.47986q.08673-.06.172-.12523.14992-.11423.28865-.23923l4.55865,2.47986q-.13869.12483-.28865.23923-.08529.06523-.172.12523"/><path class="cls-75" d="M201.85483,168.868l-4.55865-2.47986a4.66169,4.66169,0,0,0,.37558-.37928l4.55865,2.47986a4.66168,4.66168,0,0,1-.37558.37928"/><path class="cls-76" d="M202.23041,168.48873l-4.55865-2.47986a4.75394,4.75394,0,0,0,.32941-.41818l4.55865,2.47986a4.754,4.754,0,0,1-.32941.41818"/><path class="cls-77" d="M202.55982,168.07055l-4.55865-2.47986a4.82928,4.82928,0,0,0,.29892-.48516l4.55865,2.47986a4.82929,4.82929,0,0,1-.29892.48516"/><path class="cls-78" d="M202.85874,167.58539l-4.55865-2.47986a4.85487,4.85487,0,0,0,.28221-.62806l4.55865,2.47986a4.8549,4.8549,0,0,1-.28221.62806"/><path class="cls-80" d="M203.141,166.95732l-4.55865-2.47986a4.20409,4.20409,0,0,0-.20287-3.51426,3.14267,3.14267,0,0,0-1.21962-1.20312l4.55865,2.47986a3.14267,3.14267,0,0,1,1.21962,1.20312,4.20409,4.20409,0,0,1,.20287,3.51426"/></g></g></g><polygon class="cls-90" points="162.848 232.608 158.289 230.128 159.142 223.802 163.701 226.282 162.848 232.608"/><polygon class="cls-91" points="203.257 146.854 198.699 144.374 203.456 139.661 208.015 142.14 203.257 146.854"/><g class="cls-3"><g class="cls-92"><g class="cls-3"><path class="cls-73" d="M161.5538,213.6036l-4.55865-2.47986q.05566.03028.113.05848l4.55865,2.47986q-.05732-.02819-.113-.05848"/><path class="cls-74" d="M161.66679,213.66208l-4.55865-2.47986.01517.00741a3.07754,3.07754,0,0,0,.57118.21025l4.55865,2.47986a3.07753,3.07753,0,0,1-.57118-.21025l-.01517-.00741"/><path class="cls-70" d="M162.25314,213.87974l-4.55865-2.47986a3.26467,3.26467,0,0,0,1.27694.06726,3.80644,3.80644,0,0,0,1.08991-.32948l4.55865,2.47986a3.80644,3.80644,0,0,1-1.08991.32948,3.26467,3.26467,0,0,1-1.27694-.06726"/><path class="cls-74" d="M164.62,213.61752l-4.55865-2.47986a4.23324,4.23324,0,0,0,.60379-.34854l4.55865,2.47986a4.23324,4.23324,0,0,1-.60379.34854"/><path class="cls-73" d="M165.22378,213.269l-4.55865-2.47986a4.46477,4.46477,0,0,0,.447-.35374l4.55865,2.47986a4.46477,4.46477,0,0,1-.447.35374"/><path class="cls-75" d="M165.67082,212.91524l-4.55865-2.47986a4.6197,4.6197,0,0,0,.37183-.37556l4.55865,2.47986a4.61971,4.61971,0,0,1-.37183.37556"/><path class="cls-76" d="M166.04265,212.53968l-4.55865-2.47986a4.73908,4.73908,0,0,0,.32766-.41585l4.55865,2.47986a4.7391,4.7391,0,0,1-.32766.41585"/><path class="cls-77" d="M166.37031,212.12383l-4.55865-2.47986a4.84946,4.84946,0,0,0,.30086-.48822l4.55865,2.47986a4.84942,4.84942,0,0,1-.30086.48822"/><path class="cls-78" d="M166.67117,211.63561l-4.55865-2.47986q.03913-.07277.0761-.14745l4.55865,2.47986q-.037.07468-.0761.14745"/></g></g></g><g class="cls-3"><g class="cls-93"><g class="cls-3"><path class="cls-78" d="M166.74727,211.48816l-4.55865-2.47986a4.87713,4.87713,0,0,0,.21907-.507l4.55865,2.47986a4.87712,4.87712,0,0,1-.21907.507"/><path class="cls-80" d="M166.96634,210.98119l-4.55865-2.47986a3.7727,3.7727,0,0,0-1.4344-4.701l4.55865,2.47986a3.7727,3.7727,0,0,1,1.4344,4.701"/></g></g></g><g class="cls-3"><g class="cls-94"><g class="cls-3"><path class="cls-73" d="M169.69389,196.55467l-4.55865-2.47986q.20152.10963.40786.211l4.55865,2.47986q-.20631-.1013-.40786-.211"/><path class="cls-74" d="M170.10175,196.76562l-4.55865-2.47986a11.02079,11.02079,0,0,0,2.11205.78035l4.55865,2.47986a11.02079,11.02079,0,0,1-2.11205-.78035"/><path class="cls-70" d="M172.2138,197.546l-4.55865-2.47986a11.80271,11.80271,0,0,0,4.60141.236l4.55865,2.47986a11.80271,11.80271,0,0,1-4.60141-.236"/></g></g></g><g class="cls-3"><g class="cls-95"><g class="cls-3"><path class="cls-70" d="M176.81522,197.782l-4.55865-2.47986a13.60544,13.60544,0,0,0,3.89008-1.1701l4.55865,2.47986a13.60544,13.60544,0,0,1-3.89008,1.1701"/><path class="cls-74" d="M180.7053,196.61188l-4.55865-2.47986a15.10284,15.10284,0,0,0,2.1693-1.25118l4.55865,2.47986a15.10285,15.10285,0,0,1-2.1693,1.25118"/><path class="cls-73" d="M182.87459,195.36071l-4.55865-2.47986a16.182,16.182,0,0,0,1.61792-1.28041l4.55865,2.47986a16.18206,16.18206,0,0,1-1.61792,1.28041"/><path class="cls-75" d="M184.49252,194.0803l-4.55865-2.47986a16.95076,16.95076,0,0,0,1.36651-1.38022l4.55865,2.47986a16.9508,16.9508,0,0,1-1.36651,1.38022"/><path class="cls-76" d="M185.859,192.70008l-4.55865-2.47986a17.436,17.436,0,0,0,1.20572-1.53031l4.55865,2.47986a17.436,17.436,0,0,1-1.20572,1.53031"/><path class="cls-77" d="M187.06475,191.16978l-4.55865-2.47986a17.62023,17.62023,0,0,0,1.09057-1.76864l4.55865,2.47986a17.62021,17.62021,0,0,1-1.09057,1.76864"/><path class="cls-78" d="M188.15531,189.40114l-4.55865-2.47986a17.45633,17.45633,0,0,0,1.01321-2.25073l4.55865,2.47986a17.45632,17.45632,0,0,1-1.01321,2.25073"/><path class="cls-80" d="M189.16852,187.15041l-4.55865-2.47986a16.514,16.514,0,0,0,1.02684-5.65788c.00952-5.12418-2.46876-9.27816-6.2016-11.30879l4.55865,2.47986c3.73284,2.03063,6.21112,6.18462,6.2016,11.30879a16.514,16.514,0,0,1-1.02684,5.65788"/></g></g></g><polygon class="cls-96" points="152.524 228.829 147.966 226.35 149.923 220.18 154.482 222.659 152.524 228.829"/><g class="cls-3"><g class="cls-97"><g class="cls-3"><path class="cls-78" d="M193.27344,158.37041l-4.55865-2.47986a4.9167,4.9167,0,0,0,.21721-.50381l4.55865,2.47986a4.91668,4.91668,0,0,1-.21721.50381"/><path class="cls-80" d="M193.49065,157.8666l-4.55865-2.47986a3.77457,3.77457,0,0,0-1.43358-4.70828l4.55865,2.47986a3.77457,3.77457,0,0,1,1.43358,4.70828"/></g></g></g><g class="cls-3"><g class="cls-98"><g class="cls-3"><path class="cls-73" d="M188.072,160.47838l-4.55865-2.47986q.05567.03028.113.05849l4.55865,2.47986q-.05732-.02819-.113-.05849"/><path class="cls-74" d="M188.185,160.53687,183.6263,158.057l.01517.00741a3.10764,3.10764,0,0,0,.57016.20916l4.55865,2.47986a3.10763,3.10763,0,0,1-.57016-.20916l-.01517-.00741"/><path class="cls-70" d="M188.77028,160.75344l-4.55865-2.47986a3.281,3.281,0,0,0,1.28354.06782,3.81475,3.81475,0,0,0,1.0925-.33026l4.55865,2.47986a3.81475,3.81475,0,0,1-1.0925.33026,3.281,3.281,0,0,1-1.28354-.06782"/><path class="cls-74" d="M191.14632,160.491l-4.55865-2.47986a4.2446,4.2446,0,0,0,.60519-.34937l4.55865,2.47986a4.2446,4.2446,0,0,1-.60519.34937"/><path class="cls-73" d="M191.75151,160.14163l-4.55865-2.47986a4.48207,4.48207,0,0,0,.449-.35528l4.55865,2.47986a4.48207,4.48207,0,0,1-.449.35528"/><path class="cls-75" d="M192.20048,159.78635l-4.55865-2.47986a4.6433,4.6433,0,0,0,.3736-.37737l4.55865,2.47986a4.6433,4.6433,0,0,1-.3736.37737"/><path class="cls-76" d="M192.57409,159.409l-4.55865-2.47986a4.76864,4.76864,0,0,0,.32965-.41838l4.55865,2.47986a4.76864,4.76864,0,0,1-.32965.41838"/><path class="cls-77" d="M192.90374,158.9906l-4.55865-2.47986a4.88441,4.88441,0,0,0,.30316-.492l4.55865,2.47986a4.88441,4.88441,0,0,1-.30316.492"/><path class="cls-78" d="M193.2069,158.49862l-4.55865-2.47986q.03408-.06338.06654-.12821l4.55865,2.47986q-.03246.06483-.06654.12821"/></g></g></g><polygon class="cls-99" points="198.664 136.401 194.105 133.922 197.546 135.582 202.104 138.062 198.664 136.401"/><polygon class="cls-73" points="194.745 141.922 190.187 139.442 194.105 133.922 198.664 136.401 194.745 141.922"/><g class="cls-3"><g class="cls-100"><g class="cls-3"><path class="cls-80" d="M154.48183,222.6594l-4.55865-2.47986a33.94921,33.94921,0,0,1-4.05507-2.77516l4.55865,2.47986a33.94921,33.94921,0,0,0,4.05507,2.77516"/></g></g></g><g class="cls-3"><g class="cls-101"><g class="cls-3"><path class="cls-70" d="M190.16742,140.49114l-4.55865-2.47986q.39245.09187.7815.19286l4.55865,2.47986q-.389-.101-.7815-.19286"/><path class="cls-74" d="M190.94892,140.684l-4.55865-2.47986a32.33206,32.33206,0,0,1,3.79657,1.23817l4.55865,2.47986a32.33205,32.33205,0,0,0-3.79657-1.23817"/></g></g></g><polygon class="cls-102" points="142.848 221.468 138.289 218.988 141.863 213.628 146.422 216.108 142.848 221.468"/><polygon class="cls-69" points="145.654 224.099 141.095 221.619 138.289 218.988 142.848 221.468 145.654 224.099"/><g class="cls-3"><g class="cls-103"><g class="cls-3"><path class="cls-73" d="M155.73363,204.064l-4.55865-2.47986q.15026-.1145.28935-.23982l4.55865,2.47986q-.139.12515-.28935.23982"/><path class="cls-75" d="M156.023,203.82416l-4.55865-2.47986a4.67909,4.67909,0,0,0,.377-.38069L156.4,203.44347a4.67908,4.67908,0,0,1-.377.38069"/><path class="cls-76" d="M156.4,203.44347l-4.55865-2.47986a4.77228,4.77228,0,0,0,.33067-.41978l4.55865,2.47986a4.77226,4.77226,0,0,1-.33067.41978"/><path class="cls-77" d="M156.73062,203.02369l-4.55865-2.47986a4.844,4.844,0,0,0,.29992-.4868l4.55865,2.47986a4.844,4.844,0,0,1-.29992.4868"/><path class="cls-78" d="M157.03055,202.5369,152.4719,200.057a4.85966,4.85966,0,0,0,.28248-.62869l4.55865,2.47986a4.85966,4.85966,0,0,1-.28248.62869"/><path class="cls-80" d="M157.313,201.90821l-4.55865-2.47986a4.16,4.16,0,0,0-.20751-3.49981,3.13913,3.13913,0,0,0-1.22148-1.20831l4.55865,2.47986a3.13913,3.13913,0,0,1,1.22148,1.20831,4.16,4.16,0,0,1,.20751,3.49981"/></g></g></g><g class="cls-3"><g class="cls-104"><g class="cls-3"><path class="cls-73" d="M151.89374,204.51774l-4.55865-2.47986q.05522.03.11154.05772l4.55865,2.47986q-.05631-.02768-.11154-.05772"/><path class="cls-74" d="M152.00528,204.57546l-4.55865-2.47986a3.08162,3.08162,0,0,0,.58666.21735l4.55865,2.47986a3.08162,3.08162,0,0,1-.58666-.21735"/><path class="cls-70" d="M152.59194,204.79281l-4.55865-2.47986a3.30673,3.30673,0,0,0,1.29164.06867,3.75744,3.75744,0,0,0,1.0786-.32582l4.55865,2.47986a3.75744,3.75744,0,0,1-1.0786.32582,3.30673,3.30673,0,0,1-1.29164-.06867"/><path class="cls-74" d="M154.96217,204.53566l-4.55865-2.47986a4.20685,4.20685,0,0,0,.59968-.34666l4.55865,2.47986a4.20685,4.20685,0,0,1-.59968.34666"/><path class="cls-73" d="M155.56185,204.189l-4.55865-2.47986q.08659-.05992.17178-.125l4.55865,2.47986q-.08516.06512-.17178.125"/></g></g></g><g class="cls-3"><g class="cls-105"><g class="cls-3"><path class="cls-73" d="M174.86432,158.51488l-4.55865-2.47986q.05578.03035.11291.0584l4.55865,2.47986q-.05712-.028-.11291-.0584"/><path class="cls-74" d="M174.97722,158.57327l-4.55865-2.47986a3.05669,3.05669,0,0,0,.58595.21644l4.55865,2.47986a3.05669,3.05669,0,0,1-.58594-.21644"/><path class="cls-70" d="M175.56317,158.78971l-4.55865-2.47986a3.29455,3.29455,0,0,0,1.28426.06546,3.8001,3.8001,0,0,0,1.08676-.32668l4.55865,2.47986a3.8001,3.8001,0,0,1-1.08676.32668,3.29455,3.29455,0,0,1-1.28426-.06546"/><path class="cls-74" d="M177.9342,158.52849l-4.55865-2.47986a4.19392,4.19392,0,0,0,.60244-.34745l4.55865,2.47986a4.19393,4.19393,0,0,1-.60244.34745"/><path class="cls-73" d="M178.53664,158.181l-4.55865-2.47986a4.48,4.48,0,0,0,.44781-.35439l4.55865,2.47986a4.48,4.48,0,0,1-.44781.35439"/><path class="cls-75" d="M178.98445,157.82665l-4.55865-2.47986a4.68552,4.68552,0,0,0,.37774-.38152l4.55865,2.47986a4.68552,4.68552,0,0,1-.37774.38152"/><path class="cls-76" d="M179.36218,157.44513l-4.55865-2.47986a4.81784,4.81784,0,0,0,.33317-.42286l4.55865,2.47986a4.81784,4.81784,0,0,1-.33317.42286"/><path class="cls-77" d="M179.69536,157.02227l-4.55865-2.47986a4.87269,4.87269,0,0,0,.30165-.48922L179.997,156.533a4.87271,4.87271,0,0,1-.30165.48922"/><path class="cls-78" d="M179.997,156.533l-4.55865-2.47986a4.83817,4.83817,0,0,0,.28063-.62341l4.55865,2.47986a4.83818,4.83818,0,0,1-.28063.62341"/><path class="cls-80" d="M180.27763,155.90964l-4.55865-2.47986a4.6064,4.6064,0,0,0,.28611-1.57874,3.467,3.467,0,0,0-1.71826-3.14154l4.55865,2.47986a3.467,3.467,0,0,1,1.71826,3.14154,4.6064,4.6064,0,0,1-.28611,1.57874"/></g></g></g><polygon class="cls-106" points="186.825 133.38 182.266 130.901 186.101 131.468 190.66 133.948 186.825 133.38"/><polygon class="cls-77" points="184.627 139.653 180.069 137.174 182.266 130.901 186.825 133.38 184.627 139.653"/><g class="cls-3"><g class="cls-107"><g class="cls-3"><path class="cls-80" d="M146.42159,216.108l-4.55865-2.47986a33.80486,33.80486,0,0,1-2.85236-3.57521l4.55865,2.47986a33.80488,33.80488,0,0,0,2.85236,3.57521"/></g></g></g><g class="cls-3"><g class="cls-108"><g class="cls-3"><path class="cls-70" d="M179.88624,139.6455l-4.55865-2.47986a36.25475,36.25475,0,0,1,4.74093.00792l4.55865,2.47986a36.25474,36.25474,0,0,0-4.74093-.00792"/></g></g></g><g class="cls-3"><g class="cls-109"><g class="cls-3"><path class="cls-73" d="M148.385,190.75163l-4.55865-2.47986q.05578.03035.11291.0584l4.55865,2.47986q-.05712-.028-.11291-.0584"/><path class="cls-74" d="M148.49786,190.81l-4.55865-2.47986a3.05672,3.05672,0,0,0,.586.21644l4.55865,2.47986a3.05671,3.05671,0,0,1-.586-.21644"/><path class="cls-70" d="M149.08381,191.02647l-4.55865-2.47986a3.29467,3.29467,0,0,0,1.28431.06546,3.79992,3.79992,0,0,0,1.08671-.32666l4.55865,2.47986a3.79992,3.79992,0,0,1-1.08671.32666,3.29467,3.29467,0,0,1-1.28431-.06546"/><path class="cls-74" d="M151.45484,190.76526l-4.55865-2.47986a4.19379,4.19379,0,0,0,.60242-.34744l4.55865,2.47986a4.19379,4.19379,0,0,1-.60242.34744"/><path class="cls-73" d="M152.05726,190.41782l-4.55865-2.47986a4.48,4.48,0,0,0,.4478-.35438l4.55865,2.47986a4.47994,4.47994,0,0,1-.4478.35438"/><path class="cls-75" d="M152.50506,190.06344l-4.55865-2.47986a4.68549,4.68549,0,0,0,.37774-.38152l4.55865,2.47986a4.68549,4.68549,0,0,1-.37774.38152"/><path class="cls-76" d="M152.88279,189.68192l-4.55865-2.47986a4.81785,4.81785,0,0,0,.33317-.42286l4.55865,2.47986a4.81785,4.81785,0,0,1-.33317.42286"/><path class="cls-77" d="M153.216,189.25906l-4.55865-2.47986a4.8728,4.8728,0,0,0,.30165-.48923l4.55865,2.47986a4.8728,4.8728,0,0,1-.30165.48923"/><path class="cls-78" d="M153.51762,188.76983,148.959,186.29a4.83831,4.83831,0,0,0,.28063-.62342l4.55865,2.47986a4.8383,4.8383,0,0,1-.28063.62342"/><path class="cls-80" d="M153.79825,188.14641l-4.55865-2.47986a4.6066,4.6066,0,0,0,.28612-1.57881,3.4591,3.4591,0,0,0-1.71686-3.13246l4.55865,2.47986a3.4591,3.4591,0,0,1,1.71686,3.13246,4.6066,4.6066,0,0,1-.28612,1.57881"/></g></g></g><polygon class="cls-69" points="138.318 215.717 133.759 213.237 131.78 209.799 136.338 212.278 138.318 215.717"/><polygon class="cls-110" points="136.338 212.278 131.78 209.799 136.161 205.181 140.719 207.661 136.338 212.278"/><g class="cls-3"><g class="cls-111"><g class="cls-3"><path class="cls-73" d="M161.63968,164.19154l-4.55865-2.47986q.055.02994.11119.05754l4.55865,2.47986q-.05614-.0276-.11119-.05754"/><path class="cls-74" d="M161.75086,164.24908l-4.55865-2.47986a3.07736,3.07736,0,0,0,.58578.217l4.55865,2.47986a3.07736,3.07736,0,0,1-.58578-.217"/><path class="cls-70" d="M162.33665,164.46607l-4.55865-2.47986a3.3135,3.3135,0,0,0,1.29418.0687,3.76548,3.76548,0,0,0,1.08084-.32645l4.55865,2.47986a3.76548,3.76548,0,0,1-1.08084.32645,3.3135,3.3135,0,0,1-1.29418-.0687"/><path class="cls-74" d="M164.71166,164.20832l-4.55865-2.47986a4.20557,4.20557,0,0,0,.5995-.34653l4.55865,2.47986a4.20559,4.20559,0,0,1-.5995.34653"/><path class="cls-73" d="M165.31116,163.8618l-4.55865-2.47986q.08643-.0598.17144-.12478.14629-.11188.282-.23413l4.55865,2.47986q-.13564.12209-.282.23413-.085.065-.17144.12478"/><path class="cls-75" d="M165.76457,163.50289l-4.55865-2.47986a4.66733,4.66733,0,0,0,.37594-.37967l4.55865,2.47986a4.66733,4.66733,0,0,1-.37594.37967"/><path class="cls-76" d="M166.14051,163.12322l-4.55865-2.47986a4.76731,4.76731,0,0,0,.33029-.4193l4.55865,2.47986a4.76731,4.76731,0,0,1-.33029.4193"/><path class="cls-77" d="M166.4708,162.70392l-4.55865-2.47986a4.84526,4.84526,0,0,0,.29988-.48671l4.55865,2.47986a4.84525,4.84525,0,0,1-.29988.48671"/><path class="cls-78" d="M166.77068,162.2172l-4.55865-2.47986a4.86637,4.86637,0,0,0,.28291-.62956l4.55865,2.47986a4.86638,4.86638,0,0,1-.28291.62956"/><path class="cls-80" d="M167.05359,161.58764l-4.55865-2.47986a4.16684,4.16684,0,0,0-.20712-3.50514,3.12873,3.12873,0,0,0-1.223-1.21433l4.55865,2.47986a3.12873,3.12873,0,0,1,1.223,1.21433,4.16684,4.16684,0,0,1,.20712,3.50514"/></g></g></g><g class="cls-3"><g class="cls-112"><g class="cls-3"><path class="cls-80" d="M140.71929,207.66073l-4.55865-2.47986a38.963,38.963,0,0,1-1.969-4.85756l4.55865,2.47986a38.963,38.963,0,0,0,1.969,4.85756"/></g></g></g><polygon class="cls-80" points="174.151 140.434 169.592 137.954 170.293 131.529 174.851 134.009 174.151 140.434"/><polygon class="cls-113" points="174.851 134.009 170.293 131.529 174.266 130.97 178.825 133.45 174.851 134.009"/><g class="cls-3"><g class="cls-114"><g class="cls-3"><path class="cls-78" d="M157.15108,173.88l-4.55865-2.47986a4.87588,4.87588,0,0,0,.219-.50689l4.55865,2.47986a4.87586,4.87586,0,0,1-.219.50689"/><path class="cls-80" d="M157.37012,173.37309l-4.55865-2.47986a3.76741,3.76741,0,0,0-1.43543-4.6966l4.55865,2.47986a3.76741,3.76741,0,0,1,1.43543,4.6966"/></g></g></g><g class="cls-3"><g class="cls-115"><g class="cls-3"><path class="cls-73" d="M151.94951,175.99645l-4.55865-2.47986q.05566.03028.113.05848l4.55865,2.47986q-.05732-.02819-.113-.05848"/><path class="cls-74" d="M152.0625,176.05493l-4.55865-2.47986.01525.00745a3.10657,3.10657,0,0,0,.57026.20924l4.55865,2.47986a3.10658,3.10658,0,0,1-.57026-.20924l-.01525-.00745"/><path class="cls-70" d="M152.648,176.27162l-4.55865-2.47986a3.27633,3.27633,0,0,0,1.28171.0678,3.80657,3.80657,0,0,0,1.09008-.3295l4.55865,2.47986a3.80657,3.80657,0,0,1-1.09008.3295,3.27633,3.27633,0,0,1-1.28171-.0678"/><path class="cls-74" d="M155.01981,176.00991,150.46116,173.53a4.2369,4.2369,0,0,0,.60431-.34887l4.55865,2.47986a4.2369,4.2369,0,0,1-.60431.34887"/><path class="cls-73" d="M155.62412,175.661l-4.55865-2.47986a4.478,4.478,0,0,0,.4484-.35483l4.55865,2.47986a4.478,4.478,0,0,1-.4484.35483"/><path class="cls-75" d="M156.07252,175.30621l-4.55865-2.47986a4.64452,4.64452,0,0,0,.3738-.37757l4.55865,2.47986a4.64457,4.64457,0,0,1-.3738.37757"/><path class="cls-76" d="M156.44632,174.92864l-4.55865-2.47986a4.77648,4.77648,0,0,0,.33021-.41911l4.55865,2.47986a4.7765,4.7765,0,0,1-.33021.41911"/><path class="cls-77" d="M156.77653,174.50954l-4.55865-2.47986a4.90027,4.90027,0,0,0,.30408-.49348l4.55865,2.47986a4.90029,4.90029,0,0,1-.30408.49348"/><path class="cls-78" d="M157.0806,174.01605l-4.55865-2.47986q.03614-.06722.07048-.13607l4.55865,2.47986q-.03433.06884-.07048.13607"/></g></g></g><g class="cls-3"><g class="cls-116"><g class="cls-3"><path class="cls-70" d="M169.60777,141.68645l-4.55865-2.47986a40.88371,40.88371,0,0,1,4.54309-1.2522l4.55865,2.47986a40.88373,40.88373,0,0,0-4.54309,1.2522"/></g></g></g><g class="cls-3"><g class="cls-117"><g class="cls-3"><path class="cls-80" d="M137.30335,197.09425l-4.55865-2.47986a43.98859,43.98859,0,0,1-.59147-4.92149l4.55865,2.47986a43.98861,43.98861,0,0,0,.59147,4.92149"/></g></g></g><polygon class="cls-69" points="133.038 204.099 128.479 201.619 127.462 197.622 132.02 200.101 133.038 204.099"/><polygon class="cls-118" points="132.02 200.101 127.462 197.622 132.745 194.614 137.303 197.094 132.02 200.101"/><g class="cls-3"><g class="cls-119"><g class="cls-3"><path class="cls-74" d="M159.37177,146.72942l-4.55865-2.47986a47.15351,47.15351,0,0,1,4.698-2.71746l4.55865,2.47986a47.15351,47.15351,0,0,0-4.698,2.71746"/></g></g></g><polygon class="cls-120" points="163.609 137.75 159.05 135.27 162.889 133.624 167.448 136.104 163.609 137.75"/><polygon class="cls-121" points="164.07 144.012 159.511 141.532 159.05 135.27 163.609 137.75 164.07 144.012"/><g class="cls-3"><g class="cls-122"><g class="cls-3"><path class="cls-80" d="M136.70725,186.06237l-4.55865-2.47986a50.10443,50.10443,0,0,1,.67511-5.60951l4.55865,2.47986a50.10445,50.10445,0,0,0-.67511,5.60951"/></g></g></g><g class="cls-3"><g class="cls-123"><g class="cls-3"><path class="cls-75" d="M150.74121,154.0534l-4.55865-2.47986q1.47982-1.57431,3.06489-3.00816l4.55865,2.47986q-1.58741,1.42911-3.06489,3.00816"/><path class="cls-73" d="M153.8061,151.04524l-4.55865-2.47986q.31057-.2796.62557-.553l4.55865,2.47986q-.315.2734-.62557.553"/></g></g></g><polygon class="cls-113" points="131.066 187.97 126.507 185.49 132.149 183.583 136.707 186.062 131.066 187.97"/><polygon class="cls-124" points="131.058 192.259 126.499 189.779 126.507 185.49 131.066 187.97 131.058 192.259"/><g class="cls-3"><g class="cls-125"><g class="cls-3"><path class="cls-80" d="M138.89126,174.34584l-4.55865-2.47986q.39-1.26445.84625-2.50414l4.55865,2.47986q-.45569,1.23907-.84625,2.50414"/><path class="cls-78" d="M139.73751,171.84169l-4.55865-2.47986q.44789-1.21786.9567-2.4082l4.55865,2.47986q-.5083,1.18975-.9567,2.4082"/></g></g></g><g class="cls-3"><g class="cls-126"><g class="cls-3"><path class="cls-77" d="M143.53974,163.73508l-4.55865-2.47986q1.1483-1.98362,2.459-3.84722l4.55865,2.47986q-1.30867,1.86548-2.459,3.84722"/><path class="cls-76" d="M145.9987,159.88787,141.44,157.408q.33947-.48391.68926-.96031l4.55865,2.47986q-.34976.47644-.68926.96031"/></g></g></g><polygon class="cls-69" points="154.432 150.492 149.873 148.012 147.593 142.602 152.151 145.082 154.432 150.492"/><polygon class="cls-127" points="152.151 145.082 147.593 142.602 151.033 139.975 155.592 142.455 152.151 145.082"/><polygon class="cls-118" points="133.254 174.248 128.695 171.768 134.333 171.866 138.891 174.346 133.254 174.248"/><polygon class="cls-78" points="132.221 178.533 127.662 176.054 128.695 171.768 133.254 174.248 132.221 178.533"/><polygon class="cls-69" points="146.688 158.928 142.129 156.448 138.847 151.766 143.405 154.246 146.688 158.928"/><polygon class="cls-128" points="143.405 154.246 138.847 151.766 141.664 148.336 146.223 150.816 143.405 154.246"/><polygon class="cls-69" points="140.694 169.433 136.136 166.954 131.56 163.923 136.119 166.403 140.694 169.433"/><polygon class="cls-129" points="138.113 162.415 133.554 159.935 138.981 161.255 143.54 163.735 138.113 162.415"/><path class="cls-130" d="M223.0335,179.33228l-6.07326,1.61416q-.17284,2.4618-.58567,4.87093l5.66686,1.6324-1.03305,4.28548-6.119.33266a51.13253,51.13253,0,0,1-1.86749,5.16344l4.6461,3.617-1.99347,3.99692-5.55441-1.81248c-.84361,1.467-1.76722,2.876-2.73872,4.24l3.73938,4.6001-2.80929,3.42012-4.99159-3.01523a49.95717,49.95717,0,0,1-3.91519,3.82622l2.01526,5.8537-3.4405,2.6272-3.555-4.66069a44.19969,44.19969,0,0,1-4.201,2.4834l.8533,6.23313-3.839,1.646-2.54453-5.451a39.56914,39.56914,0,0,1-4.96781,1.4156l-1.08508,6.46235-3.9732.5584-.66921-6.1985a36.72481,36.72481,0,0,1-4.781.015l-2.53389,6.08687-3.83494-.56745.85263-6.32592a33.42049,33.42049,0,0,1-4.28208-1.28259l-3.46179,5.49127-3.43248-1.66126,1.95748-6.17007a33.94921,33.94921,0,0,1-4.05507-2.77516l-4.77283,4.21467-2.806-2.63094,3.57367-5.36a33.80488,33.80488,0,0,1-2.85236-3.57521L138.3179,215.717l-1.97972-3.43852,4.3811-4.61777a38.963,38.963,0,0,1-1.969-4.85756l-5.71233,1.29552-1.01767-3.99727,5.28307-3.00716a43.98861,43.98861,0,0,1-.59147-4.92149l-5.654.08586.008-4.28839,5.64143-1.90785a50.10445,50.10445,0,0,1,.67511-5.60951l-5.16186-1.9195,1.03305-4.28548,5.63771.098a50.08877,50.08877,0,0,1,1.80295-4.91234l-4.5751-3.03057,1.99346-3.9882,5.42717,1.32036a52.93928,52.93928,0,0,1,3.14822-4.80753l-3.28274-4.68158,2.81733-3.42983,4.51866,3.23726a50.53745,50.53745,0,0,1,3.69046-3.5612l-2.28034-5.41021,3.44044-2.62719,3.78,4.27462a47.15351,47.15351,0,0,1,4.698-2.71746l-.46089-6.26232,3.839-1.646,2.15989,5.58276a40.88373,40.88373,0,0,1,4.54309-1.2522l.70061-6.42556,3.9732-.5584,1.06157,6.19521a36.25474,36.25474,0,0,1,4.74093.00792l2.19794-6.273,3.83494.56745-.49263,6.5433a32.50746,32.50746,0,0,1,4.57807,1.431l3.91834-5.52076,3.44049,1.66014-2.3982,6.30976a32.85165,32.85165,0,0,1,3.55108,2.483l4.75772-4.71383,2.806,2.63087-3.48658,5.91823a35.23676,35.23676,0,0,1,2.98005,3.79064l5.76358-3.02278,1.97974,3.4298-4.88566,4.60221a39.00506,39.00506,0,0,1,1.69794,4.23881l6.03358-1.79875,1.01767,3.99727-5.55649,3.62469a44.44389,44.44389,0,0,1,.61505,5.1429l6.06166.34955ZM176.81522,197.782c7.3616-1.03461,13.36539-8.3438,13.38015-16.28945.01477-7.95418-5.965-13.5706-13.32661-12.536s-13.36537,8.33521-13.38015,16.28939c-.01476,7.94565,5.965,13.57067,13.32661,12.53606M157.15108,173.88c1.02891-2.05483.42466-4.41611-1.35159-5.27282a3.18429,3.18429,0,0,0-1.84806-.27784,4.39765,4.39765,0,0,0-3.21724,2.45052c-1.02892,2.06349-.42468,4.4247,1.34356,5.28254a3.20323,3.20323,0,0,0,1.852.277,4.39693,4.39693,0,0,0,3.22136-2.45943m34.66613,35.55427a4.53794,4.53794,0,0,0,1.37191-5.66423,3.1237,3.1237,0,0,0-3.20982-1.54725,3.96184,3.96184,0,0,0-1.85006.79758,4.52866,4.52866,0,0,0-1.37189,5.65558,3.12177,3.12177,0,0,0,3.21153,1.55534,3.95951,3.95951,0,0,0,1.84833-.797m1.45623-51.06385c1.02893-2.06349.42468-4.4247-1.35158-5.28141a3.18122,3.18122,0,0,0-1.8464-.27775,4.396,4.396,0,0,0-3.21892,2.459c-1.02891,2.05483-.42466,4.41611,1.34357,5.274a3.20667,3.20667,0,0,0,1.8537.277,4.39793,4.39793,0,0,0,3.21962-2.45085M155.73363,204.064a4.52873,4.52873,0,0,0,1.37189-5.65558,3.11956,3.11956,0,0,0-3.214-1.55121,4.00576,4.00576,0,0,0-1.85385.794,4.54286,4.54286,0,0,0-1.36389,5.66311,3.12366,3.12366,0,0,0,3.20982,1.54719,3.963,3.963,0,0,0,1.85006-.79751m11.01364,7.42419c1.02891-2.0549.42466-4.41611-1.34357-5.27395a3.18728,3.18728,0,0,0-1.84984-.27759,4.38444,4.38444,0,0,0-3.21546,2.45027c-1.02892,2.06343-.42468,4.4247,1.34356,5.2826a3.18571,3.18571,0,0,0,1.84812.27751,4.38309,4.38309,0,0,0,3.2172-2.45884m31.12292-48.79365a4.53362,4.53362,0,0,0-1.36387,5.65445,3.12171,3.12171,0,0,0,3.21153,1.55534,3.95915,3.95915,0,0,0,1.84833-.79708,4.5472,4.5472,0,0,0,1.37191-5.66417,3.12461,3.12461,0,0,0-3.21225-1.54691,3.98621,3.98621,0,0,0-1.85564.79836m-36.08358-5.37028a4.54279,4.54279,0,0,0-1.36389,5.663,3.11446,3.11446,0,0,0,3.2081,1.54749,3.96691,3.96691,0,0,0,1.85178-.79775,4.53372,4.53372,0,0,0,1.36387-5.65452,3.10768,3.10768,0,0,0-3.20618-1.556,3.98338,3.98338,0,0,0-1.85368.79776m41.083,38.65441c1.02893-2.06355.42468-4.42476-1.34356-5.2826a3.20279,3.20279,0,0,0-1.84628-.274,4.3906,4.3906,0,0,0-3.219,2.45532c-1.02891,2.05477-.42466,4.416,1.34357,5.27395a3.20641,3.20641,0,0,0,1.8534.277,4.378,4.378,0,0,0,3.2119-2.4497M176.8623,150.84906a4.59978,4.59978,0,0,0-3.71624,4.52433,3.26884,3.26884,0,0,0,3.70137,3.48178,4.59977,4.59977,0,0,0,3.7163-4.52427,3.26887,3.26887,0,0,0-3.70143-3.48184m-.12084,65.06026a4.59972,4.59972,0,0,0,3.7163-4.52427,3.26888,3.26888,0,0,0-3.70143-3.48178,4.59981,4.59981,0,0,0-3.71624,4.52426,3.26881,3.26881,0,0,0,3.70137,3.48178m26.4874-32.24648a4.60662,4.60662,0,0,0,3.7163-4.52433,3.27062,3.27062,0,0,0-3.70145-3.47312,4.59734,4.59734,0,0,0-3.71623,4.51561,3.26886,3.26886,0,0,0,3.70137,3.48185m-56.56217,3.94725a3.26887,3.26887,0,0,0,3.70143,3.48184,4.59978,4.59978,0,0,0,3.71624-4.52433,3.26665,3.26665,0,0,0-3.70139-3.47313,4.59735,4.59735,0,0,0-3.71629,4.51562"/><polygon class="cls-131" points="136.119 166.403 131.56 163.923 133.554 159.935 138.113 162.415 136.119 166.403"/></g></svg>