<svg id="Layer_1" data-name="Layer 1" xmlns="http://www.w3.org/2000/svg" xmlns:xlink="http://www.w3.org/1999/xlink" viewBox="0 0 180 180"><defs><style>.cls-1{fill:none;}.cls-2{isolation:isolate;}.cls-3{fill:#804028;}.cls-4{fill:#a85335;}.cls-5{fill:#b05837;}.cls-6{clip-path:url(#clip-path);}.cls-7{fill:#9e4f32;}.cls-8{fill:#a35133;}.cls-9{fill:#a85435;}.cls-10{fill:#994c30;}.cls-11{fill:#944a2e;}.cls-12{fill:#8f472d;}.cls-13{fill:#8a452b;}.cls-14{clip-path:url(#clip-path-2);}.cls-15{fill:#85422a;}.cls-16{fill:#b55a39;}.cls-17{clip-path:url(#clip-path-3);}.cls-18{clip-path:url(#clip-path-4);}.cls-19{clip-path:url(#clip-path-5);}.cls-20{clip-path:url(#clip-path-6);}.cls-21{fill:#b25938;}.cls-22{clip-path:url(#clip-path-7);}.cls-23{clip-path:url(#clip-path-8);}.cls-24{clip-path:url(#clip-path-9);}.cls-25{fill:#86432a;}.cls-26{fill:#a75334;}.cls-27{clip-path:url(#clip-path-10);}.cls-28{clip-path:url(#clip-path-11);}.cls-29{clip-path:url(#clip-path-12);}.cls-30{clip-path:url(#clip-path-13);}.cls-31{fill:#8e462c;}.cls-32{clip-path:url(#clip-path-14);}.cls-33{clip-path:url(#clip-path-15);}.cls-34{fill:#9f4f32;}.cls-35{clip-path:url(#clip-path-16);}.cls-36{clip-path:url(#clip-path-17);}.cls-37{fill:#9c4e31;}.cls-38{clip-path:url(#clip-path-18);}.cls-39{clip-path:url(#clip-path-19);}.cls-40{clip-path:url(#clip-path-20);}.cls-41{fill:#ad5636;}.cls-42{clip-path:url(#clip-path-21);}.cls-43{clip-path:url(#clip-path-22);}.cls-44{clip-path:url(#clip-path-23);}.cls-45{fill:#a55234;}.cls-46{clip-path:url(#clip-path-24);}.cls-47{clip-path:url(#clip-path-25);}.cls-48{fill:#b45a39;}.cls-49{clip-path:url(#clip-path-26);}.cls-50{clip-path:url(#clip-path-27);}.cls-51{clip-path:url(#clip-path-28);}.cls-52{clip-path:url(#clip-path-29);}.cls-53{fill:#b15838;}.cls-54{clip-path:url(#clip-path-30);}.cls-55{fill:#b35938;}.cls-56{fill:#814028;}.cls-57{clip-path:url(#clip-path-31);}.cls-58{clip-path:url(#clip-path-32);}.cls-59{fill:#824129;}.cls-60{clip-path:url(#clip-path-33);}.cls-61{clip-path:url(#clip-path-34);}.cls-62{fill:#ac5636;}.cls-63{fill:#a25033;}.cls-64{fill:#a95435;}.cls-65{fill:#df6f46;}.cls-66{fill:#954a2f;}.cls-67{fill:gray;}.cls-68{fill:#a8a8a8;}.cls-69{fill:#b0b0b0;}.cls-70{clip-path:url(#clip-path-35);}.cls-71{fill:#8a8a8a;}.cls-72{fill:#858585;}.cls-73{clip-path:url(#clip-path-36);}.cls-74{fill:#9e9e9e;}.cls-75{fill:#a3a3a3;}.cls-76{fill:#999;}.cls-77{fill:#949494;}.cls-78{fill:#8f8f8f;}.cls-79{fill:#b5b5b5;}.cls-80{clip-path:url(#clip-path-37);}.cls-81{clip-path:url(#clip-path-38);}.cls-82{clip-path:url(#clip-path-39);}.cls-83{clip-path:url(#clip-path-40);}.cls-84{fill:#b2b2b2;}.cls-85{clip-path:url(#clip-path-41);}.cls-86{clip-path:url(#clip-path-42);}.cls-87{clip-path:url(#clip-path-43);}.cls-88{fill:#868686;}.cls-89{fill:#a7a7a7;}.cls-90{clip-path:url(#clip-path-44);}.cls-91{clip-path:url(#clip-path-45);}.cls-92{clip-path:url(#clip-path-46);}.cls-93{clip-path:url(#clip-path-47);}.cls-94{fill:#8e8e8e;}.cls-95{clip-path:url(#clip-path-48);}.cls-96{clip-path:url(#clip-path-49);}.cls-97{fill:#9f9f9f;}.cls-98{clip-path:url(#clip-path-50);}.cls-99{clip-path:url(#clip-path-51);}.cls-100{fill:#9c9c9c;}.cls-101{clip-path:url(#clip-path-52);}.cls-102{clip-path:url(#clip-path-53);}.cls-103{clip-path:url(#clip-path-54);}.cls-104{fill:#adadad;}.cls-105{clip-path:url(#clip-path-55);}.cls-106{clip-path:url(#clip-path-56);}.cls-107{clip-path:url(#clip-path-57);}.cls-108{fill:#a5a5a5;}.cls-109{clip-path:url(#clip-path-58);}.cls-110{clip-path:url(#clip-path-59);}.cls-111{fill:#b4b4b4;}.cls-112{clip-path:url(#clip-path-60);}.cls-113{clip-path:url(#clip-path-61);}.cls-114{clip-path:url(#clip-path-62);}.cls-115{fill:#b1b1b1;}.cls-116{clip-path:url(#clip-path-63);}.cls-117{fill:#b3b3b3;}.cls-118{fill:#818181;}.cls-119{clip-path:url(#clip-path-64);}.cls-120{clip-path:url(#clip-path-65);}.cls-121{fill:#828282;}.cls-122{clip-path:url(#clip-path-66);}.cls-123{clip-path:url(#clip-path-67);}.cls-124{fill:#acacac;}.cls-125{fill:#a2a2a2;}.cls-126{fill:#a9a9a9;}.cls-127{fill:#dfdfdf;}.cls-128{fill:#959595;}</style><clipPath id="clip-path"><path class="cls-1" d="M136.34164,124.25134l-3.60933-1.96343q.05874.03195.11943.06144a2.99214,2.99214,0,0,0,1.72565.256,4.10525,4.10525,0,0,0,3.011-2.296l3.60932,1.96343a4.10525,4.10525,0,0,1-3.011,2.296,2.99214,2.99214,0,0,1-1.72566-.256Q136.40037,124.2833,136.34164,124.25134Z"/></clipPath><clipPath id="clip-path-2"><path class="cls-1" d="M136.451,115.43853l3.60931,1.96344a3.62167,3.62167,0,0,1,1.13743,4.87077l-3.60932-1.96343A3.62168,3.62168,0,0,0,136.451,115.43853Z"/></clipPath><clipPath id="clip-path-3"><path class="cls-1" d="M127.39236,126.477l3.60932,1.96345a2.92671,2.92671,0,0,1,1.14117,1.12953,4.23325,4.23325,0,0,1-1.27511,5.28752l-3.60932-1.96343a4.23325,4.23325,0,0,0,1.27511-5.28752A2.92683,2.92683,0,0,0,127.39236,126.477Z"/></clipPath><clipPath id="clip-path-4"><path class="cls-1" d="M127.27727,135.27772l-3.60933-1.96342a3.00443,3.00443,0,0,0,1.863.3211,3.71819,3.71819,0,0,0,1.72751-.74136l3.60932,1.96343a3.71819,3.71819,0,0,1-1.72751.74136A3.00431,3.00431,0,0,1,127.27727,135.27772Z"/></clipPath><clipPath id="clip-path-5"><path class="cls-1" d="M139.67973,110.45445,136.0704,108.491a2.97131,2.97131,0,0,0,1.85178.31856l3.60932,1.96343A2.97128,2.97128,0,0,1,139.67973,110.45445Z"/></clipPath><clipPath id="clip-path-6"><path class="cls-1" d="M139.78232,101.63941l3.60931,1.96344a3.246,3.246,0,0,1,1.60731,2.94015,4.29938,4.29938,0,0,1-3.46743,4.23l-3.60932-1.96343a4.29938,4.29938,0,0,0,3.46743-4.23A3.246,3.246,0,0,0,139.78232,101.63941Z"/></clipPath><clipPath id="clip-path-7"><path class="cls-1" d="M114.92356,140.59286l-3.60933-1.96342a2.96187,2.96187,0,0,0,1.84624.31713l3.60932,1.96343A2.96171,2.96171,0,0,1,114.92356,140.59286Z"/></clipPath><clipPath id="clip-path-8"><path class="cls-1" d="M115.03125,131.78671l3.60931,1.96344a3.23257,3.23257,0,0,1,1.6047,2.92875,4.30743,4.30743,0,0,1-3.47548,4.2311l-3.60932-1.96343a4.30743,4.30743,0,0,0,3.47548-4.2311A3.23259,3.23259,0,0,0,115.03125,131.78671Z"/></clipPath><clipPath id="clip-path-9"><path class="cls-1" d="M136.38867,97.58157l-3.60932-1.96343a3.0044,3.0044,0,0,0,1.863.32112,3.71832,3.71832,0,0,0,1.72746-.74129,4.2332,4.2332,0,0,0,1.27511-5.28758,2.92661,2.92661,0,0,0-1.14114-1.12954l3.60932,1.96344a2.92654,2.92654,0,0,1,1.14115,1.12954,4.2332,4.2332,0,0,1-1.27511,5.28758,3.71832,3.71832,0,0,1-1.72746.74129A3.00436,3.00436,0,0,1,136.38867,97.58157Z"/></clipPath><clipPath id="clip-path-10"><path class="cls-1" d="M102.576,138.75565l-3.60933-1.96343q.05856.03184.119.06123a2.99154,2.99154,0,0,0,1.7256.25605,4.10541,4.10541,0,0,0,3.0111-2.296l3.60932,1.96343a4.10541,4.10541,0,0,1-3.0111,2.296,2.99154,2.99154,0,0,1-1.7256-.25605Q102.63456,138.78751,102.576,138.75565Z"/></clipPath><clipPath id="clip-path-11"><path class="cls-1" d="M102.68539,129.94287l3.60931,1.96344a3.61955,3.61955,0,0,1,1.13705,4.87059l-3.60932-1.96343A3.61956,3.61956,0,0,0,102.68539,129.94287Z"/></clipPath><clipPath id="clip-path-12"><path class="cls-1" d="M110.185,122.81143l-3.60932-1.96342a10.68134,10.68134,0,0,0,6.65633,1.147l3.60932,1.96343A10.68124,10.68124,0,0,1,110.185,122.81143Z"/></clipPath><clipPath id="clip-path-13"><path class="cls-1" d="M119.93835,96.20143l3.60931,1.96344a11.68008,11.68008,0,0,1,5.79892,10.56929c-.01379,7.42686-5.6243,14.2572-12.50525,15.22426L113.232,121.995c6.88094-.96705,12.49145-7.7974,12.50525-15.22426A11.68013,11.68013,0,0,0,119.93835,96.20143Z"/></clipPath><clipPath id="clip-path-14"><path class="cls-1" d="M127.36546,89.0972l-3.60932-1.96342q.05877.03195.11949.06146a2.9918,2.9918,0,0,0,1.72565.256,4.1054,4.1054,0,0,0,3.0111-2.296l3.60932,1.96343a4.1054,4.1054,0,0,1-3.0111,2.296,2.9918,2.9918,0,0,1-1.72566-.256Q127.42422,89.12917,127.36546,89.0972Z"/></clipPath><clipPath id="clip-path-15"><path class="cls-1" d="M127.47567,80.28478l3.60931,1.96345a3.61159,3.61159,0,0,1,1.13672,4.87044l-3.60932-1.96343A3.61162,3.61162,0,0,0,127.47567,80.28478Z"/></clipPath><clipPath id="clip-path-16"><path class="cls-1" d="M95.96043,147.22286l-3.60933-1.96343a32.3124,32.3124,0,0,1-3.78311-2.59731l3.60931,1.96344A32.31272,32.31272,0,0,0,95.96043,147.22286Z"/></clipPath><clipPath id="clip-path-17"><path class="cls-1" d="M129.32165,70.41182l-3.60933-1.96343a31.74335,31.74335,0,0,1,4.282,1.33435l3.60932,1.96344A31.74365,31.74365,0,0,0,129.32165,70.41182Z"/></clipPath><clipPath id="clip-path-18"><path class="cls-1" d="M93.66255,121.45872l3.60931,1.96344a2.92677,2.92677,0,0,1,1.14119,1.12954,4.23334,4.23334,0,0,1-1.27511,5.28758l-3.60932-1.96343a4.23334,4.23334,0,0,0,1.27511-5.28758A2.92686,2.92686,0,0,0,93.66255,121.45872Z"/></clipPath><clipPath id="clip-path-19"><path class="cls-1" d="M93.54746,130.25946,89.93813,128.296a3.00451,3.00451,0,0,0,1.863.32111,3.71847,3.71847,0,0,0,1.72746-.74129l3.60932,1.96343a3.71847,3.71847,0,0,1-1.72746.74129A3.0044,3.0044,0,0,1,93.54746,130.25946Z"/></clipPath><clipPath id="clip-path-20"><path class="cls-1" d="M115.01756,87.25615l-3.60932-1.96342a2.97018,2.97018,0,0,0,1.8513.31738,4.298,4.298,0,0,0,3.47546-4.22252A3.24457,3.24457,0,0,0,115.12523,78.45l3.60931,1.96344a3.24454,3.24454,0,0,1,1.60977,2.93758,4.298,4.298,0,0,1-3.47546,4.22252A2.97006,2.97006,0,0,1,115.01756,87.25615Z"/></clipPath><clipPath id="clip-path-21"><path class="cls-1" d="M88.42794,141.09862l-3.60932-1.96343A33.59982,33.59982,0,0,1,82.15,135.79351l3.60931,1.96345A33.60037,33.60037,0,0,0,88.42794,141.09862Z"/></clipPath><clipPath id="clip-path-22"><path class="cls-1" d="M119.71315,69.61861l-3.60933-1.96343a34.72,34.72,0,0,1,4.42862.00857l3.60931,1.96343A34.72055,34.72055,0,0,0,119.71315,69.61861Z"/></clipPath><clipPath id="clip-path-23"><path class="cls-1" d="M90.26772,117.40045,86.65839,115.437a2.96367,2.96367,0,0,0,1.8475.31756,4.30749,4.30749,0,0,0,3.47543-4.23114,3.24459,3.24459,0,0,0-1.60977-2.9376l3.60931,1.96344a3.24456,3.24456,0,0,1,1.60977,2.93759,4.30749,4.30749,0,0,1-3.47543,4.23114A2.96352,2.96352,0,0,1,90.26772,117.40045Z"/></clipPath><clipPath id="clip-path-24"><path class="cls-1" d="M102.65887,92.56331l-3.60932-1.96343a3.00441,3.00441,0,0,0,1.863.32112,3.71759,3.71759,0,0,0,1.72746-.74129,4.23329,4.23329,0,0,0,1.27517-5.28759,2.92686,2.92686,0,0,0-1.14118-1.12955L106.3833,85.726a2.92681,2.92681,0,0,1,1.14118,1.12954,4.23329,4.23329,0,0,1-1.27517,5.28759,3.71759,3.71759,0,0,1-1.72746.74129A3.00436,3.00436,0,0,1,102.65887,92.56331Z"/></clipPath><clipPath id="clip-path-25"><path class="cls-1" d="M83.0931,133.19619l-3.60933-1.96343a36.425,36.425,0,0,1-1.83351-4.53963l3.60931,1.96344A36.425,36.425,0,0,0,83.0931,133.19619Z"/></clipPath><clipPath id="clip-path-26"><path class="cls-1" d="M93.5999,103.6016l-3.60933-1.96343q.05856.03184.119.06123a2.992,2.992,0,0,0,1.7256.256,4.1054,4.1054,0,0,0,3.0111-2.296l3.60932,1.96343a4.1054,4.1054,0,0,1-3.0111,2.296,2.992,2.992,0,0,1-1.7256-.256Q93.65845,103.63346,93.5999,103.6016Z"/></clipPath><clipPath id="clip-path-27"><path class="cls-1" d="M93.70961,94.789l3.60931,1.96345a3.61158,3.61158,0,0,1,1.13672,4.87043l-3.60932-1.96343A3.61161,3.61161,0,0,0,93.70961,94.789Z"/></clipPath><clipPath id="clip-path-28"><path class="cls-1" d="M110.09957,71.53157l-3.60933-1.96343A39.498,39.498,0,0,1,110.7449,68.391l3.60931,1.96344A39.49774,39.49774,0,0,0,110.09957,71.53157Z"/></clipPath><clipPath id="clip-path-29"><path class="cls-1" d="M79.90809,123.32329l-3.60932-1.96342a40.63335,40.63335,0,0,1-.552-4.59865l3.60931,1.96345A40.63477,40.63477,0,0,0,79.90809,123.32329Z"/></clipPath><clipPath id="clip-path-30"><path class="cls-1" d="M100.53687,76.24645,96.92755,74.283a41.89319,41.89319,0,0,1,4.3933-2.54491l3.60931,1.96344A41.89225,41.89225,0,0,0,100.53687,76.24645Z"/></clipPath><clipPath id="clip-path-31"><path class="cls-1" d="M79.35064,113.012l-3.60932-1.96342a44.11457,44.11457,0,0,1,.63441-5.2494L79.985,107.7626A44.11673,44.11673,0,0,0,79.35064,113.012Z"/></clipPath><clipPath id="clip-path-32"><path class="cls-1" d="M92.46779,83.08528l-3.60933-1.96342a47.58282,47.58282,0,0,1,3.44979-3.32859l3.60931,1.96345A47.58246,47.58246,0,0,0,92.46779,83.08528Z"/></clipPath><clipPath id="clip-path-33"><path class="cls-1" d="M81.3891,102.05925l-3.60933-1.96343A48.31563,48.31563,0,0,1,79.462,95.503l3.6093,1.96345A48.316,48.316,0,0,0,81.3891,102.05925Z"/></clipPath><clipPath id="clip-path-34"><path class="cls-1" d="M85.732,92.13968l-3.60933-1.96343a48.84191,48.84191,0,0,1,2.94742-4.494l3.60931,1.96344A48.84127,48.84127,0,0,0,85.732,92.13968Z"/></clipPath><clipPath id="clip-path-35"><path class="cls-1" d="M75.04169,68.06587,78.651,70.02931a3.0477,3.0477,0,0,1,.9533,4.11477L75.995,72.18064A3.04772,3.04772,0,0,0,75.04169,68.06587Z"/></clipPath><clipPath id="clip-path-36"><path class="cls-1" d="M75.48485,75.80821l-3.60933-1.96342q.055.02991.11212.0573a2.51473,2.51473,0,0,0,1.46711.22349A3.465,3.465,0,0,0,75.995,72.18064l3.60932,1.96343A3.465,3.465,0,0,1,77.06407,76.089a2.51473,2.51473,0,0,1-1.46711-.22349Q75.53988,75.83816,75.48485,75.80821Z"/></clipPath><clipPath id="clip-path-37"><path class="cls-1" d="M67.36255,77.40443l3.60932,1.96344a2.48116,2.48116,0,0,1,.965.95353,3.602,3.602,0,0,1-1.08144,4.4825l-3.60932-1.96343a3.602,3.602,0,0,0,1.08144-4.4825A2.48125,2.48125,0,0,0,67.36255,77.40443Z"/></clipPath><clipPath id="clip-path-38"><path class="cls-1" d="M67.81668,85.16031l-3.60932-1.96343a2.5422,2.5422,0,0,0,1.57678.27263,3.13875,3.13875,0,0,0,1.462-.629l3.60932,1.96343a3.13875,3.13875,0,0,1-1.462.629A2.54214,2.54214,0,0,1,67.81668,85.16031Z"/></clipPath><clipPath id="clip-path-39"><path class="cls-1" d="M78.316,64.12691,74.7067,62.16348a2.521,2.521,0,0,0,1.57066.27071l3.60932,1.96343A2.5209,2.5209,0,0,1,78.316,64.12691Z"/></clipPath><clipPath id="clip-path-40"><path class="cls-1" d="M77.85285,56.36568l3.6093,1.96344a2.75042,2.75042,0,0,1,1.36223,2.492,3.64121,3.64121,0,0,1-2.93771,3.57646l-3.60932-1.96343a3.64121,3.64121,0,0,0,2.93771-3.57646A2.75046,2.75046,0,0,0,77.85285,56.36568Z"/></clipPath><clipPath id="clip-path-41"><path class="cls-1" d="M57.349,89.66021l-3.60933-1.96342a2.523,2.523,0,0,0,1.57251.26966l3.60932,1.96343A2.52282,2.52282,0,0,1,57.349,89.66021Z"/></clipPath><clipPath id="clip-path-42"><path class="cls-1" d="M56.8891,81.89836l3.60932,1.96345a2.74256,2.74256,0,0,1,1.36079,2.483,3.64367,3.64367,0,0,1-2.93769,3.58509L55.3122,87.96646a3.64367,3.64367,0,0,0,2.93769-3.58509A2.7426,2.7426,0,0,0,56.8891,81.89836Z"/></clipPath><clipPath id="clip-path-43"><path class="cls-1" d="M75.53272,53.22841,71.9234,51.265a2.53911,2.53911,0,0,0,1.57457.27164,3.14208,3.14208,0,0,0,1.46341-.6296,3.57864,3.57864,0,0,0,1.08144-4.48242,2.48156,2.48156,0,0,0-.96512-.95366L78.687,47.43439a2.48147,2.48147,0,0,1,.96513.95365,3.57864,3.57864,0,0,1-1.08144,4.48242,3.14209,3.14209,0,0,1-1.46341.6296A2.539,2.539,0,0,1,75.53272,53.22841Z"/></clipPath><clipPath id="clip-path-44"><path class="cls-1" d="M46.89741,88.10862,43.28809,86.1452q.04675.02541.095.049a2.52774,2.52774,0,0,0,1.46224.21806A3.48033,3.48033,0,0,0,47.39845,84.463l3.60932,1.96343a3.48033,3.48033,0,0,1-2.55316,1.94932,2.52774,2.52774,0,0,1-1.46224-.21806Q46.94415,88.13406,46.89741,88.10862Z"/></clipPath><clipPath id="clip-path-45"><path class="cls-1" d="M46.43816,80.34476l3.60931,1.96344a3.06117,3.06117,0,0,1,.9603,4.11819L47.39845,84.463A3.06118,3.06118,0,0,0,46.43816,80.34476Z"/></clipPath><clipPath id="clip-path-46"><path class="cls-1" d="M53.33442,74.6021,49.7251,72.63867a9.04755,9.04755,0,0,0,5.63777.97227l3.60932,1.96343A9.04751,9.04751,0,0,1,53.33442,74.6021Z"/></clipPath><clipPath id="clip-path-47"><path class="cls-1" d="M61.04631,51.75739l3.60932,1.96344a9.89461,9.89461,0,0,1,4.91154,8.95493c-.01169,6.29419-4.76336,12.079-10.595,12.89863l-3.60932-1.96343c5.83161-.81958,10.58328-6.60444,10.595-12.89863A9.89462,9.89462,0,0,0,61.04631,51.75739Z"/></clipPath><clipPath id="clip-path-48"><path class="cls-1" d="M67.43406,38.28159,71.04338,40.245a3.06951,3.06951,0,0,1,.96027,4.1268l-3.60932-1.96343A3.06951,3.06951,0,0,0,67.43406,38.28159Z"/></clipPath><clipPath id="clip-path-49"><path class="cls-1" d="M67.88487,46.03639,64.27554,44.073q.0547.02974.11141.05695a2.527,2.527,0,0,0,1.46187.2184,3.4746,3.4746,0,0,0,2.54551-1.93992l3.60932,1.96343a3.4746,3.4746,0,0,1-2.54551,1.93992,2.527,2.527,0,0,1-1.46187-.2184Q67.93956,46.06616,67.88487,46.03639Z"/></clipPath><clipPath id="clip-path-50"><path class="cls-1" d="M41.29325,95.26846,37.68391,93.305a26.2168,26.2168,0,0,1-3.20725-2.19425L38.086,93.07422A26.21554,26.21554,0,0,0,41.29325,95.26846Z"/></clipPath><clipPath id="clip-path-51"><path class="cls-1" d="M69.54735,30.213,65.938,28.2496a26.789,26.789,0,0,1,3.6257,1.13276L73.173,31.34581A26.78858,26.78858,0,0,0,69.54735,30.213Z"/></clipPath><clipPath id="clip-path-52"><path class="cls-1" d="M39.24751,80.91311l-3.60932-1.96342A2.52726,2.52726,0,0,0,37.206,79.22a3.15743,3.15743,0,0,0,1.47429-.63687l3.60932,1.96343a3.15743,3.15743,0,0,1-1.47429.63687A2.52716,2.52716,0,0,1,39.24751,80.91311Z"/></clipPath><clipPath id="clip-path-53"><path class="cls-1" d="M38.7904,73.15049l3.60932,1.96345a2.50514,2.50514,0,0,1,.97133.95888,3.588,3.588,0,0,1-1.08143,4.47374L38.6803,78.58313a3.588,3.588,0,0,0,1.08143-4.47374A2.50526,2.50526,0,0,0,38.7904,73.15049Z"/></clipPath><clipPath id="clip-path-54"><path class="cls-1" d="M57.43292,44.48545,53.82359,42.522a2.52289,2.52289,0,0,0,1.57251.26967,3.64365,3.64365,0,0,0,2.93769-3.58505,2.74267,2.74267,0,0,0-1.36083-2.483L60.58228,38.687a2.74265,2.74265,0,0,1,1.36084,2.483,3.64365,3.64365,0,0,1-2.93769,3.58505A2.52283,2.52283,0,0,1,57.43292,44.48545Z"/></clipPath><clipPath id="clip-path-55"><path class="cls-1" d="M34.90423,90.08988l-3.60933-1.96343a29.10688,29.10688,0,0,1-2.25309-2.82966l3.60932,1.96344A29.10472,29.10472,0,0,0,34.90423,90.08988Z"/></clipPath><clipPath id="clip-path-56"><path class="cls-1" d="M61.41213,29.54118l-3.60932-1.96343a29.05559,29.05559,0,0,1,3.7479.00921L65.16,29.55042A29.05437,29.05437,0,0,0,61.41213,29.54118Z"/></clipPath><clipPath id="clip-path-57"><path class="cls-1" d="M36.46712,70.0106l-3.60933-1.96342a2.51149,2.51149,0,0,0,1.56513.26927,3.64255,3.64255,0,0,0,2.94572-3.57758,2.74762,2.74762,0,0,0-1.36146-2.49017l3.60931,1.96344A2.74758,2.74758,0,0,1,40.978,66.7023a3.64255,3.64255,0,0,1-2.94572,3.57758A2.51133,2.51133,0,0,1,36.46712,70.0106Z"/></clipPath><clipPath id="clip-path-58"><path class="cls-1" d="M46.95843,48.98049l-3.60932-1.96343a2.54343,2.54343,0,0,0,1.57749.27168,3.16675,3.16675,0,0,0,1.469-.6303,3.59746,3.59746,0,0,0,1.08144-4.4825,2.48028,2.48028,0,0,0-.96468-.95324l3.60931,1.96344a2.4802,2.4802,0,0,1,.96468.95323,3.59746,3.59746,0,0,1-1.08144,4.4825,3.16675,3.16675,0,0,1-1.469.6303A2.54338,2.54338,0,0,1,46.95843,48.98049Z"/></clipPath><clipPath id="clip-path-59"><path class="cls-1" d="M30.39194,83.39427l-3.60932-1.96343a29.765,29.765,0,0,1-1.55449-3.8441l3.60932,1.96344A29.76451,29.76451,0,0,0,30.39194,83.39427Z"/></clipPath><clipPath id="clip-path-60"><path class="cls-1" d="M39.28665,58.3228l-3.60933-1.96342q.05165.02807.10509.0539a2.52667,2.52667,0,0,0,1.46217.21844,3.49482,3.49482,0,0,0,2.55322-1.941,3.06535,3.06535,0,0,0-.97134-4.12708l3.60932,1.96344a3.06534,3.06534,0,0,1,.97134,4.12708,3.49482,3.49482,0,0,1-2.55322,1.941,2.52667,2.52667,0,0,1-1.46217-.21844Q39.33829,58.3509,39.28665,58.3228Z"/></clipPath><clipPath id="clip-path-61"><path class="cls-1" d="M53.27266,31.16059l-3.60933-1.96342a31.62263,31.62263,0,0,1,3.59759-.9897l3.60931,1.96344A31.6243,31.6243,0,0,0,53.27266,31.16059Z"/></clipPath><clipPath id="clip-path-62"><path class="cls-1" d="M27.69265,75.03494l-3.60932-1.96342a35.83359,35.83359,0,0,1-.46522-3.90212l3.60931,1.96345A35.83441,35.83441,0,0,0,27.69265,75.03494Z"/></clipPath><clipPath id="clip-path-63"><path class="cls-1" d="M45.16882,35.16047l-3.60933-1.96342a33.72781,33.72781,0,0,1,3.71988-2.15641l3.60931,1.96344A33.72956,33.72956,0,0,0,45.16882,35.16047Z"/></clipPath><clipPath id="clip-path-64"><path class="cls-1" d="M27.22037,66.29344,23.611,64.33a37.47418,37.47418,0,0,1,.53683-4.44049L27.75719,61.853A37.47235,37.47235,0,0,0,27.22037,66.29344Z"/></clipPath><clipPath id="clip-path-65"><path class="cls-1" d="M38.335,40.95274,34.72565,38.9893a39.51712,39.51712,0,0,1,2.92027-2.822l3.60932,1.96345A39.5143,39.5143,0,0,0,38.335,40.95274Z"/></clipPath><clipPath id="clip-path-66"><path class="cls-1" d="M28.94337,57.01864,25.334,55.05522q.62836-1.98119,1.43271-3.88351l3.60931,1.96343Q29.56768,55.038,28.94337,57.01864Z"/></clipPath><clipPath id="clip-path-67"><path class="cls-1" d="M32.62682,48.618l-3.60933-1.96343a40.68112,40.68112,0,0,1,2.49764-3.79976l3.60931,1.96344A40.68,40.68,0,0,0,32.62682,48.618Z"/></clipPath></defs><title>ICONS invente18 no bg</title><g class="cls-2"><polygon class="cls-3" points="146.282 140.341 142.672 138.377 138.001 135.551 141.61 137.514 146.282 140.341"/><polygon class="cls-4" points="153.821 112.78 150.211 110.817 155.502 112.346 159.111 114.31 153.821 112.78"/><polygon class="cls-3" points="136.623 149.019 133.014 147.056 129.691 142.7 133.3 144.663 136.623 149.019"/><polygon class="cls-5" points="154.384 102.389 150.775 100.425 156.436 100.745 160.046 102.708 154.384 102.389"/><polygon class="cls-3" points="126.579 154.347 122.97 152.383 120.593 147.289 124.202 149.252 126.579 154.347"/><g class="cls-2"><g class="cls-6"><g class="cls-2"><path class="cls-7" d="M136.34164,124.25134l-3.60932-1.96343q.05237.02849.1063.055l3.60932,1.96343q-.05393-.02653-.1063-.055"/><path class="cls-8" d="M136.44795,124.30636l-3.60932-1.96343.01312.00641a2.89082,2.89082,0,0,0,.52677.19281l3.60932,1.96343a2.89083,2.89083,0,0,1-.52677-.19281l-.01312-.00641"/><path class="cls-9" d="M136.98784,124.50559l-3.60932-1.96343a3.06476,3.06476,0,0,0,1.19888.06318,3.56913,3.56913,0,0,0,1.02207-.309l3.60932,1.96343a3.56913,3.56913,0,0,1-1.02207.309,3.06476,3.06476,0,0,1-1.19888-.06318"/><path class="cls-8" d="M139.20879,124.25981l-3.60932-1.96343a3.9668,3.9668,0,0,0,.56563-.32651l3.60932,1.96343a3.9668,3.9668,0,0,1-.56563.32651"/><path class="cls-7" d="M139.77442,123.9333l-3.60932-1.96343a4.18255,4.18255,0,0,0,.41891-.33148l3.60932,1.96343a4.18253,4.18253,0,0,1-.41891.33148"/><path class="cls-10" d="M140.19333,123.60182l-3.60932-1.96343a4.327,4.327,0,0,0,.3482-.3517l3.60932,1.96343a4.327,4.327,0,0,1-.3482.3517"/><path class="cls-11" d="M140.54153,123.25012l-3.60932-1.96343a4.43839,4.43839,0,0,0,.30686-.38944l3.60932,1.96343a4.43839,4.43839,0,0,1-.30686.38944"/><path class="cls-12" d="M140.84839,122.86068l-3.60932-1.96343a4.54153,4.54153,0,0,0,.28182-.45733l3.60932,1.96343a4.54153,4.54153,0,0,1-.28182.45733"/><path class="cls-13" d="M141.1302,122.40335l-3.60932-1.96343q.03468-.06451.06757-.13062l3.60932,1.96343q-.03287.06611-.06757.13062"/></g></g></g><g class="cls-2"><g class="cls-14"><g class="cls-2"><path class="cls-13" d="M141.19777,122.27273l-3.60932-1.96343a4.55434,4.55434,0,0,0,.20263-.4696l3.60932,1.96343a4.55434,4.55434,0,0,1-.20263.4696"/><path class="cls-15" d="M141.4004,121.80313l-3.60932-1.96343a3.53308,3.53308,0,0,0-1.34006-4.40116l3.60932,1.96343a3.53308,3.53308,0,0,1,1.34006,4.40116"/></g></g></g><polygon class="cls-16" points="152.409 92.138 148.8 90.175 154.441 88.483 158.05 90.447 152.409 92.138"/><g class="cls-2"><g class="cls-17"><g class="cls-2"><path class="cls-7" d="M130.86774,134.85748l-3.60932-1.96343q.137-.10489.26415-.2194l3.60932,1.96343q-.12706.11436-.26415.2194"/><path class="cls-10" d="M131.13188,134.63808l-3.60932-1.96343a4.38353,4.38353,0,0,0,.35308-.35656l3.60932,1.96343a4.38353,4.38353,0,0,1-.35308.35656"/><path class="cls-11" d="M131.485,134.28151l-3.60932-1.96343a4.46785,4.46785,0,0,0,.30956-.393l3.60932,1.96343a4.46789,4.46789,0,0,1-.30956.393"/><path class="cls-12" d="M131.79452,133.88855l-3.60932-1.96343a4.53152,4.53152,0,0,0,.28053-.45529l3.60932,1.96343a4.53152,4.53152,0,0,1-.28053.45529"/><path class="cls-13" d="M132.075,133.43326l-3.60932-1.96343a4.54237,4.54237,0,0,0,.26407-.58764l3.60932,1.96343a4.54237,4.54237,0,0,1-.26407.58764"/><path class="cls-15" d="M132.33912,132.84562l-3.60932-1.96343a3.88989,3.88989,0,0,0-.19627-3.27566,2.92683,2.92683,0,0,0-1.14117-1.12954l3.60932,1.96343a2.92683,2.92683,0,0,1,1.14117,1.12954,3.88989,3.88989,0,0,1,.19627,3.27566"/></g></g></g><g class="cls-2"><g class="cls-18"><g class="cls-2"><path class="cls-7" d="M127.27727,135.27772l-3.60932-1.96343q.05151.028.10406.05385l3.60932,1.96343q-.05254-.02583-.10406-.05385"/><path class="cls-8" d="M127.38132,135.33157l-3.60932-1.96343a2.87906,2.87906,0,0,0,.54809.203l3.60932,1.96343a2.87906,2.87906,0,0,1-.54809-.203"/><path class="cls-9" d="M127.92942,135.53461l-3.60932-1.96343a3.1,3.1,0,0,0,1.21081.06422,3.52965,3.52965,0,0,0,1.01317-.306l3.60932,1.96343a3.52965,3.52965,0,0,1-1.01317.306,3.1,3.1,0,0,1-1.21081-.06422"/><path class="cls-8" d="M130.1534,135.29279l-3.60932-1.96343a3.94762,3.94762,0,0,0,.5626-.3252l3.60932,1.96343a3.94762,3.94762,0,0,1-.5626.3252"/><path class="cls-7" d="M130.716,134.96759l-3.60932-1.96343q.07645-.0529.15174-.11011l3.60932,1.96343q-.07526.05721-.15174.11011"/></g></g></g><g class="cls-2"><g class="cls-19"><g class="cls-2"><path class="cls-7" d="M139.67973,110.45445l-3.60932-1.96343q.05227.02844.1058.05472l3.60932,1.96343q-.05352-.02628-.1058-.05472"/><path class="cls-8" d="M139.78553,110.50917l-3.60932-1.96343a2.861,2.861,0,0,0,.54835.20258l3.60932,1.96343a2.861,2.861,0,0,1-.54835-.20258"/><path class="cls-9" d="M140.33387,110.71174l-3.60932-1.96343a3.0721,3.0721,0,0,0,1.19763.06127l3.60932,1.96343a3.0721,3.0721,0,0,1-1.19763-.06127"/></g></g></g><g class="cls-2"><g class="cls-20"><g class="cls-2"><path class="cls-9" d="M141.53151,110.773l-3.60932-1.96343a3.53477,3.53477,0,0,0,1.01077-.30384l3.60932,1.96343a3.53477,3.53477,0,0,1-1.01077.30384"/><path class="cls-8" d="M142.54227,110.46918l-3.60932-1.96343a3.90622,3.90622,0,0,0,.56109-.32358l3.60932,1.96343a3.90622,3.90622,0,0,1-.56109.32358"/><path class="cls-7" d="M143.10336,110.1456l-3.60932-1.96343a4.1788,4.1788,0,0,0,.41786-.33067l3.60932,1.96343a4.17882,4.17882,0,0,1-.41786.33067"/><path class="cls-10" d="M143.52122,109.81493l-3.60932-1.96343a4.37667,4.37667,0,0,0,.35289-.35643l3.60932,1.96343a4.37667,4.37667,0,0,1-.35289.35643"/><path class="cls-11" d="M143.87411,109.4585l-3.60932-1.96343a4.506,4.506,0,0,0,.31154-.39541l3.60932,1.96343a4.506,4.506,0,0,1-.31154.39541"/><path class="cls-12" d="M144.18564,109.06309l-3.60932-1.96343a4.5621,4.5621,0,0,0,.28252-.45823l3.60932,1.96343a4.5621,4.5621,0,0,1-.28252.45823"/><path class="cls-13" d="M144.46817,108.60486l-3.60932-1.96343a4.53267,4.53267,0,0,0,.26273-.58363l3.60932,1.96343a4.53267,4.53267,0,0,1-.26273.58363"/><path class="cls-15" d="M144.7309,108.02123l-3.60932-1.96343a4.31287,4.31287,0,0,0,.268-1.47824,3.246,3.246,0,0,0-1.6073-2.94015l3.60932,1.96343a3.246,3.246,0,0,1,1.6073,2.94015,4.31287,4.31287,0,0,1-.268,1.47824"/></g></g></g><polygon class="cls-3" points="114.834 157.147 111.224 155.183 110.594 149.386 114.204 151.349 114.834 157.147"/><polygon class="cls-21" points="148.157 83.487 144.548 81.524 149.935 78.701 153.544 80.665 148.157 83.487"/><g class="cls-2"><g class="cls-22"><g class="cls-2"><path class="cls-7" d="M114.92356,140.59286l-3.60932-1.96343q.05206.02832.10537.0545l3.60932,1.96343q-.0533-.02617-.10537-.0545"/><path class="cls-8" d="M115.02893,140.64736l-3.60932-1.96343a2.84848,2.84848,0,0,0,.54592.20167l3.60932,1.96343a2.84847,2.84847,0,0,1-.54592-.20167"/><path class="cls-9" d="M115.57485,140.849l-3.60932-1.96343a3.065,3.065,0,0,0,1.19494.061l3.60932,1.96343a3.065,3.065,0,0,1-1.19494-.061"/></g></g></g><g class="cls-2"><g class="cls-23"><g class="cls-2"><path class="cls-9" d="M116.76978,140.91l-3.60932-1.96343a3.54227,3.54227,0,0,0,1.0129-.30459l3.60932,1.96343a3.54227,3.54227,0,0,1-1.0129.30459"/><path class="cls-8" d="M117.78268,140.60541l-3.60932-1.96343a3.92266,3.92266,0,0,0,.56345-.325l3.60932,1.96343a3.92265,3.92265,0,0,1-.56345.325"/><path class="cls-7" d="M118.34613,140.28044l-3.60932-1.96343a4.19767,4.19767,0,0,0,.41965-.3321l3.60932,1.96343a4.19767,4.19767,0,0,1-.41965.3321"/><path class="cls-10" d="M118.76578,139.94834l-3.60932-1.96343a4.3942,4.3942,0,0,0,.35425-.3578l3.60932,1.96343a4.3942,4.3942,0,0,1-.35425.3578"/><path class="cls-11" d="M119.12,139.59054l-3.60932-1.96343a4.51924,4.51924,0,0,0,.31252-.39665l3.60932,1.96343a4.51924,4.51924,0,0,1-.31252.39665"/><path class="cls-12" d="M119.43254,139.19389l-3.60932-1.96343a4.56854,4.56854,0,0,0,.28278-.45862l3.60932,1.96343a4.56852,4.56852,0,0,1-.28278.45862"/><path class="cls-13" d="M119.71532,138.73528l-3.60932-1.96343a4.53023,4.53023,0,0,0,.26287-.584l3.60932,1.96343a4.53022,4.53022,0,0,1-.26287.584"/><path class="cls-15" d="M119.9782,138.15132l-3.60932-1.96343a4.297,4.297,0,0,0,.26707-1.47242,3.23259,3.23259,0,0,0-1.60469-2.92876l3.60932,1.96343a3.23259,3.23259,0,0,1,1.60469,2.92876,4.297,4.297,0,0,1-.26707,1.47242"/></g></g></g><g class="cls-2"><g class="cls-24"><g class="cls-2"><path class="cls-7" d="M136.38867,97.58157l-3.60932-1.96343q.05152.028.10406.05385l3.60932,1.96343q-.05254-.02583-.10406-.05385"/><path class="cls-8" d="M136.49273,97.63542,132.88341,95.672a2.87913,2.87913,0,0,0,.54811.203l3.60932,1.96343a2.87913,2.87913,0,0,1-.54811-.203"/><path class="cls-9" d="M137.04083,97.83846,133.43151,95.875a3.1,3.1,0,0,0,1.21083.06423,3.52986,3.52986,0,0,0,1.01322-.30606l3.60932,1.96343a3.52986,3.52986,0,0,1-1.01322.30606,3.1,3.1,0,0,1-1.21083-.06423"/><path class="cls-8" d="M139.26488,97.59662l-3.60932-1.96343a3.94765,3.94765,0,0,0,.5626-.3252l3.60932,1.96343a3.94765,3.94765,0,0,1-.5626.3252"/><path class="cls-7" d="M139.82749,97.27142,136.21817,95.308q.0764-.05286.15163-.11.13707-.1049.26419-.21943L140.2433,96.942q-.12708.11438-.26419.21943-.07521.05717-.15163.11"/><path class="cls-10" d="M140.2433,96.942,136.634,94.97853a4.38353,4.38353,0,0,0,.35308-.35656l3.60932,1.96343a4.38353,4.38353,0,0,1-.35308.35656"/><path class="cls-11" d="M140.59638,96.5854,136.98706,94.622a4.46788,4.46788,0,0,0,.30956-.393l3.60932,1.96343a4.46788,4.46788,0,0,1-.30956.393"/><path class="cls-12" d="M140.90594,96.19243,137.29662,94.229a4.5315,4.5315,0,0,0,.28053-.45528l3.60932,1.96343a4.5315,4.5315,0,0,1-.28053.45528"/><path class="cls-13" d="M141.18647,95.73715l-3.60932-1.96343a4.54235,4.54235,0,0,0,.26407-.58764l3.60932,1.96343a4.54233,4.54233,0,0,1-.26407.58764"/><path class="cls-15" d="M141.45054,95.14951l-3.60932-1.96343a3.88982,3.88982,0,0,0-.19631-3.27569,2.92661,2.92661,0,0,0-1.14114-1.12954l3.60932,1.96343a2.92661,2.92661,0,0,1,1.14114,1.12954,3.88982,3.88982,0,0,1,.19631,3.27569"/></g></g></g><polygon class="cls-25" points="103.783 156.513 100.174 154.55 100.97 148.647 104.579 150.61 103.783 156.513"/><polygon class="cls-26" points="141.563 76.358 137.954 74.395 142.391 69.985 146 71.949 141.563 76.358"/><g class="cls-2"><g class="cls-27"><g class="cls-2"><path class="cls-7" d="M102.576,138.75565l-3.60932-1.96343q.05216.02837.10587.0548l3.60932,1.96343q-.05371-.02642-.10587-.0548"/><path class="cls-8" d="M102.68188,138.81045,99.07256,136.847l.01317.00644a2.89044,2.89044,0,0,0,.52693.19289l3.60932,1.96343a2.89044,2.89044,0,0,1-.52693-.19289l-.01317-.00644"/><path class="cls-9" d="M103.222,139.00978l-3.60932-1.96343a3.0642,3.0642,0,0,0,1.19868.06316,3.56914,3.56914,0,0,0,1.02208-.309l3.60932,1.96343a3.56914,3.56914,0,0,1-1.02208.309,3.0642,3.0642,0,0,1-1.19868-.06316"/><path class="cls-8" d="M105.44274,138.764l-3.60932-1.96343a3.96689,3.96689,0,0,0,.56564-.32652l3.60932,1.96343a3.96689,3.96689,0,0,1-.56564.32652"/><path class="cls-7" d="M106.00838,138.43746l-3.60932-1.96343a4.18271,4.18271,0,0,0,.41893-.33149l3.60932,1.96343a4.18272,4.18272,0,0,1-.41893.33149"/><path class="cls-10" d="M106.42731,138.106l-3.60932-1.96343a4.32722,4.32722,0,0,0,.34822-.35172l3.60932,1.96343a4.32722,4.32722,0,0,1-.34822.35172"/><path class="cls-11" d="M106.77553,137.75425l-3.60932-1.96343a4.43873,4.43873,0,0,0,.30688-.38947l3.60932,1.96343a4.43871,4.43871,0,0,1-.30688.38947"/><path class="cls-12" d="M107.08241,137.36478l-3.60932-1.96343a4.542,4.542,0,0,0,.28184-.45737l3.60932,1.96343a4.542,4.542,0,0,1-.28184.45737"/><path class="cls-13" d="M107.36425,136.90741l-3.60932-1.96343q.03465-.06445.06751-.13051l3.60932,1.96343q-.03285.06605-.06751.13051"/></g></g></g><g class="cls-2"><g class="cls-28"><g class="cls-2"><path class="cls-13" d="M107.43176,136.7769l-3.60932-1.96343a4.60264,4.60264,0,0,0,.201-.46705l3.60932,1.96343a4.60264,4.60264,0,0,1-.201.46705"/><path class="cls-15" d="M107.6328,136.30985l-3.60932-1.96343a3.52961,3.52961,0,0,0-1.33809-4.40354l3.60932,1.96343a3.52962,3.52962,0,0,1,1.33809,4.40354"/></g></g></g><g class="cls-2"><g class="cls-29"><g class="cls-2"><path class="cls-7" d="M110.185,122.81143l-3.60932-1.96343q.18832.10245.38115.19713l3.60932,1.96343q-.1928-.09466-.38115-.19713"/><path class="cls-8" d="M110.56615,123.00856l-3.60932-1.96343a10.29968,10.29968,0,0,0,1.97388.72929l3.60932,1.96343a10.29968,10.29968,0,0,1-1.97388-.72929"/><path class="cls-9" d="M112.54,123.73785l-3.60932-1.96343a11.033,11.033,0,0,0,4.3013.22056l3.60932,1.96343a11.033,11.033,0,0,1-4.3013-.22056"/></g></g></g><g class="cls-2"><g class="cls-30"><g class="cls-2"><path class="cls-9" d="M116.84133,123.95842,113.232,121.995a12.71838,12.71838,0,0,0,3.63648-1.09379l3.60932,1.96343a12.71838,12.71838,0,0,1-3.63648,1.09379"/><path class="cls-8" d="M120.47781,122.86462l-3.60932-1.96343a14.11524,14.11524,0,0,0,2.02745-1.16936l3.60932,1.96343a14.11524,14.11524,0,0,1-2.02745,1.16936"/><path class="cls-7" d="M122.50526,121.69526l-3.60932-1.96343a15.12224,15.12224,0,0,0,1.51194-1.19654l3.60932,1.96343a15.12222,15.12222,0,0,1-1.51194,1.19654"/><path class="cls-10" d="M124.0172,120.49873l-3.60932-1.96343a15.83973,15.83973,0,0,0,1.27694-1.28975l3.60932,1.96343a15.83971,15.83971,0,0,1-1.27694,1.28975"/><path class="cls-11" d="M125.29414,119.209l-3.60932-1.96343a16.29283,16.29283,0,0,0,1.12668-1.43l3.60932,1.96343a16.29283,16.29283,0,0,1-1.12668,1.43"/><path class="cls-12" d="M126.42081,117.779l-3.60932-1.96343a16.46546,16.46546,0,0,0,1.0191-1.65274l3.60932,1.96343a16.46546,16.46546,0,0,1-1.0191,1.65274"/><path class="cls-13" d="M127.43992,116.12626l-3.60932-1.96343a16.31356,16.31356,0,0,0,.94686-2.10334l3.60932,1.96343a16.31356,16.31356,0,0,1-.94686,2.10334"/><path class="cls-15" d="M128.38677,114.02292l-3.60932-1.96343a15.43643,15.43643,0,0,0,.9598-5.28875,11.68013,11.68013,0,0,0-5.79891-10.5693l3.60932,1.96343a11.68013,11.68013,0,0,1,5.79891,10.5693,15.43643,15.43643,0,0,1-.9598,5.28875"/></g></g></g><polygon class="cls-31" points="94.132 152.986 90.523 151.022 92.351 145.259 95.96 147.223 94.132 152.986"/><g class="cls-2"><g class="cls-32"><g class="cls-2"><path class="cls-7" d="M127.36546,89.0972l-3.60932-1.96343q.05237.02849.1063.055l3.60932,1.96343q-.05393-.02653-.1063-.055"/><path class="cls-8" d="M127.47176,89.15222l-3.60932-1.96343.01319.00645a2.89046,2.89046,0,0,0,.5268.19283l3.60932,1.96343a2.89046,2.89046,0,0,1-.5268-.19283l-.01319-.00645"/><path class="cls-9" d="M128.01175,89.3515l-3.60932-1.96343a3.06462,3.06462,0,0,0,1.19885.06316,3.56928,3.56928,0,0,0,1.02211-.309l3.60932,1.96343a3.56928,3.56928,0,0,1-1.02211.309,3.06462,3.06462,0,0,1-1.19885-.06316"/><path class="cls-8" d="M130.23271,89.10568l-3.60932-1.96343a3.96708,3.96708,0,0,0,.56566-.32653l3.60932,1.96343a3.96708,3.96708,0,0,1-.56566.32653"/><path class="cls-7" d="M130.79837,88.77915l-3.60932-1.96343a4.18277,4.18277,0,0,0,.41894-.3315l3.60932,1.96343a4.18277,4.18277,0,0,1-.41894.3315"/><path class="cls-10" d="M131.21731,88.44765,127.608,86.48422a4.32709,4.32709,0,0,0,.34821-.35171l3.60932,1.96343a4.32709,4.32709,0,0,1-.34821.35171"/><path class="cls-11" d="M131.56552,88.09595l-3.60932-1.96343a4.43833,4.43833,0,0,0,.30685-.38944l3.60932,1.96343a4.43831,4.43831,0,0,1-.30685.38944"/><path class="cls-12" d="M131.87237,87.70651l-3.60932-1.96343a4.54128,4.54128,0,0,0,.2818-.4573l3.60932,1.96343a4.54126,4.54126,0,0,1-.2818.4573"/><path class="cls-13" d="M132.15418,87.24921l-3.60932-1.96343q.03466-.06447.06752-.13054l3.60932,1.96343q-.03285.06607-.06752.13054"/></g></g></g><g class="cls-2"><g class="cls-33"><g class="cls-2"><path class="cls-13" d="M132.2217,87.11867l-3.60932-1.96343a4.57919,4.57919,0,0,0,.20634-.47725l3.60932,1.96343a4.57921,4.57921,0,0,1-.20634.47725"/><path class="cls-15" d="M132.428,86.64142,128.81872,84.678a3.52183,3.52183,0,0,0-1.34305-4.3932l3.60932,1.96343a3.52183,3.52183,0,0,1,1.34305,4.3932"/></g></g></g><polygon class="cls-34" points="137.265 66.59 133.656 64.627 136.872 66.18 140.482 68.143 137.265 66.59"/><polygon class="cls-7" points="133.604 71.746 129.994 69.783 133.656 64.627 137.265 66.59 133.604 71.746"/><g class="cls-2"><g class="cls-35"><g class="cls-2"><path class="cls-15" d="M95.96043,147.22286l-3.60932-1.96343a32.31113,32.31113,0,0,1-3.78312-2.5973l3.60932,1.96343a32.31113,32.31113,0,0,0,3.78312,2.5973"/></g></g></g><g class="cls-2"><g class="cls-36"><g class="cls-2"><path class="cls-9" d="M129.32165,70.41182l-3.60932-1.96343q.35278.08291.7019.17358l3.60932,1.96343q-.34913-.09064-.7019-.17358"/><path class="cls-8" d="M130.02356,70.5854,126.41424,68.622a31.88445,31.88445,0,0,1,3.5801,1.16078l3.60932,1.96343a31.88445,31.88445,0,0,0-3.5801-1.16078"/></g></g></g><polygon class="cls-3" points="87.709 148.564 84.1 146.601 81.486 144.141 85.095 146.105 87.709 148.564"/><polygon class="cls-37" points="85.095 146.105 81.486 144.141 84.819 139.135 88.428 141.099 85.095 146.105"/><g class="cls-2"><g class="cls-38"><g class="cls-2"><path class="cls-7" d="M97.13794,129.83928l-3.60932-1.96343q.137-.10487.26409-.21936l3.60932,1.96343q-.127.11434-.26409.21936"/><path class="cls-10" d="M97.402,129.61992l-3.60932-1.96343a4.38379,4.38379,0,0,0,.35309-.35658l3.60932,1.96343a4.38377,4.38377,0,0,1-.35309.35658"/><path class="cls-11" d="M97.75512,129.26334l-3.60932-1.96343a4.46811,4.46811,0,0,0,.30957-.393l3.60932,1.96343a4.46811,4.46811,0,0,1-.30957.393"/><path class="cls-12" d="M98.0647,128.87036l-3.60932-1.96343a4.5317,4.5317,0,0,0,.28054-.4553l3.60932,1.96343a4.5317,4.5317,0,0,1-.28054.4553"/><path class="cls-13" d="M98.34524,128.41505l-3.60932-1.96343A4.54251,4.54251,0,0,0,95,125.864l3.60932,1.96343a4.54251,4.54251,0,0,1-.26408.58766"/><path class="cls-15" d="M98.60932,127.82739,95,125.864a3.88991,3.88991,0,0,0-.19627-3.27569,2.92686,2.92686,0,0,0-1.14118-1.12955l3.60932,1.96343a2.92686,2.92686,0,0,1,1.14118,1.12955,3.88991,3.88991,0,0,1,.19627,3.27569"/></g></g></g><g class="cls-2"><g class="cls-39"><g class="cls-2"><path class="cls-7" d="M93.54746,130.25946,89.93814,128.296q.05151.028.10406.05385l3.60932,1.96343q-.05254-.02583-.10406-.05385"/><path class="cls-8" d="M93.65152,130.31332l-3.60932-1.96343a2.87907,2.87907,0,0,0,.54809.203l3.60932,1.96343a2.87907,2.87907,0,0,1-.54809-.203"/><path class="cls-9" d="M94.19961,130.51635l-3.60932-1.96343a3.10015,3.10015,0,0,0,1.21087.06422,3.52969,3.52969,0,0,0,1.01319-.30606l3.60932,1.96343a3.52969,3.52969,0,0,1-1.01319.30606,3.10015,3.10015,0,0,1-1.21087-.06422"/><path class="cls-8" d="M96.42367,130.27452l-3.60932-1.96343a3.94836,3.94836,0,0,0,.5627-.32526l3.60932,1.96343a3.94836,3.94836,0,0,1-.5627.32526"/><path class="cls-7" d="M96.98637,129.94926l-3.60932-1.96343q.07637-.05284.15156-.11l3.60932,1.96343q-.07518.05714-.15156.11"/></g></g></g><g class="cls-2"><g class="cls-40"><g class="cls-2"><path class="cls-7" d="M115.01756,87.25615l-3.60932-1.96343q.052.0283.10528.05445l3.60932,1.96343q-.05326-.02615-.10528-.05445"/><path class="cls-8" d="M115.12284,87.3106l-3.60932-1.96343a2.8512,2.8512,0,0,0,.54658.20189l3.60932,1.96343a2.85121,2.85121,0,0,1-.54658-.20189"/><path class="cls-9" d="M115.66942,87.51249l-3.60932-1.96343a3.077,3.077,0,0,0,1.19943.06106,3.55686,3.55686,0,0,0,1.01723-.30585l3.60932,1.96343a3.55686,3.55686,0,0,1-1.01723.30585,3.077,3.077,0,0,1-1.19943-.06106"/><path class="cls-8" d="M117.88609,87.26769l-3.60932-1.96343a3.92924,3.92924,0,0,0,.56444-.32556l3.60932,1.96343a3.92924,3.92924,0,0,1-.56444.32556"/><path class="cls-7" d="M118.45052,86.94212l-3.60932-1.96343a4.19613,4.19613,0,0,0,.41931-.33185l3.60932,1.96343a4.19613,4.19613,0,0,1-.41931.33185"/><path class="cls-10" d="M118.86983,86.61028l-3.60932-1.96343a4.38508,4.38508,0,0,0,.35346-.357l3.60932,1.96343a4.38509,4.38509,0,0,1-.35346.357"/><path class="cls-11" d="M119.2233,86.25328,115.614,84.28985a4.50389,4.50389,0,0,0,.31152-.39538l3.60932,1.96343a4.50388,4.50388,0,0,1-.31152.39538"/><path class="cls-12" d="M119.53482,85.8579l-3.60932-1.96343a4.54912,4.54912,0,0,0,.28149-.4565l3.60932,1.96343a4.54912,4.54912,0,0,1-.28149.4565"/><path class="cls-13" d="M119.81631,85.4014,116.207,83.438a4.51015,4.51015,0,0,0,.26184-.58168l3.60932,1.96343a4.51015,4.51015,0,0,1-.26184.58168"/><path class="cls-15" d="M120.07815,84.81972l-3.60932-1.96343a4.28613,4.28613,0,0,0,.26617-1.4687A3.24457,3.24457,0,0,0,115.12523,78.45l3.60932,1.96343a3.24457,3.24457,0,0,1,1.60976,2.93759,4.28613,4.28613,0,0,1-.26617,1.4687"/></g></g></g><polygon class="cls-12" points="124.142 69.627 120.532 67.664 122.593 61.799 126.203 63.762 124.142 69.627"/><polygon class="cls-41" points="126.203 63.762 122.593 61.799 126.172 62.333 129.782 64.297 126.203 63.762"/><g class="cls-2"><g class="cls-42"><g class="cls-2"><path class="cls-15" d="M88.42794,141.09862l-3.60932-1.96343A33.59811,33.59811,0,0,1,82.15,135.79351l3.60932,1.96343a33.59811,33.59811,0,0,0,2.66858,3.34167"/></g></g></g><g class="cls-2"><g class="cls-43"><g class="cls-2"><path class="cls-9" d="M119.71315,69.61861l-3.60932-1.96343a34.72072,34.72072,0,0,1,4.42861.00857l3.60932,1.96343a34.72072,34.72072,0,0,0-4.42861-.00857"/></g></g></g><g class="cls-2"><g class="cls-44"><g class="cls-2"><path class="cls-7" d="M90.26772,117.40045,86.6584,115.437q.05215.02837.10555.05459l3.60932,1.96343q-.05339-.02622-.10555-.05459"/><path class="cls-8" d="M90.37327,117.455,86.764,115.49161a2.85223,2.85223,0,0,0,.54665.202l3.60932,1.96343a2.85224,2.85224,0,0,1-.54665-.202"/><path class="cls-9" d="M90.91992,117.657l-3.60932-1.96343a3.06577,3.06577,0,0,0,1.19529.061,3.542,3.542,0,0,0,1.01283-.30457l3.60932,1.96343a3.542,3.542,0,0,1-1.01283.30457,3.06577,3.06577,0,0,1-1.19529-.061"/><path class="cls-8" d="M93.128,117.41345,89.51872,115.45a3.92253,3.92253,0,0,0,.56343-.325l3.60932,1.96343a3.92252,3.92252,0,0,1-.56343.325"/><path class="cls-7" d="M93.69147,117.08849l-3.60932-1.96343a4.19762,4.19762,0,0,0,.41965-.3321l3.60932,1.96343a4.19762,4.19762,0,0,1-.41965.3321"/><path class="cls-10" d="M94.11111,116.75639,90.5018,114.793a4.39424,4.39424,0,0,0,.35425-.3578l3.60932,1.96343a4.39422,4.39422,0,0,1-.35425.3578"/><path class="cls-11" d="M94.46537,116.39859,90.856,114.43515a4.51936,4.51936,0,0,0,.31252-.39666l3.60932,1.96343a4.51936,4.51936,0,0,1-.31252.39666"/><path class="cls-12" d="M94.77789,116.00193l-3.60932-1.96343a4.5687,4.5687,0,0,0,.28279-.45863l3.60932,1.96343a4.5687,4.5687,0,0,1-.28279.45863"/><path class="cls-13" d="M95.06068,115.5433l-3.60932-1.96343a4.53039,4.53039,0,0,0,.26288-.584l3.60932,1.96343a4.53039,4.53039,0,0,1-.26288.584"/><path class="cls-15" d="M95.32356,114.95933l-3.60932-1.96343a4.29713,4.29713,0,0,0,.26707-1.47245,3.24459,3.24459,0,0,0-1.60977-2.9376l3.60932,1.96343a3.24459,3.24459,0,0,1,1.60977,2.9376,4.29713,4.29713,0,0,1-.26707,1.47245"/></g></g></g><polygon class="cls-3" points="80.861 140.727 77.251 138.764 75.4 135.558 79.009 137.521 80.861 140.727"/><polygon class="cls-45" points="79.009 137.521 75.4 135.558 79.484 131.233 83.093 133.196 79.009 137.521"/><g class="cls-2"><g class="cls-46"><g class="cls-2"><path class="cls-7" d="M102.65887,92.56331l-3.60932-1.96343q.05152.028.10406.05385l3.60932,1.96343q-.05254-.02583-.10406-.05385"/><path class="cls-8" d="M102.76293,92.61717l-3.60932-1.96343a2.87913,2.87913,0,0,0,.54811.203l3.60932,1.96343a2.87913,2.87913,0,0,1-.54811-.203"/><path class="cls-9" d="M103.311,92.82021l-3.60932-1.96343a3.1,3.1,0,0,0,1.21083.06423,3.52987,3.52987,0,0,0,1.01325-.30605l3.60932,1.96343a3.52987,3.52987,0,0,1-1.01325.30605,3.1,3.1,0,0,1-1.21083-.06423"/><path class="cls-8" d="M105.53512,92.57838,101.9258,90.615a3.94619,3.94619,0,0,0,.5624-.32509l3.60932,1.96343a3.94619,3.94619,0,0,1-.5624.32509"/><path class="cls-7" d="M106.09752,92.2533l-3.60932-1.96343q.07649-.05292.1518-.11016.13707-.1049.26419-.21943l3.60932,1.96343q-.12708.11438-.26419.21943-.07529.05724-.1518.11016"/><path class="cls-10" d="M106.51351,91.92371l-3.60932-1.96343a4.38354,4.38354,0,0,0,.35308-.35656l3.60932,1.96343a4.38355,4.38355,0,0,1-.35308.35656"/><path class="cls-11" d="M106.86658,91.56715l-3.60932-1.96343a4.46791,4.46791,0,0,0,.30956-.393l3.60932,1.96343a4.46791,4.46791,0,0,1-.30956.393"/><path class="cls-12" d="M107.17615,91.17418l-3.60932-1.96343a4.53154,4.53154,0,0,0,.28053-.45529l3.60932,1.96343a4.53154,4.53154,0,0,1-.28053.45529"/><path class="cls-13" d="M107.45668,90.71889l-3.60932-1.96343a4.54241,4.54241,0,0,0,.26408-.58765l3.60932,1.96343a4.54241,4.54241,0,0,1-.26408.58765"/><path class="cls-15" d="M107.72075,90.13124l-3.60932-1.96343a3.88992,3.88992,0,0,0-.19627-3.27568,2.92686,2.92686,0,0,0-1.14118-1.12955l3.60932,1.96343a2.92686,2.92686,0,0,1,1.14118,1.12955,3.88992,3.88992,0,0,1,.19627,3.27568"/></g></g></g><g class="cls-2"><g class="cls-47"><g class="cls-2"><path class="cls-15" d="M83.0931,133.19619l-3.60932-1.96343a36.4229,36.4229,0,0,1-1.83352-4.53963l3.60932,1.96343a36.42291,36.42291,0,0,0,1.83352,4.53963"/></g></g></g><polygon class="cls-15" points="114.354 70.354 110.745 68.391 111.397 62.387 115.006 64.351 114.354 70.354"/><polygon class="cls-48" points="115.006 64.351 111.397 62.387 115.106 61.866 118.715 63.829 115.006 64.351"/><g class="cls-2"><g class="cls-49"><g class="cls-2"><path class="cls-7" d="M93.5999,103.6016l-3.60932-1.96343q.05215.02837.10586.0548l3.60932,1.96343q-.0537-.02642-.10586-.0548"/><path class="cls-8" d="M93.70576,103.6564,90.09645,101.693l.01317.00644a2.891,2.891,0,0,0,.5268.19282l3.60932,1.96343a2.891,2.891,0,0,1-.5268-.19282l-.01317-.00644"/><path class="cls-9" d="M94.24574,103.85566l-3.60932-1.96343a3.06452,3.06452,0,0,0,1.1988.06318,3.56928,3.56928,0,0,0,1.02211-.309l3.60932,1.96343a3.56928,3.56928,0,0,1-1.02211.309,3.06452,3.06452,0,0,1-1.1988-.06318"/><path class="cls-8" d="M96.46665,103.60986l-3.60932-1.96343a3.96708,3.96708,0,0,0,.56566-.32653l3.60932,1.96343a3.96709,3.96709,0,0,1-.56566.32653"/><path class="cls-7" d="M97.03231,103.28333,93.423,101.31989a4.18275,4.18275,0,0,0,.41894-.3315l3.60932,1.96343a4.18277,4.18277,0,0,1-.41894.3315"/><path class="cls-10" d="M97.45125,102.95183l-3.60932-1.96343a4.32708,4.32708,0,0,0,.34821-.35171l3.60932,1.96343a4.3271,4.3271,0,0,1-.34821.35171"/><path class="cls-11" d="M97.79946,102.60012l-3.60932-1.96343a4.43833,4.43833,0,0,0,.30685-.38944l3.60932,1.96343a4.43834,4.43834,0,0,1-.30685.38944"/><path class="cls-12" d="M98.10631,102.21069,94.497,100.24725a4.54127,4.54127,0,0,0,.2818-.4573l3.60932,1.96343a4.54128,4.54128,0,0,1-.2818.4573"/><path class="cls-13" d="M98.38812,101.75338,94.7788,99.78995q.03466-.06447.06752-.13054l3.60932,1.96343q-.03285.06607-.06752.13054"/></g></g></g><g class="cls-2"><g class="cls-50"><g class="cls-2"><path class="cls-13" d="M98.45564,101.62284l-3.60932-1.96343a4.57949,4.57949,0,0,0,.20633-.47724l3.60932,1.96343a4.57949,4.57949,0,0,1-.20633.47724"/><path class="cls-15" d="M98.662,101.14561l-3.60932-1.96343a3.52181,3.52181,0,0,0-1.343-4.39321l3.60932,1.96343a3.52181,3.52181,0,0,1,1.343,4.39321"/></g></g></g><g class="cls-2"><g class="cls-51"><g class="cls-2"><path class="cls-9" d="M110.09957,71.53157l-3.60932-1.96343A39.49887,39.49887,0,0,1,110.7449,68.391l3.60932,1.96343a39.49887,39.49887,0,0,0-4.25465,1.17712"/></g></g></g><g class="cls-2"><g class="cls-52"><g class="cls-2"><path class="cls-15" d="M79.90809,123.32329l-3.60932-1.96343a40.63194,40.63194,0,0,1-.552-4.59864l3.60932,1.96343a40.63194,40.63194,0,0,0,.552,4.59864"/></g></g></g><polygon class="cls-3" points="75.924 129.873 72.314 127.91 71.36 124.172 74.97 126.135 75.924 129.873"/><polygon class="cls-53" points="74.97 126.135 71.36 124.172 76.299 121.36 79.908 123.323 74.97 126.135"/><g class="cls-2"><g class="cls-54"><g class="cls-2"><path class="cls-8" d="M100.53687,76.24645,96.92755,74.283a41.89318,41.89318,0,0,1,4.3933-2.54491l3.60932,1.96343a41.89318,41.89318,0,0,0-4.3933,2.54491"/></g></g></g><polygon class="cls-55" points="104.501 67.85 100.891 65.886 104.474 64.345 108.083 66.309 104.501 67.85"/><polygon class="cls-56" points="104.93 73.702 101.321 71.738 100.891 65.886 104.501 67.85 104.93 73.702"/><g class="cls-2"><g class="cls-57"><g class="cls-2"><path class="cls-15" d="M79.35064,113.012l-3.60932-1.96343a44.11457,44.11457,0,0,1,.63441-5.24939L79.985,107.7626a44.11457,44.11457,0,0,0-.63441,5.24939"/></g></g></g><g class="cls-2"><g class="cls-58"><g class="cls-2"><path class="cls-10" d="M92.46779,83.08528l-3.60932-1.96343c.91948-.975,1.87248-1.91855,2.8637-2.81093l3.60932,1.96343c-.99122.89239-1.94422,1.83589-2.8637,2.81093"/><path class="cls-7" d="M95.33149,80.27434l-3.60932-1.96343q.29083-.26183.58608-.51764l3.60932,1.96343q-.29527.25574-.58608.51764"/></g></g></g><polygon class="cls-48" points="74.078 114.79 70.469 112.827 75.741 111.049 79.351 113.012 74.078 114.79"/><polygon class="cls-59" points="74.07 118.802 70.461 116.838 70.469 112.827 74.078 114.79 74.07 118.802"/><g class="cls-2"><g class="cls-60"><g class="cls-2"><path class="cls-15" d="M81.3891,102.05925l-3.60932-1.96343q.36927-1.19431.7998-2.36357l3.60932,1.96343q-.43,1.16919-.7998,2.36357"/><path class="cls-13" d="M82.1889,99.69568l-3.60932-1.96343q.41427-1.12645.88245-2.22928l3.60932,1.96343q-.4677,1.10278-.88245,2.22928"/></g></g></g><g class="cls-2"><g class="cls-61"><g class="cls-2"><path class="cls-12" d="M85.732,92.13968l-3.60932-1.96343q1.05755-1.8248,2.26949-3.55162l3.60932,1.96343q-1.20807,1.72209-2.26949,3.55162"/><path class="cls-11" d="M88.0015,88.58806l-3.60932-1.96343q.33374-.47574.67792-.94236l3.60932,1.96343q-.3441.46652-.67792.94236"/></g></g></g><polygon class="cls-3" points="95.918 79.757 92.308 77.793 90.171 72.743 93.781 74.707 95.918 79.757"/><polygon class="cls-62" points="93.781 74.707 90.171 72.743 93.395 70.285 97.005 72.248 93.781 74.707"/><polygon class="cls-53" points="76.12 101.961 72.51 99.998 77.78 100.096 81.389 102.059 76.12 101.961"/><polygon class="cls-13" points="75.151 105.97 71.542 104.006 72.51 99.998 76.12 101.961 75.151 105.97"/><polygon class="cls-3" points="88.679 87.646 85.07 85.682 82.003 81.307 85.612 83.271 88.679 87.646"/><polygon class="cls-63" points="85.612 83.271 82.003 81.307 84.636 78.102 88.245 80.066 85.612 83.271"/><polygon class="cls-3" points="83.071 97.466 79.462 95.503 75.191 92.672 78.8 94.635 83.071 97.466"/><polygon class="cls-64" points="80.665 90.898 77.056 88.935 82.123 90.176 85.732 92.14 80.665 90.898"/><path class="cls-65" d="M160.03829,106.71991l-5.67275,1.50607c-.10695,1.53628-.294,3.058-.545,4.554l5.29069,1.5297-.96046,4.00734-5.71851.30237a48.20355,48.20355,0,0,1-1.74677,4.82656l4.34221,3.39176-1.85681,3.727-5.1943-1.69015q-1.19305,2.04765-2.57,3.96556l3.49965,4.29667-2.62465,3.204L141.61,137.514a46.58725,46.58725,0,0,1-3.65843,3.58266l1.88777,5.474-3.21588,2.44866L133.3,144.66333a42.81128,42.81128,0,0,1-3.92042,2.32286l.79007,5.81851-3.59061,1.54187-2.377-5.09416a37.39989,37.39989,0,0,1-4.64732,1.3274l-1.01225,6.04582-3.70884.52124-.62987-5.79778a33.83167,33.83167,0,0,1-4.46865.00568l-2.365,5.69144-3.58676-.53316.79581-5.903a31.006,31.006,0,0,1-4.00194-1.20088l-3.2369,5.13114-3.20845-1.55446,1.82858-5.763a32.31113,32.31113,0,0,1-3.78312-2.5973l-4.468,3.93843-2.61413-2.4591,3.33272-5.00627a33.59811,33.59811,0,0,1-2.66858-3.34167l-4.89856,2.97033-1.852-3.20581,4.08428-4.32528a36.42291,36.42291,0,0,1-1.83352-4.53963l-5.3358,1.21671-.95406-3.73827,4.93838-2.81171a40.63194,40.63194,0,0,1-.552-4.59864l-5.28569.07727.00745-4.01163,5.27281-1.77829a44.11457,44.11457,0,0,1,.63441-5.24939l-4.83373-1.7928.96845-4.00841,5.26933.09786a48.31371,48.31371,0,0,1,1.68225-4.59285l-4.27118-2.83126,1.86487-3.7368,5.067,1.24134a48.84075,48.84075,0,0,1,2.94741-4.494l-3.0671-4.37483L88.245,80.06576l4.22278,3.01952a47.58372,47.58372,0,0,1,3.44978-3.32858l-2.13685-5.05006,3.22394-2.45842,3.53222,3.99823a41.89318,41.89318,0,0,1,4.3933-2.54491l-.42958-5.85186,3.58262-1.54075,2.01636,5.22264a39.49887,39.49887,0,0,1,4.25465-1.17712l.65179-6.00384,3.70884-.52124.99831,5.78924a34.72072,34.72072,0,0,1,4.42861.00857l2.061-5.86479,3.57871.53429-.45985,6.11514a31.7443,31.7443,0,0,1,4.282,1.33436L137.265,66.59l3.21649,1.55327-2.2453,5.89937a30.51107,30.51107,0,0,1,3.32716,2.31565l4.43682-4.4095,2.62216,2.4666-3.25368,5.53109a33.73465,33.73465,0,0,1,2.78834,3.541l5.38684-2.82288,1.852,3.20575-4.56474,4.3065a34.94681,34.94681,0,0,1,1.57831,3.96166l5.641-1.6917.95406,3.73822-5.19575,3.39249a40.52682,40.52682,0,0,1,.57571,4.81139l5.66131.31939Zm-43.197,17.23851c6.88094-.96705,12.49145-7.7974,12.50525-15.22426s-5.57426-12.68335-12.45521-11.71629-12.49145,7.79745-12.50525,15.22426,5.57426,12.68335,12.45521,11.71629M132.2217,87.11867a3.58475,3.58475,0,0,0-1.25613-4.93189,2.9918,2.9918,0,0,0-1.72565-.256,4.10561,4.10561,0,0,0-3.0111,2.296,3.58468,3.58468,0,0,0,1.25613,4.93183,2.9918,2.9918,0,0,0,1.72566.256,4.1054,4.1054,0,0,0,3.0111-2.296M98.45564,101.62284A3.58474,3.58474,0,0,0,97.19951,96.691a2.99168,2.99168,0,0,0-1.72566-.256,4.10568,4.10568,0,0,0-3.0111,2.296,3.58694,3.58694,0,0,0,1.25618,4.93183,2.992,2.992,0,0,0,1.7256.256,4.1054,4.1054,0,0,0,3.0111-2.296m32.4121,33.23463a4.23325,4.23325,0,0,0,1.27511-5.28752,2.91626,2.91626,0,0,0-3.00419-1.45065,3.71908,3.71908,0,0,0-1.72746.74124,4.2334,4.2334,0,0,0-1.27511,5.28763,2.91624,2.91624,0,0,0,3.00414,1.45066,3.71819,3.71819,0,0,0,1.72751-.74136m5.6549-43.693a4.23338,4.23338,0,0,0-1.27511,5.28763,2.91629,2.91629,0,0,0,3.00414,1.4506,3.71832,3.71832,0,0,0,1.72746-.74129,4.2332,4.2332,0,0,0,1.27511-5.28758,2.91619,2.91619,0,0,0-3.00414-1.45066,3.71847,3.71847,0,0,0-1.72746.74129m-33.72975-5.01826a4.23337,4.23337,0,0,0-1.27517,5.28764,2.91629,2.91629,0,0,0,3.00414,1.4506,3.71759,3.71759,0,0,0,1.72746-.74129,4.23329,4.23329,0,0,0,1.27517-5.28759,2.91624,2.91624,0,0,0-3.00414-1.45066,3.71832,3.71832,0,0,0-1.72746.74129m-5.655,43.69309a4.23334,4.23334,0,0,0,1.27511-5.28758,2.91624,2.91624,0,0,0-3.00414-1.45066,3.71832,3.71832,0,0,0-1.72746.74129,4.23335,4.23335,0,0,0-1.27517,5.28759,2.91626,2.91626,0,0,0,3.00419,1.45065,3.71847,3.71847,0,0,0,1.72746-.74129m44.05983-7.56655a3.59409,3.59409,0,0,0-1.25613-4.93183,2.99168,2.99168,0,0,0-1.72565-.256,4.10559,4.10559,0,0,0-3.011,2.296,3.5847,3.5847,0,0,0,1.25613,4.93183,2.99214,2.99214,0,0,0,1.72566.256,4.10525,4.10525,0,0,0,3.011-2.296m-33.766,14.50417a3.59193,3.59193,0,0,0-1.25618-4.93188,2.99222,2.99222,0,0,0-1.72591-.2559,4.12568,4.12568,0,0,0-3.01878,2.29713,3.59467,3.59467,0,0,0,1.26418,4.93065,2.99154,2.99154,0,0,0,1.7256.25605,4.10541,4.10541,0,0,0,3.0111-2.296M88.65364,114.46181a3.06435,3.06435,0,0,0,3.46157,3.25621,4.30749,4.30749,0,0,0,3.47543-4.23114,3.06035,3.06035,0,0,0-3.46152-3.25616,4.30743,4.30743,0,0,0-3.47548,4.2311m52.87787-3.6888a4.29938,4.29938,0,0,0,3.46743-4.23,3.05515,3.05515,0,0,0-3.45353-3.25729,4.30743,4.30743,0,0,0-3.47548,4.2311,3.06039,3.06039,0,0,0,3.46157,3.25621M116.76978,140.91a4.30743,4.30743,0,0,0,3.47548-4.2311,3.05407,3.05407,0,0,0-3.46159-3.24758,4.28986,4.28986,0,0,0-3.46742,4.22139,3.05516,3.05516,0,0,0,3.45353,3.25729m.113-60.81514a4.29932,4.29932,0,0,0-3.46743,4.23,3.04887,3.04887,0,0,0,3.45354,3.24872,4.298,4.298,0,0,0,3.47546-4.22252,3.06035,3.06035,0,0,0-3.46157-3.25616"/><polygon class="cls-66" points="78.8 94.635 75.191 92.672 77.056 88.935 80.665 90.898 78.8 94.635"/></g><g class="cls-2"><polygon class="cls-67" points="83.908 89.443 80.299 87.48 76.347 85.088 79.957 87.051 83.908 89.443"/><polygon class="cls-68" points="90.294 66.107 86.685 64.144 91.175 65.432 94.785 67.395 90.294 66.107"/><polygon class="cls-67" points="75.726 96.8 72.117 94.836 69.305 91.143 72.914 93.106 75.726 96.8"/><polygon class="cls-69" points="90.775 57.301 87.166 55.337 91.962 55.614 95.572 57.578 90.775 57.301"/><polygon class="cls-67" points="67.229 101.313 63.62 99.349 61.602 95.035 65.211 96.998 67.229 101.313"/><g class="cls-2"><g class="cls-70"><g class="cls-2"><path class="cls-71" d="M79.60431,74.14408,75.995,72.18064a3.864,3.864,0,0,0,.17758-.40957l3.60932,1.96343a3.864,3.864,0,0,1-.17758.40957"/><path class="cls-72" d="M79.78189,73.73451l-3.60932-1.96343a2.97021,2.97021,0,0,0-1.13088-3.70521L78.651,70.0293a2.97021,2.97021,0,0,1,1.13088,3.70521"/></g></g></g><g class="cls-2"><g class="cls-73"><g class="cls-2"><path class="cls-74" d="M75.48485,75.80821l-3.60932-1.96343q.04433.02412.09.04658l3.60932,1.96343q-.04567-.02245-.09-.04658"/><path class="cls-75" d="M75.57485,75.85478l-3.60932-1.96343.02211.01074a2.43815,2.43815,0,0,0,.4601.17029l3.60932,1.96343a2.43815,2.43815,0,0,1-.4601-.17029l-.02211-.01074"/><path class="cls-68" d="M76.05706,76.03581l-3.60932-1.96343a2.57437,2.57437,0,0,0,1.007.0532,2.9937,2.9937,0,0,0,.85721-.25912l3.60932,1.96343a2.9937,2.9937,0,0,1-.85721.25912,2.57437,2.57437,0,0,1-1.007-.0532"/><path class="cls-75" d="M77.92128,75.82989,74.312,73.86645a3.33521,3.33521,0,0,0,.47587-.27472l3.60932,1.96343a3.33521,3.33521,0,0,1-.47587.27472"/><path class="cls-74" d="M78.39715,75.55516l-3.60932-1.96343a3.52766,3.52766,0,0,0,.3531-.27943l3.60932,1.96343a3.52766,3.52766,0,0,1-.3531.27943"/><path class="cls-76" d="M78.75026,75.27574,75.14094,73.3123a3.66133,3.66133,0,0,0,.29473-.2977L79.045,74.978a3.66133,3.66133,0,0,1-.29473.2977"/><path class="cls-77" d="M79.045,74.978,75.43567,73.0146a3.76788,3.76788,0,0,0,.26049-.33063l3.60932,1.96343a3.76788,3.76788,0,0,1-.26049.33063"/><path class="cls-78" d="M79.30548,74.6474,75.69616,72.684a3.86813,3.86813,0,0,0,.24-.38945L79.54545,74.258a3.86813,3.86813,0,0,1-.24.38945"/><path class="cls-71" d="M79.54545,74.258l-3.60932-1.96343q.03023-.05622.05886-.11388l3.60932,1.96343q-.02862.05766-.05886.11388"/></g></g></g><polygon class="cls-79" points="89.102 48.616 85.492 46.652 90.276 45.228 93.885 47.192 89.102 48.616"/><g class="cls-2"><g class="cls-80"><g class="cls-2"><path class="cls-74" d="M70.85544,84.80391l-3.60932-1.96343q.11278-.0867.21758-.18113L71.073,84.62278q-.10478.09431-.21758.18113"/><path class="cls-76" d="M71.073,84.62278,67.4637,82.65934a3.7171,3.7171,0,0,0,.29932-.3023l3.60932,1.96343a3.7171,3.7171,0,0,1-.29932.3023"/><path class="cls-77" d="M71.37234,84.32048,67.763,82.357a3.79408,3.79408,0,0,0,.26284-.33366l3.60932,1.96343a3.79408,3.79408,0,0,1-.26284.33366"/><path class="cls-78" d="M71.63518,83.98682l-3.60932-1.96343a3.85356,3.85356,0,0,0,.23847-.387l3.60932,1.96343a3.85356,3.85356,0,0,1-.23847.387"/><path class="cls-71" d="M71.87365,83.59981l-3.60932-1.96343a3.86777,3.86777,0,0,0,.22489-.5004l3.60932,1.96343a3.86777,3.86777,0,0,1-.22489.5004"/><path class="cls-72" d="M72.09854,83.0994,68.48922,81.136a3.30816,3.30816,0,0,0-.16166-2.778,2.48125,2.48125,0,0,0-.965-.95354l3.60932,1.96343a2.48125,2.48125,0,0,1,.965.95354,3.30816,3.30816,0,0,1,.16166,2.778"/></g></g></g><g class="cls-2"><g class="cls-81"><g class="cls-2"><path class="cls-74" d="M67.81668,85.16031l-3.60932-1.96343q.04384.02385.08853.04582l3.60932,1.96343q-.04469-.022-.08853-.04582"/><path class="cls-75" d="M67.90521,85.20613,64.29589,83.2427a2.44392,2.44392,0,0,0,.46538.17243l3.60932,1.96343a2.44392,2.44392,0,0,1-.46538-.17243"/><path class="cls-68" d="M68.37059,85.37856l-3.60932-1.96343a2.61867,2.61867,0,0,0,1.02285.05438,2.97664,2.97664,0,0,0,.85444-.25812l3.60932,1.96343a2.97664,2.97664,0,0,1-.85444.25812,2.61867,2.61867,0,0,1-1.02285-.05438"/><path class="cls-75" d="M70.24788,85.17482l-3.60932-1.96343a3.33311,3.33311,0,0,0,.47508-.27462L70.723,84.9002a3.33311,3.33311,0,0,1-.47508.27462"/><path class="cls-74" d="M70.723,84.9002l-3.60932-1.96343q.06677-.0462.13248-.09629l3.60932,1.96343q-.06569.0501-.13248.09629"/></g></g></g><g class="cls-2"><g class="cls-82"><g class="cls-2"><path class="cls-74" d="M78.316,64.12691,74.7067,62.16347q.0444.02415.08986.04648l3.60932,1.96343q-.04545-.02232-.08986-.04648"/><path class="cls-75" d="M78.40588,64.17338l-3.60932-1.96343a2.43093,2.43093,0,0,0,.466.17215l3.60932,1.96343a2.43093,2.43093,0,0,1-.466-.17215"/><path class="cls-68" d="M78.87183,64.34554,75.26251,62.3821a2.60338,2.60338,0,0,0,1.01484.05209l3.60932,1.96343a2.60338,2.60338,0,0,1-1.01484-.05209"/></g></g></g><g class="cls-2"><g class="cls-83"><g class="cls-2"><path class="cls-68" d="M79.88668,64.39762l-3.60932-1.96343a2.99363,2.99363,0,0,0,.856-.25742l3.60932,1.96343a2.99363,2.99363,0,0,1-.856.25742"/><path class="cls-75" d="M80.74269,64.14021l-3.60932-1.96343a3.3157,3.3157,0,0,0,.47627-.27469L81.219,63.86552a3.3157,3.3157,0,0,1-.47627.27469"/><path class="cls-74" d="M81.219,63.86552l-3.60932-1.96343a3.54849,3.54849,0,0,0,.35475-.28075l3.60932,1.96343a3.54849,3.54849,0,0,1-.35475.28075"/><path class="cls-76" d="M81.57371,63.58477l-3.60932-1.96343a3.71481,3.71481,0,0,0,.29948-.30248l3.60932,1.96343a3.71481,3.71481,0,0,1-.29948.30248"/><path class="cls-77" d="M81.87318,63.28229l-3.60932-1.96343a3.82058,3.82058,0,0,0,.2642-.33533L82.13738,62.947a3.82058,3.82058,0,0,1-.2642.33533"/><path class="cls-78" d="M82.13738,62.947l-3.60932-1.96343a3.86217,3.86217,0,0,0,.23906-.3877l3.60932,1.96343a3.86217,3.86217,0,0,1-.23906.3877"/><path class="cls-71" d="M82.37644,62.55926l-3.60932-1.96343a3.82955,3.82955,0,0,0,.22222-.49364l3.60932,1.96343a3.82955,3.82955,0,0,1-.22222.49364"/><path class="cls-72" d="M82.59866,62.06562l-3.60932-1.96343a3.6318,3.6318,0,0,0,.22573-1.24446,2.75046,2.75046,0,0,0-1.36222-2.49206l3.60932,1.96343a2.75046,2.75046,0,0,1,1.36222,2.49206,3.6318,3.6318,0,0,1-.22573,1.24446"/></g></g></g><polygon class="cls-67" points="57.27 103.681 53.661 101.717 53.134 96.804 56.743 98.767 57.27 103.681"/><polygon class="cls-84" points="85.495 41.292 81.886 39.328 86.455 36.931 90.065 38.895 85.495 41.292"/><g class="cls-2"><g class="cls-85"><g class="cls-2"><path class="cls-74" d="M57.349,89.66021,53.7397,87.69678q.0442.024.08946.04627l3.60932,1.96343q-.04526-.02222-.08946-.04627"/><path class="cls-75" d="M57.43848,89.70648,53.82916,87.743a2.42247,2.42247,0,0,0,.46439.17153L57.90286,89.878a2.42247,2.42247,0,0,1-.46439-.17153"/><path class="cls-68" d="M57.90286,89.878l-3.60932-1.96343a2.61321,2.61321,0,0,0,1.01865.05188l3.60932,1.96343a2.61321,2.61321,0,0,1-1.01865-.05188"/></g></g></g><g class="cls-2"><g class="cls-86"><g class="cls-2"><path class="cls-68" d="M58.92152,89.92989,55.3122,87.96646a2.99176,2.99176,0,0,0,.85546-.25722L59.777,89.67267a2.99176,2.99176,0,0,1-.85546.25722"/><path class="cls-75" d="M59.777,89.67267l-3.60932-1.96343a3.31135,3.31135,0,0,0,.47564-.27431l3.60932,1.96343a3.31135,3.31135,0,0,1-.47564.27431"/><path class="cls-74" d="M60.25261,89.39836l-3.60932-1.96343a3.54347,3.54347,0,0,0,.35429-.28037L60.6069,89.118a3.54347,3.54347,0,0,1-.35429.28037"/><path class="cls-76" d="M60.6069,89.118l-3.60932-1.96343a3.71071,3.71071,0,0,0,.29917-.30217l3.60932,1.96343a3.71071,3.71071,0,0,1-.29917.30217"/><path class="cls-77" d="M60.90607,88.81581l-3.60932-1.96343a3.81907,3.81907,0,0,0,.26407-.33516l3.60932,1.96343a3.81907,3.81907,0,0,1-.26407.33516"/><path class="cls-78" d="M61.17014,88.48065l-3.60932-1.96343a3.86516,3.86516,0,0,0,.23932-.38815l3.60932,1.96343a3.86517,3.86517,0,0,1-.23932.38815"/><path class="cls-71" d="M61.40946,88.0925l-3.60932-1.96343a3.83942,3.83942,0,0,0,.22262-.49453L61.63208,87.598a3.83942,3.83942,0,0,1-.22262.49453"/><path class="cls-72" d="M61.63208,87.598l-3.60932-1.96343a3.65617,3.65617,0,0,0,.22713-1.25317,2.7426,2.7426,0,0,0-1.36079-2.483l3.60932,1.96343a2.7426,2.7426,0,0,1,1.36079,2.483,3.65617,3.65617,0,0,1-.22713,1.25317"/></g></g></g><g class="cls-2"><g class="cls-87"><g class="cls-2"><path class="cls-74" d="M75.53272,53.22841,71.92341,51.265q.04361.02372.08809.04559L75.62082,53.274q-.04447-.02186-.08809-.04559"/><path class="cls-75" d="M75.62082,53.274,72.0115,51.31056a2.43545,2.43545,0,0,0,.46364.17176l3.60932,1.96343a2.43545,2.43545,0,0,1-.46364-.17176"/><path class="cls-68" d="M76.08446,53.44576l-3.60932-1.96343a2.61862,2.61862,0,0,0,1.02284.0543,2.98014,2.98014,0,0,0,.8554-.25842l3.60932,1.96343a2.98014,2.98014,0,0,1-.8554.25842,2.61862,2.61862,0,0,1-1.02284-.0543"/><path class="cls-75" d="M77.96269,53.24164,74.35338,51.2782a3.336,3.336,0,0,0,.47549-.27485l3.60932,1.96343a3.336,3.336,0,0,1-.47549.27485"/><path class="cls-74" d="M78.43818,52.96678l-3.60932-1.96343q.06679-.04621.13252-.09632.1215-.09223.23377-.19338l3.60932,1.96343q-.11224.101-.23377.19338-.06571.05011-.13252.09632"/><path class="cls-76" d="M78.80448,52.67708l-3.60932-1.96343a3.69006,3.69006,0,0,0,.29736-.30027l3.60932,1.96343a3.69006,3.69006,0,0,1-.29736.30027"/><path class="cls-77" d="M79.10183,52.37681l-3.60932-1.96343a3.76009,3.76009,0,0,0,.26056-.33077L79.3624,52.046a3.76009,3.76009,0,0,1-.26056.33077"/><path class="cls-78" d="M79.3624,52.046,75.75308,50.0826a3.81468,3.81468,0,0,0,.23621-.38338l3.60932,1.96343a3.81468,3.81468,0,0,1-.23621.38338"/><path class="cls-71" d="M79.5986,51.66265l-3.60932-1.96343a3.82772,3.82772,0,0,0,.22248-.49515l3.60932,1.96343a3.82772,3.82772,0,0,1-.22248.49515"/><path class="cls-72" d="M79.82108,51.16751l-3.60932-1.96343a3.30122,3.30122,0,0,0-.16893-2.77946,2.48156,2.48156,0,0,0-.96512-.95366L78.687,47.43438a2.48156,2.48156,0,0,1,.96512.95366,3.30122,3.30122,0,0,1,.16893,2.77946"/></g></g></g><polygon class="cls-88" points="47.918 103.145 44.308 101.182 44.982 96.178 48.592 98.141 47.918 103.145"/><polygon class="cls-89" points="79.917 35.256 76.307 33.292 80.07 29.557 83.68 31.52 79.917 35.256"/><g class="cls-2"><g class="cls-90"><g class="cls-2"><path class="cls-74" d="M46.89741,88.10862l-3.60932-1.96343q.04422.02405.08975.04647l3.60932,1.96343q-.04553-.0224-.08975-.04647"/><path class="cls-75" d="M46.98716,88.15509l-3.60932-1.96343.0052.00255a2.43883,2.43883,0,0,0,.44875.16473l3.60932,1.96343a2.43883,2.43883,0,0,1-.44875-.16473l-.0052-.00255"/><path class="cls-68" d="M47.44111,88.32237l-3.60932-1.96343a2.59113,2.59113,0,0,0,1.01349.05333,3.02241,3.02241,0,0,0,.86546-.26164l3.60932,1.96343a3.02241,3.02241,0,0,1-.86546.26164,2.59113,2.59113,0,0,1-1.01349-.05333"/><path class="cls-75" d="M49.32007,88.11407l-3.60932-1.96343a3.36115,3.36115,0,0,0,.47932-.27669l3.60932,1.96343a3.36115,3.36115,0,0,1-.47932.27669"/><path class="cls-74" d="M49.79939,87.83738l-3.60932-1.96343a3.54524,3.54524,0,0,0,.355-.28094l3.60932,1.96343a3.54525,3.54525,0,0,1-.355.28094"/><path class="cls-76" d="M50.15443,87.55644,46.54511,85.593a3.66913,3.66913,0,0,0,.29529-.29825l3.60932,1.96343a3.66913,3.66913,0,0,1-.29529.29825"/><path class="cls-77" d="M50.44971,87.25819,46.8404,85.29475a3.76541,3.76541,0,0,0,.26033-.3304L50.71,86.92778a3.76541,3.76541,0,0,1-.26033.3304"/><path class="cls-78" d="M50.71,86.92778l-3.60932-1.96343a3.85533,3.85533,0,0,0,.23921-.3882l3.60932,1.96343a3.85533,3.85533,0,0,1-.23921.3882"/><path class="cls-71" d="M50.94926,86.53959l-3.60932-1.96343q.03-.05588.05851-.1132l3.60932,1.96343q-.02845.05731-.05851.1132"/></g></g></g><g class="cls-2"><g class="cls-91"><g class="cls-2"><path class="cls-71" d="M51.00777,86.42639,47.39845,84.463a3.86676,3.86676,0,0,0,.17147-.39755l3.60932,1.96343a3.86675,3.86675,0,0,1-.17147.39755"/><path class="cls-72" d="M51.17924,86.02884l-3.60932-1.96343a2.98578,2.98578,0,0,0-1.13176-3.72065l3.60932,1.96343a2.98578,2.98578,0,0,1,1.13176,3.72065"/></g></g></g><g class="cls-2"><g class="cls-92"><g class="cls-2"><path class="cls-74" d="M53.33442,74.6021l-3.60932-1.96343q.15966.08685.32312.16712l3.60932,1.96343q-.16344-.08025-.32312-.16712"/><path class="cls-75" d="M53.65754,74.76923l-3.60932-1.96343a8.73023,8.73023,0,0,0,1.67307.61817l3.60932,1.96343a8.73023,8.73023,0,0,1-1.67307-.61817"/><path class="cls-68" d="M55.33062,75.3874,51.7213,73.424a9.34081,9.34081,0,0,0,3.64158.187l3.60932,1.96343a9.34081,9.34081,0,0,1-3.64158-.187"/></g></g></g><g class="cls-2"><g class="cls-93"><g class="cls-2"><path class="cls-68" d="M58.97219,75.57438l-3.60932-1.96343a10.78166,10.78166,0,0,0,3.08279-.92719L62.055,74.64719a10.78166,10.78166,0,0,1-3.08279.92719"/><path class="cls-75" d="M62.055,74.64719l-3.60932-1.96343a11.95875,11.95875,0,0,0,1.71772-.99071l3.60932,1.96343a11.95875,11.95875,0,0,1-1.71772.99071"/><path class="cls-74" d="M63.7727,73.65647,60.16338,71.693a12.808,12.808,0,0,0,1.28053-1.0134l3.60932,1.96343a12.808,12.808,0,0,1-1.28053,1.0134"/><path class="cls-76" d="M65.05323,72.64308l-3.60932-1.96343a13.41354,13.41354,0,0,0,1.08135-1.0922l3.60932,1.96343a13.41354,13.41354,0,0,1-1.08135,1.0922"/><path class="cls-77" d="M66.13458,71.55088l-3.60932-1.96343a13.79678,13.79678,0,0,0,.95407-1.21091L67.08865,70.34a13.79678,13.79678,0,0,1-.95407,1.21091"/><path class="cls-78" d="M67.08865,70.34l-3.60932-1.96343a13.94414,13.94414,0,0,0,.86307-1.3997l3.60932,1.96343a13.94414,13.94414,0,0,1-.86307,1.3997"/><path class="cls-71" d="M67.95172,68.94027,64.3424,66.97684a13.81866,13.81866,0,0,0,.802-1.78155l3.60932,1.96343a13.81866,13.81866,0,0,1-.802,1.78155"/><path class="cls-72" d="M68.75371,67.15872l-3.60932-1.96343a13.08412,13.08412,0,0,0,.81345-4.483,9.89462,9.89462,0,0,0-4.91153-8.95493l3.60932,1.96343a9.89462,9.89462,0,0,1,4.91153,8.95493,13.08412,13.08412,0,0,1-.81345,4.483"/></g></g></g><polygon class="cls-94" points="39.739 100.163 36.129 98.2 37.684 93.305 41.293 95.268 39.739 100.163"/><g class="cls-2"><g class="cls-95"><g class="cls-2"><path class="cls-71" d="M72.00365,44.37182l-3.60932-1.96343a3.90788,3.90788,0,0,0,.16962-.3944l3.60932,1.96343a3.90788,3.90788,0,0,1-.16962.3944"/><path class="cls-72" d="M72.17327,43.97742,68.564,42.014a2.993,2.993,0,0,0-1.12989-3.7324L71.04338,40.245a2.993,2.993,0,0,1,1.12989,3.7324"/></g></g></g><g class="cls-2"><g class="cls-96"><g class="cls-2"><path class="cls-74" d="M67.88487,46.03639,64.27555,44.073q.04412.024.08957.04635l3.60932,1.96343q-.04544-.02234-.08957-.04635"/><path class="cls-75" d="M67.97444,46.08275l-3.60932-1.96343.02183.0106a2.44329,2.44329,0,0,0,.44949.165l3.60932,1.96343a2.44329,2.44329,0,0,1-.44949-.165l-.02183-.0106"/><path class="cls-68" d="M68.44577,46.25836l-3.60932-1.96343a2.58812,2.58812,0,0,0,1.01238.05339,3.01469,3.01469,0,0,0,.86332-.261l3.60932,1.96343a3.01469,3.01469,0,0,1-.86332.261,2.58812,2.58812,0,0,1-1.01238-.05339"/><path class="cls-75" d="M70.32146,46.05075l-3.60932-1.96343a3.35438,3.35438,0,0,0,.4783-.27611l3.60932,1.96343a3.35438,3.35438,0,0,1-.4783.27611"/><path class="cls-74" d="M70.79976,45.77464l-3.60932-1.96343a3.54066,3.54066,0,0,0,.35464-.28063L71.15439,45.494a3.54067,3.54067,0,0,1-.35464.28063"/><path class="cls-76" d="M71.15439,45.494l-3.60932-1.96343a3.66652,3.66652,0,0,0,.295-.298L71.44943,45.196a3.66652,3.66652,0,0,1-.295.298"/><path class="cls-77" d="M71.44943,45.196l-3.60932-1.96343a3.76417,3.76417,0,0,0,.26023-.33027l3.60932,1.96343a3.76418,3.76418,0,0,1-.26023.33027"/><path class="cls-78" d="M71.70966,44.86574l-3.60932-1.96343a3.85461,3.85461,0,0,0,.23922-.38821l3.60932,1.96343a3.85462,3.85462,0,0,1-.23922.38821"/><path class="cls-71" d="M71.94888,44.47753,68.33956,42.5141q.02808-.05223.05478-.10571l3.60932,1.96343q-.02669.05348-.05478.10571"/></g></g></g><polygon class="cls-97" points="76.28 26.976 72.671 25.013 75.391 26.333 79.001 28.297 76.28 26.976"/><polygon class="cls-74" points="73.173 31.346 69.564 29.382 72.671 25.013 76.28 26.976 73.173 31.346"/><g class="cls-2"><g class="cls-98"><g class="cls-2"><path class="cls-72" d="M41.29325,95.26846,37.68393,93.305a26.21462,26.21462,0,0,1-3.20727-2.19424L38.086,93.07422a26.21461,26.21461,0,0,0,3.20727,2.19424"/></g></g></g><g class="cls-2"><g class="cls-99"><g class="cls-2"><path class="cls-68" d="M69.54735,30.213,65.938,28.2496q.28959.06825.57733.143L70.12468,30.356q-.2877-.07469-.57733-.143"/><path class="cls-75" d="M70.12468,30.356l-3.60932-1.96343a26.84334,26.84334,0,0,1,3.04836.9898L73.173,31.3458a26.84334,26.84334,0,0,0-3.04836-.9898"/></g></g></g><polygon class="cls-100" points="32.085 94.324 28.476 92.36 31.295 88.126 34.904 90.09 32.085 94.324"/><polygon class="cls-67" points="34.3 96.415 30.691 94.452 28.476 92.36 32.085 94.324 34.3 96.415"/><g class="cls-2"><g class="cls-101"><g class="cls-2"><path class="cls-74" d="M39.24751,80.91311l-3.60932-1.96343q.0434.02361.08766.04537l3.60932,1.96343q-.04425-.02176-.08766-.04537"/><path class="cls-75" d="M39.33517,80.95848,35.72585,78.995a2.42374,2.42374,0,0,0,.46174.17105l3.60932,1.96343a2.42374,2.42374,0,0,1-.46174-.17105"/><path class="cls-68" d="M39.79691,81.12954,36.18759,79.1661A2.60756,2.60756,0,0,0,37.206,79.22a2.98429,2.98429,0,0,0,.85658-.25894l3.60932,1.96343a2.98429,2.98429,0,0,1-.85658.25894,2.60756,2.60756,0,0,1-1.01842-.0539"/><path class="cls-75" d="M41.67191,80.92449l-3.60932-1.96343a3.36082,3.36082,0,0,0,.47906-.277L42.151,80.64752a3.36082,3.36082,0,0,1-.47906.277"/><path class="cls-74" d="M42.151,80.64752l-3.60932-1.96343q.06989-.04836.13866-.101l3.60932,1.96343q-.06875.05261-.13866.101"/></g></g></g><g class="cls-2"><g class="cls-102"><g class="cls-2"><path class="cls-74" d="M42.28962,80.54656,38.6803,78.58313q.11754-.08963.22642-.18774L42.516,80.35883q-.10885.098-.22642.18774"/><path class="cls-76" d="M42.516,80.35883l-3.60932-1.96343a3.68181,3.68181,0,0,0,.29661-.29955l3.60932,1.96343a3.68182,3.68182,0,0,1-.29661.29955"/><path class="cls-77" d="M42.81265,80.05928l-3.60932-1.96343A3.76157,3.76157,0,0,0,39.464,77.765l3.60932,1.96343a3.76157,3.76157,0,0,1-.26062.33087"/><path class="cls-78" d="M43.07328,79.72841,39.464,77.765a3.82509,3.82509,0,0,0,.23676-.38427L43.31,79.34414a3.82509,3.82509,0,0,1-.23676.38427"/><path class="cls-71" d="M43.31,79.34414l-3.60932-1.96343a3.84523,3.84523,0,0,0,.22352-.49745l3.60932,1.96343a3.84523,3.84523,0,0,1-.22352.49745"/><path class="cls-72" d="M43.53356,78.84669l-3.60932-1.96343a3.304,3.304,0,0,0-.16251-2.77387,2.50526,2.50526,0,0,0-.97133-.9589l3.60932,1.96343a2.50527,2.50527,0,0,1,.97133.9589,3.304,3.304,0,0,1,.16251,2.77387"/></g></g></g><g class="cls-2"><g class="cls-103"><g class="cls-2"><path class="cls-74" d="M57.43292,44.48545,53.8236,42.522q.0442.024.08946.04627l3.60932,1.96343q-.04526-.02222-.08946-.04627"/><path class="cls-75" d="M57.52238,44.53172l-3.60932-1.96343a2.42249,2.42249,0,0,0,.46439.17153l3.60932,1.96343a2.42249,2.42249,0,0,1-.46439-.17153"/><path class="cls-68" d="M57.98677,44.70325l-3.60932-1.96343a2.61322,2.61322,0,0,0,1.01866.05188,2.99176,2.99176,0,0,0,.85546-.25722l3.60932,1.96343a2.99176,2.99176,0,0,1-.85546.25722,2.61322,2.61322,0,0,1-1.01866-.05188"/><path class="cls-75" d="M59.86089,44.4979l-3.60932-1.96343a3.31137,3.31137,0,0,0,.47564-.27431l3.60932,1.96343a3.31137,3.31137,0,0,1-.47564.27431"/><path class="cls-74" d="M60.33652,44.22359l-3.60932-1.96343a3.5435,3.5435,0,0,0,.35429-.28037l3.60932,1.96343a3.5435,3.5435,0,0,1-.35429.28037"/><path class="cls-76" d="M60.69081,43.94322l-3.60932-1.96343a3.71073,3.71073,0,0,0,.29917-.30217L60.99,43.641a3.71072,3.71072,0,0,1-.29917.30217"/><path class="cls-77" d="M60.99,43.641l-3.60932-1.96343a3.81908,3.81908,0,0,0,.26407-.33516l3.60932,1.96343A3.81908,3.81908,0,0,1,60.99,43.641"/><path class="cls-78" d="M61.25406,43.30588l-3.60932-1.96343a3.86515,3.86515,0,0,0,.23932-.38815l3.60932,1.96343a3.86515,3.86515,0,0,1-.23932.38815"/><path class="cls-71" d="M61.49338,42.91773l-3.60932-1.96343a3.83938,3.83938,0,0,0,.22262-.49453L61.716,42.4232a3.83937,3.83937,0,0,1-.22262.49453"/><path class="cls-72" d="M61.716,42.4232l-3.60932-1.96343a3.65605,3.65605,0,0,0,.22712-1.25312,2.74267,2.74267,0,0,0-1.36083-2.483L60.58228,38.687a2.74267,2.74267,0,0,1,1.36083,2.483A3.65605,3.65605,0,0,1,61.716,42.4232"/></g></g></g><polygon class="cls-104" points="66.907 24.585 63.298 22.622 66.332 23.069 69.941 25.032 66.907 24.585"/><polygon class="cls-78" points="65.16 29.55 61.551 27.587 63.298 22.622 66.907 24.585 65.16 29.55"/><g class="cls-2"><g class="cls-105"><g class="cls-2"><path class="cls-72" d="M34.90423,90.08988l-3.60932-1.96343a29.10437,29.10437,0,0,1-2.2531-2.82966l3.60932,1.96343a29.10437,29.10437,0,0,0,2.2531,2.82966"/></g></g></g><g class="cls-2"><g class="cls-106"><g class="cls-2"><path class="cls-68" d="M61.41213,29.54118l-3.60932-1.96343a29.05711,29.05711,0,0,1,3.7479.00922L65.16,29.5504a29.0571,29.0571,0,0,0-3.7479-.00922"/></g></g></g><g class="cls-2"><g class="cls-107"><g class="cls-2"><path class="cls-74" d="M36.46712,70.0106,32.8578,68.04717q.04419.024.08943.04626l3.60932,1.96343q-.04524-.02221-.08943-.04626"/><path class="cls-75" d="M36.55656,70.05686l-3.60932-1.96343a2.41836,2.41836,0,0,0,.46351.17124l3.60932,1.96343a2.41836,2.41836,0,0,1-.46351-.17124"/><path class="cls-68" d="M37.02006,70.22809l-3.60932-1.96343a2.59636,2.59636,0,0,0,1.01217.05179,3.016,3.016,0,0,0,.86257-.2593l3.60932,1.96343a3.016,3.016,0,0,1-.86257.2593,2.59636,2.59636,0,0,1-1.01217-.05179"/><path class="cls-75" d="M38.89481,70.02059l-3.60932-1.96343a3.32851,3.32851,0,0,0,.47814-.27577l3.60932,1.96343a3.32851,3.32851,0,0,1-.47814.27577"/><path class="cls-74" d="M39.37295,69.74481l-3.60932-1.96343a3.55463,3.55463,0,0,0,.35526-.28115l3.60932,1.96343a3.55463,3.55463,0,0,1-.35526.28115"/><path class="cls-76" d="M39.7282,69.46366l-3.60932-1.96343a3.71582,3.71582,0,0,0,.29954-.30253l3.60932,1.96343a3.71582,3.71582,0,0,1-.29954.30253"/><path class="cls-77" d="M40.02774,69.16113l-3.60932-1.96343a3.81789,3.81789,0,0,0,.26405-.33513L40.29179,68.826a3.81789,3.81789,0,0,1-.26405.33513"/><path class="cls-78" d="M40.29179,68.826l-3.60932-1.96343a3.85729,3.85729,0,0,0,.23871-.38714l3.60932,1.96343a3.85729,3.85729,0,0,1-.23871.38714"/><path class="cls-71" d="M40.5305,68.43886l-3.60932-1.96343a3.82417,3.82417,0,0,0,.222-.49308l3.60932,1.96343a3.82417,3.82417,0,0,1-.222.49308"/><path class="cls-72" d="M40.75247,67.94578l-3.60932-1.96343a3.629,3.629,0,0,0,.22549-1.24348,2.74762,2.74762,0,0,0-1.36146-2.49017l3.60932,1.96343A2.74762,2.74762,0,0,1,40.978,66.7023a3.629,3.629,0,0,1-.22549,1.24348"/></g></g></g><polygon class="cls-108" points="26.934 87.053 23.324 85.089 26.783 81.431 30.392 83.394 26.934 87.053"/><polygon class="cls-67" points="28.498 89.771 24.889 87.808 23.324 85.089 26.934 87.053 28.498 89.771"/><g class="cls-2"><g class="cls-109"><g class="cls-2"><path class="cls-74" d="M46.95843,48.98049l-3.60932-1.96343q.0436.02372.08808.04558l3.60932,1.96343q-.04447-.02186-.08808-.04558"/><path class="cls-75" d="M47.04651,49.02607l-3.60932-1.96343a2.43609,2.43609,0,0,0,.4637.17178l3.60932,1.96343a2.43609,2.43609,0,0,1-.4637-.17178"/><path class="cls-68" d="M47.5102,49.19785l-3.60932-1.96343a2.62572,2.62572,0,0,0,1.02571.05432,3.00082,3.00082,0,0,0,.86132-.2603l3.60932,1.96343a3.00082,3.00082,0,0,1-.86132.2603,2.62572,2.62572,0,0,1-1.02571-.05432"/><path class="cls-75" d="M49.39723,48.99187l-3.60932-1.96343a3.36945,3.36945,0,0,0,.48016-.27757L49.8774,48.7143a3.36945,3.36945,0,0,1-.48016.27757"/><path class="cls-74" d="M49.8774,48.7143l-3.60932-1.96343q.06421-.04443.12747-.09242.11746-.08958.22627-.18762l3.60932,1.96343q-.10878.09791-.22627.18762-.06324.048-.12747.09242"/><path class="cls-76" d="M50.23114,48.43425l-3.60932-1.96343a3.68082,3.68082,0,0,0,.29653-.29946l3.60932,1.96343a3.68082,3.68082,0,0,1-.29653.29946"/><path class="cls-77" d="M50.52767,48.13479l-3.60932-1.96343a3.75987,3.75987,0,0,0,.26051-.33072l3.60932,1.96343a3.75987,3.75987,0,0,1-.26051.33072"/><path class="cls-78" d="M50.78818,47.80407l-3.60932-1.96343a3.82366,3.82366,0,0,0,.23666-.38411L51.02484,47.42a3.82366,3.82366,0,0,1-.23666.38411"/><path class="cls-71" d="M51.02484,47.42l-3.60932-1.96343a3.84575,3.84575,0,0,0,.22355-.49752l3.60932,1.96343a3.84575,3.84575,0,0,1-.22355.49752"/><path class="cls-72" d="M51.24839,46.92244,47.63907,44.959a3.32357,3.32357,0,0,0-.16208-2.78307,2.48028,2.48028,0,0,0-.96468-.95324l3.60932,1.96343a2.48028,2.48028,0,0,1,.96468.95324,3.32357,3.32357,0,0,1,.16208,2.78307"/></g></g></g><g class="cls-2"><g class="cls-110"><g class="cls-2"><path class="cls-72" d="M30.39194,83.39427l-3.60932-1.96343a29.764,29.764,0,0,1-1.55449-3.84409l3.60932,1.96343a29.764,29.764,0,0,0,1.55449,3.84409"/></g></g></g><polygon class="cls-72" points="56.87 30.171 53.261 28.207 53.807 23.117 57.416 25.081 56.87 30.171"/><polygon class="cls-111" points="57.416 25.081 53.807 23.117 56.955 22.675 60.564 24.638 57.416 25.081"/><g class="cls-2"><g class="cls-112"><g class="cls-2"><path class="cls-74" d="M39.28665,58.3228l-3.60932-1.96343q.04405.024.08942.04628l3.60932,1.96343q-.04537-.02231-.08942-.04628"/><path class="cls-75" d="M39.37607,58.36908l-3.60932-1.96343.01566.00763a2.44226,2.44226,0,0,0,.44962.1651l3.60932,1.96343a2.44226,2.44226,0,0,1-.44962-.1651l-.01566-.00763"/><path class="cls-68" d="M39.84135,58.5418,36.232,56.57837a2.58844,2.58844,0,0,0,1.01255.05334A3.02183,3.02183,0,0,0,38.11,56.37l3.60932,1.96343a3.02183,3.02183,0,0,1-.8654.2617,2.58844,2.58844,0,0,1-1.01255-.05334"/><path class="cls-75" d="M41.7193,58.33344,38.11,56.37a3.37069,3.37069,0,0,0,.48051-.27741L42.19981,58.056a3.37069,3.37069,0,0,1-.48051.27741"/><path class="cls-74" d="M42.19981,58.056,38.59049,56.0926a3.564,3.564,0,0,0,.35708-.28257l3.60932,1.96343a3.564,3.564,0,0,1-.35708.28257"/><path class="cls-76" d="M42.55689,57.77346,38.94757,55.81a3.69558,3.69558,0,0,0,.29729-.3003l3.60932,1.96343a3.69557,3.69557,0,0,1-.29729.3003"/><path class="cls-77" d="M42.85418,57.47316l-3.60932-1.96343a3.79789,3.79789,0,0,0,.26252-.33318L43.11671,57.14a3.79789,3.79789,0,0,1-.26252.33318"/><path class="cls-78" d="M43.11671,57.14l-3.60932-1.96343a3.89225,3.89225,0,0,0,.24162-.39211l3.60932,1.96343a3.89226,3.89226,0,0,1-.24162.39211"/><path class="cls-71" d="M43.35833,56.74787,39.749,54.78444q.02494-.04638.04879-.09374a3.8655,3.8655,0,0,0,.17142-.39742l3.60932,1.96343a3.8655,3.8655,0,0,1-.17142.39742q-.02385.04735-.04879.09374"/><path class="cls-72" d="M43.57853,56.25672l-3.60932-1.96343a2.99138,2.99138,0,0,0-1.14276-3.72967l3.60932,1.96343a2.99138,2.99138,0,0,1,1.14276,3.72967"/></g></g></g><g class="cls-2"><g class="cls-113"><g class="cls-2"><path class="cls-68" d="M53.27266,31.16059l-3.60932-1.96343a31.625,31.625,0,0,1,3.59758-.98969l3.60932,1.96343a31.625,31.625,0,0,0-3.59758.98969"/></g></g></g><g class="cls-2"><g class="cls-114"><g class="cls-2"><path class="cls-72" d="M27.69265,75.03494l-3.60932-1.96343a35.83269,35.83269,0,0,1-.46523-3.90211l3.60932,1.96343a35.83269,35.83269,0,0,0,.46523,3.90211"/></g></g></g><polygon class="cls-115" points="23.508 77.412 19.899 75.449 24.083 73.072 27.693 75.035 23.508 77.412"/><polygon class="cls-67" points="24.319 80.574 20.71 78.611 19.899 75.449 23.508 77.412 24.319 80.574"/><g class="cls-2"><g class="cls-116"><g class="cls-2"><path class="cls-75" d="M45.16882,35.16047,41.5595,33.197a33.72922,33.72922,0,0,1,3.71987-2.1564l3.60932,1.96343a33.72922,33.72922,0,0,0-3.71987,2.1564"/></g></g></g><polygon class="cls-117" points="48.522 28.042 44.912 26.079 47.95 24.779 51.559 26.742 48.522 28.042"/><polygon class="cls-118" points="48.889 33.004 45.279 31.041 44.912 26.079 48.522 28.042 48.889 33.004"/><g class="cls-2"><g class="cls-119"><g class="cls-2"><path class="cls-72" d="M27.22037,66.29344,23.611,64.33a37.47209,37.47209,0,0,1,.53682-4.44047L27.75719,61.853a37.47208,37.47208,0,0,0-.53682,4.44047"/></g></g></g><g class="cls-2"><g class="cls-120"><g class="cls-2"><path class="cls-76" d="M38.335,40.95274,34.72565,38.9893Q35.90049,37.73323,37.165,36.593l3.60932,1.96343Q39.50745,39.697,38.335,40.95274"/><path class="cls-74" d="M40.77432,38.55642,37.165,36.593q.23868-.21488.48091-.42569l3.60932,1.96343q-.24225.21081-.48091.42569"/></g></g></g><polygon class="cls-111" points="22.757 67.802 19.148 65.839 23.611 64.33 27.22 66.293 22.757 67.802"/><polygon class="cls-121" points="22.751 71.2 19.141 69.237 19.148 65.839 22.757 67.802 22.751 71.2"/><g class="cls-2"><g class="cls-122"><g class="cls-2"><path class="cls-72" d="M28.94337,57.01864,25.334,55.05521q.31034-.97848.66261-1.9376L29.606,55.081q-.35276.95918-.66261,1.9376"/><path class="cls-71" d="M29.606,55.081l-3.60932-1.96343q.36149-.98292.7701-1.9459l3.60932,1.96343q-.40914.963-.7701,1.9459"/></g></g></g><g class="cls-2"><g class="cls-123"><g class="cls-2"><path class="cls-78" d="M32.62682,48.618,29.0175,46.65454q.88107-1.52067,1.88637-2.95142l3.60932,1.96343Q33.50971,47.097,32.62682,48.618"/><path class="cls-77" d="M34.51319,45.66656l-3.60932-1.96343q.30044-.42826.61126-.84834l3.60932,1.96343q-.31077.42007-.61126.84834"/></g></g></g><polygon class="cls-67" points="41.255 38.131 37.646 36.167 35.836 31.892 39.445 33.856 41.255 38.131"/><polygon class="cls-124" points="39.445 33.856 35.836 31.892 38.563 29.806 42.172 31.77 39.445 33.856"/><polygon class="cls-115" points="24.483 56.945 20.874 54.982 25.334 55.055 28.943 57.019 24.483 56.945"/><polygon class="cls-71" points="23.668 60.336 20.058 58.372 20.874 54.982 24.483 56.945 23.668 60.336"/><polygon class="cls-67" points="35.124 44.818 31.515 42.855 28.919 39.14 32.529 41.103 35.124 44.818"/><polygon class="cls-125" points="32.529 41.103 28.919 39.14 31.143 36.433 34.752 38.396 32.529 41.103"/><polygon class="cls-67" points="30.376 53.135 26.767 51.172 23.151 48.767 26.761 50.73 30.376 53.135"/><polygon class="cls-126" points="28.336 47.57 24.727 45.607 29.017 46.655 32.627 48.618 28.336 47.57"/><path class="cls-127" d="M95.56537,60.96677,90.758,62.24742a38.72259,38.72259,0,0,1-.46364,3.85976L94.78464,67.395l-.82317,3.40026-4.83752.25634a42.669,42.669,0,0,1-1.48111,4.08919l3.6785,2.86265-1.57551,3.16025L85.3439,79.73376c-.66682,1.1569-1.39768,2.27956-2.16847,3.356L86.13976,86.727l-2.23135,2.71647-3.95168-2.39209a38.85535,38.85535,0,0,1-3.09684,3.02836L78.453,94.72214l-2.72668,2.07741-2.81208-3.69322a36.44487,36.44487,0,0,1-3.31913,1.97042l.67156,4.92757-3.03758,1.3086-2.01809-4.3148a32.09762,32.09762,0,0,1-3.9342,1.12338l-.85837,5.11668-3.1481.44244-.52745-4.91323a29.72641,29.72641,0,0,1-3.788.01377l-2.003,4.81938-3.03431-.45525.674-5.00429a26.92262,26.92262,0,0,1-3.38566-1.01085L42.459,101.475l-2.72039-1.31187,1.55468-4.89463A26.21461,26.21461,0,0,1,38.086,93.07422l-3.78614,3.34128-2.21442-2.09166,2.8188-4.234a29.10437,29.10437,0,0,1-2.2531-2.82966l-4.153,2.51122-1.56459-2.71894,3.4584-3.65823a29.764,29.764,0,0,1-1.55449-3.84409l-4.51858,1.02406-.811-3.162,4.18475-2.37731a35.83269,35.83269,0,0,1-.46523-3.90211l-4.47678.06739.00631-3.39788,4.46342-1.5089a37.47208,37.47208,0,0,1,.53682-4.44047l-4.08944-1.51707.81511-3.39049,4.46051.07324q.62835-1.98117,1.43271-3.8835l-3.61528-2.40486L28.33626,47.57,32.62682,48.618a40.6789,40.6789,0,0,1,2.49763-3.79976l-2.5958-3.715L34.752,38.39645l3.583,2.55629a39.51679,39.51679,0,0,1,2.92027-2.822l-1.81-4.27487,2.7267-2.086,2.99684,3.39062a33.72922,33.72922,0,0,1,3.71987-2.1564l-.36718-4.96167,3.03757-1.29992,1.71357,4.41811a31.625,31.625,0,0,1,3.59758-.98969l.546-5.09,3.1481-.44244.84776,4.90273a29.0571,29.0571,0,0,1,3.7479.00922l1.747-4.96493,3.03436.44656-.39406,5.181A26.79045,26.79045,0,0,1,73.173,31.3458l3.10734-4.36957,2.72037,1.32047-1.89925,4.995a27.70754,27.70754,0,0,1,2.8153,1.964l3.76283-3.73561,2.21447,2.08305L83.1385,38.295a26.72219,26.72219,0,0,1,2.35691,2.9966l4.56919-2.39686,1.56459,2.71894-3.86678,3.64652a29.38084,29.38084,0,0,1,1.33915,3.35568l4.78363-1.42429.803,3.16308-4.40191,2.866a35.22486,35.22486,0,0,1,.48894,4.08023l4.79647.2767ZM58.97219,75.57438c5.83161-.81958,10.58328-6.60444,10.595-12.89863s-4.721-10.74611-10.55257-9.92654c-5.82357.81845-10.58328,6.6044-10.595,12.89863s4.729,10.745,10.55257,9.92654m20.63212-1.4303A3.02239,3.02239,0,0,0,78.53894,69.972a2.51543,2.51543,0,0,0-1.46711-.22345,3.4651,3.4651,0,0,0-2.54023,1.94493,3.02233,3.02233,0,0,0,1.06537,4.172,2.51473,2.51473,0,0,0,1.46711.22349,3.465,3.465,0,0,0,2.54023-1.94493M75.6491,47.79239a3.58312,3.58312,0,0,0-1.08144,4.48242,2.46823,2.46823,0,0,0,2.53963,1.22525,3.14209,3.14209,0,0,0,1.46341-.6296A3.57864,3.57864,0,0,0,79.65215,48.388a2.46813,2.46813,0,0,0-2.53963-1.22525,3.1428,3.1428,0,0,0-1.46341.6296m-24.64134,38.634a3.03673,3.03673,0,0,0-1.06537-4.17211,2.53676,2.53676,0,0,0-1.4727-.22262A3.466,3.466,0,0,0,45.927,83.97686a3.04931,3.04931,0,0,0,1.06535,4.18079,2.52774,2.52774,0,0,0,1.46224.21806,3.48033,3.48033,0,0,0,2.55316-1.94932m-8.71815-5.87983A3.588,3.588,0,0,0,43.371,76.07282,2.47465,2.47465,0,0,0,40.829,74.84217a3.13355,3.13355,0,0,0-1.469.63609A3.58811,3.58811,0,0,0,38.27854,79.952a2.46085,2.46085,0,0,0,2.53679,1.2314,3.15743,3.15743,0,0,0,1.47429-.63687m4.7856-37.00171a3.59737,3.59737,0,0,0-1.08144,4.48242,2.46917,2.46917,0,0,0,2.54213,1.2249,3.16675,3.16675,0,0,0,1.469-.6303,3.59746,3.59746,0,0,0,1.08144-4.4825,2.46915,2.46915,0,0,0-2.54209-1.22491,3.16788,3.16788,0,0,0-1.469.63038m24.92843.827a3.0446,3.0446,0,0,0-1.06535-4.18071,2.52732,2.52732,0,0,0-1.46217-.21844,3.495,3.495,0,0,0-2.55322,1.941,3.04044,3.04044,0,0,0,1.07336,4.17966,2.527,2.527,0,0,0,1.46187.2184,3.4746,3.4746,0,0,0,2.54551-1.93992M38.32638,54.196a3.0446,3.0446,0,0,0,1.06535,4.18071,2.52667,2.52667,0,0,0,1.46217.21844,3.49482,3.49482,0,0,0,2.55322-1.941,3.04258,3.04258,0,0,0-1.07339-4.17958,2.5267,2.5267,0,0,0-1.46183-.21848A3.4747,3.4747,0,0,0,38.32638,54.196M70.85544,84.80391a3.602,3.602,0,0,0,1.08144-4.4825,2.46819,2.46819,0,0,0-2.53967-1.22517,3.14233,3.14233,0,0,0-1.46341.62952,3.58324,3.58324,0,0,0-1.08943,4.47494,2.48112,2.48112,0,0,0,2.54907,1.23224,3.13875,3.13875,0,0,0,1.462-.629m9.03124-20.40628a3.64121,3.64121,0,0,0,2.93771-3.57646,2.58919,2.58919,0,0,0-2.92594-2.761,3.65177,3.65177,0,0,0-2.9457,3.58618,2.59219,2.59219,0,0,0,2.93393,2.75125M35.10632,67.52751a2.587,2.587,0,0,0,2.92592,2.75238A3.64255,3.64255,0,0,0,40.978,66.7023,2.59046,2.59046,0,0,0,38.044,63.94245a3.64362,3.64362,0,0,0-2.93769,3.58505m23.8152,22.40239a3.64367,3.64367,0,0,0,2.93769-3.58509,2.58694,2.58694,0,0,0-2.92592-2.7523A3.64246,3.64246,0,0,0,55.98757,87.17a2.59046,2.59046,0,0,0,2.93395,2.75989m.09568-51.51215a3.64254,3.64254,0,0,0-2.94572,3.57754,2.59045,2.59045,0,0,0,2.93395,2.75985,3.64365,3.64365,0,0,0,2.93769-3.58505,2.587,2.587,0,0,0-2.92592-2.75234"/><polygon class="cls-128" points="26.761 50.73 23.151 48.767 24.727 45.607 28.336 47.57 26.761 50.73"/></g></svg>